<svg width="440" height="221" viewBox="0 0 440 221" fill="none" xmlns="http://www.w3.org/2000/svg">
<path d="M-1 0H439V204H-1V0Z" fill="#E5F0FF"/>
<path d="M247.692 25.5543C247.599 25.5549 247.506 25.5377 247.42 25.5036C247.333 25.4696 247.255 25.4194 247.188 25.3559C247.122 25.2924 247.069 25.217 247.033 25.1339C246.998 25.0507 246.979 24.9616 246.979 24.8715V22.5349C246.979 22.3526 247.054 22.1778 247.188 22.0489C247.322 21.9201 247.503 21.8477 247.692 21.8477C247.881 21.8477 248.063 21.9201 248.196 22.0489C248.33 22.1778 248.405 22.3526 248.405 22.5349V24.8715C248.403 25.0527 248.327 25.2257 248.193 25.3533C248.06 25.481 247.88 25.5532 247.692 25.5543Z" fill="#28E3D7"/>
<path d="M247.631 31.1018C247.442 31.1018 247.261 31.0294 247.127 30.9005C246.993 30.7716 246.918 30.5968 246.918 30.4145V28.0779C246.918 27.8956 246.993 27.7208 247.127 27.5919C247.261 27.463 247.442 27.3906 247.631 27.3906C247.82 27.3906 248.002 27.463 248.136 27.5919C248.269 27.7208 248.344 27.8956 248.344 28.0779V30.4145C248.343 30.5964 248.268 30.7706 248.134 30.8992C248.001 31.0278 247.82 31.1006 247.631 31.1018Z" fill="#28E3D7"/>
<path d="M251.772 27.1831H249.348C249.159 27.1831 248.978 27.1107 248.844 26.9818C248.71 26.8529 248.635 26.6781 248.635 26.4958C248.635 26.3136 248.71 26.1388 248.844 26.0099C248.978 25.881 249.159 25.8086 249.348 25.8086H251.772C251.961 25.8086 252.143 25.881 252.276 26.0099C252.41 26.1388 252.485 26.3136 252.485 26.4958C252.485 26.6781 252.41 26.8529 252.276 26.9818C252.143 27.1107 251.961 27.1831 251.772 27.1831Z" fill="#28E3D7"/>
<path d="M246 27.1245H243.576C243.387 27.1245 243.205 27.0521 243.072 26.9232C242.938 26.7943 242.863 26.6195 242.863 26.4372C242.863 26.255 242.938 26.0802 243.072 25.9513C243.205 25.8224 243.387 25.75 243.576 25.75H246C246.189 25.75 246.37 25.8224 246.504 25.9513C246.638 26.0802 246.713 26.255 246.713 26.4372C246.713 26.6195 246.638 26.7943 246.504 26.9232C246.37 27.0521 246.189 27.1245 246 27.1245Z" fill="#28E3D7"/>
<path d="M204.107 31.0115C204.049 31.0119 203.992 31.0013 203.939 30.9803C203.886 30.9593 203.837 30.9284 203.797 30.8894C203.756 30.8503 203.723 30.8039 203.701 30.7527C203.679 30.7016 203.668 30.6467 203.668 30.5913V29.1534C203.668 29.0412 203.714 28.9336 203.796 28.8543C203.879 28.775 203.99 28.7305 204.107 28.7305C204.223 28.7305 204.335 28.775 204.417 28.8543C204.499 28.9336 204.545 29.0412 204.545 29.1534V30.5913C204.544 30.7028 204.497 30.8092 204.415 30.8878C204.333 30.9664 204.222 31.0108 204.107 31.0115Z" fill="#EE1DB3"/>
<path d="M204.07 34.4205C203.954 34.4205 203.842 34.3759 203.76 34.2966C203.678 34.2173 203.631 34.1097 203.631 33.9976V32.5596C203.631 32.4475 203.678 32.3399 203.76 32.2606C203.842 32.1813 203.954 32.1367 204.07 32.1367C204.186 32.1367 204.298 32.1813 204.38 32.2606C204.463 32.3399 204.509 32.4475 204.509 32.5596V33.9976C204.508 34.1095 204.462 34.2167 204.38 34.2958C204.297 34.375 204.186 34.4198 204.07 34.4205Z" fill="#EE1DB3"/>
<path d="M206.618 32.006H205.126C205.01 32.006 204.898 31.9614 204.816 31.8821C204.733 31.8028 204.687 31.6952 204.687 31.5831C204.687 31.4709 204.733 31.3633 204.816 31.284C204.898 31.2047 205.01 31.1602 205.126 31.1602H206.618C206.734 31.1602 206.846 31.2047 206.928 31.284C207.01 31.3633 207.057 31.4709 207.057 31.5831C207.057 31.6952 207.01 31.8028 206.928 31.8821C206.846 31.9614 206.734 32.006 206.618 32.006Z" fill="#EE1DB3"/>
<path d="M203.065 31.9747H201.573C201.457 31.9747 201.345 31.9302 201.263 31.8509C201.181 31.7716 201.134 31.664 201.134 31.5518C201.134 31.4396 201.181 31.3321 201.263 31.2528C201.345 31.1735 201.457 31.1289 201.573 31.1289H203.065C203.181 31.1289 203.293 31.1735 203.375 31.2528C203.457 31.3321 203.504 31.4396 203.504 31.5518C203.504 31.664 203.457 31.7716 203.375 31.8509C203.293 31.9302 203.181 31.9747 203.065 31.9747Z" fill="#EE1DB3"/>
<path d="M169.766 68.8786C169.687 68.8791 169.609 68.8645 169.536 68.8357C169.463 68.8069 169.396 68.7644 169.34 68.7107C169.284 68.657 169.239 68.5932 169.209 68.5228C169.179 68.4525 169.163 68.377 169.163 68.3008V66.3237C169.163 66.1695 169.227 66.0216 169.34 65.9125C169.453 65.8035 169.606 65.7422 169.766 65.7422C169.926 65.7422 170.08 65.8035 170.193 65.9125C170.306 66.0216 170.37 66.1695 170.37 66.3237V68.3008C170.368 68.4541 170.303 68.6005 170.191 68.7085C170.078 68.8166 169.925 68.8776 169.766 68.8786Z" fill="#7946E0"/>
<path d="M169.716 73.5699C169.556 73.5699 169.402 73.5086 169.289 73.3996C169.176 73.2905 169.112 73.1426 169.112 72.9884V71.0112C169.112 70.857 169.176 70.7091 169.289 70.6C169.402 70.491 169.556 70.4297 169.716 70.4297C169.876 70.4297 170.029 70.491 170.142 70.6C170.256 70.7091 170.319 70.857 170.319 71.0112V72.9884C170.318 73.1423 170.254 73.2896 170.141 73.3985C170.028 73.5073 169.875 73.5689 169.716 73.5699Z" fill="#7946E0"/>
<path d="M173.22 70.2489H171.169C171.009 70.2489 170.856 70.1877 170.742 70.0786C170.629 69.9696 170.566 69.8217 170.566 69.6674C170.566 69.5132 170.629 69.3653 170.742 69.2563C170.856 69.1472 171.009 69.0859 171.169 69.0859H173.22C173.38 69.0859 173.534 69.1472 173.647 69.2563C173.76 69.3653 173.824 69.5132 173.824 69.6674C173.824 69.8217 173.76 69.9696 173.647 70.0786C173.534 70.1877 173.38 70.2489 173.22 70.2489Z" fill="#7946E0"/>
<path d="M168.332 70.206H166.28C166.12 70.206 165.967 70.1447 165.854 70.0357C165.741 69.9266 165.677 69.7787 165.677 69.6245C165.677 69.4702 165.741 69.3223 165.854 69.2133C165.967 69.1042 166.12 69.043 166.28 69.043H168.332C168.492 69.043 168.645 69.1042 168.758 69.2133C168.871 69.3223 168.935 69.4702 168.935 69.6245C168.935 69.7787 168.871 69.9266 168.758 70.0357C168.645 70.1447 168.492 70.206 168.332 70.206Z" fill="#7946E0"/>
<path d="M136.322 72.0997L136.438 71.8536C136.6 71.5089 137.258 71.3154 137.866 71.4302C138.486 71.5203 138.834 71.8865 138.627 72.2246L138.512 72.4708L136.322 72.0997ZM134.174 77.073C134.324 76.753 134.894 76.5466 135.481 76.6057C136.112 76.6712 136.527 76.9946 136.41 77.3456L136.338 77.5982C136.221 77.9493 135.639 78.1803 135.008 78.1148C134.377 78.0493 133.962 77.7259 134.08 77.3748L134.151 77.1223C134.163 77.0976 134.174 77.073 134.174 77.073ZM139.481 67.0893C139.492 67.0646 139.504 67.04 139.515 67.0154L139.675 66.7757C139.926 66.444 140.605 66.3061 141.157 66.439C141.754 66.5784 142.002 66.9563 141.763 67.2634L141.603 67.5031C141.352 67.8349 140.717 67.9791 140.121 67.8398C139.613 67.7133 139.342 67.3846 139.481 67.0893ZM132.83 82.3474C132.969 82.052 133.494 81.8392 134.048 81.8672C134.691 81.9081 135.162 82.2133 135.1 82.5462L135.073 82.8052C135 83.1627 134.451 83.4247 133.853 83.3903C133.254 83.3558 132.739 83.0442 132.801 82.7113L132.828 82.4523C132.839 82.4277 132.807 82.3966 132.83 82.3474ZM143.545 62.2632C143.568 62.214 143.592 62.1648 143.659 62.122L143.863 61.8887C144.146 61.588 144.87 61.4566 145.399 61.6387C145.939 61.7963 146.176 62.1988 145.848 62.493L145.644 62.7263C145.361 63.027 144.637 63.1584 144.108 62.9763C143.656 62.8316 143.418 62.534 143.545 62.2632ZM132.538 87.696C132.665 87.4252 133.091 87.2241 133.612 87.2211C134.234 87.2063 134.761 87.4933 134.787 87.8391L134.804 88.1045C134.831 88.4503 134.315 88.7434 133.694 88.7582C133.072 88.7729 132.545 88.4859 132.519 88.1402L132.501 87.8747C132.48 87.819 132.515 87.7452 132.538 87.696ZM148.493 57.6708C148.528 57.597 148.562 57.5231 148.63 57.4803L148.866 57.2781C149.238 56.9903 149.939 56.9081 150.456 57.1149C150.973 57.3216 151.121 57.7113 150.75 57.9991L150.513 58.2013C150.141 58.4891 149.441 58.5713 148.923 58.3646C148.571 58.2082 148.377 57.917 148.493 57.6708ZM133.201 93.0256C133.316 92.7794 133.686 92.5965 134.175 92.5624C134.808 92.523 135.358 92.7609 135.429 93.113L135.502 93.3603C135.573 93.7125 135.145 94.0185 134.501 94.0825C133.856 94.1465 133.317 93.8841 133.202 93.5255L133.129 93.2782C133.131 93.1733 133.166 93.0994 133.201 93.0256ZM154.277 53.4105C154.323 53.312 154.402 53.2446 154.493 53.1526L154.774 52.9568C155.178 52.7001 155.911 52.6489 156.373 52.8739C156.835 53.0988 156.927 53.5067 156.522 53.7634L156.241 53.9592C155.825 54.2406 155.104 54.2671 154.642 54.0422C154.29 53.8858 154.173 53.632 154.277 53.4105ZM134.841 98.287C134.945 98.0655 135.271 97.8762 135.671 97.8292C136.271 97.7588 136.889 97.9538 137.048 98.3188L137.165 98.5725C137.292 98.9065 136.941 99.25 136.285 99.3386C135.685 99.4091 135.067 99.2141 134.908 98.849L134.791 98.5953C134.793 98.4904 134.795 98.3855 134.841 98.287ZM160.765 49.463C160.811 49.3645 160.914 49.2479 161.093 49.1687L161.418 48.9794C161.867 48.7291 162.621 48.7336 163.015 49.0013C163.465 49.2509 163.457 49.6705 162.976 49.8897L162.662 50.0545C162.213 50.3048 161.503 50.3067 161.053 50.0571C160.79 49.9136 160.661 49.6845 160.765 49.463ZM137.438 103.425C137.53 103.228 137.8 103.057 138.167 102.979C138.791 102.859 139.408 103.054 139.635 103.376L139.764 103.605C139.991 103.928 139.673 104.302 139.049 104.422C138.47 104.548 137.797 104.371 137.581 104.024L137.42 103.764C137.378 103.653 137.38 103.548 137.438 103.425ZM168 45.9396C168.057 45.8165 168.215 45.6817 168.394 45.6025L168.752 45.4443C169.234 45.225 169.965 45.2788 170.359 45.5465C170.753 45.8142 170.657 46.2209 170.175 46.4402L169.817 46.5985C169.336 46.8177 168.605 46.764 168.211 46.4963C167.959 46.3281 167.907 46.1365 168 45.9396ZM140.97 108.383C141.051 108.21 141.264 108.057 141.588 107.973C142.179 107.822 142.819 107.968 143.09 108.297L143.263 108.532C143.534 108.861 143.272 109.217 142.726 109.374C142.135 109.525 141.494 109.379 141.211 109.075L141.039 108.84C140.887 108.66 140.9 108.53 140.97 108.383ZM175.792 42.8392C175.861 42.6915 176.019 42.5567 176.298 42.4658L176.689 42.3385C177.203 42.1503 177.922 42.2287 178.249 42.5392C178.587 42.8251 178.447 43.2254 177.888 43.4072L177.498 43.5344C176.984 43.7226 176.264 43.6443 175.937 43.3337C175.762 43.2031 175.711 43.0115 175.792 42.8392ZM145.36 113.124C145.429 112.976 145.599 112.817 145.878 112.726C146.436 112.544 147.144 112.647 147.427 112.951L147.656 113.168C147.982 113.479 147.797 113.873 147.251 114.03C146.692 114.212 145.984 114.109 145.702 113.805L145.473 113.587C145.342 113.463 145.279 113.296 145.36 113.124ZM184.162 40.2174C184.243 40.0451 184.457 39.8921 184.78 39.8077L185.215 39.6869C185.762 39.5297 186.458 39.6573 186.741 39.9614C187.023 40.2655 186.794 40.6529 186.247 40.81L185.857 40.9373C185.31 41.0944 184.614 40.9668 184.331 40.6627C184.112 40.5257 184.093 40.3651 184.162 40.2174ZM150.632 117.599C150.701 117.451 150.848 117.341 151.082 117.243C151.608 117.031 152.283 117.103 152.678 117.37L152.962 117.57C153.345 117.862 153.215 118.238 152.734 118.457C152.209 118.67 151.533 118.598 151.139 118.33L150.855 118.131C150.591 117.987 150.551 117.771 150.632 117.599ZM192.967 38.0796C193.06 37.8827 193.329 37.7115 193.685 37.6581L194.109 37.5619C194.688 37.4358 195.361 37.6126 195.588 37.9349C195.815 38.2572 195.497 38.6317 194.918 38.7578L194.494 38.854C193.915 38.9801 193.242 38.8033 193.015 38.481C192.896 38.3322 192.91 38.2027 192.967 38.0796ZM156.72 121.745C156.778 121.622 156.868 121.53 157.059 121.426C157.552 121.183 158.25 121.205 158.689 121.479L158.985 121.654C159.423 121.928 159.382 122.317 158.89 122.561C158.397 122.804 157.698 122.782 157.26 122.508L156.931 122.302C156.712 122.165 156.627 121.942 156.72 121.745ZM202.107 36.4375C202.211 36.216 202.525 36.0512 202.937 35.9796L203.393 35.9145C204.005 35.8195 204.622 36.0145 204.781 36.3795C204.952 36.72 204.602 37.0634 203.946 37.152L203.49 37.2172C202.878 37.3122 202.26 37.1172 202.089 36.7768C202.058 36.6408 202.061 36.5359 202.107 36.4375ZM163.503 125.52C163.549 125.421 163.64 125.329 163.763 125.268C164.167 125.011 164.889 124.985 165.395 125.216L165.735 125.397C166.197 125.622 166.244 126.024 165.829 126.305C165.424 126.562 164.703 126.588 164.197 126.357L163.856 126.176C163.516 125.995 163.399 125.741 163.503 125.52ZM211.469 35.3274C211.585 35.0813 211.954 34.8984 212.399 34.8578L212.843 34.8173C213.488 34.7533 214.038 34.9911 214.153 35.3497C214.268 35.7084 213.841 36.0143 213.196 36.0783L212.752 36.1189C212.107 36.1829 211.557 35.9451 211.442 35.5864C211.444 35.4816 211.434 35.4013 211.469 35.3274ZM170.96 128.866C170.994 128.792 171.073 128.725 171.152 128.657C171.524 128.369 172.257 128.318 172.73 128.519L173.082 128.675C173.6 128.882 173.703 129.265 173.332 129.553C172.96 129.841 172.271 129.898 171.754 129.691L171.402 129.535C170.994 129.397 170.844 129.112 170.96 128.866ZM221.01 34.743C221.137 34.4722 221.551 34.2957 222.039 34.2617L222.517 34.2522C223.138 34.2374 223.677 34.4998 223.703 34.8456C223.73 35.1913 223.258 35.4909 222.637 35.5056L222.204 35.5215C221.582 35.5363 221.044 35.2739 221.017 34.9282C220.996 34.8725 220.975 34.8168 221.01 34.743ZM178.99 131.796C179.014 131.747 179.037 131.698 179.116 131.63C179.443 131.336 180.111 131.223 180.684 131.411L181.092 131.549C181.621 131.732 181.824 132.103 181.53 132.428C181.202 132.723 180.535 132.836 179.95 132.672L179.542 132.534C179.057 132.358 178.863 132.067 178.99 131.796ZM230.617 34.7205C230.756 34.4251 231.225 34.2305 231.78 34.2585L232.245 34.2736C232.899 34.2899 233.371 34.5951 233.353 34.9344C233.324 35.2983 232.775 35.5604 232.165 35.5506L231.7 35.5354C231.045 35.5192 230.574 35.2139 230.592 34.8746C230.571 34.819 230.594 34.7697 230.617 34.7205ZM187.53 134.248C187.541 134.223 187.564 134.174 187.576 134.149C187.826 133.818 188.506 133.68 189.09 133.844L189.51 133.957C190.106 134.097 190.354 134.475 190.104 134.806C189.853 135.138 189.174 135.276 188.577 135.137L188.158 135.023C187.662 134.872 187.391 134.543 187.53 134.248ZM240.158 35.2407C240.309 34.9207 240.867 34.7389 241.421 34.7669L241.875 34.8067C242.506 34.8722 242.922 35.1956 242.815 35.522C242.698 35.8731 242.116 36.1041 241.53 36.045L241.076 36.0052C240.444 35.9397 240.018 35.641 240.091 35.2835C240.135 35.2899 240.147 35.2653 240.158 35.2407ZM196.444 136.202C196.456 136.178 196.456 136.178 196.467 136.153C196.674 135.815 197.32 135.646 197.928 135.761L198.359 135.85C198.967 135.964 199.271 136.324 199.065 136.662C198.858 137 198.212 137.169 197.604 137.055L197.173 136.966C196.609 136.857 196.294 136.522 196.444 136.202ZM249.578 36.3217C249.74 35.9771 250.354 35.7772 250.974 35.8673L251.239 35.9059L251.46 35.9381C252.08 36.0282 252.439 36.3698 252.277 36.7144C252.115 37.059 251.501 37.2589 250.882 37.1688L250.705 37.1431L250.484 37.1109C249.776 37.0079 249.416 36.6663 249.578 36.3217ZM205.691 137.652C205.841 137.332 206.466 137.108 207.042 137.192L207.484 137.256C208.115 137.321 208.475 137.663 208.357 138.014C208.195 138.359 207.625 138.565 206.994 138.5L206.552 138.435C205.932 138.345 205.573 138.003 205.691 137.652ZM258.755 37.9196C258.767 37.895 258.778 37.8704 258.79 37.8458C258.996 37.5076 259.687 37.3452 260.239 37.4781L260.67 37.5671C261.278 37.6818 261.57 38.0662 261.331 38.3733C261.125 38.7114 260.434 38.8739 259.882 38.741L259.451 38.652C258.876 38.5683 258.605 38.2396 258.755 37.9196ZM215.147 138.555C215.286 138.259 215.811 138.047 216.41 138.081L216.864 138.121C217.506 138.162 217.922 138.485 217.86 138.818C217.786 139.175 217.205 139.406 216.607 139.372L216.153 139.332C215.51 139.291 215.095 138.968 215.157 138.635C215.124 138.604 215.135 138.579 215.147 138.555ZM267.545 40.0398C267.568 39.9906 267.579 39.9659 267.647 39.9232C267.941 39.5979 268.609 39.4846 269.161 39.6175L269.581 39.7311C270.165 39.8951 270.369 40.2666 270.074 40.5919C269.78 40.9172 269.112 41.0304 268.527 40.8664L268.108 40.7528C267.644 40.6328 267.417 40.3106 267.545 40.0398ZM224.725 138.896C224.852 138.625 225.322 138.431 225.844 138.428L226.309 138.443C226.919 138.453 227.446 138.74 227.428 139.079C227.411 139.418 226.895 139.711 226.285 139.702L225.819 139.686C225.209 139.677 224.682 139.39 224.7 139.05C224.723 139.001 224.702 138.945 224.725 138.896ZM275.926 42.6265C275.949 42.5773 275.984 42.5034 276.051 42.4606C276.378 42.1664 277.09 42.0596 277.608 42.2663L278.016 42.4045C278.545 42.5867 278.692 42.9763 278.365 43.2706C278.038 43.5648 277.337 43.647 276.808 43.4649L276.445 43.3331C275.993 43.1884 275.798 42.8972 275.926 42.6265ZM283.798 45.6915C283.833 45.6176 283.924 45.5256 284.003 45.4582C284.374 45.1704 285.107 45.1192 285.613 45.3506L285.965 45.507C286.471 45.7384 286.53 46.1152 286.159 46.403C285.743 46.6844 285.066 46.7173 284.548 46.5106L284.196 46.3542C283.844 46.1978 283.683 45.9376 283.798 45.6915ZM291.086 49.1972C291.132 49.0988 291.223 49.0068 291.357 48.9212C291.806 48.6709 292.516 48.669 292.978 48.8939L293.318 49.0749C293.768 49.3244 293.772 49.7194 293.367 49.9762C292.919 50.2265 292.209 50.2284 291.747 50.0035L291.407 49.8225C291.066 49.6414 290.993 49.3942 291.086 49.1972ZM297.678 53.0753C297.736 52.9522 297.838 52.8356 298.061 52.7629C298.543 52.5436 299.285 52.5727 299.68 52.8405L299.964 53.0397C300.358 53.3074 300.306 53.7205 299.825 53.9398C299.344 54.1591 298.601 54.1299 298.207 53.8622L297.922 53.663C297.626 53.4884 297.586 53.2722 297.678 53.0753ZM303.487 57.3127C303.557 57.165 303.715 57.0302 303.938 56.9575C304.452 56.7693 305.183 56.823 305.51 57.1336L305.783 57.3574C306.121 57.6433 305.98 58.0435 305.466 58.2317C304.952 58.42 304.233 58.3416 303.894 58.0557L303.621 57.8319C303.458 57.6766 303.406 57.485 303.487 57.3127ZM308.48 61.8785C308.561 61.7062 308.763 61.5778 309.042 61.4869C309.589 61.3297 310.297 61.4327 310.579 61.7368L310.808 61.9542C311.091 62.2582 310.906 62.6521 310.359 62.8092C309.812 62.9664 309.104 62.8634 308.822 62.5593L308.593 62.342C308.474 62.1931 308.411 62.0262 308.48 61.8785ZM312.647 66.6923C312.74 66.4954 312.953 66.3424 313.321 66.2643C313.9 66.1382 314.585 66.2905 314.812 66.6127L314.985 66.8483C315.212 67.1705 314.938 67.5515 314.359 67.6776C313.779 67.8037 313.094 67.6515 312.868 67.3292L312.695 67.0937C312.608 66.9759 312.578 66.84 312.647 66.6923ZM315.856 71.7348C315.948 71.5379 316.229 71.3421 316.63 71.2951C317.242 71.2001 317.871 71.3705 318.042 71.7109L318.159 71.9646C318.33 72.3051 317.979 72.6486 317.411 72.7501C316.844 72.8516 316.182 72.6501 315.999 72.3343L315.871 72.1052C315.84 71.9692 315.809 71.8333 315.856 71.7348Z" fill="url(#paint0_linear_5442_50669)"/>
<path d="M322.473 88.2827L322.473 88.5372C322.473 88.8934 321.924 89.1732 321.283 89.1478C320.643 89.1478 320.14 88.8425 320.186 88.4863L320.186 88.2319L322.473 88.2827ZM322.29 83.1688C322.29 83.4996 321.832 83.7795 321.238 83.8049C320.597 83.8303 320.049 83.5759 320.003 83.2197L319.957 82.9653C319.911 82.6091 320.369 82.3038 321.009 82.2784C321.649 82.2529 322.198 82.5073 322.244 82.8635L322.29 83.118C322.29 83.1434 322.29 83.1688 322.29 83.1688ZM321.695 93.5747C321.695 93.6002 321.695 93.6256 321.695 93.6511L321.649 93.9055C321.558 94.2617 320.963 94.4907 320.369 94.4398C319.728 94.3889 319.317 94.0581 319.408 93.7274L319.454 93.473C319.545 93.1168 320.094 92.8878 320.735 92.9387C321.283 92.9896 321.695 93.2694 321.695 93.5747ZM321.192 77.8768C321.192 78.1821 320.78 78.462 320.231 78.5129C319.591 78.5638 318.997 78.3348 318.905 78.004L318.814 77.7496C318.722 77.3934 319.134 77.0627 319.728 77.0118C320.323 76.9609 320.963 77.1899 321.055 77.5206L321.146 77.7751C321.146 77.8005 321.192 77.826 321.192 77.8768ZM319.957 98.8159C319.957 98.8667 319.957 98.9176 319.911 98.9685L319.82 99.2229C319.683 99.5537 319.042 99.7827 318.448 99.6809C317.853 99.6046 317.441 99.2484 317.624 98.9176L317.716 98.6632C317.853 98.3324 318.493 98.1035 319.088 98.2052C319.591 98.2816 319.957 98.536 319.957 98.8159ZM319.042 72.6612C319.042 72.941 318.722 73.1955 318.219 73.2718C317.624 73.3736 316.984 73.17 316.801 72.8393L316.664 72.5848C316.481 72.2541 316.847 71.8979 317.441 71.7961C318.036 71.6944 318.676 71.8979 318.859 72.2287L318.997 72.4831C319.042 72.534 319.042 72.6103 319.042 72.6612ZM317.259 103.955C317.259 104.032 317.259 104.108 317.213 104.159L317.076 104.388C316.847 104.718 316.207 104.897 315.612 104.769C315.017 104.642 314.697 104.286 314.926 103.955L315.063 103.726C315.292 103.395 315.932 103.217 316.527 103.345C316.938 103.446 317.259 103.701 317.259 103.955ZM315.978 67.5982C315.978 67.8526 315.703 68.0816 315.246 68.1833C314.652 68.3105 314.011 68.1579 313.782 67.8271L313.6 67.5982C313.371 67.2674 313.645 66.9112 314.24 66.7586C314.834 66.6059 315.475 66.784 315.749 67.1147L315.932 67.3437C315.978 67.4455 315.978 67.5218 315.978 67.5982ZM313.6 108.891C313.6 108.993 313.554 109.069 313.508 109.171L313.325 109.4C313.051 109.705 312.365 109.858 311.816 109.705C311.267 109.552 310.992 109.171 311.267 108.866L311.45 108.637C311.724 108.306 312.41 108.179 312.959 108.331C313.371 108.433 313.6 108.662 313.6 108.891ZM311.999 62.7387C311.999 62.9677 311.77 63.1966 311.404 63.2984C310.855 63.4511 310.169 63.3493 309.849 63.0185L309.62 62.7896C309.346 62.4842 309.529 62.1026 310.123 61.9245C310.672 61.7719 311.358 61.8736 311.679 62.2044L311.907 62.4334C311.953 62.5351 311.999 62.6369 311.999 62.7387ZM309.117 113.623C309.117 113.725 309.072 113.852 308.934 113.954L308.706 114.183C308.385 114.488 307.654 114.59 307.151 114.387C306.602 114.208 306.419 113.801 306.785 113.521L307.013 113.318C307.334 113.013 308.02 112.911 308.568 113.089C308.889 113.191 309.117 113.394 309.117 113.623ZM307.151 58.1336C307.151 58.3372 306.968 58.5407 306.647 58.6679C306.099 58.8714 305.413 58.7697 305.047 58.4898L304.818 58.2863C304.452 58.0064 304.589 57.5993 305.138 57.3958C305.641 57.1923 306.373 57.2686 306.739 57.5739L307.013 57.8029C307.105 57.9046 307.151 58.0064 307.151 58.1336ZM303.72 118.05C303.72 118.177 303.629 118.33 303.492 118.432L303.217 118.635C302.851 118.915 302.119 118.966 301.616 118.763C301.113 118.559 301.022 118.152 301.388 117.872L301.662 117.669C302.028 117.389 302.76 117.338 303.263 117.541C303.583 117.669 303.72 117.847 303.72 118.05ZM301.479 53.8339C301.479 54.012 301.342 54.1901 301.067 54.3173C300.564 54.5463 299.878 54.4954 299.467 54.2155L299.192 54.012C298.781 53.7321 298.872 53.3505 299.329 53.1215C299.833 52.8925 300.519 52.9434 300.93 53.1978L301.205 53.4014C301.433 53.554 301.479 53.6812 301.479 53.8339ZM297.591 122.146C297.591 122.299 297.5 122.452 297.271 122.579L296.951 122.757C296.539 123.011 295.808 123.037 295.35 122.782C294.893 122.554 294.847 122.146 295.305 121.892L295.625 121.714C296.036 121.459 296.768 121.434 297.226 121.688C297.454 121.79 297.591 121.968 297.591 122.146ZM295.076 49.8649C295.076 50.0175 294.984 50.1956 294.756 50.3228C294.298 50.5773 293.566 50.5773 293.155 50.3228L292.835 50.1447C292.377 49.8903 292.377 49.4832 292.835 49.2543C293.292 48.9998 294.024 48.9998 294.436 49.2543L294.756 49.4324C294.939 49.5341 295.076 49.6868 295.076 49.8649ZM290.685 125.861C290.685 126.039 290.548 126.217 290.273 126.344L289.908 126.523C289.45 126.751 288.718 126.726 288.307 126.472C287.895 126.217 287.941 125.81 288.398 125.581L288.718 125.403C289.176 125.174 289.907 125.2 290.319 125.454C290.594 125.556 290.685 125.708 290.685 125.861ZM287.941 46.2775C287.941 46.4302 287.849 46.5574 287.666 46.6846C287.255 46.9645 286.569 46.9899 286.066 46.7863L285.7 46.6337C285.197 46.4047 285.151 46.0231 285.517 45.7432C285.928 45.4634 286.614 45.4379 287.118 45.6414L287.483 45.7941C287.804 45.8959 287.941 46.0994 287.941 46.2775ZM283.138 129.169C283.138 129.372 282.955 129.576 282.635 129.677L282.269 129.83C281.766 130.034 281.034 129.957 280.669 129.677C280.303 129.397 280.44 128.99 280.943 128.787L281.309 128.634C281.812 128.431 282.544 128.507 282.91 128.787C283.093 128.914 283.138 129.041 283.138 129.169ZM280.165 43.1227C280.165 43.2499 280.12 43.3516 279.982 43.4789C279.617 43.7842 278.93 43.8605 278.382 43.657L278.016 43.5297C277.467 43.3262 277.33 42.9446 277.696 42.6393C278.061 42.334 278.748 42.2576 279.296 42.4612L279.708 42.6138C279.982 42.7156 280.165 42.9191 280.165 43.1227ZM275.043 132.043C275.043 132.272 274.814 132.476 274.448 132.603L274.037 132.73C273.488 132.909 272.802 132.807 272.482 132.476C272.161 132.171 272.344 131.789 272.939 131.611L273.351 131.484C273.899 131.306 274.585 131.407 274.906 131.713C274.997 131.84 275.043 131.942 275.043 132.043ZM271.887 40.4258C271.887 40.5275 271.841 40.6293 271.75 40.7056C271.475 41.011 270.789 41.1382 270.195 40.9855L269.783 40.8583C269.234 40.7056 269.005 40.324 269.28 39.9933C269.554 39.688 270.24 39.5607 270.835 39.7134L271.247 39.8406C271.658 39.9678 271.887 40.1968 271.887 40.4258ZM266.49 134.435C266.49 134.689 266.215 134.918 265.804 135.02L265.392 135.122C264.798 135.275 264.157 135.122 263.883 134.791C263.608 134.461 263.883 134.104 264.477 133.952L264.889 133.85C265.484 133.697 266.124 133.85 266.398 134.181C266.444 134.282 266.49 134.359 266.49 134.435ZM263.151 38.2378C263.151 38.3141 263.105 38.3904 263.06 38.4667C262.831 38.7975 262.145 38.9501 261.596 38.8229L261.184 38.7212C260.59 38.5939 260.315 38.2378 260.544 37.907C260.773 37.5763 261.413 37.4236 262.008 37.5508L262.419 37.6526C262.877 37.7289 263.151 37.9833 263.151 38.2378ZM257.525 136.343C257.525 136.623 257.205 136.852 256.748 136.954L256.29 137.03C255.696 137.132 255.055 136.954 254.873 136.623C254.69 136.292 255.01 135.936 255.604 135.834L256.016 135.758C256.611 135.656 257.251 135.834 257.434 136.165C257.48 136.216 257.525 136.267 257.525 136.343ZM254.049 36.5331C254.049 36.584 254.049 36.6349 254.004 36.7112C253.821 37.042 253.226 37.2455 252.586 37.1437L252.128 37.0674C251.534 36.9656 251.168 36.6349 251.305 36.2787C251.488 35.9479 252.083 35.7444 252.723 35.8207L253.18 35.8971C253.729 35.9988 254.049 36.2532 254.049 36.5331ZM248.241 137.717C248.241 138.022 247.875 138.277 247.326 138.328L246.868 138.379C246.228 138.455 245.634 138.226 245.496 137.895C245.359 137.539 245.771 137.208 246.365 137.132L246.823 137.081C247.463 137.005 248.058 137.234 248.195 137.564C248.241 137.615 248.241 137.666 248.241 137.717ZM244.673 35.3628C244.673 35.3882 244.673 35.4391 244.673 35.4645C244.582 35.8207 243.987 36.0497 243.347 35.9734L242.889 35.9225C242.249 35.8716 241.837 35.5409 241.929 35.1847C242.02 34.8285 242.615 34.5995 243.255 34.6504L243.713 34.7013C244.261 34.7776 244.673 35.0575 244.673 35.3628ZM238.773 138.557C238.773 138.887 238.316 139.142 237.767 139.193L237.309 139.218C236.669 139.244 236.12 138.989 236.074 138.658C236.029 138.302 236.486 137.997 237.081 137.972L237.538 137.946C238.178 137.921 238.727 138.15 238.819 138.506C238.773 138.506 238.773 138.531 238.773 138.557ZM235.16 34.7267C235.16 34.7522 235.16 34.7522 235.16 34.7776C235.114 35.1338 234.565 35.3882 233.925 35.3628L233.467 35.3373C232.827 35.3119 232.37 35.0066 232.415 34.6504C232.461 34.2942 233.01 34.0398 233.65 34.0652L234.108 34.0907C234.702 34.1161 235.16 34.396 235.16 34.7267ZM229.168 138.837C229.168 139.193 228.665 139.473 228.025 139.473L227.75 139.473L227.522 139.473C226.881 139.473 226.378 139.193 226.378 138.837C226.378 138.48 226.881 138.201 227.522 138.201L227.704 138.201L227.933 138.201C228.665 138.201 229.168 138.48 229.168 138.837ZM225.555 34.6249C225.555 34.9557 225.052 35.261 224.457 35.261L224 35.261C223.359 35.2864 222.856 35.0066 222.811 34.6504C222.811 34.2942 223.268 34.0143 223.908 33.9889L224.366 33.9889C225.006 33.9889 225.509 34.2687 225.555 34.6249ZM219.563 138.582C219.563 138.608 219.563 138.633 219.563 138.658C219.517 139.015 218.923 139.269 218.328 139.218L217.871 139.193C217.231 139.167 216.773 138.837 216.865 138.506C216.91 138.15 217.505 137.895 218.1 137.946L218.557 137.972C219.152 137.972 219.563 138.251 219.563 138.582ZM215.996 35.0829C215.996 35.3882 215.584 35.6681 214.989 35.719L214.532 35.7444C213.892 35.7953 213.343 35.5409 213.251 35.2101C213.16 34.8539 213.617 34.5486 214.212 34.4977L214.669 34.4723C215.31 34.4214 215.858 34.6758 215.95 35.0066C215.996 35.032 215.996 35.0575 215.996 35.0829ZM210.096 137.768C210.096 137.819 210.096 137.844 210.05 137.895C209.913 138.251 209.318 138.455 208.723 138.404L208.266 138.353C207.626 138.277 207.26 137.946 207.397 137.59C207.534 137.234 208.129 137.03 208.769 137.107L209.226 137.157C209.73 137.208 210.095 137.488 210.096 137.768ZM206.574 36.1006C206.574 36.3805 206.208 36.6349 205.705 36.7112L205.247 36.7621C204.653 36.8384 204.012 36.6349 203.875 36.3041C203.738 35.9734 204.104 35.6172 204.698 35.5409L205.156 35.49C205.75 35.4137 206.391 35.6172 206.528 35.948C206.528 35.9988 206.574 36.0497 206.574 36.1006ZM200.811 136.445C200.811 136.496 200.811 136.572 200.765 136.623C200.582 136.954 199.942 137.157 199.347 137.03L198.89 136.954C198.295 136.852 197.975 136.496 198.158 136.165C198.341 135.834 198.981 135.656 199.576 135.758L199.988 135.834C200.491 135.911 200.811 136.165 200.811 136.445ZM191.8 134.588C191.8 134.664 191.755 134.766 191.709 134.842C191.48 135.173 190.794 135.326 190.2 135.173L189.788 135.071C189.193 134.918 188.965 134.562 189.193 134.232C189.468 133.901 190.108 133.774 190.703 133.901L191.114 134.003C191.526 134.104 191.8 134.333 191.8 134.588ZM183.156 132.222C183.156 132.323 183.11 132.425 183.019 132.527C182.699 132.832 182.013 132.934 181.464 132.781L181.052 132.654C180.503 132.476 180.32 132.094 180.595 131.789C180.915 131.484 181.601 131.382 182.15 131.535L182.561 131.662C182.973 131.789 183.156 132.018 183.156 132.222ZM175.015 129.398C175.015 129.525 174.969 129.652 174.786 129.754C174.42 130.034 173.688 130.11 173.185 129.906L172.819 129.754C172.316 129.55 172.179 129.143 172.545 128.863C172.911 128.583 173.643 128.507 174.146 128.711L174.512 128.863C174.878 128.99 175.015 129.194 175.015 129.398ZM167.468 126.115C167.468 126.268 167.377 126.421 167.194 126.523C166.782 126.777 166.05 126.828 165.593 126.573L165.227 126.395C164.77 126.166 164.724 125.759 165.135 125.505C165.547 125.25 166.279 125.225 166.736 125.454L167.102 125.632C167.331 125.759 167.468 125.937 167.468 126.115ZM160.562 122.401C160.562 122.579 160.425 122.732 160.196 122.859C159.738 123.088 159.007 123.088 158.595 122.833L158.275 122.655C157.863 122.401 157.863 121.994 158.321 121.765C158.778 121.536 159.51 121.536 159.921 121.79L160.242 121.968C160.425 122.096 160.562 122.248 160.562 122.401ZM154.341 118.33C154.341 118.534 154.204 118.712 153.884 118.839C153.381 119.042 152.649 118.992 152.283 118.712L152.009 118.508C151.643 118.228 151.734 117.821 152.238 117.618C152.741 117.414 153.472 117.465 153.838 117.745L154.113 117.948C154.25 118.05 154.341 118.177 154.341 118.33ZM148.944 113.903C148.944 114.107 148.761 114.336 148.396 114.437C147.847 114.616 147.161 114.539 146.84 114.234L146.612 114.005C146.292 113.7 146.475 113.318 146.978 113.14C147.481 112.962 148.213 113.064 148.533 113.343L148.761 113.547C148.853 113.674 148.944 113.801 148.944 113.903Z" fill="url(#paint1_linear_5442_50669)"/>
<path opacity="0.6" fill-rule="evenodd" clip-rule="evenodd" d="M58.3705 52.1128C58.63 51.9636 58.8921 51.8153 59.157 51.668L59.951 52.1097C59.6905 52.2546 59.4327 52.4005 59.1776 52.5472L58.3705 52.1128ZM55.0136 54.1936C55.4887 53.8759 55.9748 53.5616 56.4719 53.2509L57.3107 53.6663C56.8218 53.9718 56.3439 54.2808 55.8768 54.5931L55.0136 54.1936ZM51.9465 56.4097C52.377 56.073 52.8188 55.7394 53.2719 55.4092L54.1645 55.7882C53.719 56.1129 53.2847 56.4408 52.8615 56.7718L51.9465 56.4097ZM49.1904 58.7486C49.5741 58.3942 49.9695 58.0427 50.3764 57.6942L51.3181 58.0345C50.9181 58.3771 50.5295 58.7227 50.1523 59.071L49.1904 58.7486ZM46.7618 61.1977C47.0959 60.8282 47.4418 60.4611 47.7995 60.0967L48.785 60.3962C48.4334 60.7544 48.0934 61.1152 47.7649 61.4784L46.7618 61.1977ZM44.6753 63.7421C44.9582 63.3593 45.253 62.9786 45.5598 62.6002L46.5834 62.8571C46.2818 63.2291 45.992 63.6033 45.7139 63.9796L44.6753 63.7421ZM42.9416 66.3677C43.1715 65.9739 43.4137 65.5819 43.6679 65.1918L44.7235 65.4048C44.4736 65.7883 44.2356 66.1736 44.0095 66.5607L42.9416 66.3677ZM41.5696 69.0579C41.7456 68.6556 41.9339 68.2547 42.1343 67.8552L43.2159 68.0232C43.0188 68.4159 42.8337 68.8101 42.6607 69.2057L41.5696 69.0579ZM40.5649 71.7985C40.6863 71.3898 40.8199 70.982 40.9658 70.5754L42.067 70.6977C41.9235 71.0975 41.7921 71.4984 41.6728 71.9003L40.5649 71.7985ZM39.9317 74.5727C39.9979 74.16 40.0764 73.7479 40.1671 73.3365L41.2817 73.4127C41.1924 73.8172 41.1153 74.2224 41.0502 74.6282L39.9317 74.5727ZM39.6719 77.3656C39.6827 76.9512 39.7058 76.537 39.7412 76.123L40.8629 76.1527C40.8281 76.5598 40.8053 76.9671 40.7947 77.3746L39.6719 77.3656ZM39.7859 80.1614C39.7413 79.7476 39.7091 79.3335 39.6891 78.9194L40.8116 78.9026C40.8313 79.3099 40.863 79.7171 40.9068 80.124L39.7859 80.1614ZM40.2724 82.9447C40.1728 82.5339 40.0854 82.1223 40.0103 81.7103L41.1275 81.6473C41.2014 82.0525 41.2873 82.4572 41.3853 82.8612L40.2724 82.9447ZM41.1288 85.7002C40.9746 85.2945 40.8326 84.8876 40.7027 84.4799L41.8084 84.3709C41.9361 84.7719 42.0758 85.172 42.2274 85.571L41.1288 85.7002ZM42.3507 88.413C42.1427 88.0147 41.9467 87.6148 41.7629 87.2137L42.851 87.0593C43.0318 87.4538 43.2245 87.847 43.429 88.2387L42.3507 88.413ZM43.9317 91.0673C43.6709 90.6786 43.422 90.288 43.1851 89.8957L44.2496 89.6967C44.4825 90.0825 44.7273 90.4665 44.9837 90.8488L43.9317 91.0673ZM45.8644 93.6495C45.552 93.2724 45.2514 92.8931 44.9626 92.5117L45.9974 92.2691C46.2814 92.6442 46.577 93.0172 46.8842 93.388L45.8644 93.6495ZM48.1368 96.143C47.7748 95.78 47.4244 95.4145 47.0856 95.0465L48.085 94.7616C48.4182 95.1235 48.7627 95.483 49.1187 95.8399L48.1368 96.143ZM50.7385 98.537C50.3284 98.1896 49.9297 97.8392 49.5423 97.4861L50.5008 97.1606C50.8817 97.5079 51.2739 97.8524 51.6772 98.1941L50.7385 98.537ZM53.6501 100.815C53.1952 100.485 52.7514 100.153 52.3186 99.8172L53.231 99.4531C53.6566 99.7831 54.0931 100.11 54.5405 100.434L53.6501 100.815ZM56.8587 102.969C56.3608 102.658 55.8737 102.345 55.3974 102.027L56.259 101.627C56.7275 101.939 57.2066 102.247 57.6964 102.552L56.8587 102.969ZM59.5452 104.55C59.2804 104.403 59.0182 104.255 58.7587 104.105L59.5655 103.671C59.8208 103.818 60.0787 103.963 60.3392 104.108L59.5452 104.55Z" fill="#EAEDF3"/>
<path opacity="0.6" fill-rule="evenodd" clip-rule="evenodd" d="M367.008 61.8277C366.748 61.6785 366.486 61.5302 366.221 61.3828L365.427 61.8246C365.688 61.9695 365.946 62.1153 366.201 62.2621L367.008 61.8277ZM370.365 63.9084C369.89 63.5907 369.404 63.2765 368.907 62.9658L368.068 63.3812C368.557 63.6867 369.035 63.9957 369.502 64.308L370.365 63.9084ZM373.432 66.1245C373.001 65.7878 372.56 65.4543 372.106 65.124L371.214 65.5031C371.659 65.8278 372.094 66.1557 372.517 66.4867L373.432 66.1245ZM376.188 68.4634C375.804 68.1091 375.409 67.7576 375.002 67.409L374.06 67.7494C374.46 68.092 374.849 68.4375 375.226 68.7858L376.188 68.4634ZM378.617 70.9125C378.283 70.543 377.937 70.176 377.579 69.8116L376.593 70.111C376.945 70.4692 377.285 70.83 377.613 71.1933L378.617 70.9125ZM380.703 73.4569C380.42 73.0741 380.125 72.6934 379.819 72.3151L378.795 72.572C379.097 72.9439 379.386 73.3181 379.664 73.6944L380.703 73.4569ZM382.437 76.0825C382.207 75.6888 381.965 75.2968 381.711 74.9067L380.655 75.1197C380.905 75.5031 381.143 75.8885 381.369 76.2756L382.437 76.0825ZM383.809 78.7728C383.633 78.3705 383.445 77.9695 383.244 77.5701L382.163 77.7381C382.36 78.1308 382.545 78.525 382.718 78.9205L383.809 78.7728ZM384.814 81.5133C384.692 81.1046 384.559 80.6968 384.413 80.2902L383.311 80.4125C383.455 80.8123 383.586 81.2133 383.706 81.6151L384.814 81.5133ZM385.447 84.2875C385.381 83.8749 385.302 83.4628 385.211 83.0514L384.097 83.1275C384.186 83.532 384.263 83.9373 384.328 84.3431L385.447 84.2875ZM385.707 87.0804C385.696 86.666 385.673 86.2518 385.637 85.8379L384.516 85.8676C384.55 86.2746 384.573 86.682 384.584 87.0895L385.707 87.0804ZM385.593 89.8762C385.637 89.4624 385.669 89.0484 385.689 88.6342L384.567 88.6175C384.547 89.0247 384.515 89.4319 384.472 89.8389L385.593 89.8762ZM385.106 92.6595C385.206 92.2487 385.293 91.8372 385.368 91.4252L384.251 91.3621C384.177 91.7673 384.091 92.172 383.993 92.576L385.106 92.6595ZM384.25 95.4151C384.404 95.0093 384.546 94.6025 384.676 94.1947L383.57 94.0857C383.442 94.4867 383.303 94.8868 383.151 95.2858L384.25 95.4151ZM383.028 98.1279C383.236 97.7295 383.432 97.3297 383.616 96.9285L382.527 96.7742C382.347 97.1687 382.154 97.5618 381.949 97.9536L383.028 98.1279ZM381.447 100.782C381.708 100.393 381.956 100.003 382.193 99.6105L381.129 99.4116C380.896 99.7973 380.651 100.181 380.395 100.564L381.447 100.782ZM379.514 103.364C379.826 102.987 380.127 102.608 380.416 102.227L379.381 101.984C379.097 102.359 378.801 102.732 378.494 103.103L379.514 103.364ZM377.242 105.858C377.604 105.495 377.954 105.129 378.293 104.761L377.293 104.476C376.96 104.838 376.616 105.198 376.26 105.555L377.242 105.858ZM374.64 108.252C375.05 107.904 375.449 107.554 375.836 107.201L374.878 106.875C374.497 107.223 374.105 107.567 373.701 107.909L374.64 108.252ZM371.728 110.53C372.183 110.2 372.627 109.868 373.06 109.532L372.147 109.168C371.722 109.498 371.285 109.825 370.838 110.149L371.728 110.53ZM368.52 112.683C369.018 112.373 369.505 112.059 369.981 111.742L369.119 111.342C368.651 111.654 368.172 111.962 367.682 112.267L368.52 112.683ZM365.833 114.265C366.098 114.118 366.36 113.969 366.62 113.82L365.813 113.386C365.558 113.532 365.3 113.678 365.039 113.823L365.833 114.265Z" fill="#EAEDF3"/>
<path opacity="0.2" d="M50.918 -14.5977L73.4105 29.888L77.5215 31.5667L105.697 48.1328L122.263 38.1931L139.712 -14.5977H50.918Z" fill="url(#paint2_linear_5442_50669)"/>
<path d="M244.628 44.6944C244.31 44.8713 244.014 45.0482 243.736 45.2373C234.735 41.5154 221.953 41.9164 213.802 46.4515C204.823 51.4468 204.835 59.544 213.815 64.5405C214.219 64.765 214.621 64.9781 215.046 65.1781C212.693 67.4787 213.294 70.4535 216.829 72.4203C221.065 74.7767 227.939 74.7793 232.169 72.4263L263.323 55.0936C268.485 52.2213 268.479 47.571 263.309 44.6944C258.138 41.8177 249.789 41.8229 244.628 44.6944Z" fill="#82CBE7"/>
<path d="M257.485 50.0312V43.6133L252.672 46.6764L252.964 52.6567L257.485 50.0312Z" fill="#82CBE7"/>
<path d="M199.579 49.8868L199.579 56.3047L204.393 53.2416L204.101 47.2613L199.579 49.8868Z" fill="#82CBE7"/>
<path d="M210.521 60.0972L205.999 62.7227L205.853 68.1196L205.999 68.4113L205.999 69.1406L210.813 66.0775L210.521 60.0972Z" fill="#82CBE7"/>
<path d="M244.628 38.2764C244.31 38.4533 244.014 38.6302 243.736 38.8193C234.735 35.0975 221.953 35.4984 213.802 40.0336C204.823 45.0288 204.835 53.1261 213.815 58.1226C214.219 58.347 214.621 58.5601 215.046 58.7601C212.693 61.0608 213.294 64.0355 216.829 66.0023C221.065 68.3588 227.939 68.3613 232.169 66.0084L263.323 48.6757C268.485 45.8033 268.479 41.1531 263.309 38.2764C258.138 35.3998 249.789 35.4049 244.628 38.2764Z" fill="#4824A2"/>
<path d="M225.865 82.0144C225.383 82.2823 224.935 82.5501 224.515 82.8365C210.883 77.2004 191.528 77.8076 179.184 84.6753C165.587 92.2397 165.605 104.502 179.205 112.068C179.816 112.408 180.424 112.73 181.068 113.033C177.505 116.517 178.415 121.022 183.768 124C190.182 127.569 200.593 127.573 206.997 124.01L254.175 97.7622C261.993 93.4125 261.983 86.3705 254.153 82.0144C246.323 77.6582 233.68 77.666 225.865 82.0144Z" fill="#82CBE7"/>
<path d="M250.596 90.1016V80.3828L243.307 85.0213L243.748 94.0775L250.596 90.1016Z" fill="#82CBE7"/>
<path d="M162.906 89.8789L162.906 99.5977L170.195 94.9591L169.754 85.903L162.906 89.8789Z" fill="#82CBE7"/>
<path d="M179.474 105.34L172.627 109.316L172.406 117.489L172.627 117.931L172.627 119.035L179.916 114.397L179.474 105.34Z" fill="#82CBE7"/>
<path d="M225.865 72.2956C225.383 72.5635 224.935 72.8314 224.515 73.1177C210.883 67.4816 191.528 68.0888 179.184 74.9565C165.587 82.521 165.605 94.7828 179.205 102.349C179.816 102.689 180.424 103.012 181.068 103.315C177.505 106.799 178.415 111.303 183.768 114.282C190.182 117.85 200.593 117.854 206.997 114.291L254.175 88.0435C261.993 83.6938 261.983 76.6518 254.153 72.2956C246.323 67.9394 233.68 67.9472 225.865 72.2956Z" fill="#4824A2"/>
<path fill-rule="evenodd" clip-rule="evenodd" d="M193.495 81.2979L195.965 81.9409C196.089 81.9732 196.237 81.9657 196.355 81.9168C197.116 81.5975 197.948 81.3266 198.83 81.1167C198.958 81.0861 199.048 81.0175 199.061 80.9381C199.061 80.9379 199.061 80.9377 199.061 80.9374L199.277 79.4255L203.961 79.0745L204.89 80.5022C204.936 80.5743 205.054 80.6282 205.197 80.6396M191.727 86.303C191.858 85.7736 192.104 85.2552 192.458 84.762C192.511 84.6882 192.485 84.6042 192.397 84.5466L192.395 84.5457L190.629 83.3903L193.495 81.2979M192.07 83.3688L193.249 84.1401C193.25 84.1402 193.25 84.1404 193.25 84.1406C193.614 84.3772 193.707 84.7074 193.501 84.9937C193.18 85.44 192.957 85.9092 192.84 86.3884L192.839 86.3896C192.762 86.6942 192.39 86.9555 191.862 87.0617C191.862 87.0617 191.861 87.0617 191.861 87.0618L190.145 87.408L190.537 89.0167L192.358 89.0974C192.911 89.1237 193.397 89.3168 193.617 89.6024C193.957 90.0453 194.399 90.4651 194.92 90.8494L194.921 90.8501C195.253 91.0969 195.321 91.4255 195.082 91.7078C195.082 91.7078 195.082 91.7077 195.082 91.7078L194.311 92.6247L196.633 93.6091L198.019 92.9532C198.019 92.9531 198.02 92.9529 198.02 92.9528C198.445 92.7503 199.039 92.6988 199.553 92.8132C200.355 92.9915 201.199 93.1156 202.06 93.1812L202.062 93.1813C202.61 93.2241 203.079 93.4311 203.27 93.7249C203.27 93.7249 203.27 93.7249 203.27 93.7249C203.27 93.7251 203.27 93.7253 203.27 93.7255L203.893 94.6801L206.784 94.4624L206.929 93.4508L206.929 93.4491C206.977 93.1414 207.324 92.871 207.837 92.7486C208.633 92.5592 209.388 92.3138 210.078 92.0238L210.08 92.0232C210.523 91.8382 211.114 91.8007 211.621 91.9332C211.621 91.9333 211.621 91.9333 211.621 91.9334L213.269 92.3623L215.039 91.0708L213.86 90.2995C213.86 90.2994 213.859 90.2992 213.859 90.299C213.495 90.0624 213.402 89.7322 213.608 89.4459C213.929 88.9996 214.152 88.5304 214.27 88.0512L214.27 88.0501C214.347 87.7455 214.719 87.4842 215.247 87.378M215.248 87.3778L216.964 87.0316L216.572 85.4229L214.754 85.3423L214.751 85.3422C214.198 85.316 213.712 85.1228 213.492 84.8372C213.152 84.3943 212.711 83.9745 212.189 83.5902L212.188 83.5895C211.856 83.3428 211.788 83.0144 212.026 82.7322M212.027 82.7317L212.798 81.8149L210.476 80.8305L209.085 81.4889L209.081 81.4906C208.653 81.6862 208.072 81.7392 207.555 81.6275L207.55 81.6264C206.748 81.4482 205.905 81.3241 205.043 81.2585L205.041 81.2583C204.494 81.2154 204.024 81.0082 203.833 80.7142L203.213 79.7609L200.325 79.9773L200.18 80.9888L200.18 80.9905C200.133 81.2982 199.785 81.5686 199.272 81.691C198.476 81.8804 197.721 82.1258 197.031 82.4158L197.029 82.4164C196.586 82.6015 195.995 82.6389 195.488 82.5063C195.488 82.5063 195.488 82.5064 195.488 82.5063L193.84 82.0773L192.07 83.3688M207.783 84.1294C204.721 82.8317 200.332 83.1612 198 84.8644C195.667 86.5679 196.26 89.0096 199.321 90.3072C202.383 91.6049 206.771 91.2754 209.104 89.5722C211.436 87.8688 210.844 85.427 207.783 84.1294ZM197.107 84.4858C199.815 82.508 204.908 82.1258 208.463 83.6325C212.018 85.1393 212.705 87.9731 209.997 89.9508C207.289 91.9287 202.195 92.3108 198.64 90.8041C195.085 89.2973 194.399 86.4636 197.107 84.4858Z" fill="#82CBE7"/>
<path d="M77.8978 32.4389L107.465 48.8087C108.094 49.1565 108.938 49.3533 109.811 49.3622C110.688 49.369 111.521 49.1831 112.134 48.8439L125.949 41.1952C126.558 40.8582 126.898 40.3946 126.885 39.909C126.873 39.4233 126.514 38.9583 125.886 38.6105L96.318 22.2407C95.6898 21.8928 94.8458 21.6961 93.9727 21.6871C93.0996 21.6782 92.2621 21.8663 91.6494 22.2055L89.9195 23.1632L91.5758 24.0802C91.8899 24.2541 92.0635 24.4877 92.0757 24.7294C92.0797 24.9711 91.9139 25.203 91.6095 25.3714L83.5487 29.8343C83.2444 30.0028 82.8256 30.0946 82.389 30.0923C81.9525 30.0901 81.5305 29.9895 81.2164 29.8156L79.5602 28.8986L77.8343 29.8541C77.2256 30.1911 76.8858 30.6548 76.898 31.1404C76.9102 31.626 77.2696 32.091 77.8978 32.4389Z" fill="#82CBE7"/>
<path fill-rule="evenodd" clip-rule="evenodd" d="M80.5752 28.3398L81.9433 29.0972C82.2628 29.2741 82.7765 29.2741 83.0961 29.0972L90.9137 24.7691C91.2332 24.5921 91.2332 24.3078 90.9137 24.1308L89.5456 23.3734L90.7381 22.7132L92.1061 23.4706C93.0843 24.0122 93.0843 24.8877 92.1061 25.4293L84.2885 29.7574C83.3104 30.299 81.7289 30.299 80.7508 29.7574L79.3827 29L80.5752 28.3398Z" fill="#82CBE7"/>
<path fill-rule="evenodd" clip-rule="evenodd" d="M77.167 32.6941C75.5995 31.8263 75.6191 30.4207 77.1876 29.5524L91.1051 21.8471C92.6736 20.9787 95.2122 20.9678 96.7797 21.8357L125.983 38.0036C127.55 38.8714 127.531 40.277 125.962 41.1453L112.045 48.8506C110.476 49.719 107.937 49.7298 106.37 48.862L77.167 32.6941ZM78.3801 30.2126C77.4598 30.7221 77.4609 31.5364 78.3595 32.0339L107.562 48.2018C108.461 48.6993 109.932 48.6999 110.852 48.1904L124.77 40.4851C125.69 39.9756 125.689 39.1613 124.79 38.6638L95.5872 22.4959C94.6886 21.9984 93.2178 21.9978 92.2976 22.5073L78.3801 30.2126Z" fill="#82CBE7"/>
<path fill-rule="evenodd" clip-rule="evenodd" d="M108.602 45.8809C108.273 45.6986 108.273 45.403 108.602 45.2207L119.4 39.2424C119.729 39.0601 120.263 39.0601 120.592 39.2424C120.922 39.4247 120.922 39.7203 120.592 39.9026L109.794 45.8809C109.465 46.0632 108.931 46.0632 108.602 45.8809Z" fill="#82CBE7"/>
<path d="M73.2246 28.3516H77.1724V31.4071H73.2246V28.3516Z" fill="#82CBE7"/>
<path d="M77.8978 29.8217L107.465 46.1915C108.094 46.5393 108.938 46.7361 109.811 46.7451C110.688 46.7518 111.521 46.5659 112.134 46.2267L125.949 38.578C126.558 38.2411 126.898 37.7774 126.885 37.2918C126.873 36.8062 126.514 36.3411 125.886 35.9933L96.318 19.6235C95.6898 19.2757 94.8458 19.0789 93.9727 19.0699C93.0996 19.061 92.2621 19.2491 91.6494 19.5883L89.9195 20.546L91.5758 21.463C91.8899 21.6369 92.0635 21.8705 92.0757 22.1122C92.0797 22.3539 91.9139 22.5858 91.6095 22.7543L83.5487 27.2171C83.2444 27.3856 82.8256 27.4774 82.389 27.4752C81.9525 27.4729 81.5305 27.3723 81.2164 27.1984L79.5602 26.2814L77.8343 27.2369C77.2256 27.5739 76.8858 28.0376 76.898 28.5232C76.9102 29.0088 77.2696 29.4739 77.8978 29.8217Z" fill="#4824A2"/>
<path fill-rule="evenodd" clip-rule="evenodd" d="M77.183 30.0857C75.6107 29.2152 75.615 27.8058 77.1876 26.9352L91.1051 19.2299C92.6776 18.3592 95.2234 18.3568 96.7957 19.2273L126.208 35.511C127.78 36.3815 127.776 37.7909 126.203 38.6615L112.286 46.3668C110.713 47.2375 108.167 47.2399 106.595 46.3694L77.183 30.0857ZM78.3801 27.5954C77.4638 28.1027 77.4641 28.9209 78.3755 29.4255L107.787 45.7092C108.699 46.2138 110.177 46.2139 111.093 45.7066L125.011 38.0013C125.927 37.4941 125.927 36.6758 125.015 36.1712L95.6032 19.8875C94.6918 19.3829 93.2138 19.3828 92.2976 19.8901L78.3801 27.5954Z" fill="#4824A2"/>
<path fill-rule="evenodd" clip-rule="evenodd" d="M108.602 43.2598C108.273 43.0775 108.273 42.7819 108.602 42.5996L119.4 36.6213C119.729 36.439 120.263 36.439 120.592 36.6213C120.922 36.8036 120.922 37.0992 120.592 37.2815L109.794 43.2598C109.465 43.4421 108.931 43.4421 108.602 43.2598Z" fill="#82CBE7"/>
<path fill-rule="evenodd" clip-rule="evenodd" d="M79.9753 25.3867L81.667 26.3232C82.2645 26.654 82.8896 26.5917 83.0971 26.4768L90.9147 22.1486C91.1223 22.0337 91.2349 21.6877 90.6374 21.3569L88.9457 20.4203L90.1382 19.7601L91.8299 20.6966C92.837 21.2542 93.1974 22.2053 92.1072 22.8088L84.2896 27.137C83.1994 27.7406 81.4816 27.541 80.4745 26.9834L78.7828 26.0469L79.9753 25.3867Z" fill="#82CBE7"/>
<path fill-rule="evenodd" clip-rule="evenodd" d="M95.9406 29.5253C92.8131 31.2653 92.8131 34.0863 95.9406 35.8263C99.068 37.5663 104.139 37.5663 107.266 35.8263C110.394 34.0863 110.394 31.2653 107.266 29.5253C104.139 27.7853 99.068 27.7853 95.9406 29.5253ZM94.948 36.3785C91.2724 34.3335 91.2724 31.018 94.948 28.9731C98.6236 26.9281 104.583 26.9281 108.259 28.9731C111.934 31.018 111.934 34.3335 108.259 36.3785C104.583 38.4234 98.6236 38.4234 94.948 36.3785Z" fill="#82CBE7"/>
<path fill-rule="evenodd" clip-rule="evenodd" d="M99.4699 33.0954C98.983 32.8245 99.1786 32.3633 99.8318 32.242L102.614 31.7257C103.338 31.5912 104.027 31.9745 103.786 32.3774L102.859 33.9258C102.641 34.2894 101.812 34.3984 101.325 34.1274L99.4699 33.0954ZM101.008 32.8469L101.771 33.2713L102.152 32.6345L101.008 32.8469Z" fill="#82CBE7"/>
<path opacity="0.07" fill-rule="evenodd" clip-rule="evenodd" d="M134.694 139.508C184.007 166.944 263.959 166.944 313.271 139.508C362.584 112.073 362.584 67.591 313.271 40.1555C263.959 12.72 184.007 12.72 134.694 40.1555C85.381 67.591 85.381 112.073 134.694 139.508ZM329.152 148.343C271.069 180.659 176.897 180.659 118.813 148.343C60.7297 116.028 60.7297 63.6353 118.813 31.3202C176.897 -0.99486 271.069 -0.994863 329.152 31.3202C387.236 63.6353 387.236 116.028 329.152 148.343Z" fill="#8B55FF"/>
<path opacity="0.3" fill-rule="evenodd" clip-rule="evenodd" d="M106.294 128.205C105.636 128.571 104.57 128.571 103.912 128.205L99.2575 125.615C98.5997 125.249 98.5997 124.656 99.2575 124.29C99.9153 123.924 100.982 123.924 101.64 124.29L106.294 126.879C106.952 127.245 106.952 127.839 106.294 128.205Z" fill="#8B55FF"/>
<path opacity="0.3" fill-rule="evenodd" clip-rule="evenodd" d="M113.333 124.29C112.676 124.656 111.609 124.656 110.951 124.29L102.459 119.565C101.801 119.2 101.801 118.606 102.459 118.24C103.116 117.874 104.183 117.874 104.841 118.24L113.333 122.965C113.991 123.331 113.991 123.925 113.333 124.29Z" fill="#8B55FF"/>
<path opacity="0.3" fill-rule="evenodd" clip-rule="evenodd" d="M121.007 120.021C120.349 120.387 119.283 120.387 118.625 120.021L106.934 113.516C106.276 113.15 106.276 112.557 106.934 112.191C107.591 111.825 108.658 111.825 109.316 112.191L121.007 118.696C121.665 119.062 121.665 119.655 121.007 120.021Z" fill="#8B55FF"/>
<path fill-rule="evenodd" clip-rule="evenodd" d="M106.294 127.318C105.636 127.684 104.57 127.684 103.912 127.318L99.2575 124.728C98.5997 124.362 98.5997 123.769 99.2575 123.403C99.9153 123.037 100.982 123.037 101.64 123.403L106.294 125.993C106.952 126.359 106.952 126.952 106.294 127.318Z" fill="#82CBE7"/>
<path fill-rule="evenodd" clip-rule="evenodd" d="M113.333 123.408C112.676 123.774 111.609 123.774 110.951 123.408L102.459 118.683C101.801 118.317 101.801 117.723 102.459 117.357C103.116 116.991 104.183 116.991 104.841 117.357L113.333 122.082C113.991 122.448 113.991 123.042 113.333 123.408Z" fill="#82CBE7"/>
<path d="M242.16 166.852H248.118V171.486H242.16V166.852Z" fill="#82CBE7"/>
<path opacity="0.3" d="M208 14L242.19 168.251L261.409 173.348L324.817 210.657L374.973 184.153L418.174 14H208Z" fill="url(#paint3_linear_5442_50669)"/>
<path d="M389.194 189.171L338.881 217.163C337.686 217.828 335.743 217.825 334.54 217.156L254.536 172.645C253.333 171.976 253.328 170.895 254.523 170.23L304.836 142.238C306.032 141.572 307.974 141.576 309.177 142.245L389.181 186.756C390.379 187.422 390.39 188.506 389.194 189.171Z" fill="#82CBE7"/>
<path fill-rule="evenodd" clip-rule="evenodd" d="M255.239 170.627C254.442 171.071 254.44 171.795 255.252 172.247L335.257 216.758C336.069 217.21 337.371 217.209 338.168 216.765L388.482 188.773C389.277 188.331 389.276 187.603 388.469 187.153L308.464 142.642C307.652 142.191 306.349 142.192 305.552 142.635L255.239 170.627ZM253.823 173.042C252.23 172.156 252.216 170.719 253.81 169.832L304.123 141.84C305.718 140.953 308.3 140.961 309.893 141.847L389.898 186.358C391.484 187.241 391.506 188.681 389.911 189.568L339.598 217.56C338.003 218.447 335.421 218.44 333.827 217.553L253.823 173.042Z" fill="#82CBE7"/>
<path fill-rule="evenodd" clip-rule="evenodd" d="M351.813 196.903C350.619 197.567 350.619 198.644 351.813 199.308C353.007 199.972 354.942 199.972 356.135 199.308C357.329 198.644 357.329 197.567 356.135 196.903C354.942 196.239 353.007 196.239 351.813 196.903ZM350.384 200.103C348.401 199 348.401 197.211 350.384 196.108C352.367 195.005 355.582 195.005 357.565 196.108C359.548 197.211 359.548 199 357.565 200.103C355.582 201.206 352.367 201.206 350.384 200.103Z" fill="#82CBE7"/>
<path d="M369.926 183.402H375.884V188.698H369.926V183.402Z" fill="#82CBE7"/>
<path d="M389.194 184.542L338.881 212.534C337.686 213.199 335.743 213.196 334.54 212.527L254.536 168.016C253.333 167.347 253.328 166.266 254.523 165.601L304.836 137.609C306.032 136.944 307.974 136.947 309.177 137.616L389.181 182.127C390.379 182.793 390.39 183.877 389.194 184.542Z" fill="#4824A2"/>
<path fill-rule="evenodd" clip-rule="evenodd" d="M255.239 165.998C254.442 166.442 254.44 167.166 255.252 167.618L335.257 212.129C336.069 212.581 337.371 212.58 338.168 212.136L388.482 184.144C389.277 183.702 389.276 182.974 388.469 182.524L308.464 138.014C307.652 137.562 306.349 137.563 305.552 138.006L255.239 165.998ZM253.823 168.413C252.23 167.527 252.216 166.09 253.81 165.203L304.123 137.211C305.718 136.324 308.3 136.332 309.893 137.218L389.898 181.729C391.484 182.612 391.506 184.052 389.911 184.939L339.598 212.931C338.003 213.818 335.421 213.811 333.827 212.924L253.823 168.413Z" fill="#4824A2"/>
<path fill-rule="evenodd" clip-rule="evenodd" d="M351.813 192.266C350.619 192.93 350.619 194.007 351.813 194.671C353.007 195.335 354.942 195.335 356.135 194.671C357.329 194.007 357.329 192.93 356.135 192.266C354.942 191.602 353.007 191.602 351.813 192.266ZM350.384 195.466C348.401 194.363 348.401 192.574 350.384 191.471C352.367 190.368 355.582 190.368 357.565 191.471C359.548 192.574 359.548 194.363 357.565 195.466C355.582 196.57 352.367 196.57 350.384 195.466Z" fill="#EE1DB3"/>
<path fill-rule="evenodd" clip-rule="evenodd" d="M286.796 170.898C286.361 171.14 286.355 171.544 286.82 171.803L308.288 183.747C308.752 184.005 309.479 184.001 309.913 183.76L338.65 167.772C339.084 167.531 339.088 167.124 338.627 166.867L317.158 154.923C316.694 154.665 315.967 154.669 315.533 154.91L286.796 170.898ZM285.867 172.333C284.893 171.791 284.866 170.912 285.843 170.368L314.58 154.38C315.557 153.837 317.138 153.852 318.111 154.393L339.579 166.337C340.549 166.877 340.581 167.758 339.603 168.302L310.866 184.29C309.889 184.833 308.309 184.818 307.335 184.277L285.867 172.333Z" fill="#EE1DB3"/>
<path fill-rule="evenodd" clip-rule="evenodd" d="M302.642 173.985C302.642 173.985 302.642 173.984 302.642 173.985L305.209 182.128L303.882 182.258L301.314 174.113C301.175 173.665 301.387 173.241 301.919 172.952C302.452 172.662 303.219 172.554 304.023 172.642C304.024 172.642 304.024 172.642 304.025 172.642L318.624 174.216C318.998 174.256 319.276 174.212 319.451 174.142C319.621 174.073 319.753 173.957 319.768 173.779L320.213 168.681L320.213 168.679C320.27 168.07 321.017 167.607 322.104 167.526L322.108 167.526L338.942 166.333L339.113 167.077L322.283 168.269C322.282 168.269 322.281 168.269 322.281 168.269C321.855 168.301 321.583 168.46 321.559 168.718C321.559 168.718 321.559 168.718 321.559 168.718L321.114 173.816C321.08 174.202 320.768 174.536 320.242 174.748C319.722 174.958 319.052 175.026 318.368 174.952C318.368 174.952 318.368 174.952 318.368 174.952L303.767 173.378L303.765 173.378C303.327 173.33 303.029 173.396 302.86 173.488C302.692 173.58 302.567 173.743 302.642 173.985Z" fill="#EE1DB3"/>
<path fill-rule="evenodd" clip-rule="evenodd" d="M273.29 154.185L276.343 155.883C276.953 156.223 277.627 156.423 278.185 156.492C278.757 156.563 279.059 156.488 279.189 156.416L290.25 150.262C290.379 150.19 290.515 150.022 290.387 149.704C290.262 149.393 289.903 149.018 289.293 148.679L286.241 146.98L287.67 146.185L290.722 147.883C291.56 148.35 292.138 148.908 292.359 149.458C292.577 150 292.467 150.619 291.679 151.057L280.618 157.211C279.83 157.65 278.718 157.711 277.744 157.589C276.756 157.466 275.751 157.145 274.914 156.679L271.861 154.98L273.29 154.185Z" fill="#EE1DB3"/>
<path fill-rule="evenodd" clip-rule="evenodd" d="M121.007 119.134C120.349 119.5 119.283 119.5 118.625 119.134L106.934 112.63C106.276 112.264 106.276 111.67 106.934 111.304C107.591 110.938 108.658 110.938 109.316 111.304L121.007 117.809C121.665 118.175 121.665 118.768 121.007 119.134Z" fill="#82CBE7"/>
<path fill-rule="evenodd" clip-rule="evenodd" d="M374.88 111.841C373.714 112.49 373.714 113.541 374.88 114.19C376.045 114.838 377.935 114.838 379.101 114.19C380.266 113.541 380.266 112.49 379.101 111.841C377.935 111.193 376.045 111.193 374.88 111.841ZM374.086 114.632C372.482 113.739 372.482 112.292 374.086 111.4C375.69 110.507 378.291 110.507 379.895 111.4C381.499 112.292 381.499 113.739 379.895 114.632C378.291 115.524 375.69 115.524 374.086 114.632Z" fill="#EE1DB3"/>
<path d="M273.88 101.28C275.793 98.0871 275.793 94.6361 273.88 93.5718C271.966 92.5075 268.864 94.233 266.95 97.4259C265.037 100.619 265.037 104.07 266.95 105.134C268.864 106.198 271.966 104.473 273.88 101.28Z" fill="#119CBA"/>
<path d="M280.089 111.635C280.089 116.839 275.759 119.43 270.415 122.399C265.072 125.372 260.741 127.6 260.741 122.392C260.741 117.187 265.072 110.557 270.415 107.588C275.759 104.619 280.089 106.43 280.089 111.635Z" fill="#119CBA"/>
<path d="M264.36 122.793L261.773 125.202L264.831 126.689L267.16 124.552L264.36 122.793Z" fill="#119CBA"/>
<path d="M269.367 102.633L266.779 105.042L269.838 106.529L272.166 104.392L269.367 102.633Z" fill="#119CBA"/>
<path d="M273.837 93.5586L271.473 96.1721L274.654 97.3976L276.782 95.0753L273.837 93.5586Z" fill="#119CBA"/>
<path d="M277.163 106.422L274.799 109.035L277.98 110.261L280.108 107.939L277.163 106.422Z" fill="#119CBA"/>
<path d="M276.884 102.729C278.797 99.5364 278.797 96.0853 276.884 95.021C274.97 93.9567 271.868 95.6822 269.954 98.8751C268.041 102.068 268.041 105.519 269.954 106.583C271.868 107.648 274.97 105.922 276.884 102.729Z" fill="#80E8E1"/>
<path d="M283.091 113.084C283.091 118.288 278.761 120.879 273.417 123.848C268.073 126.821 263.743 129.049 263.743 123.841C263.743 118.636 268.073 112.006 273.417 109.037C278.761 106.068 283.091 107.88 283.091 113.084Z" fill="#80E8E1"/>
<path d="M65.0122 115.117L16.9152 141.876C15.7723 142.512 14.8466 142.529 14.8466 141.913L14.8466 100.981C14.8466 100.366 15.7723 99.3521 16.9152 98.7163L65.0122 71.9572C66.1552 71.3213 67.0809 71.3047 67.0809 71.9201L67.0809 112.852C67.0809 113.465 66.1552 114.481 65.0122 115.117Z" fill="#82CBE7"/>
<path d="M102.933 134.923L54.8356 161.682C53.6926 162.318 52.3278 162.589 51.7857 162.287L15.7263 142.226C15.1842 141.924 15.6709 141.165 16.8138 140.529L64.9108 113.77C66.0537 113.134 67.4186 112.863 67.9607 113.165L104.02 133.227C104.56 133.527 104.076 134.287 102.933 134.923Z" fill="#82CBE7"/>
<path fill-rule="evenodd" clip-rule="evenodd" d="M16.353 141.911L52.3528 161.94C52.388 161.944 52.5155 161.952 52.8038 161.895C53.2139 161.814 53.7381 161.631 54.2414 161.351L102.338 134.592C102.841 134.312 103.169 134.02 103.315 133.792C103.418 133.632 103.403 133.56 103.395 133.541L67.3963 113.513C67.3611 113.508 67.2336 113.5 66.9453 113.557C66.5352 113.638 66.011 113.821 65.5077 114.101L17.4107 140.86C16.9073 141.14 16.579 141.432 16.4328 141.66C16.33 141.82 16.3453 141.891 16.353 141.911ZM14.8462 141.345C15.0936 140.959 15.58 140.553 16.2196 140.197L64.3166 113.438C64.9562 113.083 65.6859 112.812 66.3796 112.674C67.0068 112.55 67.923 112.48 68.5576 112.833L104.617 132.895C105.251 133.248 105.125 133.758 104.902 134.106C104.655 134.492 104.17 134.899 103.529 135.255L55.4325 162.014C54.7929 162.37 54.0631 162.64 53.3695 162.778C52.7423 162.902 51.8261 162.972 51.1915 162.619L15.1322 142.557C14.4976 142.204 14.6226 141.694 14.8462 141.345Z" fill="#82CBE7"/>
<path d="M102.933 133.013L54.8356 159.772C53.6926 160.408 52.3278 160.679 51.7857 160.377L15.7263 140.315C15.1842 140.014 15.6709 139.254 16.8138 138.619L64.9108 111.86C66.0537 111.224 67.4186 110.953 67.9607 111.255L104.02 131.316C104.56 131.617 104.076 132.377 102.933 133.013Z" fill="#4824A2"/>
<path fill-rule="evenodd" clip-rule="evenodd" d="M16.353 140.001L52.3528 160.029C52.388 160.034 52.5155 160.042 52.8038 159.985C53.2139 159.904 53.7381 159.721 54.2414 159.441L102.338 132.682C102.841 132.402 103.169 132.11 103.315 131.882C103.418 131.721 103.403 131.65 103.395 131.631L67.3963 111.602C67.3611 111.598 67.2336 111.59 66.9453 111.647C66.5352 111.728 66.011 111.911 65.5077 112.191L17.4107 138.95C16.9073 139.23 16.579 139.522 16.4328 139.75C16.33 139.91 16.3453 139.981 16.353 140.001ZM14.8462 139.435C15.0936 139.049 15.58 138.643 16.2196 138.287L64.3166 111.528C64.9562 111.172 65.6859 110.902 66.3796 110.764C67.0068 110.64 67.923 110.57 68.5576 110.923L104.617 130.985C105.251 131.338 105.125 131.848 104.902 132.196C104.655 132.582 104.17 132.988 103.529 133.345L55.4325 160.104C54.7929 160.459 54.0631 160.73 53.3695 160.868C52.7423 160.992 51.8261 161.062 51.1915 160.709L15.1322 140.647C14.4976 140.294 14.6226 139.784 14.8462 139.435Z" fill="#4824A2"/>
<path fill-rule="evenodd" clip-rule="evenodd" d="M54.5768 141.384C54.5767 141.384 54.5771 141.383 54.5781 141.382C54.5773 141.383 54.5768 141.384 54.5768 141.384ZM54.7215 141.263C54.7429 141.249 54.7668 141.235 54.7935 141.22L70.3732 132.552C70.3998 132.538 70.4257 132.524 70.4504 132.512L79.8335 137.733C79.8121 137.746 79.7882 137.761 79.7615 137.776L64.1818 146.444C64.1552 146.458 64.1293 146.472 64.1046 146.484L54.7215 141.263ZM63.8877 146.564C63.8877 146.564 63.889 146.564 63.8915 146.563C63.8889 146.564 63.8877 146.564 63.8877 146.564ZM79.9778 137.612C79.9778 137.612 79.9775 137.613 79.9765 137.614C79.9773 137.613 79.9778 137.612 79.9778 137.612ZM70.6673 132.432C70.6673 132.432 70.666 132.432 70.6635 132.433C70.6661 132.432 70.6673 132.432 70.6673 132.432ZM53.0278 141.015C53.1515 140.852 53.3598 140.693 53.6024 140.558L69.1821 131.89C69.4247 131.755 69.7109 131.639 70.0047 131.57C70.1495 131.536 70.3372 131.504 70.5463 131.502C70.7587 131.5 71.0663 131.53 71.3163 131.669L81.3497 137.251C81.6001 137.39 81.6536 137.562 81.6496 137.679C81.6456 137.795 81.588 137.9 81.5272 137.98C81.4037 138.144 81.1956 138.303 80.9526 138.438L65.3729 147.106C65.1303 147.241 64.8441 147.357 64.5503 147.426C64.4055 147.46 64.2179 147.492 64.0088 147.494C63.7963 147.496 63.4887 147.466 63.2387 147.327L53.2053 141.745C52.9554 141.606 52.9012 141.435 52.9051 141.317C52.909 141.2 52.9668 141.096 53.0278 141.015Z" fill="#EE1DB3"/>
<path d="M63.2413 110.548L19.7998 134.717C18.7675 135.291 17.9314 135.364 17.9314 134.878L17.9314 102.612C17.9314 102.127 18.7675 101.269 19.7998 100.695L63.2413 76.526C64.2736 75.9516 65.1097 75.8793 65.1097 76.3644L65.1097 108.631C65.1097 109.113 64.2736 109.974 63.2413 110.548Z" fill="#4824A2"/>
<path fill-rule="evenodd" clip-rule="evenodd" d="M18.5265 102.381L18.5265 134.446C18.5602 134.455 18.6184 134.463 18.7098 134.455C18.9583 134.433 19.3431 134.308 19.7994 134.054L63.2409 109.885C63.6968 109.631 64.0815 109.328 64.3302 109.073C64.4216 108.979 64.4799 108.907 64.5138 108.86L64.5138 76.7957C64.4801 76.7861 64.4219 76.7786 64.3305 76.7865C64.082 76.808 63.6972 76.934 63.2409 77.1879L19.7994 101.357C19.3431 101.611 18.9583 101.913 18.7098 102.168C18.6184 102.262 18.5602 102.334 18.5265 102.381ZM18.2464 101.205C18.674 100.766 19.2235 100.352 19.7994 100.031L63.2409 75.8626C63.8168 75.5422 64.3662 75.3448 64.7939 75.3079C65.0065 75.2895 65.2171 75.3083 65.3834 75.4006C65.552 75.4942 65.7048 75.6837 65.7048 76.0324L65.7048 108.299C65.7048 108.647 65.5514 109.007 65.3832 109.287C65.2171 109.564 65.0068 109.817 64.7942 110.036C64.3667 110.475 63.8173 110.889 63.2409 111.21L19.7994 135.379C19.2235 135.699 18.674 135.897 18.2464 135.934C18.0338 135.952 17.8232 135.933 17.6569 135.841C17.4882 135.747 17.3354 135.558 17.3354 135.209L17.3354 102.943C17.3354 102.594 17.4882 102.235 17.6569 101.953C17.8232 101.676 18.0338 101.423 18.2464 101.205Z" fill="#4824A2"/>
<path fill-rule="evenodd" clip-rule="evenodd" d="M29.5511 100.359L37.1029 96.1579C38.0755 95.6168 38.8952 96.016 38.8952 97.1145L38.8952 117.556L31.3434 121.758C30.3708 122.299 29.5511 121.9 29.5511 120.801L29.5511 100.359ZM30.7422 101.022L30.7422 120.139C30.7422 120.467 30.9936 120.627 31.3434 120.432L37.7041 116.894L37.7041 97.7771C37.7041 97.449 37.4527 97.2886 37.1029 97.4832L30.7422 101.022Z" fill="#82CBE7"/>
<path fill-rule="evenodd" clip-rule="evenodd" d="M32.709 100.949L38.929 97.4887C39.2782 97.2944 39.6174 97.2562 39.8692 97.3951C39.8695 97.3953 39.8699 97.3955 39.8703 97.3957L40.5605 97.7716C40.5827 97.7839 40.62 97.782 40.6605 97.7595L53.362 90.6929L53.362 108.027C53.366 108.847 52.7649 109.845 52.0265 110.256L32.709 121.004L32.709 100.949ZM33.9 101.612L33.9 119.016L52.0265 108.931C52.112 108.883 52.1714 108.776 52.1709 108.696L52.1709 108.692L52.1709 92.6809L40.6605 99.0847C40.3155 99.2767 39.973 99.3177 39.7203 99.1784C39.72 99.1782 39.7196 99.178 39.7192 99.1778L39.029 98.8019C39.0059 98.7891 38.9712 98.7905 38.929 98.814L33.9 101.612Z" fill="#82CBE7"/>
<path fill-rule="evenodd" clip-rule="evenodd" d="M46.9809 110.137L38.8279 114.673L38.8279 113.348L46.9809 108.812L46.9809 110.137Z" fill="#82CBE7"/>
<path d="M134.451 177.539L63.5626 75.5199L61.814 74.9371L16.9341 101.36L16.9341 135.554L43.0292 217.348L134.451 177.539Z" fill="url(#paint4_linear_5442_50669)"/>
<path d="M280.666 39.6462C281.832 37.7007 281.833 35.598 280.667 34.9495C279.501 34.301 277.61 35.3524 276.444 37.2978C275.278 39.2432 275.278 41.346 276.444 41.9945C277.61 42.643 279.501 41.5916 280.666 39.6462Z" fill="#4824A2"/>
<path d="M284.448 45.949C284.448 49.1201 281.809 50.6987 278.553 52.5078C275.298 54.3192 272.659 55.6766 272.659 52.5032C272.659 49.3321 275.298 45.2922 278.553 43.4831C281.809 41.674 284.448 42.7779 284.448 45.949Z" fill="#4824A2"/>
<path d="M274.866 52.7539L273.289 54.2219L275.153 55.1276L276.571 53.8255L274.866 52.7539Z" fill="#4824A2"/>
<path d="M277.914 40.4648L276.338 41.9328L278.201 42.8385L279.62 41.5365L277.914 40.4648Z" fill="#4824A2"/>
<path d="M280.64 34.9375L279.2 36.53L281.137 37.2766L282.434 35.8616L280.64 34.9375Z" fill="#4824A2"/>
<path d="M282.495 40.529C283.661 38.5836 283.661 36.4808 282.495 35.8323C281.329 35.1838 279.438 36.2352 278.273 38.1806C277.107 40.1261 277.107 42.2288 278.272 42.8773C279.438 43.5258 281.329 42.4744 282.495 40.529Z" fill="#8B55FF"/>
<path d="M286.278 46.8357C286.278 50.0068 283.64 51.5854 280.384 53.3945C277.128 55.2059 274.489 56.5633 274.489 53.3899C274.489 50.2188 277.128 46.1789 280.384 44.3698C283.64 42.5608 286.278 43.6647 286.278 46.8357Z" fill="#8B55FF"/>
<path fill-rule="evenodd" clip-rule="evenodd" d="M91.0105 70.0737C91.021 69.5672 91.4598 69.1654 91.9865 69.1755L95.227 69.2464C95.7536 69.2599 96.1714 69.6786 96.1609 70.1851C96.1504 70.6916 95.7115 71.0935 95.1849 71.0833L91.9443 71.0124C91.4142 71.0023 90.9964 70.5836 91.0105 70.0737ZM83.3251 69.8171C83.3392 69.3106 83.7745 68.9087 84.3012 68.9189L87.5417 68.9898C88.0683 69.0033 88.4861 69.422 88.4756 69.9285C88.4616 70.435 88.0262 70.8368 87.4996 70.8267L84.259 70.7558C83.7289 70.7457 83.3146 70.3236 83.3251 69.8171ZM88.616 75.2469L88.6898 72.1234C88.7003 71.6169 89.1392 71.215 89.6658 71.2252C90.1924 71.2353 90.6067 71.6574 90.5962 72.1639L90.5224 75.2874C90.5119 75.7939 90.0731 76.1957 89.5499 76.1856C89.0233 76.1755 88.6055 75.7534 88.616 75.2469ZM88.8864 67.8417L88.9601 64.7148C88.9706 64.2083 89.4095 63.8065 89.9361 63.8166C90.4628 63.8267 90.877 64.2488 90.8665 64.7553L90.7928 67.8822C90.7787 68.3887 90.3434 68.7905 89.8168 68.7804C89.2901 68.7669 88.8723 68.3482 88.8864 67.8417Z" fill="#EE1DB3"/>
<path d="M404.588 37.8682C405.247 37.8682 405.824 37.3168 405.824 36.6866V32.748C405.824 32.1178 405.247 31.5664 404.588 31.5664C403.929 31.5664 403.353 32.1178 403.353 32.748V36.6866C403.435 37.3168 403.929 37.8682 404.588 37.8682Z" fill="#EE1DB3"/>
<path d="M404.669 47.2393C405.328 47.2393 405.905 46.6879 405.905 46.0577V42.1191C405.905 41.4889 405.328 40.9375 404.669 40.9375C404.01 40.9375 403.434 41.4889 403.434 42.1191V46.0577C403.516 46.7667 404.01 47.2393 404.669 47.2393Z" fill="#EE1DB3"/>
<path d="M397.67 40.6249H401.787C402.446 40.6249 403.023 40.0735 403.023 39.4433C403.023 38.8131 402.446 38.2617 401.787 38.2617H397.67C397.011 38.2617 396.435 38.8131 396.435 39.4433C396.435 40.0735 397.011 40.6249 397.67 40.6249Z" fill="#EE1DB3"/>
<path d="M407.472 40.5468H411.589C412.248 40.5468 412.824 39.9954 412.824 39.3652C412.824 38.735 412.248 38.1836 411.589 38.1836H407.472C406.813 38.1836 406.237 38.735 406.237 39.3652C406.319 39.9954 406.813 40.5468 407.472 40.5468Z" fill="#EE1DB3"/>
<defs>
<linearGradient id="paint0_linear_5442_50669" x1="254.916" y1="36.5205" x2="236.798" y2="143.671" gradientUnits="userSpaceOnUse">
<stop offset="0.1497" stop-color="#753DDA"/>
<stop offset="0.1653" stop-color="#7342DA"/>
<stop offset="0.4575" stop-color="#529FD1"/>
<stop offset="0.6618" stop-color="#3DD9CC"/>
<stop offset="0.7594" stop-color="#35F0CA"/>
<stop offset="1" stop-color="#35F0CA"/>
</linearGradient>
<linearGradient id="paint1_linear_5442_50669" x1="223.913" y1="139.396" x2="226.221" y2="33.9137" gradientUnits="userSpaceOnUse">
<stop offset="0.1497" stop-color="#753DDA"/>
<stop offset="0.1653" stop-color="#7342DA"/>
<stop offset="0.4575" stop-color="#529FD1"/>
<stop offset="0.6618" stop-color="#3DD9CC"/>
<stop offset="0.7594" stop-color="#35F0CA"/>
<stop offset="1" stop-color="#35F0CA"/>
</linearGradient>
<linearGradient id="paint2_linear_5442_50669" x1="97.9835" y1="-50.3167" x2="97.9835" y2="27.8362" gradientUnits="userSpaceOnUse">
<stop offset="0.432292" stop-color="#7BFFDF" stop-opacity="0"/>
<stop offset="1" stop-color="#7BFFDF" stop-opacity="0.21"/>
</linearGradient>
<linearGradient id="paint3_linear_5442_50669" x1="307.459" y1="-11.0633" x2="307.459" y2="164.946" gradientUnits="userSpaceOnUse">
<stop offset="0.432292" stop-color="#7BFFDF" stop-opacity="0"/>
<stop offset="1" stop-color="#7BFFDF" stop-opacity="0.21"/>
</linearGradient>
<linearGradient id="paint4_linear_5442_50669" x1="91.6161" y1="194.432" x2="42.9743" y2="91.3008" gradientUnits="userSpaceOnUse">
<stop offset="0.432292" stop-color="#7BFFDF" stop-opacity="0"/>
<stop offset="1" stop-color="#7BFFDF" stop-opacity="0.21"/>
</linearGradient>
</defs>
</svg>
