<svg width="431" height="220" viewBox="0 0 431 220" fill="none" xmlns="http://www.w3.org/2000/svg">
<g clip-path="url(#clip0_7321_8417)">
<rect y="-50" width="431" height="321" fill="#1B0D33"/>
<path opacity="0.6" d="M-86.9863 0H431V263.062C420.526 269.536 409.664 275.53 398.44 281H82.075C4.60542 240.854 -54.8985 170.542 -77.4819 80.287C-84.1647 53.5792 -87.2323 26.6527 -86.9863 0Z" fill="url(#paint0_radial_7321_8417)"/>
<circle cx="200.5" cy="159.5" r="29.5" fill="url(#paint1_linear_7321_8417)"/>
<ellipse opacity="0.3" cx="125" cy="83.5" rx="30" ry="29.5" fill="#571AFF"/>
<path d="M179.01 36.3342V37H175.851V36.3342H177.126V32.6494L175.976 33.3568L175.613 32.7628L177.217 31.7792H177.966V36.3342H179.01ZM177.058 44.6733C177.411 44.6733 177.711 44.7401 177.958 44.8738C178.206 45.0049 178.394 45.1828 178.522 45.4072C178.653 45.6292 178.719 45.8763 178.719 46.1487C178.719 46.3782 178.679 46.6027 178.598 46.8221C178.52 47.039 178.392 47.2685 178.216 47.5107C178.042 47.7503 177.811 48.0176 177.523 48.3127C177.236 48.6053 176.884 48.9407 176.468 49.319H178.84L178.742 50H175.496V49.3569C175.965 48.9054 176.351 48.522 176.653 48.2068C176.958 47.8915 177.197 47.6191 177.368 47.3896C177.542 47.1601 177.665 46.9533 177.735 46.7692C177.806 46.5825 177.841 46.3934 177.841 46.2017C177.841 45.9394 177.767 45.7326 177.618 45.5813C177.469 45.4299 177.262 45.3543 176.998 45.3543C176.763 45.3543 176.566 45.3971 176.407 45.4829C176.251 45.5686 176.096 45.7074 175.942 45.899L175.39 45.4791C175.594 45.2193 175.829 45.0201 176.093 44.8814C176.358 44.7426 176.68 44.6733 177.058 44.6733ZM177.043 57.6733C177.388 57.6733 177.686 57.7338 177.936 57.8549C178.185 57.9759 178.377 58.1361 178.511 58.3353C178.644 58.5346 178.711 58.754 178.711 58.9936C178.711 59.3164 178.612 59.5851 178.412 59.7994C178.216 60.0138 177.97 60.1551 177.675 60.2232C177.892 60.2458 178.091 60.3064 178.272 60.4047C178.457 60.5031 178.603 60.6431 178.711 60.8247C178.822 61.0063 178.878 61.2345 178.878 61.5094C178.878 61.807 178.8 62.0769 178.643 62.319C178.487 62.5586 178.267 62.749 177.985 62.8903C177.702 63.0315 177.37 63.1021 176.986 63.1021C176.658 63.1021 176.346 63.0416 176.048 62.9206C175.753 62.7995 175.502 62.6166 175.295 62.372L175.813 61.918C175.962 62.092 176.135 62.2207 176.332 62.3039C176.531 62.3871 176.736 62.4287 176.948 62.4287C177.271 62.4287 177.527 62.3455 177.716 62.1791C177.905 62.0101 178 61.7768 178 61.4792C178 61.1412 177.907 60.9054 177.72 60.7717C177.533 60.6355 177.291 60.5674 176.994 60.5674H176.544L176.642 59.9432H176.96C177.204 59.9432 177.417 59.8764 177.599 59.7427C177.783 59.6065 177.875 59.3984 177.875 59.1185C177.875 58.8663 177.788 58.672 177.614 58.5359C177.443 58.3971 177.23 58.3278 176.975 58.3278C176.755 58.3278 176.561 58.3681 176.392 58.4488C176.223 58.5295 176.057 58.6456 175.893 58.7969L175.443 58.3164C175.672 58.0995 175.921 57.9381 176.188 57.8322C176.455 57.7263 176.74 57.6733 177.043 57.6733ZM178.45 72.7427V74.1387H179.071V74.797H178.45V76H177.637L177.633 74.797H175.465V74.2068L176.967 70.6733L177.682 70.957L176.351 74.1387H177.637L177.739 72.7427H178.45ZM178.764 83.7792L178.655 84.4148H176.649V85.8675C176.798 85.7893 176.942 85.7364 177.081 85.7086C177.222 85.6784 177.363 85.6632 177.504 85.6632C177.782 85.6632 178.029 85.7288 178.246 85.86C178.463 85.9911 178.633 86.1803 178.757 86.4274C178.883 86.6746 178.946 86.9735 178.946 87.3241C178.946 87.6746 178.868 87.9836 178.711 88.2509C178.557 88.5183 178.339 88.7276 178.057 88.8789C177.777 89.0277 177.449 89.1021 177.073 89.1021C176.733 89.1021 176.43 89.0416 176.165 88.9206C175.903 88.797 175.672 88.6292 175.473 88.4174L175.98 87.9407C176.27 88.2661 176.623 88.4287 177.039 88.4287C177.357 88.4287 177.607 88.3329 177.788 88.1412C177.972 87.947 178.064 87.6734 178.064 87.3203C178.064 86.9369 177.984 86.6696 177.822 86.5182C177.661 86.3644 177.458 86.2875 177.213 86.2875C177.082 86.2875 176.958 86.3026 176.842 86.3329C176.729 86.3606 176.603 86.4035 176.464 86.4615H175.84V83.7792H178.764ZM177.58 96.6733C177.792 96.6733 177.986 96.7023 178.163 96.7603C178.342 96.8158 178.506 96.8927 178.655 96.9911L178.325 97.5359C178.101 97.3896 177.854 97.3164 177.584 97.3164C177.226 97.3164 176.941 97.4829 176.729 97.8158C176.517 98.1462 176.401 98.6002 176.381 99.1778C176.545 98.9609 176.728 98.8045 176.929 98.7086C177.134 98.6103 177.351 98.5611 177.58 98.5611C177.85 98.5611 178.096 98.6241 178.318 98.7503C178.542 98.8738 178.721 99.0605 178.855 99.3102C178.989 99.5573 179.056 99.8663 179.056 100.237C179.056 100.61 178.98 100.937 178.829 101.217C178.68 101.497 178.475 101.715 178.216 101.871C177.956 102.025 177.661 102.102 177.33 102.102C176.894 102.102 176.542 101.994 176.275 101.777C176.01 101.56 175.817 101.261 175.696 100.88C175.575 100.499 175.515 100.063 175.515 99.5712C175.515 98.9911 175.596 98.4842 175.76 98.0504C175.927 97.614 176.164 97.2761 176.472 97.0365C176.779 96.7944 177.149 96.6733 177.58 96.6733ZM177.402 99.1967C177.196 99.1967 177.005 99.2522 176.831 99.3631C176.66 99.4741 176.512 99.6216 176.388 99.8058C176.399 100.371 176.475 100.788 176.619 101.058C176.765 101.325 177.004 101.459 177.334 101.459C177.624 101.459 177.84 101.351 177.981 101.134C178.125 100.914 178.197 100.628 178.197 100.275C178.197 99.8739 178.125 99.5939 177.981 99.435C177.837 99.2761 177.644 99.1967 177.402 99.1967Z" fill="white"/>
<path d="M75 45.5C75 61.7924 61.7924 75 45.5 75V75C29.2076 75 16 61.7924 16 45.5L16 16L45.5 16C61.7924 16 75 29.2076 75 45.5V45.5Z" fill="#7C4DFF"/>
<path d="M361.513 169.123H355.615C355.542 169.123 355.472 169.152 355.42 169.204C355.369 169.255 355.34 169.325 355.34 169.398V172.281C355.34 172.354 355.369 172.424 355.42 172.476C355.472 172.527 355.542 172.557 355.615 172.557H357.915V176.136C357.915 176.136 357.399 176.313 355.967 176.313C354.282 176.313 351.929 175.697 351.929 170.522C351.929 165.346 354.38 164.666 356.68 164.666C358.671 164.666 359.53 165.017 360.075 165.184C360.115 165.192 360.156 165.191 360.196 165.181C360.235 165.171 360.272 165.153 360.303 165.127C360.334 165.101 360.36 165.069 360.377 165.032C360.395 164.996 360.404 164.956 360.405 164.915L361.069 162.13C361.071 162.088 361.062 162.046 361.043 162.009C361.025 161.971 360.998 161.938 360.964 161.914C360.742 161.756 359.39 161 355.973 161C352.036 161 348 162.673 348 170.724C348 178.775 352.623 179.973 356.517 179.973C359.742 179.973 361.7 178.596 361.7 178.596C361.731 178.571 361.755 178.539 361.77 178.503C361.786 178.467 361.792 178.427 361.788 178.388V169.396C361.787 169.323 361.758 169.254 361.707 169.203C361.655 169.152 361.586 169.123 361.513 169.123V169.123Z" fill="#100E0F"/>
<path d="M391.898 161.965C391.899 161.928 391.892 161.893 391.879 161.859C391.865 161.826 391.845 161.795 391.82 161.769C391.794 161.743 391.764 161.723 391.731 161.709C391.697 161.695 391.662 161.688 391.626 161.688H388.314C388.278 161.688 388.242 161.695 388.208 161.709C388.175 161.723 388.145 161.743 388.119 161.769C388.094 161.795 388.073 161.825 388.06 161.859C388.046 161.892 388.039 161.928 388.039 161.965V168.379H382.858V161.965C382.858 161.928 382.851 161.892 382.837 161.859C382.824 161.825 382.803 161.795 382.778 161.769C382.752 161.743 382.722 161.723 382.689 161.709C382.655 161.695 382.619 161.688 382.583 161.688H379.271C379.235 161.688 379.199 161.695 379.166 161.709C379.132 161.723 379.102 161.743 379.077 161.769C379.051 161.795 379.031 161.825 379.017 161.859C379.003 161.892 378.997 161.928 378.997 161.965V179.337C378.997 179.41 379.026 179.48 379.077 179.532C379.129 179.583 379.198 179.613 379.271 179.613H382.583C382.656 179.613 382.726 179.583 382.777 179.532C382.829 179.48 382.858 179.41 382.858 179.337V171.905H388.032L388.022 179.337C388.022 179.41 388.052 179.48 388.103 179.532C388.155 179.583 388.225 179.613 388.298 179.613H391.626C391.662 179.613 391.697 179.606 391.731 179.592C391.764 179.578 391.794 179.557 391.819 179.531C391.845 179.506 391.865 179.475 391.878 179.442C391.892 179.408 391.899 179.373 391.898 179.337V161.965Z" fill="#100E0F"/>
<path d="M367.778 164.254C367.774 163.831 367.645 163.418 367.408 163.069C367.17 162.719 366.834 162.447 366.442 162.288C366.05 162.129 365.62 162.089 365.206 162.174C364.791 162.259 364.411 162.464 364.113 162.765C363.816 163.065 363.614 163.447 363.532 163.862C363.451 164.277 363.495 164.707 363.658 165.098C363.82 165.488 364.095 165.822 364.447 166.056C364.799 166.291 365.212 166.416 365.635 166.416C365.918 166.416 366.199 166.36 366.46 166.251C366.721 166.142 366.958 165.982 367.157 165.781C367.357 165.58 367.514 165.342 367.621 165.08C367.727 164.817 367.781 164.537 367.778 164.254V164.254Z" fill="#100E0F"/>
<path d="M367.541 175.67V167.653C367.541 167.58 367.512 167.51 367.46 167.458C367.409 167.406 367.339 167.376 367.266 167.376H363.954C363.877 167.383 363.805 167.418 363.752 167.475C363.699 167.532 363.669 167.606 363.668 167.684V179.177C363.668 179.514 363.878 179.615 364.149 179.615H367.131C367.459 179.615 367.539 179.453 367.539 179.171L367.541 175.67Z" fill="#100E0F"/>
<path d="M404.509 167.401H401.221C401.148 167.402 401.078 167.432 401.026 167.484C400.975 167.536 400.946 167.607 400.946 167.68V176.198C400.345 176.594 399.642 176.806 398.922 176.81C397.734 176.81 397.418 176.27 397.418 175.108V167.68C397.419 167.607 397.391 167.537 397.339 167.484C397.288 167.432 397.219 167.402 397.146 167.401H393.795C393.722 167.402 393.652 167.432 393.601 167.484C393.549 167.536 393.521 167.607 393.521 167.68V175.667C393.521 179.12 395.447 179.966 398.096 179.966C400.268 179.966 402.02 178.766 402.02 178.766C402.048 179.004 402.089 179.24 402.142 179.473C402.166 179.517 402.201 179.554 402.243 179.58C402.285 179.606 402.334 179.621 402.384 179.623H404.511C404.584 179.622 404.654 179.592 404.705 179.54C404.757 179.488 404.786 179.418 404.786 179.344V167.68C404.786 167.643 404.779 167.607 404.765 167.573C404.751 167.54 404.731 167.509 404.705 167.483C404.68 167.457 404.649 167.437 404.615 167.423C404.582 167.409 404.546 167.401 404.509 167.401V167.401Z" fill="#100E0F"/>
<path d="M413.519 167.012C412.416 167.005 411.331 167.294 410.377 167.847V161.965C410.377 161.928 410.37 161.892 410.356 161.859C410.343 161.825 410.322 161.795 410.297 161.769C410.271 161.743 410.241 161.723 410.208 161.709C410.174 161.695 410.138 161.688 410.102 161.688H406.773C406.737 161.688 406.701 161.695 406.667 161.709C406.634 161.723 406.604 161.743 406.578 161.769C406.553 161.795 406.532 161.825 406.519 161.859C406.505 161.892 406.498 161.928 406.498 161.965V179.337C406.498 179.41 406.527 179.48 406.579 179.532C406.63 179.583 406.7 179.613 406.773 179.613H409.083C409.133 179.613 409.182 179.599 409.224 179.573C409.267 179.548 409.301 179.511 409.325 179.467C409.391 179.203 409.438 178.935 409.465 178.665C409.465 178.665 410.829 179.956 413.402 179.956C416.427 179.956 418.163 178.421 418.163 173.066C418.163 167.711 415.393 167.012 413.519 167.012ZM412.22 176.8C411.544 176.783 410.883 176.592 410.303 176.245V170.744C410.826 170.445 411.406 170.258 412.005 170.193C413.192 170.086 414.343 170.444 414.343 173.275C414.335 176.259 413.819 176.847 412.22 176.8Z" fill="#100E0F"/>
<path d="M377.082 167.37H374.592V164.08C374.592 163.955 374.528 163.885 374.384 163.885H370.987C370.854 163.885 370.792 163.944 370.792 164.08V167.479C370.792 167.479 369.091 167.89 368.976 167.923C368.92 167.941 368.87 167.976 368.835 168.024C368.8 168.071 368.781 168.129 368.782 168.188V170.331C368.781 170.367 368.788 170.403 368.802 170.437C368.816 170.47 368.836 170.501 368.861 170.527C368.887 170.552 368.917 170.573 368.951 170.587C368.984 170.601 369.02 170.608 369.056 170.608H370.796V175.746C370.796 179.563 373.472 179.939 375.276 179.939C375.941 179.916 376.601 179.806 377.238 179.611C377.286 179.59 377.327 179.555 377.354 179.511C377.382 179.466 377.396 179.414 377.393 179.362V177.013C377.393 176.94 377.364 176.87 377.313 176.818C377.261 176.766 377.192 176.736 377.119 176.734C376.973 176.734 376.603 176.794 376.219 176.794C374.997 176.794 374.583 176.226 374.583 175.489V170.604H377.082C377.118 170.604 377.154 170.597 377.187 170.583C377.221 170.569 377.251 170.548 377.277 170.523C377.302 170.497 377.322 170.466 377.336 170.433C377.35 170.399 377.357 170.363 377.356 170.327V167.651C377.357 167.614 377.35 167.578 377.337 167.544C377.323 167.51 377.303 167.479 377.278 167.453C377.252 167.427 377.222 167.406 377.188 167.392C377.154 167.378 377.118 167.37 377.082 167.37V167.37Z" fill="#100E0F"/>
<path d="M328 171C328 156.641 339.635 145 353.988 145H431V197H353.988C339.635 197 328 185.359 328 171Z" fill="white"/>
<path d="M163 175C163 188.255 152.255 199 139 199H109C95.7452 199 85 188.255 85 175V145C85 131.745 95.7452 121 109 121H163V175Z" fill="white"/>
<path fill-rule="evenodd" clip-rule="evenodd" d="M46.071 162.264C46.7299 162.264 47.2641 161.73 47.2641 161.071C47.2641 160.412 46.7299 159.878 46.071 159.878C45.412 159.878 44.8779 160.412 44.8779 161.071C44.8779 161.73 45.412 162.264 46.071 162.264ZM46.071 165.142C48.3193 165.142 50.1419 163.319 50.1419 161.071C50.1419 158.823 48.3193 157 46.071 157C43.8226 157 42 158.823 42 161.071C42 163.319 43.8226 165.142 46.071 165.142Z" fill="white"/>
<path fill-rule="evenodd" clip-rule="evenodd" d="M124.531 136.09C118.708 136.085 113.072 138.157 108.635 141.937C104.198 145.717 101.249 150.957 100.316 156.718C99.3838 162.479 100.529 168.385 103.547 173.377C106.564 178.369 111.257 182.12 116.784 183.96C118.002 184.186 118.453 183.417 118.453 182.769C118.453 182.12 118.453 180.643 118.453 178.592C111.639 180.1 110.195 175.305 110.195 175.305C109.74 173.82 108.776 172.543 107.472 171.702C105.26 170.194 107.652 170.194 107.652 170.194C108.427 170.304 109.167 170.589 109.816 171.028C110.465 171.467 111.006 172.048 111.398 172.727C111.731 173.332 112.18 173.865 112.719 174.296C113.257 174.727 113.876 175.046 114.538 175.237C115.201 175.427 115.894 175.485 116.579 175.406C117.264 175.327 117.926 175.114 118.529 174.778C118.623 173.538 119.157 172.372 120.033 171.491C114.587 170.873 108.871 168.762 108.871 159.354C108.833 156.916 109.733 154.557 111.383 152.766C110.647 150.646 110.732 148.326 111.624 146.267C111.624 146.267 113.685 145.604 118.363 148.785C122.381 147.68 126.621 147.68 130.639 148.785C135.317 145.604 137.363 146.267 137.363 146.267C138.264 148.323 138.355 150.645 137.619 152.766C139.269 154.557 140.169 156.916 140.131 159.354C140.131 168.792 134.4 170.858 128.939 171.416C129.524 172.006 129.977 172.715 130.265 173.495C130.553 174.276 130.67 175.109 130.609 175.939C130.609 179.225 130.609 181.879 130.609 182.678C130.609 183.477 131.045 184.095 132.294 183.869C137.803 182.013 142.475 178.255 145.477 173.266C148.479 168.278 149.615 162.383 148.682 156.633C147.75 150.883 144.81 145.652 140.386 141.873C135.963 138.094 130.344 136.012 124.531 136V136.09Z" fill="#231E1B"/>
<path fill-rule="evenodd" clip-rule="evenodd" d="M44.3516 35.0853L46.5625 35.0852C46.6293 35.0883 46.6881 35.096 46.7705 35.1139C47.3751 35.2456 47.605 35.4627 48.1677 36.7923L48.2594 37.0117L48.613 37.8879L48.6421 37.8999L49.0978 37.6936C50.0901 37.2499 50.6016 37.0629 50.9456 37.0108L51.0168 37.0016L51.1467 36.9946C51.4564 36.9946 51.7718 37.1043 52.0132 37.2953L52.1274 37.3975L53.5409 38.8051L53.6391 38.9089C54.0831 39.398 54.1246 39.7447 53.6335 41.0085L53.4701 41.4162L53.0849 42.3276L53.0922 42.3454L53.9746 42.6749L54.4 42.843C55.4989 43.2923 55.7247 43.5318 55.8716 44.0818C55.9012 44.1927 55.9117 44.2683 55.9151 44.3621L55.9166 44.4639V46.4512C55.9166 46.5924 55.9117 46.6722 55.877 46.8118C55.7308 47.399 55.5137 47.6226 54.1931 48.1804L53.9753 48.2714L53.1051 48.6226L53.099 48.6372L53.4137 49.3246C54.1961 51.0636 54.2235 51.4449 53.7092 52.0176L53.6449 52.0874L52.1939 53.5372C51.9342 53.7998 51.5641 53.9444 51.2061 53.9444C50.902 53.9444 50.4244 53.7998 49.6102 53.4733L49.1744 53.2948L48.6779 53.0848L48.6495 53.0966L48.393 53.7846C47.7649 55.4393 47.5497 55.708 46.9045 55.8745C46.8092 55.8991 46.741 55.9096 46.6635 55.9139L46.5359 55.9166H44.5474C44.4233 55.9166 44.3533 55.9129 44.23 55.8861C43.6257 55.7551 43.3949 55.5375 42.831 54.2071L42.7391 53.9876L42.3849 53.1109L42.3577 53.0996L41.6959 53.3971C40.6374 53.8631 40.1789 54.0049 39.8521 54.0049C39.546 54.0049 39.2344 53.8974 38.9865 53.7046L38.8681 53.6012L37.4566 52.1915L37.2954 52.0157C36.9083 51.5603 36.8893 51.2071 37.3644 49.9914L37.612 49.3829L37.9143 48.6725L37.908 48.6572L37.2237 48.4022C35.851 47.8813 35.428 47.6414 35.227 47.2034L35.1726 47.0656L35.1272 46.913C35.1015 46.8154 35.0905 46.7455 35.0861 46.666L35.0833 46.5348V44.5464C35.0833 44.4041 35.0882 44.3236 35.1236 44.1828C35.2558 43.6578 35.4434 43.4246 36.4317 42.9818L36.8412 42.8049L37.893 42.3796L37.9002 42.3621L37.5069 41.4945C36.8581 40.0206 36.8043 39.5719 37.2137 39.0707L37.2697 39.0049L37.4024 38.8643L38.8084 37.4615C39.066 37.2025 39.4345 37.0564 39.7931 37.0564C40.0497 37.0564 40.4263 37.1579 41.0291 37.3863L41.6356 37.6267L42.3231 37.9148L42.3513 37.9031L42.6098 37.2106C43.2437 35.5439 43.47 35.2652 44.1387 35.1155C44.223 35.0966 44.2832 35.0886 44.3516 35.0853ZM46.0447 37.1666H44.8833L44.7196 37.5505C44.6574 37.7031 44.5872 37.8813 44.508 38.0882L44.145 39.0592C44.058 39.2891 43.893 39.4795 43.6809 39.5986L43.5711 39.652L42.7178 40.0071C42.5024 40.0967 42.2645 40.111 42.042 40.0499L41.9107 40.0042L40.9012 39.5787L40.356 39.3613L39.9895 39.226L39.1663 40.0473L39.2632 40.292C39.3011 40.3842 39.3446 40.4872 39.3943 40.602L39.5621 40.9825L39.9829 41.9024C40.0837 42.1215 40.1048 42.3672 40.0453 42.5979L39.9999 42.7342L39.651 43.582C39.5586 43.8065 39.3913 43.9904 39.1795 44.1039L39.0701 44.1546L37.9372 44.61L37.3708 44.8527L37.1666 44.9473V46.1246L37.411 46.2305C37.5035 46.2692 37.6074 46.3114 37.7236 46.3575L38.1101 46.5074L39.0492 46.8562C39.286 46.9415 39.4824 47.1091 39.6043 47.3262L39.6588 47.4387L40.0078 48.284C40.0974 48.5011 40.1105 48.7407 40.0475 48.9642L40.0005 49.096L39.5956 50.0463L39.3416 50.6732L39.2178 51.0061L40.041 51.8283L40.2862 51.7314C40.3764 51.6946 40.4754 51.6533 40.5833 51.6073L41.3393 51.2739L41.8846 51.0229C42.1128 50.9139 42.3714 50.8922 42.6124 50.9591L42.7312 50.9999L43.5894 51.3543C43.8169 51.4482 44.0025 51.619 44.1153 51.8349L44.1654 51.9465L44.379 52.4854L44.683 53.2245L44.8589 53.6284L44.9542 53.8332H46.1191L46.2854 53.4411L46.5021 52.8878L46.8549 51.942C46.9419 51.71 47.1081 51.518 47.322 51.3985L47.4328 51.3449L48.2874 50.9922C48.5003 50.9044 48.7351 50.89 48.9551 50.9491L49.085 50.9934L49.8898 51.3348L50.4771 51.574L50.7986 51.6979L51.0107 51.7747L51.8348 50.952L51.676 50.5601L51.4378 50.0169L51.0161 49.0977C50.915 48.8783 50.8939 48.632 50.9536 48.4008L50.9992 48.2643L51.3475 47.4202C51.4394 47.1974 51.6051 47.0146 51.8149 46.9012L51.9234 46.8503L52.8829 46.4646L53.3727 46.2593L53.5074 46.2008L53.8333 46.0516V44.8755L53.5065 44.7361L53.064 44.5609L51.9469 44.1451C51.7107 44.0592 51.5149 43.8913 51.3936 43.6742L51.3394 43.5617L50.9911 42.7129C50.9022 42.4964 50.8893 42.2576 50.9521 42.0348L50.9989 41.9034L51.3223 41.1473C51.4065 40.9473 51.4797 40.77 51.543 40.6133L51.6565 40.3267L51.7802 39.9918L50.9565 39.1716L50.7113 39.2686C50.5756 39.3239 50.4202 39.3896 50.2439 39.4662L50.0606 39.5466L49.0992 39.9826C48.8806 40.0828 48.6354 40.1037 48.4052 40.0443L48.2693 39.9991L47.4116 39.6465C47.1871 39.5542 47.003 39.387 46.8895 39.1752L46.8388 39.0657L46.5355 38.307L46.3158 37.7754L46.194 37.4927L46.0447 37.1666ZM45.5004 41.3332C47.7985 41.3332 49.6666 43.201 49.6666 45.499C49.6666 47.7972 47.7983 49.6666 45.5004 49.6666C43.2018 49.6666 41.3333 47.7975 41.3333 45.499C41.3333 43.2006 43.2017 41.3332 45.5004 41.3332ZM45.5004 43.4166C44.352 43.4166 43.4166 44.3515 43.4166 45.499C43.4166 46.647 44.3525 47.5832 45.5004 47.5832C46.6475 47.5832 47.5833 46.6469 47.5833 45.499C47.5833 44.3516 46.648 43.4166 45.5004 43.4166Z" fill="white"/>
<path d="M163 40C163 26.7452 173.745 16 187 16H323C336.255 16 347 26.7452 347 40V97C347 110.255 336.255 121 323 121H163V40Z" fill="#3F3D56"/>
<path fill-rule="evenodd" clip-rule="evenodd" d="M209.875 163.667C210.409 163.667 210.85 164.069 210.91 164.587L210.917 164.708V166.792C210.917 168.456 209.616 169.816 207.975 169.911L207.792 169.917H193.208C191.544 169.917 190.184 168.616 190.089 166.975L190.083 166.792V164.708C190.083 164.133 190.55 163.667 191.125 163.667C191.659 163.667 192.1 164.069 192.16 164.587L192.167 164.708V166.792C192.167 167.326 192.569 167.766 193.087 167.826L193.208 167.833H207.792C208.326 167.833 208.766 167.431 208.826 166.913L208.833 166.792V164.708C208.833 164.133 209.3 163.667 209.875 163.667ZM200.5 149.083C201.075 149.083 201.542 149.55 201.542 150.125V160.109L202.889 158.764C203.264 158.388 203.855 158.359 204.264 158.677L204.362 158.764C204.737 159.139 204.766 159.73 204.448 160.139L204.362 160.237L201.237 163.362L201.191 163.405L201.12 163.462L201.004 163.537L200.887 163.593L200.777 163.629L200.622 163.66L200.5 163.667L200.422 163.664L200.291 163.646L200.175 163.615L200.059 163.569L199.958 163.515L199.858 163.445C199.825 163.419 199.793 163.391 199.764 163.362L196.639 160.237C196.232 159.83 196.232 159.17 196.639 158.764C197.014 158.388 197.605 158.359 198.014 158.677L198.112 158.764L199.458 160.109V150.125C199.458 149.55 199.925 149.083 200.5 149.083Z" fill="white"/>
<path d="M179.01 36.3342V37.0001H175.851V36.3342H177.126V32.6494L175.976 33.3569L175.613 32.7629L177.217 31.7793H177.966V36.3342H179.01Z" fill="white"/>
<path d="M177.058 44.6734C177.411 44.6734 177.711 44.7402 177.959 44.8739C178.206 45.005 178.394 45.1828 178.522 45.4073C178.653 45.6292 178.719 45.8764 178.719 46.1488C178.719 46.3783 178.679 46.6028 178.598 46.8222C178.52 47.0391 178.392 47.2686 178.216 47.5107C178.042 47.7503 177.811 48.0177 177.523 48.3128C177.236 48.6053 176.884 48.9408 176.468 49.3191H178.84L178.742 50.0001H175.496V49.3569C175.965 48.9055 176.351 48.5221 176.653 48.2069C176.959 47.8916 177.197 47.6192 177.368 47.3897C177.542 47.1602 177.665 46.9534 177.735 46.7692C177.806 46.5826 177.841 46.3934 177.841 46.2018C177.841 45.9395 177.767 45.7327 177.618 45.5813C177.469 45.43 177.262 45.3543 176.998 45.3543C176.763 45.3543 176.566 45.3972 176.407 45.483C176.251 45.5687 176.096 45.7074 175.942 45.8991L175.39 45.4792C175.594 45.2194 175.829 45.0202 176.093 44.8814C176.358 44.7427 176.68 44.6734 177.058 44.6734Z" fill="white"/>
<path d="M177.043 57.6734C177.389 57.6734 177.686 57.7339 177.936 57.855C178.186 57.976 178.377 58.1362 178.511 58.3354C178.645 58.5347 178.711 58.7541 178.711 58.9937C178.711 59.3165 178.612 59.5851 178.413 59.7995C178.216 60.0139 177.97 60.1551 177.675 60.2232C177.892 60.2459 178.091 60.3065 178.273 60.4048C178.457 60.5032 178.603 60.6432 178.711 60.8248C178.822 61.0063 178.878 61.2346 178.878 61.5095C178.878 61.8071 178.8 62.077 178.643 62.3191C178.487 62.5587 178.267 62.7491 177.985 62.8904C177.703 63.0316 177.37 63.1022 176.986 63.1022C176.658 63.1022 176.346 63.0417 176.048 62.9206C175.753 62.7996 175.502 62.6167 175.295 62.3721L175.813 61.9181C175.962 62.0921 176.135 62.2207 176.332 62.304C176.531 62.3872 176.737 62.4288 176.948 62.4288C177.271 62.4288 177.527 62.3456 177.716 62.1791C177.906 62.0101 178 61.7769 178 61.4792C178 61.1413 177.907 60.9055 177.72 60.7718C177.534 60.6356 177.291 60.5675 176.994 60.5675H176.544L176.642 59.9433H176.96C177.204 59.9433 177.418 59.8764 177.599 59.7428C177.783 59.6066 177.875 59.3985 177.875 59.1185C177.875 58.8663 177.788 58.6721 177.614 58.5359C177.443 58.3972 177.23 58.3279 176.975 58.3279C176.755 58.3279 176.561 58.3682 176.392 58.4489C176.223 58.5296 176.057 58.6456 175.893 58.797L175.443 58.3165C175.672 58.0996 175.921 57.9382 176.188 57.8323C176.455 57.7263 176.74 57.6734 177.043 57.6734Z" fill="white"/>
<path d="M178.45 72.7428V74.1388H179.071V74.797H178.45V76.0001H177.637L177.633 74.797H175.465V74.2069L176.967 70.6734L177.682 70.9571L176.351 74.1388H177.637L177.739 72.7428H178.45Z" fill="white"/>
<path d="M178.764 83.7793L178.655 84.4149H176.65V85.8676C176.798 85.7894 176.942 85.7365 177.081 85.7087C177.222 85.6784 177.363 85.6633 177.505 85.6633C177.782 85.6633 178.029 85.7289 178.246 85.86C178.463 85.9912 178.633 86.1803 178.757 86.4275C178.883 86.6747 178.946 86.9736 178.946 87.3241C178.946 87.6747 178.868 87.9837 178.711 88.251C178.558 88.5184 178.339 88.7277 178.057 88.879C177.777 89.0278 177.449 89.1022 177.073 89.1022C176.733 89.1022 176.43 89.0417 176.165 88.9206C175.903 88.797 175.672 88.6293 175.473 88.4175L175.98 87.9408C176.27 88.2661 176.623 88.4288 177.039 88.4288C177.357 88.4288 177.607 88.333 177.788 88.1413C177.972 87.9471 178.064 87.6734 178.064 87.3203C178.064 86.937 177.984 86.6696 177.822 86.5183C177.661 86.3645 177.458 86.2875 177.213 86.2875C177.082 86.2875 176.959 86.3027 176.842 86.3329C176.729 86.3607 176.603 86.4036 176.464 86.4616H175.84V83.7793H178.764Z" fill="white"/>
<path d="M177.58 96.6734C177.792 96.6734 177.986 96.7024 178.163 96.7604C178.342 96.8159 178.506 96.8928 178.655 96.9912L178.325 97.5359C178.101 97.3897 177.854 97.3165 177.584 97.3165C177.226 97.3165 176.941 97.483 176.729 97.8159C176.517 98.1463 176.401 98.6003 176.381 99.1778C176.545 98.9609 176.728 98.8046 176.929 98.7087C177.134 98.6104 177.351 98.5612 177.58 98.5612C177.85 98.5612 178.096 98.6242 178.318 98.7503C178.542 98.8739 178.721 99.0606 178.855 99.3102C178.989 99.5574 179.056 99.8664 179.056 100.237C179.056 100.61 178.98 100.937 178.829 101.217C178.68 101.497 178.476 101.715 178.216 101.871C177.956 102.025 177.661 102.102 177.331 102.102C176.894 102.102 176.542 101.994 176.275 101.777C176.01 101.56 175.817 101.261 175.696 100.88C175.575 100.499 175.515 100.063 175.515 99.5713C175.515 98.9912 175.597 98.4842 175.76 98.0504C175.927 97.6141 176.164 97.2762 176.472 97.0366C176.779 96.7944 177.149 96.6734 177.58 96.6734ZM177.402 99.1967C177.196 99.1967 177.005 99.2522 176.831 99.3632C176.66 99.4742 176.512 99.6217 176.389 99.8058C176.399 100.371 176.476 100.788 176.619 101.058C176.766 101.325 177.004 101.459 177.334 101.459C177.624 101.459 177.84 101.351 177.981 101.134C178.125 100.914 178.197 100.628 178.197 100.275C178.197 99.8739 178.125 99.594 177.981 99.4351C177.837 99.2762 177.645 99.1967 177.402 99.1967Z" fill="white"/>
<path fill-rule="evenodd" clip-rule="evenodd" d="M184 36.0001C184 35.4478 184.448 35.0001 185 35.0001H210C210.552 35.0001 211 35.4478 211 36.0001C211 36.5524 210.552 37.0001 210 37.0001H185C184.448 37.0001 184 36.5524 184 36.0001Z" fill="white"/>
<path fill-rule="evenodd" clip-rule="evenodd" d="M201 49.0001C201 48.4478 201.448 48.0001 202 48.0001H222.5C223.052 48.0001 223.5 48.4478 223.5 49.0001C223.5 49.5524 223.052 50.0001 222.5 50.0001H202C201.448 50.0001 201 49.5524 201 49.0001Z" fill="white"/>
<path fill-rule="evenodd" clip-rule="evenodd" d="M201 62.0001C201 61.4478 201.448 61.0001 202 61.0001H260C260.552 61.0001 261 61.4478 261 62.0001C261 62.5524 260.552 63.0001 260 63.0001H202C201.448 63.0001 201 62.5524 201 62.0001Z" fill="white"/>
<path fill-rule="evenodd" clip-rule="evenodd" d="M300 75C300 74.4477 300.448 74 301 74H320C320.552 74 321 74.4477 321 75C321 75.5523 320.552 76 320 76H301C300.448 76 300 75.5523 300 75Z" fill="#06C270"/>
<path fill-rule="evenodd" clip-rule="evenodd" d="M285 89C285 88.4477 285.448 88 286 88H305C305.552 88 306 88.4477 306 89C306 89.5523 305.552 90 305 90H286C285.448 90 285 89.5523 285 89Z" fill="#06C270"/>
<path fill-rule="evenodd" clip-rule="evenodd" d="M291 101C291 100.448 291.448 100 292 100H311C311.552 100 312 100.448 312 101C312 101.552 311.552 102 311 102H292C291.448 102 291 101.552 291 101Z" fill="#06C270"/>
<path fill-rule="evenodd" clip-rule="evenodd" d="M219.5 75C219.5 74.4477 219.948 74 220.5 74H296C296.552 74 297 74.4477 297 75C297 75.5523 296.552 76 296 76H220.5C219.948 76 219.5 75.5523 219.5 75Z" fill="#FF3B3B"/>
<path fill-rule="evenodd" clip-rule="evenodd" d="M238 89C238 88.4477 238.448 88 239 88H280C280.552 88 281 88.4477 281 89C281 89.5523 280.552 90 280 90H239C238.448 90 238 89.5523 238 89Z" fill="#FF3B3B"/>
<path fill-rule="evenodd" clip-rule="evenodd" d="M237.5 101C237.5 100.448 237.948 100 238.5 100H282.5C283.052 100 283.5 100.448 283.5 101C283.5 101.552 283.052 102 282.5 102H238.5C237.948 102 237.5 101.552 237.5 101Z" fill="#FF3B3B"/>
<path fill-rule="evenodd" clip-rule="evenodd" d="M227.5 49C227.5 48.4477 227.948 48 228.5 48H263.5C264.052 48 264.5 48.4477 264.5 49C264.5 49.5523 264.052 50 263.5 50H228.5C227.948 50 227.5 49.5523 227.5 49Z" fill="#FF3B3B"/>
<path fill-rule="evenodd" clip-rule="evenodd" d="M264 62C264 61.4477 264.448 61 265 61H332.5C333.052 61 333.5 61.4477 333.5 62C333.5 62.5523 333.052 63 332.5 63H265C264.448 63 264 62.5523 264 62Z" fill="#5B8DEF"/>
<path fill-rule="evenodd" clip-rule="evenodd" d="M268.5 49C268.5 48.4477 268.948 48 269.5 48H294C294.552 48 295 48.4477 295 49C295 49.5523 294.552 50 294 50H269.5C268.948 50 268.5 49.5523 268.5 49Z" fill="#5B8DEF"/>
</g>
<defs>
<radialGradient id="paint0_radial_7321_8417" cx="0" cy="0" r="1" gradientUnits="userSpaceOnUse" gradientTransform="translate(431) rotate(-145.879) scale(478.846 437.888)">
<stop offset="0.0416667" stop-color="#3E2073"/>
<stop offset="0.333333" stop-color="#3E2073" stop-opacity="0.7"/>
<stop offset="0.854167" stop-color="#221240" stop-opacity="0.3"/>
<stop offset="1" stop-color="#221040"/>
</radialGradient>
<linearGradient id="paint1_linear_7321_8417" x1="151.942" y1="149.058" x2="190.058" y2="208.058" gradientUnits="userSpaceOnUse">
<stop stop-color="#FF8800"/>
<stop offset="1" stop-color="#E63535"/>
</linearGradient>
<clipPath id="clip0_7321_8417">
<rect width="431" height="220" fill="white"/>
</clipPath>
</defs>
</svg>
