<svg width="440" height="222" viewBox="0 0 440 222" fill="none" xmlns="http://www.w3.org/2000/svg">
<rect y="-15" width="463" height="214" fill="#25104F"/>
<path d="M156.086 101.881H129.786C128.75 101.88 127.757 101.495 127.023 100.811C126.29 100.126 125.875 99.197 125.869 98.2267V40.9744C125.87 40.0014 126.283 39.0685 127.017 38.3804C127.752 37.6924 128.747 37.3055 129.786 37.3047H156.086C157.124 37.3063 158.119 37.6935 158.853 38.3814C159.587 39.0692 160.001 40.0017 160.002 40.9744V98.2267C159.996 99.1967 159.581 100.125 158.848 100.81C158.114 101.494 157.121 101.879 156.086 101.881ZM129.786 38.7557C129.158 38.7565 128.556 38.9905 128.112 39.4064C127.668 39.8224 127.419 40.3862 127.418 40.9744V98.2267C127.419 98.8149 127.668 99.3788 128.112 99.7947C128.556 100.211 129.158 100.445 129.786 100.445H156.086C156.714 100.445 157.315 100.21 157.758 99.7945C158.202 99.3785 158.451 98.8146 158.451 98.2267V40.9744C158.451 40.3865 158.202 39.8226 157.758 39.4066C157.315 38.9906 156.714 38.7565 156.086 38.7557H129.786Z" fill="#301165"/>
<path d="M374.027 65.8162H334.549C333.495 65.8153 332.484 65.4112 331.738 64.6924C330.992 63.9737 330.573 62.9992 330.572 61.9828V52.1264C330.573 51.11 330.992 50.1354 331.738 49.4167C332.484 48.698 333.495 48.2938 334.549 48.293H374.027C375.081 48.2938 376.092 48.698 376.838 49.4167C377.584 50.1354 378.003 51.11 378.004 52.1264V61.9892C378.001 63.0045 377.581 63.9774 376.836 64.6947C376.09 65.4121 375.08 65.8153 374.027 65.8162ZM334.549 49.7818C334.23 49.7822 333.915 49.8432 333.62 49.9612C333.325 50.0793 333.058 50.2521 332.833 50.4698C332.607 50.6875 332.429 50.9459 332.307 51.2301C332.185 51.5143 332.123 51.8189 332.123 52.1264V61.9892C332.124 62.6091 332.38 63.2033 332.835 63.6416C333.29 64.0799 333.906 64.3265 334.549 64.3274H374.027C374.67 64.3265 375.286 64.0799 375.741 63.6416C376.196 63.2033 376.452 62.6091 376.452 61.9892V52.1264C376.452 51.5065 376.196 50.9123 375.741 50.474C375.286 50.0357 374.67 49.7891 374.027 49.7882L334.549 49.7818Z" fill="#301165"/>
<path d="M357.545 102.156L357.545 92.793L359.1 92.793L359.1 102.156C359.101 102.762 359.351 103.342 359.795 103.77C360.239 104.198 360.841 104.438 361.469 104.439L381.442 104.439L381.442 105.934L361.469 105.934C360.429 105.933 359.432 105.535 358.697 104.827C357.961 104.119 357.547 103.158 357.545 102.156Z" fill="#301165"/>
<path d="M354.433 95.2193C354.421 96.0101 354.653 96.7865 355.1 97.4502C355.546 98.1139 356.187 98.6352 356.94 98.9481C357.694 99.261 358.527 99.3514 359.334 99.208C360.141 99.0646 360.886 98.6938 361.475 98.1424C362.063 97.591 362.469 96.8839 362.64 96.1104C362.811 95.3369 362.741 94.5319 362.437 93.7971C362.133 93.0623 361.611 92.4307 360.935 91.9823C360.259 91.5338 359.46 91.2887 358.639 91.2778C358.094 91.27 357.553 91.3658 357.047 91.5597C356.54 91.7536 356.078 92.0419 355.688 92.408C355.297 92.7741 354.985 93.2108 354.77 93.6932C354.554 94.1757 354.44 94.6942 354.433 95.2193Z" fill="#301165"/>
<path d="M101.896 74.105H62.4192C61.3647 74.1042 60.3536 73.7104 59.6079 73.0101C58.8622 72.3098 58.4429 71.3603 58.442 70.3699V60.7663C58.4429 59.776 58.8622 58.8264 59.6079 58.1261C60.3536 57.4259 61.3647 57.0321 62.4192 57.0312H101.896C102.951 57.0321 103.962 57.4259 104.708 58.1261C105.453 58.8264 105.873 59.776 105.874 60.7663V70.3762C105.871 71.3655 105.451 72.3134 104.705 73.0123C103.96 73.7112 102.95 74.1042 101.896 74.105ZM62.4192 58.4819C62.1002 58.4823 61.7844 58.5417 61.4899 58.6567C61.1953 58.7717 60.9278 58.9401 60.7025 59.1523C60.4772 59.3644 60.2987 59.6161 60.177 59.8931C60.0553 60.17 59.9929 60.4667 59.9934 60.7663V70.3762C59.9942 70.9802 60.2501 71.5591 60.7049 71.9862C61.1596 72.4133 61.7761 72.6535 62.4192 72.6544H101.896C102.54 72.6535 103.156 72.4133 103.611 71.9862C104.066 71.5591 104.321 70.9802 104.322 70.3762V60.7663C104.321 60.1624 104.066 59.5834 103.611 59.1563C103.156 58.7293 102.54 58.489 101.896 58.4881L62.4192 58.4819Z" fill="#301165"/>
<path d="M104.431 85.4554L104.431 76.332L105.986 76.332L105.986 85.4554C105.987 86.045 106.237 86.6103 106.681 87.0272C107.125 87.4441 107.728 87.6787 108.356 87.6796L128.328 87.6796L128.328 89.1362L108.356 89.1362C107.316 89.1353 106.319 88.7474 105.583 88.0574C104.847 87.3674 104.433 86.4316 104.431 85.4554Z" fill="#301165"/>
<path d="M100.973 73.3368C100.961 74.1395 101.203 74.9274 101.668 75.6011C102.133 76.2747 102.8 76.8038 103.585 77.1213C104.37 77.4389 105.238 77.5307 106.079 77.3852C106.92 77.2396 107.696 76.8632 108.309 76.3036C108.922 75.744 109.344 75.0263 109.522 74.2412C109.701 73.4562 109.627 72.6391 109.311 71.8933C108.995 71.1475 108.45 70.5065 107.746 70.0514C107.042 69.5963 106.21 69.3474 105.355 69.3364C104.787 69.3284 104.224 69.4257 103.696 69.6225C103.168 69.8193 102.687 70.1119 102.281 70.4835C101.874 70.8551 101.549 71.2983 101.324 71.788C101.1 72.2776 100.981 72.8039 100.973 73.3368Z" fill="#301165"/>
<g clip-path="url(#clip0_4277_47569)">
<path d="M222.157 283.21C323.549 283.21 405.743 210.409 405.743 120.605C405.743 30.8008 323.549 -42 222.157 -42C120.765 -42 38.5703 30.8008 38.5703 120.605C38.5703 210.409 120.765 283.21 222.157 283.21Z" fill="url(#paint0_radial_4277_47569)"/>
</g>
<path d="M309.361 157.324L311.328 157.816V165.612C311.328 166.628 310.713 167.523 309.815 167.815L309.361 157.324Z" fill="#4D1BB4"/>
<path d="M87.5426 139.305C81.1678 135.624 81.1678 129.657 87.5426 125.976L155.933 86.4915C162.308 82.8109 172.643 82.8109 179.018 86.4915L309.738 161.963C316.113 165.643 316.113 171.611 309.738 175.291L241.348 214.776C234.973 218.457 224.638 218.457 218.263 214.776L87.5426 139.305Z" fill="url(#paint1_linear_4277_47569)"/>
<path opacity="0.5" d="M79.9314 127.904V121.914L82.091 124.743L150.034 165.844H136.744L103.853 146.541L92.0581 139.719L85.7456 136.058L83.0877 134.394L82.8296 134.193C82.0113 133.555 81.3114 132.779 80.762 131.898L80.3618 131.096C80.2964 130.965 80.2405 130.83 80.1943 130.691C79.9116 129.842 79.8164 128.941 79.9151 128.052L79.9314 127.904Z" fill="#662EFF"/>
<g opacity="0.7">
<path d="M307.366 58.0797C308.345 57.5352 309.932 57.5352 310.91 58.0797C311.889 58.6243 311.889 59.5072 310.91 60.0517L272.512 81.4147C271.533 81.9593 269.947 81.9593 268.968 81.4147C267.989 80.8702 267.989 79.9873 268.968 79.4428L307.366 58.0797Z" fill="#753DDA"/>
<path d="M336.035 74.029C337.013 73.4844 338.6 73.4844 339.579 74.029C340.558 74.5735 340.558 75.4564 339.579 76.0009L301.181 97.364C300.202 97.9085 298.615 97.9085 297.636 97.364C296.658 96.8194 296.658 95.9365 297.636 95.392L336.035 74.029Z" fill="#753DDA"/>
<path d="M321.7 66.0563C322.679 65.5118 324.266 65.5118 325.245 66.0563C326.224 66.6008 326.224 67.4837 325.245 68.0283L286.847 89.3913C285.868 89.9358 284.281 89.9358 283.302 89.3913C282.323 88.8468 282.323 87.9639 283.302 87.4193L321.7 66.0563Z" fill="#753DDA"/>
<path d="M314.455 62.0251C315.434 61.4805 317.02 61.4805 317.999 62.025C318.978 62.5696 318.978 63.4525 317.999 63.997L279.601 85.36C278.622 85.9046 277.035 85.9046 276.057 85.36C275.078 84.8155 275.078 83.9326 276.057 83.3881L314.455 62.0251Z" fill="#753DDA"/>
<path d="M343.125 77.9782C344.104 77.4336 345.691 77.4336 346.669 77.9782C347.648 78.5227 347.648 79.4056 346.669 79.9501L308.271 101.313C307.293 101.858 305.706 101.858 304.727 101.313C303.748 100.769 303.748 99.8857 304.727 99.3412L343.125 77.9782Z" fill="#753DDA"/>
<path d="M350.371 82.0055C351.349 81.461 352.936 81.461 353.915 82.0055C354.894 82.5501 354.894 83.4329 353.915 83.9775L315.517 105.341C314.538 105.885 312.951 105.885 311.972 105.341C310.994 104.796 310.994 103.913 311.972 103.369L350.371 82.0055Z" fill="#753DDA"/>
<path d="M328.789 70.0016C329.768 69.4571 331.355 69.4571 332.334 70.0016C333.312 70.5462 333.312 71.429 332.334 71.9736L293.935 93.3366C292.957 93.8812 291.37 93.8812 290.391 93.3366C289.412 92.7921 289.412 91.9092 290.391 91.3646L328.789 70.0016Z" fill="#753DDA"/>
<path d="M256.634 86.2711C257.612 85.7266 259.199 85.7266 260.178 86.2711C261.157 86.8157 261.157 87.6986 260.178 88.2431L221.78 109.606C220.801 110.151 219.214 110.151 218.236 109.606C217.257 109.062 217.257 108.179 218.236 107.634L256.634 86.2711Z" fill="#753DDA"/>
<path d="M285.302 102.22C286.281 101.676 287.868 101.676 288.847 102.22C289.826 102.765 289.826 103.648 288.847 104.192L250.449 125.555C249.47 126.1 247.883 126.1 246.904 125.555C245.925 125.011 245.925 124.128 246.904 123.583L285.302 102.22Z" fill="#753DDA"/>
<path d="M270.968 94.2477C271.947 93.7032 273.534 93.7032 274.513 94.2477C275.491 94.7923 275.491 95.6751 274.513 96.2197L236.114 117.583C235.136 118.127 233.549 118.127 232.57 117.583C231.591 117.038 231.591 116.155 232.57 115.611L270.968 94.2477Z" fill="#753DDA"/>
<path d="M263.723 90.2165C264.701 89.6719 266.288 89.6719 267.267 90.2165C268.246 90.761 268.246 91.6439 267.267 92.1884L228.869 113.551C227.89 114.096 226.303 114.096 225.324 113.551C224.346 113.007 224.346 112.124 225.324 111.579L263.723 90.2165Z" fill="#753DDA"/>
<path d="M292.393 106.17C293.372 105.625 294.958 105.625 295.937 106.17C296.916 106.714 296.916 107.597 295.937 108.142L257.539 129.505C256.56 130.049 254.973 130.049 253.995 129.505C253.016 128.96 253.016 128.077 253.995 127.533L292.393 106.17Z" fill="#753DDA"/>
<path d="M299.638 110.197C300.617 109.652 302.204 109.652 303.183 110.197C304.162 110.741 304.162 111.624 303.183 112.169L264.785 133.532C263.806 134.076 262.219 134.076 261.24 133.532C260.261 132.987 260.261 132.104 261.24 131.56L299.638 110.197Z" fill="#753DDA"/>
<path d="M278.057 98.193C279.036 97.6485 280.622 97.6485 281.601 98.193C282.58 98.7376 282.58 99.6204 281.601 100.165L243.203 121.528C242.224 122.073 240.637 122.073 239.659 121.528C238.68 120.983 238.68 120.101 239.659 119.556L278.057 98.193Z" fill="#753DDA"/>
<path d="M362.183 88.3415C363.162 87.7969 364.749 87.7969 365.727 88.3415C366.706 88.886 366.706 89.7689 365.727 90.3134L327.329 111.676C326.351 112.221 324.764 112.221 323.785 111.676C322.806 111.132 322.806 110.249 323.785 109.704L362.183 88.3415Z" fill="#753DDA"/>
<path d="M390.852 104.291C391.83 103.746 393.417 103.746 394.396 104.291C395.375 104.835 395.375 105.718 394.396 106.263L355.998 127.626C355.019 128.17 353.432 128.17 352.453 127.626C351.475 127.081 351.475 126.198 352.453 125.654L390.852 104.291Z" fill="#753DDA"/>
<path d="M376.517 96.318C377.496 95.7735 379.083 95.7735 380.062 96.318C381.041 96.8626 381.041 97.7454 380.062 98.29L341.664 119.653C340.685 120.198 339.098 120.198 338.119 119.653C337.14 119.108 337.14 118.226 338.119 117.681L376.517 96.318Z" fill="#753DDA"/>
<path d="M369.272 92.2868C370.251 91.7422 371.838 91.7422 372.816 92.2868C373.795 92.8313 373.795 93.7142 372.816 94.2587L334.418 115.622C333.439 116.166 331.852 116.166 330.874 115.622C329.895 115.077 329.895 114.194 330.874 113.65L369.272 92.2868Z" fill="#753DDA"/>
<path d="M397.942 108.24C398.921 107.695 400.508 107.695 401.487 108.24C402.465 108.784 402.465 109.667 401.487 110.212L363.088 131.575C362.11 132.119 360.523 132.119 359.544 131.575C358.565 131.03 358.565 130.147 359.544 129.603L397.942 108.24Z" fill="#753DDA"/>
<path d="M383.606 100.263C384.585 99.7188 386.172 99.7188 387.151 100.263C388.129 100.808 388.129 101.691 387.151 102.235L348.752 123.598C347.774 124.143 346.187 124.143 345.208 123.598C344.229 123.054 344.229 122.171 345.208 121.626L383.606 100.263Z" fill="#753DDA"/>
<path d="M386.875 122.459C387.853 121.914 389.44 121.914 390.419 122.459C391.398 123.003 391.398 123.886 390.419 124.431L370.334 135.605C369.355 136.15 367.768 136.15 366.789 135.605C365.811 135.061 365.811 134.178 366.789 133.633L386.875 122.459Z" fill="#753DDA"/>
</g>
<path d="M87.5426 131.477C81.1678 127.796 81.1678 121.829 87.5426 118.148L155.933 78.6633C162.308 74.9828 172.643 74.9828 179.018 78.6633L309.738 154.135C316.113 157.815 316.113 163.783 309.738 167.463L241.348 206.948C234.973 210.629 224.638 210.629 218.263 206.948L87.5426 131.477Z" fill="#4824A2"/>
<path d="M149.279 112.901C152.387 111.107 157.426 111.107 160.533 112.901L168.85 117.703C171.957 119.497 171.957 122.406 168.85 124.2C165.742 125.994 160.703 125.994 157.596 124.2L149.279 119.399C146.171 117.604 146.171 114.695 149.279 112.901Z" fill="#360E8D"/>
<path d="M149.454 110.655C152.323 108.999 156.974 108.999 159.843 110.655L168.5 115.653C171.368 117.309 171.368 119.995 168.5 121.651C165.631 123.307 160.98 123.307 158.111 121.651L149.454 116.653C146.586 114.997 146.586 112.311 149.454 110.655Z" fill="#A8058E"/>
<path d="M160.562 124.808C159.997 124.494 159.994 124.016 160.554 123.705C161.114 123.393 161.972 123.395 162.537 123.709C166.4 125.859 172.659 125.874 176.496 123.739C180.333 121.605 180.306 118.123 176.442 115.973C175.877 115.659 175.874 115.181 176.434 114.87C176.994 114.558 177.852 114.56 178.417 114.875C183.008 117.429 183.469 121.479 179.433 124.275L182.082 125.748L185.659 123.758C186.22 123.446 187.078 123.448 187.636 123.759C188.201 124.073 188.204 124.55 187.644 124.862L178.528 129.934C177.968 130.246 177.11 130.243 176.545 129.929C175.98 129.615 175.983 129.141 176.543 128.83L180.121 126.839L177.472 125.365C172.441 127.622 165.16 127.366 160.562 124.808Z" fill="#360E8D"/>
<path d="M160.562 123.476C159.997 123.162 159.994 122.684 160.554 122.373C161.114 122.061 161.972 122.063 162.537 122.377C166.4 124.527 172.659 124.542 176.496 122.407C180.333 120.273 180.306 116.791 176.442 114.641C175.877 114.327 175.874 113.849 176.434 113.538C176.994 113.226 177.852 113.228 178.417 113.542C183.008 116.097 183.469 120.147 179.433 122.943L182.082 124.416L185.659 122.426C186.22 122.114 187.078 122.116 187.636 122.427C188.201 122.741 188.204 123.218 187.644 123.53L178.528 128.602C177.968 128.913 177.11 128.911 176.545 128.597C175.98 128.283 175.983 127.809 176.543 127.498L180.121 125.507L177.472 124.033C172.441 126.29 165.16 126.034 160.562 123.476Z" fill="#A8058E"/>
<path d="M161.183 119.1L155.019 115.67C151.982 113.981 151.996 111.222 155.05 109.523C158.103 107.825 163.062 107.817 166.099 109.506L175.031 114.476C177.272 115.722 177.842 117.521 176.81 119.076C175.569 118.543 172.878 118.472 171.373 118.439C167.121 118.352 163.092 118.83 161.183 119.1Z" fill="#EE1DB3"/>
<path d="M161.636 118.961L158.835 117.402C160.729 117.132 164.742 116.661 168.994 116.755C170.494 116.79 173.183 116.86 174.415 117.396C174.042 117.964 173.45 118.497 172.647 118.952C169.612 120.648 164.67 120.649 161.636 118.961Z" fill="#D3139D"/>
<path d="M162.837 112.606C161.516 113.341 159.378 113.341 158.062 112.608C156.74 111.872 156.738 110.683 158.059 109.948C159.38 109.213 161.517 109.214 162.84 109.95C164.156 110.682 164.158 111.872 162.837 112.606Z" fill="#F968D0"/>
<path d="M160.562 122.535C159.997 122.22 159.994 121.743 160.554 121.431C161.114 121.12 161.972 121.122 162.537 121.436C166.4 123.586 172.659 123.601 176.496 121.466C180.333 119.331 180.306 115.849 176.442 113.7C175.877 113.385 175.874 112.908 176.434 112.596C176.994 112.285 177.852 112.287 178.417 112.601C183.008 115.155 183.469 119.206 179.433 122.001L182.082 123.475L185.659 121.484C186.22 121.173 187.078 121.175 187.636 121.485C188.201 121.8 188.204 122.277 187.644 122.589L178.528 127.66C177.968 127.972 177.11 127.97 176.545 127.656C175.98 127.341 175.983 126.868 176.543 126.556L180.121 124.566L177.472 123.092C172.441 125.349 165.16 125.093 160.562 122.535Z" fill="#EE1DB3"/>
<path d="M61.8938 87.4603C61.5623 87.4603 61.2722 87.1825 61.2722 86.8649V84.8805C61.2722 84.563 61.5623 84.2852 61.8938 84.2852C62.2254 84.2852 62.5155 84.563 62.5155 84.8805V86.8649C62.4741 87.1825 62.2254 87.4603 61.8938 87.4603Z" fill="#662EFF"/>
<path d="M61.8534 92.1829C61.5218 92.1829 61.2317 91.9051 61.2317 91.5876V89.6031C61.2317 89.2856 61.5218 89.0078 61.8534 89.0078C62.1849 89.0078 62.475 89.2856 62.475 89.6031V91.5876C62.4336 91.9448 62.1849 92.1829 61.8534 92.1829Z" fill="#662EFF"/>
<path d="M65.3758 88.8469H63.3036C62.9721 88.8469 62.6819 88.5691 62.6819 88.2516C62.6819 87.9341 62.9721 87.6562 63.3036 87.6562H65.3758C65.7074 87.6562 65.9975 87.9341 65.9975 88.2516C65.9975 88.5691 65.7074 88.8469 65.3758 88.8469Z" fill="#662EFF"/>
<path d="M60.4442 88.8079H58.3719C58.0404 88.8079 57.7502 88.53 57.7502 88.2125C57.7502 87.895 58.0404 87.6172 58.3719 87.6172H60.4442C60.7757 87.6172 61.0658 87.895 61.0658 88.2125C61.0244 88.53 60.7757 88.8079 60.4442 88.8079Z" fill="#662EFF"/>
<path d="M191.925 58.7543C191.731 58.7543 191.56 58.5912 191.56 58.4049V57.2401C191.56 57.0537 191.731 56.8906 191.925 56.8906C192.12 56.8906 192.29 57.0537 192.29 57.2401V58.4049C192.266 58.5912 192.12 58.7543 191.925 58.7543Z" fill="#662EFF"/>
<path d="M191.9 61.5277C191.706 61.5277 191.536 61.3647 191.536 61.1783V60.0135C191.536 59.8271 191.706 59.6641 191.9 59.6641C192.095 59.6641 192.265 59.8271 192.265 60.0135V61.1783C192.241 61.388 192.095 61.5277 191.9 61.5277Z" fill="#662EFF"/>
<path d="M193.968 59.57H192.751C192.557 59.57 192.386 59.4069 192.386 59.2205C192.386 59.0342 192.557 58.8711 192.751 58.8711H193.968C194.162 58.8711 194.333 59.0342 194.333 59.2205C194.333 59.4069 194.162 59.57 193.968 59.57Z" fill="#662EFF"/>
<path d="M191.074 59.5465H189.858C189.663 59.5465 189.493 59.3835 189.493 59.1971C189.493 59.0107 189.663 58.8477 189.858 58.8477H191.074C191.269 58.8477 191.439 59.0107 191.439 59.1971C191.414 59.3835 191.269 59.5465 191.074 59.5465Z" fill="#662EFF"/>
<path fill-rule="evenodd" clip-rule="evenodd" d="M116.734 98.5949C116.746 98.0947 117.16 97.6981 117.661 97.7096L120.736 97.78C121.237 97.7914 121.632 98.2066 121.621 98.7068C121.609 99.2071 121.195 99.6037 120.694 99.5922L117.619 99.5218C117.118 99.5103 116.723 99.0952 116.734 98.5949ZM109.441 98.3397C109.453 97.8394 109.867 97.4428 110.368 97.4543L113.443 97.5247C113.944 97.5362 114.339 97.9513 114.328 98.4516C114.316 98.9518 113.902 99.3484 113.401 99.3369L110.326 99.2665C109.825 99.255 109.43 98.8399 109.441 98.3397ZM114.463 103.698L114.534 100.616C114.545 100.116 114.959 99.7191 115.46 99.7306C115.959 99.7421 116.355 100.157 116.344 100.657L116.273 103.739C116.262 104.24 115.847 104.636 115.348 104.625C114.847 104.613 114.452 104.198 114.463 103.698ZM114.718 96.3894L114.788 93.3055C114.8 92.8052 115.214 92.4086 115.715 92.4201C116.214 92.4316 116.61 92.8467 116.598 93.3469L116.528 96.4309C116.516 96.9311 116.102 97.3277 115.603 97.3163C115.102 97.3048 114.706 96.8897 114.718 96.3894Z" fill="#EE1DB3"/>
<path fill-rule="evenodd" clip-rule="evenodd" d="M195.341 106.984C195.005 106.738 194.66 106.495 194.305 106.256C193.618 105.793 192.896 105.342 192.137 104.903C191.378 104.465 190.597 104.048 189.795 103.652C189.38 103.447 188.959 103.247 188.533 103.053C188.145 102.877 187.753 102.705 187.357 102.538C187.315 102.52 187.272 102.502 187.229 102.484C186.829 102.316 186.426 102.154 186.018 101.996C185.565 101.82 185.107 101.65 184.644 101.486C182.815 100.838 180.916 100.281 178.967 99.8158C178.464 99.6955 177.957 99.5812 177.446 99.4731C176.983 99.375 176.518 99.2819 176.05 99.1938C176 99.1844 175.95 99.175 175.9 99.1657C175.431 99.0785 174.959 98.9963 174.486 98.9192C173.961 98.8338 173.434 98.7546 172.906 98.6816C170.832 98.3953 168.727 98.2044 166.611 98.1088C166.068 98.0843 165.525 98.0661 164.981 98.0541C164.489 98.0433 163.996 98.0376 163.503 98.037C163.451 98.037 163.398 98.037 163.346 98.037C162.853 98.0376 162.361 98.0433 161.868 98.0541C161.325 98.0661 160.781 98.0843 160.238 98.1088C158.123 98.2044 156.017 98.3953 153.944 98.6816C153.415 98.7546 152.888 98.8338 152.364 98.9192C151.89 98.9963 151.418 99.0785 150.949 99.1657C150.899 99.175 150.849 99.1844 150.799 99.1938C150.331 99.2819 149.866 99.375 149.403 99.4731C148.893 99.5812 148.385 99.6955 147.882 99.8158C145.933 100.281 144.034 100.838 142.205 101.486C141.743 101.65 141.285 101.82 140.831 101.996C140.424 102.154 140.02 102.316 139.62 102.484C139.577 102.502 139.535 102.52 139.492 102.538C139.096 102.705 138.704 102.877 138.316 103.053C137.89 103.247 137.47 103.447 137.055 103.652C136.253 104.048 135.471 104.465 134.712 104.903C133.953 105.342 133.231 105.793 132.545 106.256C132.189 106.495 131.844 106.738 131.508 106.984C131.202 107.208 130.904 107.434 130.615 107.663C130.583 107.688 130.552 107.712 130.521 107.737C130.231 107.968 129.95 108.201 129.676 108.436C129.372 108.698 129.078 108.962 128.794 109.229C127.671 110.285 126.707 111.382 125.9 112.507C125.692 112.798 125.494 113.09 125.307 113.385C125.137 113.652 124.975 113.921 124.823 114.191C124.807 114.22 124.79 114.249 124.774 114.278C124.623 114.549 124.481 114.821 124.347 115.094C124.199 115.397 124.062 115.701 123.936 116.007C123.44 117.204 123.109 118.419 122.944 119.641C122.901 119.954 122.87 120.268 122.849 120.582C122.83 120.866 122.82 121.151 122.819 121.435C122.819 121.465 122.819 121.496 122.819 121.526C122.82 121.81 122.83 122.095 122.849 122.379C122.87 122.693 122.901 123.007 122.944 123.32C123.109 124.542 123.44 125.757 123.936 126.954C124.062 127.26 124.199 127.564 124.347 127.867C124.481 128.14 124.623 128.412 124.774 128.683C124.79 128.712 124.807 128.741 124.823 128.77C124.975 129.04 125.137 129.309 125.307 129.576C125.494 129.871 125.692 130.163 125.9 130.454C126.707 131.579 127.671 132.675 128.794 133.731C129.078 133.999 129.372 134.263 129.676 134.525C129.95 134.76 130.231 134.993 130.521 135.224C130.552 135.249 130.583 135.273 130.615 135.298C130.904 135.527 131.202 135.753 131.508 135.977C131.844 136.223 132.189 136.466 132.545 136.705C133.231 137.168 133.953 137.619 134.712 138.058C135.471 138.496 136.253 138.913 137.055 139.309C137.47 139.514 137.89 139.714 138.316 139.908C138.704 140.084 139.096 140.256 139.492 140.423C139.535 140.441 139.577 140.459 139.62 140.477C140.02 140.645 140.424 140.807 140.831 140.965C141.285 141.141 141.743 141.311 142.205 141.475C144.034 142.123 145.933 142.68 147.882 143.145C148.385 143.265 148.893 143.38 149.403 143.488C149.866 143.586 150.331 143.679 150.799 143.767C150.849 143.777 150.899 143.786 150.949 143.795C151.418 143.882 151.89 143.965 152.364 144.042C152.888 144.127 153.415 144.206 153.944 144.279C156.017 144.566 158.123 144.757 160.238 144.852C160.781 144.877 161.325 144.895 161.868 144.907C162.361 144.918 162.853 144.923 163.346 144.924C163.398 144.924 163.451 144.924 163.503 144.924C163.996 144.923 164.489 144.918 164.981 144.907C165.525 144.895 166.068 144.877 166.611 144.852C168.727 144.757 170.832 144.566 172.906 144.279C173.434 144.206 173.961 144.127 174.486 144.042C174.959 143.965 175.431 143.882 175.9 143.795C175.95 143.786 176 143.777 176.05 143.767C176.518 143.679 176.983 143.586 177.446 143.488C177.957 143.38 178.464 143.265 178.967 143.145C180.916 142.68 182.815 142.123 184.644 141.475C185.106 141.311 185.565 141.141 186.018 140.965C186.426 140.807 186.829 140.645 187.229 140.477C187.272 140.459 187.314 140.441 187.357 140.423C187.753 140.256 188.145 140.084 188.533 139.908C188.959 139.714 189.38 139.514 189.795 139.309C190.597 138.913 191.378 138.496 192.137 138.058C192.896 137.619 193.618 137.168 194.305 136.705C194.66 136.466 195.005 136.223 195.341 135.977C195.647 135.753 195.945 135.527 196.235 135.298C196.266 135.273 196.297 135.249 196.328 135.224C196.618 134.993 196.9 134.76 197.173 134.525C197.477 134.263 197.771 133.999 198.055 133.731C199.178 132.675 200.143 131.579 200.949 130.454C201.157 130.163 201.355 129.871 201.542 129.576C201.712 129.309 201.874 129.04 202.026 128.77C202.043 128.741 202.059 128.712 202.075 128.683C202.226 128.412 202.368 128.14 202.502 127.867C202.65 127.564 202.787 127.26 202.913 126.954C203.409 125.757 203.74 124.542 203.905 123.32C203.948 123.007 203.98 122.693 204 122.379C204.019 122.095 204.029 121.81 204.03 121.526C204.03 121.496 204.03 121.465 204.03 121.435C204.029 121.151 204.019 120.866 204 120.582C203.98 120.268 203.948 119.954 203.905 119.641C203.74 118.419 203.409 117.204 202.913 116.007C202.787 115.701 202.65 115.397 202.502 115.094C202.368 114.821 202.226 114.549 202.075 114.278C202.059 114.249 202.043 114.22 202.026 114.191C201.874 113.921 201.712 113.652 201.542 113.385C201.355 113.09 201.157 112.798 200.949 112.507C200.143 111.382 199.178 110.285 198.055 109.229C197.771 108.962 197.477 108.698 197.173 108.436C196.9 108.201 196.618 107.968 196.328 107.737C196.297 107.712 196.266 107.688 196.235 107.663C195.945 107.434 195.647 107.208 195.341 106.984ZM193.74 108.773L191.824 107.481C191.193 107.055 190.528 106.64 189.828 106.236C189.129 105.833 188.41 105.449 187.672 105.084L185.434 103.978L182.936 103.093C181.255 102.497 179.51 101.985 177.719 101.558L175.008 100.91L172.146 100.515C170.239 100.252 168.303 100.076 166.356 99.988L163.425 99.8556L160.493 99.988C158.546 100.076 156.61 100.252 154.703 100.515L151.842 100.91L149.13 101.558C147.339 101.985 145.594 102.497 143.913 103.093L141.415 103.978L139.177 105.084C138.439 105.449 137.72 105.833 137.021 106.236C136.322 106.64 135.656 107.055 135.025 107.481L133.11 108.773L131.576 110.216C130.544 111.186 129.658 112.193 128.917 113.227L127.795 114.793L127.111 116.445C126.655 117.546 126.351 118.664 126.199 119.788L125.969 121.48L126.199 123.173C126.351 124.297 126.655 125.415 127.111 126.516L127.795 128.168L128.917 129.734C129.658 130.768 130.544 131.775 131.576 132.745L133.11 134.188L135.025 135.48C135.656 135.906 136.322 136.321 137.021 136.725C137.72 137.128 138.439 137.512 139.177 137.877L141.415 138.983L143.913 139.868C145.594 140.464 147.339 140.976 149.13 141.403L151.842 142.051L154.703 142.446C156.61 142.709 158.546 142.885 160.493 142.973L163.425 143.105L166.356 142.973C168.303 142.885 170.239 142.709 172.146 142.446L175.008 142.051L177.719 141.403C179.51 140.976 181.255 140.464 182.936 139.868L185.434 138.983L187.672 137.877C188.41 137.512 189.129 137.128 189.828 136.725C190.528 136.321 191.193 135.906 191.824 135.48L193.74 134.188L195.273 132.745C196.305 131.775 197.191 130.768 197.932 129.734L199.054 128.168L199.738 126.516C200.194 125.415 200.498 124.297 200.651 123.173L200.88 121.48L200.651 119.788C200.498 118.664 200.194 117.546 199.738 116.445L199.054 114.793L197.932 113.227C197.191 112.193 196.305 111.186 195.273 110.216L193.74 108.773Z" fill="#360E8D"/>
<path fill-rule="evenodd" clip-rule="evenodd" d="M195.341 105.32C195.005 105.074 194.66 104.831 194.305 104.592C193.618 104.129 192.896 103.678 192.137 103.239C191.378 102.801 190.597 102.384 189.795 101.988C189.38 101.783 188.959 101.583 188.533 101.389C188.145 101.213 187.753 101.041 187.357 100.874C187.315 100.856 187.272 100.838 187.229 100.82C186.829 100.652 186.426 100.49 186.018 100.332C185.565 100.156 185.107 99.9863 184.644 99.8224C182.815 99.1741 180.916 98.6172 178.967 98.1517C178.464 98.0314 177.957 97.9172 177.446 97.809C176.983 97.7109 176.518 97.6178 176.05 97.5297C176 97.5203 175.95 97.5109 175.9 97.5016C175.431 97.4144 174.959 97.3322 174.486 97.2551C173.961 97.1697 173.434 97.0905 172.906 97.0175C170.832 96.7312 168.727 96.5403 166.611 96.4448C166.068 96.4202 165.525 96.402 164.981 96.39C164.489 96.3792 163.996 96.3735 163.503 96.373C163.451 96.3729 163.398 96.3729 163.346 96.373C162.853 96.3735 162.361 96.3792 161.868 96.39C161.325 96.402 160.781 96.4202 160.238 96.4448C158.123 96.5403 156.017 96.7312 153.944 97.0175C153.415 97.0905 152.888 97.1697 152.364 97.2551C151.89 97.3322 151.418 97.4144 150.949 97.5016C150.899 97.5109 150.849 97.5203 150.799 97.5297C150.331 97.6178 149.866 97.7109 149.403 97.809C148.893 97.9172 148.385 98.0314 147.882 98.1517C145.933 98.6172 144.034 99.1741 142.205 99.8224C141.743 99.9863 141.285 100.156 140.831 100.332C140.424 100.49 140.02 100.652 139.62 100.82C139.577 100.838 139.535 100.856 139.492 100.874C139.096 101.041 138.704 101.213 138.316 101.389C137.89 101.583 137.47 101.783 137.055 101.988C136.253 102.384 135.471 102.801 134.712 103.239C133.953 103.678 133.231 104.129 132.545 104.592C132.189 104.831 131.844 105.074 131.508 105.32C131.202 105.544 130.904 105.77 130.615 105.999C130.583 106.024 130.552 106.048 130.521 106.073C130.231 106.304 129.95 106.537 129.676 106.772C129.372 107.034 129.078 107.298 128.794 107.565C127.671 108.621 126.707 109.718 125.9 110.843C125.692 111.134 125.494 111.426 125.307 111.721C125.137 111.988 124.975 112.257 124.823 112.527C124.807 112.556 124.79 112.585 124.774 112.614C124.623 112.885 124.481 113.157 124.347 113.43C124.199 113.733 124.062 114.037 123.936 114.343C123.44 115.54 123.109 116.755 122.944 117.977C122.901 118.29 122.87 118.604 122.849 118.918C122.83 119.202 122.82 119.487 122.819 119.771C122.819 119.801 122.819 119.832 122.819 119.862C122.82 120.146 122.83 120.431 122.849 120.715C122.87 121.029 122.901 121.343 122.944 121.656C123.109 122.877 123.44 124.093 123.936 125.29C124.062 125.596 124.199 125.9 124.347 126.203C124.481 126.476 124.623 126.748 124.774 127.019C124.79 127.048 124.807 127.077 124.823 127.106C124.975 127.376 125.137 127.645 125.307 127.912C125.494 128.206 125.692 128.499 125.9 128.79C126.707 129.915 127.671 131.011 128.794 132.067C129.078 132.334 129.372 132.599 129.676 132.861C129.95 133.096 130.231 133.329 130.521 133.56C130.552 133.585 130.583 133.609 130.615 133.634C130.904 133.863 131.202 134.089 131.508 134.313C131.844 134.559 132.189 134.802 132.545 135.041C133.231 135.504 133.953 135.955 134.712 136.393C135.471 136.832 136.253 137.249 137.055 137.645C137.47 137.85 137.89 138.05 138.316 138.243C138.704 138.42 139.096 138.592 139.492 138.759C139.535 138.777 139.577 138.795 139.62 138.813C140.02 138.981 140.424 139.143 140.831 139.301C141.285 139.477 141.743 139.647 142.205 139.81C144.034 140.459 145.933 141.016 147.882 141.481C148.385 141.601 148.893 141.716 149.403 141.824C149.866 141.922 150.331 142.015 150.799 142.103C150.849 142.113 150.899 142.122 150.949 142.131C151.418 142.218 151.89 142.301 152.364 142.378C152.888 142.463 153.415 142.542 153.944 142.615C156.017 142.902 158.123 143.092 160.238 143.188C160.781 143.213 161.325 143.231 161.868 143.243C162.361 143.254 162.853 143.259 163.346 143.26C163.398 143.26 163.451 143.26 163.503 143.26C163.996 143.259 164.489 143.254 164.981 143.243C165.525 143.231 166.068 143.213 166.611 143.188C168.727 143.092 170.832 142.902 172.906 142.615C173.434 142.542 173.961 142.463 174.486 142.378C174.959 142.301 175.431 142.218 175.9 142.131C175.95 142.122 176 142.113 176.05 142.103C176.518 142.015 176.983 141.922 177.446 141.824C177.957 141.716 178.464 141.601 178.967 141.481C180.916 141.016 182.815 140.459 184.644 139.81C185.106 139.647 185.565 139.477 186.018 139.301C186.426 139.143 186.829 138.981 187.229 138.813C187.272 138.795 187.314 138.777 187.357 138.759C187.753 138.592 188.145 138.42 188.533 138.243C188.959 138.05 189.38 137.85 189.795 137.645C190.597 137.249 191.378 136.832 192.137 136.393C192.896 135.955 193.618 135.504 194.305 135.041C194.66 134.802 195.005 134.559 195.341 134.313C195.647 134.089 195.945 133.863 196.235 133.634C196.266 133.609 196.297 133.585 196.328 133.56C196.618 133.329 196.9 133.096 197.173 132.861C197.477 132.599 197.771 132.334 198.055 132.067C199.178 131.011 200.143 129.915 200.949 128.79C201.157 128.499 201.355 128.206 201.542 127.912C201.712 127.645 201.874 127.376 202.026 127.106C202.043 127.077 202.059 127.048 202.075 127.019C202.226 126.748 202.368 126.476 202.502 126.203C202.65 125.9 202.787 125.596 202.913 125.29C203.409 124.093 203.74 122.877 203.905 121.656C203.948 121.343 203.98 121.029 204 120.715C204.019 120.431 204.029 120.146 204.03 119.862C204.03 119.832 204.03 119.801 204.03 119.771C204.029 119.487 204.019 119.202 204 118.918C203.98 118.604 203.948 118.29 203.905 117.977C203.74 116.755 203.409 115.54 202.913 114.343C202.787 114.037 202.65 113.733 202.502 113.43C202.368 113.157 202.226 112.885 202.075 112.614C202.059 112.585 202.043 112.556 202.026 112.527C201.874 112.257 201.712 111.988 201.542 111.721C201.355 111.426 201.157 111.134 200.949 110.843C200.143 109.718 199.178 108.621 198.055 107.565C197.771 107.298 197.477 107.034 197.173 106.772C196.9 106.537 196.618 106.304 196.328 106.073C196.297 106.048 196.266 106.024 196.235 105.999C195.945 105.77 195.647 105.544 195.341 105.32ZM193.74 107.109L191.824 105.817C191.193 105.391 190.528 104.976 189.828 104.572C189.129 104.169 188.41 103.784 187.672 103.42L185.434 102.314L182.936 101.429C181.255 100.833 179.51 100.321 177.719 99.8935L175.008 99.2457L172.146 98.8507C170.239 98.5875 168.303 98.4118 166.356 98.3239L163.425 98.1915L160.493 98.3239C158.546 98.4118 156.61 98.5875 154.703 98.8507L151.842 99.2457L149.13 99.8934C147.339 100.321 145.594 100.833 143.913 101.429L141.415 102.314L139.177 103.42C138.439 103.784 137.72 104.169 137.021 104.572C136.322 104.976 135.656 105.391 135.025 105.817L133.11 107.109L131.576 108.552C130.544 109.522 129.658 110.529 128.917 111.563L127.795 113.129L127.111 114.781C126.655 115.882 126.351 117 126.199 118.124L125.969 119.816L126.199 121.509C126.351 122.633 126.655 123.751 127.111 124.852L127.795 126.504L128.917 128.069C129.658 129.103 130.544 130.111 131.576 131.081L133.11 132.523L135.025 133.816C135.656 134.242 136.322 134.657 137.021 135.061C137.72 135.464 138.439 135.848 139.177 136.213L141.415 137.319L143.913 138.204C145.594 138.8 147.339 139.312 149.13 139.739L151.842 140.387L154.703 140.782C156.61 141.045 158.546 141.221 160.493 141.309L163.425 141.441L166.356 141.309C168.303 141.221 170.239 141.045 172.146 140.782L175.008 140.387L177.719 139.739C179.51 139.312 181.255 138.8 182.936 138.204L185.434 137.319L187.672 136.213C188.41 135.848 189.129 135.464 189.828 135.061C190.528 134.657 191.193 134.242 191.824 133.816L193.74 132.523L195.273 131.081C196.305 130.111 197.191 129.103 197.932 128.069L199.054 126.504L199.738 124.852C200.194 123.751 200.498 122.633 200.651 121.509L200.88 119.816L200.651 118.124C200.498 117 200.194 115.882 199.738 114.781L199.054 113.129L197.932 111.563C197.191 110.529 196.305 109.522 195.273 108.552L193.74 107.109Z" fill="#8B55FF"/>
<path opacity="0.9" fill-rule="evenodd" clip-rule="evenodd" d="M195.341 104.656C195.005 104.41 194.66 104.167 194.305 103.928C193.618 103.465 192.896 103.013 192.137 102.575C191.378 102.137 190.597 101.72 189.795 101.324C189.38 101.119 188.959 100.919 188.533 100.725C188.145 100.549 187.753 100.377 187.357 100.209C187.315 100.191 187.272 100.174 187.229 100.156C186.829 99.9882 186.426 99.8256 186.018 99.6676C185.565 99.492 185.106 99.3222 184.644 99.1583C182.815 98.5101 180.916 97.9532 178.967 97.4877C178.464 97.3673 177.957 97.2531 177.446 97.145C176.983 97.0468 176.518 96.9537 176.05 96.8657C176 96.8562 175.95 96.8469 175.9 96.8376C175.431 96.7503 174.959 96.6682 174.486 96.591C173.961 96.5056 173.434 96.4264 172.906 96.3534C170.832 96.0672 168.727 95.8763 166.611 95.7807C166.068 95.7562 165.525 95.7379 164.981 95.726C164.489 95.7151 163.996 95.7094 163.503 95.7089C163.451 95.7088 163.398 95.7088 163.346 95.7089C162.853 95.7094 162.361 95.7151 161.868 95.726C161.325 95.7379 160.781 95.7562 160.238 95.7807C158.123 95.8763 156.017 96.0672 153.944 96.3534C153.415 96.4264 152.888 96.5056 152.364 96.591C151.89 96.6682 151.418 96.7503 150.949 96.8376C150.899 96.8469 150.849 96.8562 150.799 96.8657C150.331 96.9537 149.866 97.0468 149.403 97.145C148.893 97.2531 148.385 97.3673 147.882 97.4877C145.933 97.9532 144.034 98.5101 142.205 99.1583C141.743 99.3222 141.285 99.492 140.831 99.6676C140.424 99.8256 140.02 99.9882 139.62 100.156C139.577 100.174 139.535 100.191 139.492 100.209C139.096 100.377 138.704 100.549 138.316 100.725C137.89 100.919 137.47 101.119 137.055 101.324C136.253 101.72 135.471 102.137 134.712 102.575C133.953 103.013 133.231 103.465 132.545 103.928C132.189 104.167 131.844 104.41 131.508 104.656C131.202 104.88 130.904 105.106 130.615 105.335C130.583 105.359 130.552 105.384 130.521 105.409C130.231 105.64 129.95 105.873 129.676 106.108C129.372 106.37 129.078 106.634 128.794 106.901C127.671 107.957 126.707 109.054 125.9 110.179C125.692 110.47 125.494 110.762 125.307 111.057C125.137 111.324 124.975 111.593 124.823 111.863C124.807 111.892 124.79 111.921 124.774 111.95C124.623 112.221 124.481 112.493 124.347 112.766C124.199 113.069 124.062 113.373 123.936 113.678C123.44 114.876 123.109 116.091 122.944 117.313C122.901 117.626 122.87 117.94 122.849 118.254C122.83 118.538 122.82 118.822 122.819 119.107C122.819 119.137 122.819 119.168 122.819 119.198C122.82 119.482 122.83 119.767 122.849 120.051C122.87 120.365 122.901 120.679 122.944 120.992C123.109 122.213 123.44 123.429 123.936 124.626C124.062 124.932 124.199 125.236 124.347 125.538C124.481 125.812 124.623 126.084 124.774 126.355C124.79 126.384 124.807 126.413 124.823 126.442C124.975 126.712 125.137 126.981 125.307 127.248C125.494 127.542 125.692 127.835 125.9 128.126C126.707 129.251 127.671 130.347 128.794 131.403C129.078 131.67 129.372 131.935 129.676 132.197C129.95 132.432 130.231 132.665 130.521 132.896C130.552 132.921 130.583 132.945 130.615 132.97C130.904 133.199 131.202 133.425 131.508 133.649C131.844 133.895 132.189 134.137 132.545 134.377C133.231 134.84 133.953 135.291 134.712 135.729C135.471 136.168 136.253 136.585 137.055 136.981C137.47 137.186 137.89 137.386 138.316 137.579C138.704 137.756 139.096 137.928 139.492 138.095C139.535 138.113 139.577 138.131 139.62 138.149C140.02 138.316 140.424 138.479 140.831 138.637C141.285 138.813 141.743 138.982 142.205 139.146C144.034 139.795 145.933 140.352 147.882 140.817C148.385 140.937 148.893 141.052 149.403 141.16C149.866 141.258 150.331 141.351 150.799 141.439C150.849 141.448 150.899 141.458 150.949 141.467C151.418 141.554 151.89 141.637 152.364 141.714C152.888 141.799 153.415 141.878 153.944 141.951C156.017 142.238 158.123 142.428 160.238 142.524C160.781 142.549 161.325 142.567 161.868 142.579C162.361 142.59 162.853 142.595 163.346 142.596C163.398 142.596 163.451 142.596 163.503 142.596C163.996 142.595 164.489 142.59 164.981 142.579C165.525 142.567 166.068 142.549 166.611 142.524C168.727 142.428 170.832 142.238 172.906 141.951C173.434 141.878 173.961 141.799 174.486 141.714C174.959 141.637 175.431 141.554 175.9 141.467C175.95 141.458 176 141.448 176.05 141.439C176.518 141.351 176.983 141.258 177.446 141.16C177.957 141.052 178.464 140.937 178.967 140.817C180.916 140.352 182.815 139.795 184.644 139.146C185.106 138.982 185.565 138.813 186.018 138.637C186.426 138.479 186.829 138.316 187.229 138.149C187.272 138.131 187.314 138.113 187.357 138.095C187.753 137.928 188.145 137.756 188.533 137.579C188.959 137.386 189.38 137.186 189.795 136.981C190.597 136.585 191.378 136.168 192.137 135.729C192.896 135.291 193.618 134.84 194.305 134.377C194.66 134.137 195.005 133.895 195.341 133.649C195.647 133.425 195.945 133.199 196.235 132.97C196.266 132.945 196.297 132.921 196.328 132.896C196.618 132.665 196.9 132.432 197.173 132.197C197.477 131.935 197.771 131.67 198.055 131.403C199.178 130.347 200.143 129.251 200.949 128.126C201.157 127.835 201.355 127.542 201.542 127.248C201.712 126.981 201.874 126.712 202.026 126.442C202.043 126.413 202.059 126.384 202.075 126.355C202.226 126.084 202.368 125.812 202.502 125.538C202.65 125.236 202.787 124.932 202.913 124.626C203.409 123.429 203.74 122.213 203.905 120.992C203.948 120.679 203.98 120.365 204 120.051C204.019 119.767 204.029 119.482 204.03 119.198C204.03 119.168 204.03 119.137 204.03 119.107C204.029 118.822 204.019 118.538 204 118.254C203.98 117.94 203.948 117.626 203.905 117.313C203.74 116.091 203.409 114.876 202.913 113.678C202.787 113.373 202.65 113.069 202.502 112.766C202.368 112.493 202.226 112.221 202.075 111.95C202.059 111.921 202.043 111.892 202.026 111.863C201.874 111.593 201.712 111.324 201.542 111.057C201.355 110.762 201.157 110.47 200.949 110.179C200.143 109.054 199.178 107.957 198.055 106.901C197.771 106.634 197.477 106.37 197.173 106.108C196.9 105.873 196.618 105.64 196.328 105.409C196.297 105.384 196.266 105.359 196.235 105.335C195.945 105.106 195.647 104.88 195.341 104.656ZM193.74 106.445L191.824 105.153C191.193 104.727 190.528 104.312 189.828 103.908C189.129 103.504 188.41 103.12 187.672 102.756L185.434 101.65L182.936 100.765C181.255 100.169 179.51 99.6572 177.719 99.2294L175.008 98.5816L172.146 98.1867C170.239 97.9234 168.303 97.7478 166.356 97.6599L163.425 97.5274L160.493 97.6599C158.546 97.7478 156.61 97.9234 154.703 98.1867L151.842 98.5816L149.13 99.2294C147.339 99.6572 145.594 100.169 143.913 100.765L141.415 101.65L139.177 102.756C138.439 103.12 137.72 103.504 137.021 103.908C136.322 104.312 135.656 104.727 135.025 105.153L133.11 106.445L131.576 107.887C130.544 108.858 129.658 109.865 128.917 110.899L127.795 112.465L127.111 114.117C126.655 115.218 126.351 116.336 126.199 117.46L125.969 119.152L126.199 120.845C126.351 121.969 126.655 123.087 127.111 124.188L127.795 125.84L128.917 127.405C129.658 128.439 130.544 129.447 131.576 130.417L133.11 131.859L135.025 133.152C135.656 133.578 136.322 133.993 137.021 134.397C137.72 134.8 138.439 135.184 139.177 135.549L141.415 136.655L143.913 137.54C145.594 138.136 147.339 138.647 149.13 139.075L151.842 139.723L154.703 140.118C156.61 140.381 158.546 140.557 160.493 140.645L163.425 140.777L166.356 140.645C168.303 140.557 170.239 140.381 172.146 140.118L175.008 139.723L177.719 139.075C179.51 138.647 181.255 138.136 182.936 137.54L185.434 136.655L187.672 135.549C188.41 135.184 189.129 134.8 189.828 134.397C190.528 133.993 191.193 133.578 191.824 133.152L193.74 131.859L195.273 130.417C196.305 129.447 197.191 128.439 197.932 127.405L199.054 125.84L199.738 124.188C200.194 123.087 200.498 121.969 200.651 120.845L200.88 119.152L200.651 117.46C200.498 116.336 200.194 115.218 199.738 114.117L199.054 112.465L197.932 110.899C197.191 109.865 196.305 108.858 195.273 107.887L193.74 106.445Z" fill="url(#paint2_linear_4277_47569)"/>
<path d="M198.114 132.046C197.934 132.146 197.643 132.154 197.449 132.061C197.24 131.961 197.213 131.791 197.393 131.675L197.517 131.591C197.698 131.475 198.002 131.46 198.211 131.56C198.419 131.66 198.446 131.83 198.266 131.946L198.142 132.03C198.128 132.038 198.114 132.046 198.114 132.046ZM200.663 130.257C200.497 130.35 200.22 130.365 200.025 130.288C199.804 130.195 199.748 130.026 199.9 129.91L200.011 129.817C200.177 129.694 200.482 129.663 200.69 129.748C200.898 129.833 200.968 130.011 200.815 130.126L200.705 130.219C200.691 130.226 200.691 130.242 200.663 130.257ZM202.852 128.314C202.699 128.399 202.464 128.422 202.269 128.36C202.034 128.291 201.95 128.121 202.075 127.99L202.172 127.89C202.297 127.759 202.602 127.713 202.837 127.782C203.073 127.852 203.156 128.021 203.032 128.152L202.935 128.253C202.921 128.276 202.879 128.299 202.852 128.314ZM204.68 126.263C204.541 126.34 204.333 126.363 204.139 126.317C203.89 126.255 203.779 126.101 203.889 125.962L203.959 125.862C204.069 125.723 204.347 125.662 204.61 125.716C204.873 125.77 204.971 125.932 204.874 126.078L204.804 126.179C204.763 126.217 204.721 126.24 204.68 126.263ZM206.12 124.12C205.995 124.189 205.801 124.22 205.634 124.189C205.385 124.143 205.232 123.996 205.315 123.842L205.371 123.734C205.454 123.595 205.717 123.51 205.994 123.557C206.244 123.603 206.397 123.75 206.313 123.904L206.258 124.012C206.217 124.05 206.175 124.089 206.12 124.12ZM207.157 121.907C207.047 121.968 206.88 121.999 206.714 121.984C206.437 121.953 206.284 121.806 206.325 121.66L206.367 121.559C206.408 121.413 206.672 121.313 206.949 121.343C207.212 121.367 207.393 121.513 207.337 121.667L207.296 121.783C207.268 121.829 207.227 121.868 207.157 121.907ZM207.779 119.647C207.682 119.701 207.544 119.732 207.391 119.724C207.114 119.709 206.934 119.577 206.961 119.423L206.989 119.315C207.016 119.161 207.252 119.061 207.515 119.068C207.793 119.084 207.973 119.215 207.959 119.362L207.932 119.47C207.918 119.554 207.862 119.601 207.779 119.647ZM207.999 117.364C207.916 117.41 207.791 117.449 207.653 117.449C207.375 117.449 207.154 117.325 207.167 117.179L207.167 117.071C207.167 116.917 207.389 116.793 207.652 116.801C207.929 116.801 208.151 116.925 208.138 117.071L208.138 117.179C208.138 117.241 208.096 117.31 207.999 117.364ZM207.789 115.074C207.706 115.12 207.609 115.143 207.484 115.151C207.207 115.166 206.985 115.058 206.944 114.911L206.916 114.803C206.888 114.649 207.082 114.526 207.345 114.503C207.623 114.487 207.844 114.595 207.886 114.742L207.914 114.85C207.956 114.935 207.886 115.02 207.789 115.074ZM207.15 112.806C207.081 112.845 207.011 112.868 206.9 112.883C206.623 112.914 206.374 112.821 206.318 112.667L206.276 112.567C206.221 112.412 206.387 112.274 206.664 112.243C206.941 112.212 207.191 112.305 207.247 112.459L207.288 112.575C207.316 112.652 207.261 112.744 207.15 112.806ZM206.108 110.592C206.053 110.623 205.984 110.646 205.914 110.654C205.665 110.7 205.387 110.623 205.29 110.476L205.235 110.368C205.152 110.23 205.29 110.075 205.553 110.021C205.803 109.975 206.08 110.052 206.177 110.199L206.233 110.307C206.288 110.415 206.233 110.523 206.108 110.592ZM204.651 108.456C204.609 108.479 204.554 108.494 204.499 108.51C204.249 108.571 203.958 108.502 203.861 108.371L203.791 108.27C203.68 108.131 203.791 107.977 204.041 107.916C204.29 107.854 204.567 107.916 204.678 108.055L204.748 108.155C204.845 108.255 204.79 108.379 204.651 108.456ZM202.819 106.404C202.792 106.419 202.764 106.435 202.709 106.45C202.473 106.519 202.182 106.481 202.043 106.342L201.946 106.242C201.821 106.11 201.89 105.948 202.126 105.864C202.362 105.794 202.653 105.833 202.805 105.964L202.902 106.064C203.013 106.188 202.972 106.319 202.819 106.404ZM200.614 104.467C200.6 104.475 200.572 104.49 200.558 104.498C200.337 104.591 200.032 104.56 199.879 104.429L199.768 104.336C199.602 104.213 199.657 104.043 199.879 103.95C200.1 103.858 200.405 103.889 200.572 104.012L200.683 104.105C200.808 104.221 200.78 104.375 200.614 104.467ZM198.076 102.67C198.062 102.677 198.062 102.677 198.048 102.685C197.84 102.785 197.535 102.77 197.355 102.654L197.23 102.569C197.05 102.454 197.077 102.284 197.285 102.184C197.493 102.083 197.798 102.099 197.978 102.215L198.103 102.3C198.269 102.408 198.256 102.57 198.076 102.67ZM195.219 101.019C195.038 101.119 194.72 101.126 194.539 101.026L194.401 100.949C194.193 100.849 194.192 100.679 194.373 100.563C194.567 100.455 194.858 100.448 195.066 100.548L195.204 100.625C195.398 100.733 195.399 100.903 195.219 101.019ZM192.071 99.5447C191.904 99.6372 191.627 99.6526 191.419 99.5677L191.267 99.4982C191.045 99.4056 191.017 99.236 191.169 99.1203C191.335 98.997 191.64 98.9816 191.848 99.0665L192.001 99.1359C192.223 99.2285 192.251 99.3982 192.098 99.5139C192.098 99.5293 192.084 99.537 192.071 99.5447ZM188.659 98.2636C188.507 98.3484 188.258 98.3638 188.063 98.302L187.897 98.2403C187.675 98.1631 187.592 97.9934 187.73 97.87C187.869 97.7467 188.174 97.7005 188.396 97.7777L188.562 97.8394C188.784 97.9166 188.867 98.0863 188.729 98.2096C188.701 98.225 188.687 98.2482 188.659 98.2636ZM185.041 97.1752C184.902 97.2523 184.68 97.2831 184.472 97.2291L184.306 97.1828C184.056 97.121 183.959 96.959 184.07 96.8202C184.181 96.6814 184.472 96.6275 184.721 96.6893L184.902 96.7433C185.151 96.8051 185.248 96.967 185.137 97.1058C185.11 97.1213 185.082 97.1521 185.041 97.1752Z" fill="url(#paint3_linear_4277_47569)"/>
<path d="M251.858 140.209C253.419 139.341 255.951 139.341 257.512 140.209C259.073 141.078 259.073 142.486 257.512 143.355L210.682 169.409C209.121 170.278 206.589 170.278 205.028 169.409C203.467 168.54 203.467 167.132 205.028 166.264L251.858 140.209Z" fill="#662EFF"/>
<path d="M274.725 152.932C276.287 152.064 278.818 152.064 280.379 152.932C281.941 153.801 281.941 155.209 280.379 156.078L233.549 182.132C231.988 183 229.457 183 227.896 182.132C226.334 181.263 226.334 179.855 227.896 178.986L274.725 152.932Z" fill="#662EFF"/>
<path d="M263.166 146.502C264.727 145.634 267.258 145.634 268.819 146.502C270.381 147.371 270.381 148.779 268.819 149.648L221.99 175.702C220.428 176.571 217.897 176.571 216.336 175.702C214.774 174.833 214.774 173.425 216.336 172.557L263.166 146.502Z" fill="#662EFF"/>
<path d="M286.031 159.221C287.593 158.353 290.124 158.353 291.685 159.221C293.246 160.09 293.246 161.498 291.685 162.367L244.855 188.421C243.294 189.289 240.763 189.289 239.201 188.421C237.64 187.552 237.64 186.144 239.201 185.275L286.031 159.221Z" fill="#662EFF"/>
<path d="M30.4891 185.89C29.3804 186.558 28.4601 186 28.4601 184.663V173.742C28.4601 172.405 29.3836 170.734 30.4891 170.065C31.5979 169.396 32.5181 169.951 32.5181 171.288V181.985C32.7067 183.212 31.7832 185.108 30.4891 185.89Z" fill="#4824A2"/>
<path d="M31.7856 169.781L33.2222 170.54L31.5654 171.748L30.5005 170.671L31.7856 169.781Z" fill="#4824A2"/>
<path d="M30.1185 184.859L29.1397 186.075L30.3006 186.826L31.1809 185.745L30.1185 184.859Z" fill="#4824A2"/>
<path d="M42.6726 159.289L44.1092 159.795L42.4524 160.6L41.3876 159.88L42.6726 159.289Z" fill="#4824A2"/>
<path d="M62.4043 148.141L63.841 148.9L62.1841 150.108L61.1193 149.03L62.4043 148.141Z" fill="#4824A2"/>
<path d="M73.9692 146.832L75.4075 147.594L73.7529 148.799L72.6859 147.72L73.9692 146.832Z" fill="#4824A2"/>
<path d="M82.8157 127.16L84.2523 127.919L82.5955 129.127L81.5307 128.046L82.8157 127.16Z" fill="#119CBA"/>
<path d="M90.9792 131.754L92.4175 132.513L90.7629 133.721L89.6959 132.64L90.9792 131.754Z" fill="#119CBA"/>
<path d="M101.187 131.754L102.623 132.263L100.966 133.065L99.9016 132.347L101.187 131.754Z" fill="#A8058E"/>
<path d="M71.9486 161.914L70.6454 163.13L72.191 163.881L73.367 162.8L71.9486 161.914Z" fill="#4824A2"/>
<path d="M88.9606 157.324L87.6555 158.135L89.2033 158.636L90.3771 157.917L88.9606 157.324Z" fill="#119CBA"/>
<path d="M99.1662 146.832L97.8611 147.642L99.4049 148.143L100.583 147.425L99.1662 146.832Z" fill="#A8058E"/>
<path d="M110.711 121.262L112.149 121.768L110.495 122.573L109.428 121.852L110.711 121.262Z" fill="#A8058E"/>
<path d="M121.598 120.605L123.036 121.112L121.382 121.917L120.315 121.196L121.598 120.605Z" fill="#A8058E"/>
<path d="M109.044 146.176L108.067 146.986L109.226 147.487L110.108 146.769L109.044 146.176Z" fill="#A8058E"/>
<path d="M119.581 135.684L118.274 136.495L119.82 136.995L120.996 136.275L119.581 135.684Z" fill="#A8058E"/>
<path d="M52.1969 134.375L53.6353 135.134L51.9807 136.342L50.9136 135.261L52.1969 134.375Z" fill="#4824A2"/>
<path d="M31.85 186.542C30.7412 187.211 29.821 186.652 29.821 185.315V174.394C29.821 173.057 30.7444 171.386 31.85 170.717C32.9587 170.049 33.879 170.604 33.879 171.941V182.638C34.0675 183.865 33.1441 185.76 31.85 186.542Z" fill="#662EFF"/>
<g clip-path="url(#clip1_4277_47569)">
<path d="M58.5555 174.086C57.3088 174.749 56.274 174.198 56.274 172.871V152.072C56.274 150.745 57.3123 149.085 58.5555 148.422C59.8022 147.758 60.837 148.312 60.837 149.64V170.438C61.0454 171.653 60.007 173.312 58.5555 174.086Z" fill="#4824A2"/>
<path d="M39.5413 185.223C38.2945 185.903 37.2598 185.335 37.2598 183.975V162.659C37.2598 161.299 38.2981 159.598 39.5413 158.918C40.788 158.237 41.8228 158.802 41.8228 160.162V181.478C42.0312 182.727 40.9928 184.427 39.5413 185.223Z" fill="#4824A2"/>
<path d="M49.0495 198.345C47.9811 199.008 47.0943 198.458 47.0943 197.131V138.301C47.0943 136.974 47.9842 135.315 49.0495 134.652C50.118 133.989 51.0047 134.543 51.0047 135.869V194.696C51.1864 195.913 50.2965 197.572 49.0495 198.345Z" fill="#4824A2"/>
<path d="M77.9005 173.344C76.8334 173.998 75.9431 173.747 75.9431 172.791V130.47C75.9431 129.515 76.8334 128.174 77.9005 127.521C78.9675 126.867 79.8547 127.118 79.8547 128.07V170.391C80.0314 171.239 79.1443 172.58 77.9005 173.344Z" fill="#119CBA"/>
<path d="M86.4235 158.344C85.3549 159.025 84.468 158.456 84.468 157.096V135.781C84.468 134.42 85.358 132.719 86.4235 132.039C87.4891 131.358 88.3791 131.923 88.3791 133.284V154.602C88.5577 155.847 87.6677 157.552 86.4235 158.344Z" fill="#119CBA"/>
<path d="M69.7001 162.937C68.4541 163.605 67.42 163.047 67.42 161.71V150.79C67.42 149.452 68.4577 147.781 69.7001 147.112C70.9425 146.443 71.9839 146.998 71.9839 148.336V159.035C72.1885 160.262 71.1508 162.158 69.7001 162.937Z" fill="#4824A2"/>
<path d="M105.438 147.196C104.369 147.876 103.482 147.308 103.482 145.948V124.632C103.482 123.271 104.372 121.571 105.438 120.89C106.503 120.21 107.393 120.775 107.393 122.135V143.451C107.572 144.699 106.682 146.4 105.438 147.196Z" fill="#A8058E"/>
<path d="M115.597 136.054C114.351 136.723 113.317 136.164 113.317 134.827V123.906C113.317 122.569 114.354 120.897 115.597 120.228C116.842 119.56 117.88 120.118 117.88 121.456V132.155C118.088 133.379 117.051 135.275 115.597 136.054Z" fill="#A8058E"/>
<path d="M96.258 147.214C95.1894 147.856 94.3025 147.32 94.3025 146.036V135.553C94.3025 134.269 95.1925 132.664 96.258 132.022C97.3267 131.38 98.2136 131.913 98.2136 133.197V143.468C98.3922 144.646 97.5053 146.466 96.258 147.214Z" fill="#A8058E"/>
<path d="M40.8527 185.879C39.6059 186.56 38.5712 185.992 38.5712 184.631V163.315C38.5712 161.955 39.6095 160.254 40.8527 159.574C42.0994 158.894 43.1342 159.458 43.1342 160.819V182.135C43.3426 183.383 42.3042 185.084 40.8527 185.879Z" fill="#662EFF"/>
<path d="M50.3609 199.001C49.2925 199.664 48.4057 199.114 48.4057 197.787V138.957C48.4057 137.63 49.2956 135.972 50.3609 135.308C51.4294 134.645 52.3161 135.199 52.3161 136.526V195.352C52.4978 196.569 51.608 198.228 50.3609 199.001Z" fill="#662EFF"/>
<path d="M59.8669 174.742C58.6202 175.406 57.5854 174.855 57.5854 173.527V152.729C57.5854 151.401 58.6237 149.742 59.8669 149.078C61.1136 148.414 62.1484 148.968 62.1484 150.296V171.094C62.3568 172.309 61.3184 173.969 59.8669 174.742Z" fill="#662EFF"/>
<path d="M71.0128 163.593C69.7661 164.262 68.7313 163.703 68.7313 162.366V151.446C68.7313 150.109 69.7697 148.437 71.0128 147.768C72.2596 147.099 73.2943 147.654 73.2943 148.992V159.691C73.5027 160.918 72.4644 162.814 71.0128 163.593Z" fill="#662EFF"/>
<path d="M79.2119 174.001C78.1448 174.654 77.2545 174.403 77.2545 173.448V131.126C77.2545 130.171 78.1448 128.83 79.2119 128.177C80.2789 127.523 81.1661 127.775 81.1661 128.727V171.048C81.3429 171.896 80.4557 173.236 79.2119 174.001Z" fill="#28E3D7"/>
<path d="M87.7349 158.997C86.6663 159.677 85.7794 159.109 85.7794 157.748V136.433C85.7794 135.072 86.6694 133.371 87.7349 132.691C88.8005 132.011 89.6905 132.575 89.6905 133.936V155.255C89.8691 156.5 88.9791 158.204 87.7349 158.997Z" fill="#28E3D7"/>
<path d="M97.5694 147.867C96.5008 148.508 95.6139 147.972 95.6139 146.689V136.206C95.6139 134.922 96.5039 133.317 97.5694 132.675C98.6381 132.033 99.525 132.566 99.525 133.85V144.121C99.7036 145.299 98.8167 147.119 97.5694 147.867Z" fill="#EE1DB3"/>
<path d="M106.749 147.852C105.681 148.532 104.794 147.964 104.794 146.604V125.288C104.794 123.927 105.684 122.227 106.749 121.547C107.815 120.866 108.705 121.431 108.705 122.791V144.107C108.883 145.356 107.993 147.056 106.749 147.852Z" fill="#EE1DB3"/>
<path d="M116.908 136.722C115.662 137.364 114.628 136.828 114.628 135.544V125.06C114.628 123.777 115.666 122.172 116.908 121.53C118.154 120.888 119.191 121.424 119.191 122.708V132.979C119.399 134.154 118.362 135.974 116.908 136.722Z" fill="#EE1DB3"/>
</g>
<path d="M248.911 27.3967C248.911 28.4771 248.113 29.7928 247.129 30.333L208.507 51.527C207.524 52.0672 206.726 51.6297 206.726 50.5493C206.726 49.4689 207.524 48.1532 208.507 47.613L247.129 26.419C248.113 25.8788 248.911 26.3162 248.911 27.3967Z" fill="#4824A2"/>
<path d="M248.911 59.5293C248.911 60.6096 248.113 61.9252 247.129 62.4654L208.507 83.6605C207.524 84.2006 206.726 83.7599 206.726 82.6796C206.726 81.5993 207.524 80.2837 208.507 79.7436L247.129 58.5518C248.113 58.0116 248.911 58.449 248.911 59.5293Z" fill="#4824A2"/>
<path d="M248.911 43.1671C248.911 44.2752 248.113 45.6245 247.129 46.1786L208.507 67.915C207.524 68.469 206.726 68.0204 206.726 66.9123C206.726 65.8042 207.524 64.4548 208.507 63.9008L247.126 42.161C248.113 41.6104 248.911 42.059 248.911 43.1671Z" fill="#4824A2"/>
<path d="M248.911 35.2687C248.911 36.349 248.113 37.6645 247.129 38.2046L208.507 59.3988C207.524 59.9389 206.726 59.4982 206.726 58.4179C206.726 57.3377 207.524 56.0222 208.507 55.482L247.126 34.2879C248.113 33.7511 248.911 34.1885 248.911 35.2687Z" fill="#4824A2"/>
<path d="M248.911 67.3939C248.911 68.4742 248.113 69.7899 247.129 70.3301L208.507 91.5231C207.524 92.0633 206.726 91.6258 206.726 90.5455C206.726 89.4651 207.524 88.1494 208.507 87.6093L247.126 66.4129C248.113 65.8761 248.911 66.3135 248.911 67.3939Z" fill="#A8058E"/>
<path d="M248.911 75.2624C248.911 76.3427 248.113 77.6583 247.129 78.1985L208.507 99.3903C207.524 99.9304 206.726 99.493 206.726 98.4127C206.726 97.3324 207.524 96.0168 208.507 95.4767L247.126 74.2816C248.113 73.7414 248.911 74.1821 248.911 75.2624Z" fill="#A8058E"/>
<path d="M248.911 51.0357C248.911 52.1437 248.113 53.493 247.129 54.047L208.507 75.7822C207.524 76.3362 206.726 75.8876 206.726 74.7796C206.726 73.6716 207.524 72.3222 208.507 71.7682L247.126 50.0297C248.113 49.4757 248.911 49.9277 248.911 51.0357Z" fill="#4824A2"/>
<path d="M209.448 52.4129L207.407 51.8166V51.1016L209.448 51.1971V52.4129Z" fill="#4824A2"/>
<path d="M249.981 28.1545L247.55 27.0849L247.74 26.1875L250.272 26.9201L249.981 28.1545Z" fill="#4824A2"/>
<path d="M209.448 60.284L207.407 59.6877V58.9727L209.448 59.0682V60.284Z" fill="#4824A2"/>
<path d="M249.981 36.0256L247.55 34.956L247.74 34.0586L250.272 34.7912L249.981 36.0256Z" fill="#4824A2"/>
<path d="M209.448 68.8068L207.407 67.9143V66.8398L209.448 66.9872V68.8068Z" fill="#4824A2"/>
<path d="M249.981 43.8934L247.55 43.1828L247.74 42.582L250.272 43.0729L249.981 43.8934Z" fill="#4824A2"/>
<path d="M209.448 76.674L207.407 75.7795V74.707L209.448 74.8503V76.674Z" fill="#4824A2"/>
<path d="M249.981 51.7606L247.55 51.0499L247.74 50.4492L250.272 50.9376L249.981 51.7606Z" fill="#4824A2"/>
<path d="M209.448 84.5457L207.407 83.9494V83.2344L209.448 83.3299V84.5457Z" fill="#4824A2"/>
<path d="M249.981 60.2873L247.55 59.2194L247.74 58.3203L250.272 59.0543L249.981 60.2873Z" fill="#4824A2"/>
<path d="M209.448 92.4129L207.407 91.8195V91.1016L209.448 91.1971V92.4129Z" fill="#A8058E"/>
<path d="M249.981 68.1506L247.55 67.0847L247.74 66.1836L250.272 66.9162L249.981 68.1506Z" fill="#A8058E"/>
<path d="M209.448 100.28L207.407 99.6851V98.9688L209.448 99.067V100.28Z" fill="#A8058E"/>
<path d="M249.981 76.0178L247.55 74.9519L247.74 74.0508L250.272 74.787L249.981 76.0178Z" fill="#A8058E"/>
<path d="M250.953 28.0529C250.953 29.1333 250.155 30.449 249.171 30.9892L210.549 52.1832C209.566 52.7234 208.768 52.286 208.768 51.2056C208.768 50.1251 209.566 48.8094 210.549 48.2692L249.171 27.0752C250.155 26.535 250.953 26.9725 250.953 28.0529Z" fill="#662EFF"/>
<path d="M250.953 35.925C250.953 37.0053 250.155 38.3208 249.171 38.8609L210.549 60.055C209.566 60.5952 208.768 60.1544 208.768 59.0742C208.768 57.9939 209.566 56.6784 210.549 56.1383L249.168 34.9442C250.155 34.4073 250.953 34.8447 250.953 35.925Z" fill="#662EFF"/>
<path d="M250.953 43.8233C250.953 44.9314 250.155 46.2808 249.171 46.8348L210.549 68.5713C209.566 69.1253 208.768 68.6766 208.768 67.5686C208.768 66.4605 209.566 65.1111 210.549 64.5571L249.168 42.8172C250.155 42.2666 250.953 42.7153 250.953 43.8233Z" fill="#662EFF"/>
<path d="M250.953 51.692C250.953 52.8 250.155 54.1493 249.171 54.7033L210.549 76.4385C209.566 76.9925 208.768 76.5438 208.768 75.4358C208.768 74.3278 209.566 72.9785 210.549 72.4245L249.168 50.6859C250.155 50.1319 250.953 50.584 250.953 51.692Z" fill="#662EFF"/>
<path d="M250.953 60.1817C250.953 61.262 250.155 62.5776 249.171 63.1177L210.549 84.3128C209.566 84.853 208.768 84.4122 208.768 83.3319C208.768 82.2516 209.566 80.9361 210.549 80.3959L249.171 59.2041C250.155 58.664 250.953 59.1014 250.953 60.1817Z" fill="#662EFF"/>
<path d="M250.953 68.0501C250.953 69.1305 250.155 70.4461 249.171 70.9863L210.549 92.1793C209.566 92.7195 208.768 92.2821 208.768 91.2017C208.768 90.1213 209.566 88.8057 210.549 88.2655L249.168 67.0692C250.155 66.5323 250.953 66.9698 250.953 68.0501Z" fill="#EE1DB3"/>
<path d="M250.953 75.9187C250.953 76.999 250.155 78.3146 249.171 78.8547L210.549 100.047C209.566 100.587 208.768 100.149 208.768 99.069C208.768 97.9887 209.566 96.6731 210.549 96.1329L249.168 74.9378C250.155 74.3977 250.953 74.8384 250.953 75.9187Z" fill="#EE1DB3"/>
<path d="M204.079 151.262L201.411 152.803L202.425 153.974L200.807 154.909L196.171 149.057L197.581 148.243L207.731 150.911L206.113 151.845L204.079 151.262ZM200.589 151.854L202.436 150.788L198.743 149.728L200.589 151.854Z" fill="#86DDDF"/>
<path d="M207.86 147.832L210.462 149.334L208.941 150.213L201.555 145.949L204.436 144.285C204.991 143.965 205.579 143.743 206.201 143.618C206.827 143.491 207.441 143.47 208.043 143.556C208.641 143.64 209.179 143.82 209.656 144.095C210.379 144.513 210.702 144.986 210.625 145.515C210.547 146.041 210.07 146.556 209.194 147.062L207.86 147.832ZM206.627 147.12L207.987 146.335C208.389 146.103 208.601 145.872 208.621 145.641C208.645 145.409 208.481 145.191 208.129 144.988C207.767 144.779 207.368 144.672 206.932 144.666C206.496 144.66 206.086 144.764 205.704 144.977L204.309 145.782L206.627 147.12Z" fill="#86DDDF"/>
<path d="M217.784 145.107L216.262 145.986L208.877 141.722L210.398 140.843L217.784 145.107Z" fill="#86DDDF"/>
<defs>
<radialGradient id="paint0_radial_4277_47569" cx="0" cy="0" r="1" gradientUnits="userSpaceOnUse" gradientTransform="translate(222.157 120.605) scale(183.586 162.605)">
<stop stop-color="#4E0099"/>
<stop offset="0.13" stop-color="#4C0096" stop-opacity="0.96"/>
<stop offset="0.3" stop-color="#47018D" stop-opacity="0.86"/>
<stop offset="0.49" stop-color="#3E037E" stop-opacity="0.69"/>
<stop offset="0.69" stop-color="#32056A" stop-opacity="0.45"/>
<stop offset="0.9" stop-color="#23084F" stop-opacity="0.15"/>
<stop offset="1" stop-color="#1B0A42" stop-opacity="0"/>
</radialGradient>
<linearGradient id="paint1_linear_4277_47569" x1="121.738" y1="106.234" x2="198.64" y2="239.433" gradientUnits="userSpaceOnUse">
<stop stop-color="#662EFF"/>
<stop offset="1" stop-color="#B197F7"/>
</linearGradient>
<linearGradient id="paint2_linear_4277_47569" x1="134.712" y1="102.575" x2="163.425" y2="152.306" gradientUnits="userSpaceOnUse">
<stop stop-color="#EE1DB3"/>
<stop offset="1" stop-color="#7BFFDF"/>
</linearGradient>
<linearGradient id="paint3_linear_4277_47569" x1="137.663" y1="132.486" x2="167.074" y2="83.6211" gradientUnits="userSpaceOnUse">
<stop offset="0.1497" stop-color="#753DDA"/>
<stop offset="0.1653" stop-color="#7342DA"/>
<stop offset="0.4575" stop-color="#529FD1"/>
<stop offset="0.6618" stop-color="#3DD9CC"/>
<stop offset="0.7594" stop-color="#35F0CA"/>
<stop offset="1" stop-color="#35F0CA"/>
</linearGradient>
<clipPath id="clip0_4277_47569">
<rect width="367.227" height="209.244" fill="white" transform="translate(38.2101 -42)"/>
</clipPath>
<clipPath id="clip1_4277_47569">
<rect width="81.5126" height="68.9076" fill="white" transform="translate(37.3698 120.184)"/>
</clipPath>
</defs>
</svg>
