<svg width="115" height="76" viewBox="0 0 115 76" fill="none" xmlns="http://www.w3.org/2000/svg">
<rect x="37.5" width="40" height="40" rx="10" fill="url(#paint0_linear)"/>
<path d="M49.5 11.8742C49.5 11.2102 50.1511 10.7893 50.6833 11.1093L64.1974 19.2351C64.749 19.5668 64.749 20.4332 64.1974 20.7649L50.6833 28.8907C50.1511 29.2107 49.5 28.7898 49.5 28.1258V11.8742Z" fill="white"/>
<path d="M65.5 16.7618C65.5 17.4294 64.7679 17.8499 64.1753 17.5226L59.7662 15.087C59.1621 14.7533 59.1621 13.8991 59.7662 13.5654L64.1753 11.1298C64.7679 10.8025 65.5 11.223 65.5 11.8906L65.5 16.7618Z" fill="white"/>
<path d="M65.5 28.1094C65.5 28.7771 64.7679 29.1976 64.1753 28.8703L59.7662 26.4347C59.1621 26.1009 59.1621 25.2468 59.7662 24.913L64.1753 22.4774C64.7679 22.1501 65.5 22.5706 65.5 23.2383L65.5 28.1094Z" fill="white"/>
<path d="M7.82812 67.7695L11.6953 54.9375H15.6094L9.66797 72H6L0.0820312 54.9375H3.98438L7.82812 67.7695ZM21.0581 72H17.6597V59.3203H21.0581V72ZM17.4605 56.0391C17.4605 55.5312 17.6284 55.1133 17.9644 54.7852C18.3081 54.457 18.773 54.293 19.3589 54.293C19.937 54.293 20.398 54.457 20.7417 54.7852C21.0855 55.1133 21.2573 55.5312 21.2573 56.0391C21.2573 56.5547 21.0816 56.9766 20.73 57.3047C20.3862 57.6328 19.9292 57.7969 19.3589 57.7969C18.7886 57.7969 18.3277 57.6328 17.9761 57.3047C17.6323 56.9766 17.4605 56.5547 17.4605 56.0391ZM23.8116 65.5664C23.8116 63.5898 24.253 62.0156 25.1358 60.8438C26.0264 59.6719 27.2412 59.0859 28.7803 59.0859C30.0147 59.0859 31.0342 59.5469 31.8389 60.4688V54H35.2373V72H32.1787L32.0147 70.6523C31.1709 71.707 30.085 72.2344 28.7569 72.2344C27.2647 72.2344 26.0655 71.6484 25.1592 70.4766C24.2608 69.2969 23.8116 67.6602 23.8116 65.5664ZM27.1983 65.8125C27.1983 67 27.4053 67.9102 27.8194 68.543C28.2334 69.1758 28.835 69.4922 29.6241 69.4922C30.6709 69.4922 31.4092 69.0508 31.8389 68.168V63.1641C31.417 62.2812 30.6866 61.8398 29.6475 61.8398C28.0147 61.8398 27.1983 63.1641 27.1983 65.8125ZM44.1783 72.2344C42.3189 72.2344 40.8033 71.6641 39.6314 70.5234C38.4673 69.3828 37.8853 67.8633 37.8853 65.9648V65.6367C37.8853 64.3633 38.1314 63.2266 38.6236 62.2266C39.1158 61.2188 39.8111 60.4453 40.7095 59.9062C41.6158 59.3594 42.647 59.0859 43.8033 59.0859C45.5377 59.0859 46.9009 59.6328 47.8931 60.7266C48.8931 61.8203 49.3931 63.3711 49.3931 65.3789V66.7617H41.3189C41.4283 67.5898 41.7564 68.2539 42.3033 68.7539C42.858 69.2539 43.5572 69.5039 44.4009 69.5039C45.7056 69.5039 46.7252 69.0312 47.4595 68.0859L49.1236 69.9492C48.6158 70.668 47.9283 71.2305 47.0611 71.6367C46.1939 72.0352 45.233 72.2344 44.1783 72.2344ZM43.7916 61.8281C43.1197 61.8281 42.5728 62.0547 42.1509 62.5078C41.7369 62.9609 41.4712 63.6094 41.3541 64.4531H46.065V64.1836C46.0494 63.4336 45.8462 62.8555 45.4556 62.4492C45.065 62.0352 44.5103 61.8281 43.7916 61.8281ZM51.2794 65.543C51.2794 64.2852 51.5216 63.1641 52.0059 62.1797C52.4903 61.1953 53.1856 60.4336 54.0919 59.8945C55.0059 59.3555 56.0645 59.0859 57.2677 59.0859C58.9786 59.0859 60.3731 59.6094 61.4512 60.6562C62.5372 61.7031 63.1427 63.125 63.2677 64.9219L63.2911 65.7891C63.2911 67.7344 62.7481 69.2969 61.6622 70.4766C60.5762 71.6484 59.1192 72.2344 57.2911 72.2344C55.463 72.2344 54.002 71.6484 52.9083 70.4766C51.8223 69.3047 51.2794 67.7109 51.2794 65.6953V65.543ZM54.6661 65.7891C54.6661 66.9922 54.8927 67.9141 55.3458 68.5547C55.7989 69.1875 56.4473 69.5039 57.2911 69.5039C58.1114 69.5039 58.752 69.1914 59.213 68.5664C59.6739 67.9336 59.9044 66.9258 59.9044 65.543C59.9044 64.3633 59.6739 63.4492 59.213 62.8008C58.752 62.1523 58.1036 61.8281 57.2677 61.8281C56.4395 61.8281 55.7989 62.1523 55.3458 62.8008C54.8927 63.4414 54.6661 64.4375 54.6661 65.7891ZM71.1305 69.5039C71.7555 69.5039 72.2633 69.332 72.6539 68.9883C73.0445 68.6445 73.2477 68.1875 73.2633 67.6172H76.4391C76.4313 68.4766 76.1969 69.2656 75.7359 69.9844C75.275 70.6953 74.6422 71.25 73.8375 71.6484C73.0406 72.0391 72.1578 72.2344 71.1891 72.2344C69.3766 72.2344 67.9469 71.6602 66.9 70.5117C65.8531 69.3555 65.3297 67.7617 65.3297 65.7305V65.5078C65.3297 63.5547 65.8492 61.9961 66.8883 60.832C67.9273 59.668 69.3531 59.0859 71.1656 59.0859C72.7516 59.0859 74.0211 59.5391 74.9742 60.4453C75.9352 61.3438 76.4234 62.543 76.4391 64.043H73.2633C73.2477 63.3867 73.0445 62.8555 72.6539 62.4492C72.2633 62.0352 71.7477 61.8281 71.107 61.8281C70.318 61.8281 69.7203 62.1172 69.3141 62.6953C68.9156 63.2656 68.7164 64.1953 68.7164 65.4844V65.8359C68.7164 67.1406 68.9156 68.0781 69.3141 68.6484C69.7125 69.2188 70.318 69.5039 71.1305 69.5039ZM78.3253 65.543C78.3253 64.2852 78.5675 63.1641 79.0519 62.1797C79.5362 61.1953 80.2316 60.4336 81.1378 59.8945C82.0519 59.3555 83.1105 59.0859 84.3136 59.0859C86.0245 59.0859 87.4191 59.6094 88.4972 60.6562C89.5831 61.7031 90.1886 63.125 90.3136 64.9219L90.337 65.7891C90.337 67.7344 89.7941 69.2969 88.7081 70.4766C87.6222 71.6484 86.1652 72.2344 84.337 72.2344C82.5089 72.2344 81.048 71.6484 79.9542 70.4766C78.8683 69.3047 78.3253 67.7109 78.3253 65.6953V65.543ZM81.712 65.7891C81.712 66.9922 81.9386 67.9141 82.3917 68.5547C82.8448 69.1875 83.4933 69.5039 84.337 69.5039C85.1573 69.5039 85.798 69.1914 86.2589 68.5664C86.7198 67.9336 86.9503 66.9258 86.9503 65.543C86.9503 64.3633 86.7198 63.4492 86.2589 62.8008C85.798 62.1523 85.1495 61.8281 84.3136 61.8281C83.4855 61.8281 82.8448 62.1523 82.3917 62.8008C81.9386 63.4414 81.712 64.4375 81.712 65.7891ZM96.0202 59.3203L96.1256 60.7852C97.0319 59.6523 98.2467 59.0859 99.7702 59.0859C101.114 59.0859 102.114 59.4805 102.77 60.2695C103.426 61.0586 103.762 62.2383 103.778 63.8086V72H100.391V63.8906C100.391 63.1719 100.235 62.6523 99.9225 62.332C99.61 62.0039 99.0905 61.8398 98.3639 61.8398C97.4108 61.8398 96.6959 62.2461 96.2194 63.0586V72H92.8327V59.3203H96.0202ZM107.762 72V61.8047H105.875V59.3203H107.762V58.2422C107.762 56.8203 108.168 55.7188 108.981 54.9375C109.801 54.1484 110.945 53.7539 112.414 53.7539C112.883 53.7539 113.457 53.832 114.137 53.9883L114.102 56.6133C113.82 56.543 113.477 56.5078 113.07 56.5078C111.797 56.5078 111.16 57.1055 111.16 58.3008V59.3203H113.68V61.8047H111.16V72H107.762Z" fill="#4824A2"/>
<defs>
<linearGradient id="paint0_linear" x1="39.5" y1="38" x2="76" y2="1.5" gradientUnits="userSpaceOnUse">
<stop stop-color="#662EFF"/>
<stop offset="1" stop-color="#B903FF"/>
</linearGradient>
</defs>
</svg>
