<svg width="157" height="100" viewBox="0 0 157 100" fill="none" xmlns="http://www.w3.org/2000/svg">
<rect x="51" width="55" height="55" rx="10" fill="url(#paint0_linear)"/>
<path d="M67.5 16.327C67.5 15.4141 68.3953 14.8353 69.127 15.2753L87.709 26.4483C88.4674 26.9043 88.4674 28.0957 87.709 28.5517L69.127 39.7247C68.3953 40.1647 67.5 39.5859 67.5 38.673V16.327Z" fill="white"/>
<path d="M89.5 23.0475C89.5 23.9655 88.4933 24.5437 87.6786 24.0936L81.616 20.7447C80.7853 20.2858 80.7853 19.1113 81.616 18.6524L87.6786 15.3035C88.4933 14.8534 89.5 15.4316 89.5 16.3496L89.5 23.0475Z" fill="white"/>
<path d="M89.5 38.6505C89.5 39.5685 88.4933 40.1467 87.6786 39.6966L81.616 36.3477C80.7853 35.8888 80.7853 34.7143 81.616 34.2554L87.6786 30.9065C88.4933 30.4564 89.5 31.0346 89.5 31.9526L89.5 38.6505Z" fill="white"/>
<path d="M10.7637 89.1831L16.0811 71.5391H21.4629L13.2935 95H8.25L0.112793 71.5391H5.47852L10.7637 89.1831ZM28.9549 95H24.2821V77.5654H28.9549V95ZM24.0081 73.0537C24.0081 72.3555 24.2391 71.7808 24.701 71.3296C25.1737 70.8784 25.8128 70.6528 26.6185 70.6528C27.4134 70.6528 28.0472 70.8784 28.5199 71.3296C28.9925 71.7808 29.2288 72.3555 29.2288 73.0537C29.2288 73.7627 28.9871 74.3428 28.5037 74.7939C28.0311 75.2451 27.4027 75.4707 26.6185 75.4707C25.8343 75.4707 25.2005 75.2451 24.7171 74.7939C24.2445 74.3428 24.0081 73.7627 24.0081 73.0537ZM32.7409 86.1538C32.7409 83.436 33.3478 81.2715 34.5617 79.6602C35.7863 78.0488 37.4567 77.2432 39.5729 77.2432C41.2702 77.2432 42.6721 77.877 43.7785 79.1445V70.25H48.4513V95H44.2458L44.0202 93.147C42.86 94.5972 41.3669 95.3223 39.5407 95.3223C37.4889 95.3223 35.84 94.5166 34.5939 92.9053C33.3586 91.2832 32.7409 89.0327 32.7409 86.1538ZM37.3976 86.4922C37.3976 88.125 37.6823 89.3765 38.2516 90.2466C38.821 91.1167 39.6481 91.5518 40.7331 91.5518C42.1725 91.5518 43.1877 90.9448 43.7785 89.731V82.8506C43.1984 81.6367 42.194 81.0298 40.7653 81.0298C38.5202 81.0298 37.3976 82.8506 37.3976 86.4922ZM60.7451 95.3223C58.1885 95.3223 56.1045 94.5381 54.4932 92.9697C52.8926 91.4014 52.0923 89.312 52.0923 86.7017V86.2505C52.0923 84.4995 52.4307 82.9365 53.1074 81.5615C53.7842 80.1758 54.7403 79.1123 55.9756 78.3711C57.2217 77.6191 58.6397 77.2432 60.2295 77.2432C62.6143 77.2432 64.4888 77.9951 65.853 79.499C67.228 81.0029 67.9155 83.1353 67.9155 85.896V87.7974H56.8135C56.9639 88.936 57.4151 89.8491 58.167 90.5366C58.9297 91.2241 59.8911 91.5679 61.0513 91.5679C62.8452 91.5679 64.2471 90.918 65.2569 89.6182L67.5449 92.1802C66.8467 93.1685 65.9014 93.9419 64.709 94.5005C63.5166 95.0483 62.1953 95.3223 60.7451 95.3223ZM60.2134 81.0137C59.2896 81.0137 58.5376 81.3252 57.9575 81.9482C57.3882 82.5713 57.023 83.4629 56.8618 84.623H63.3394V84.2524C63.3179 83.2212 63.0386 82.4263 62.5015 81.8677C61.9644 81.2983 61.2017 81.0137 60.2134 81.0137ZM70.5091 86.1216C70.5091 84.3921 70.8421 82.8506 71.5082 81.4971C72.1742 80.1436 73.1302 79.0962 74.3763 78.355C75.6332 77.6138 77.0887 77.2432 78.743 77.2432C81.0956 77.2432 83.013 77.9629 84.4955 79.4023C85.9886 80.8418 86.8212 82.7969 86.993 85.2676L87.0253 86.46C87.0253 89.1348 86.2787 91.2832 84.7855 92.9053C83.2923 94.5166 81.2889 95.3223 78.7753 95.3223C76.2616 95.3223 74.2528 94.5166 72.7489 92.9053C71.2557 91.2939 70.5091 89.1025 70.5091 86.3311V86.1216ZM75.1659 86.46C75.1659 88.1143 75.4774 89.3818 76.1004 90.2627C76.7235 91.1328 77.6151 91.5679 78.7753 91.5679C79.9032 91.5679 80.784 91.1382 81.4178 90.2788C82.0516 89.4087 82.3685 88.0229 82.3685 86.1216C82.3685 84.4995 82.0516 83.2427 81.4178 82.3511C80.784 81.4595 79.8924 81.0137 78.743 81.0137C77.6044 81.0137 76.7235 81.4595 76.1004 82.3511C75.4774 83.2319 75.1659 84.6016 75.1659 86.46ZM97.8044 91.5679C98.6638 91.5679 99.362 91.3315 99.8991 90.8589C100.436 90.3862 100.716 89.7578 100.737 88.9736H105.104C105.093 90.1553 104.771 91.2402 104.137 92.2285C103.503 93.2061 102.633 93.9688 101.527 94.5166C100.431 95.0537 99.217 95.3223 97.885 95.3223C95.3928 95.3223 93.427 94.5327 91.9875 92.9536C90.548 91.3638 89.8283 89.1724 89.8283 86.3794V86.0732C89.8283 83.3877 90.5427 81.2446 91.9714 79.644C93.4001 78.0435 95.3605 77.2432 97.8527 77.2432C100.033 77.2432 101.779 77.8662 103.09 79.1123C104.411 80.3477 105.082 81.9966 105.104 84.0591H100.737C100.716 83.1567 100.436 82.4263 99.8991 81.8677C99.362 81.2983 98.653 81.0137 97.7722 81.0137C96.6872 81.0137 95.8654 81.4111 95.3068 82.2061C94.759 82.9902 94.4851 84.2686 94.4851 86.041V86.5244C94.4851 88.3184 94.759 89.6074 95.3068 90.3916C95.8547 91.1758 96.6872 91.5679 97.8044 91.5679ZM107.697 86.1216C107.697 84.3921 108.03 82.8506 108.696 81.4971C109.362 80.1436 110.318 79.0962 111.564 78.355C112.821 77.6138 114.277 77.2432 115.931 77.2432C118.284 77.2432 120.201 77.9629 121.684 79.4023C123.177 80.8418 124.009 82.7969 124.181 85.2676L124.213 86.46C124.213 89.1348 123.467 91.2832 121.974 92.9053C120.481 94.5166 118.477 95.3223 115.963 95.3223C113.45 95.3223 111.441 94.5166 109.937 92.9053C108.444 91.2939 107.697 89.1025 107.697 86.3311V86.1216ZM112.354 86.46C112.354 88.1143 112.666 89.3818 113.289 90.2627C113.912 91.1328 114.803 91.5679 115.963 91.5679C117.091 91.5679 117.972 91.1382 118.606 90.2788C119.24 89.4087 119.557 88.0229 119.557 86.1216C119.557 84.4995 119.24 83.2427 118.606 82.3511C117.972 81.4595 117.081 81.0137 115.931 81.0137C114.793 81.0137 113.912 81.4595 113.289 82.3511C112.666 83.2319 112.354 84.6016 112.354 86.46ZM132.028 77.5654L132.173 79.5796C133.419 78.022 135.089 77.2432 137.184 77.2432C139.032 77.2432 140.407 77.7856 141.309 78.8706C142.211 79.9556 142.673 81.5776 142.695 83.7368V95H138.038V83.8496C138.038 82.8613 137.823 82.147 137.393 81.7065C136.964 81.2554 136.249 81.0298 135.25 81.0298C133.94 81.0298 132.957 81.5884 132.302 82.7056V95H127.645V77.5654H132.028ZM148.173 95V80.9814H145.578V77.5654H148.173V76.083C148.173 74.1279 148.731 72.6133 149.848 71.5391C150.976 70.4541 152.55 69.9116 154.57 69.9116C155.214 69.9116 156.004 70.019 156.938 70.2339L156.89 73.8433C156.503 73.7466 156.03 73.6982 155.472 73.6982C153.721 73.6982 152.845 74.52 152.845 76.1636V77.5654H156.31V80.9814H152.845V95H148.173Z" fill="#4824A2"/>
<defs>
<linearGradient id="paint0_linear" x1="53.75" y1="52.25" x2="103.938" y2="2.0625" gradientUnits="userSpaceOnUse">
<stop stop-color="#662EFF"/>
<stop offset="1" stop-color="#B903FF"/>
</linearGradient>
</defs>
</svg>
