<svg width="167" height="40" viewBox="0 0 167 40" fill="none" xmlns="http://www.w3.org/2000/svg">
<rect width="40" height="40" rx="10" fill="url(#paint0_linear)"/>
<path d="M12 11.8742C12 11.2102 12.6511 10.7893 13.1833 11.1093L26.6974 19.2351C27.249 19.5668 27.249 20.4332 26.6974 20.7649L13.1833 28.8907C12.6511 29.2107 12 28.7898 12 28.1258V11.8742Z" fill="white"/>
<path d="M28 16.7618C28 17.4294 27.2679 17.8499 26.6753 17.5226L22.2662 15.087C21.6621 14.7533 21.6621 13.8991 22.2662 13.5654L26.6753 11.1298C27.2679 10.8025 28 11.223 28 11.8906L28 16.7618Z" fill="white"/>
<path d="M28 28.1094C28 28.7771 27.2679 29.1976 26.6753 28.8703L22.2662 26.4347C21.6621 26.1009 21.6621 25.2468 22.2662 24.913L26.6753 22.4774C27.2679 22.1501 28 22.5706 28 23.2383L28 28.1094Z" fill="white"/>
<path d="M59.8281 23.7695L63.6953 10.9375H67.6094L61.668 28H58L52.082 10.9375H55.9844L59.8281 23.7695ZM73.0581 28H69.6597V15.3203H73.0581V28ZM69.4605 12.0391C69.4605 11.5312 69.6284 11.1133 69.9644 10.7852C70.3081 10.457 70.773 10.293 71.3589 10.293C71.937 10.293 72.398 10.457 72.7417 10.7852C73.0855 11.1133 73.2573 11.5312 73.2573 12.0391C73.2573 12.5547 73.0816 12.9766 72.73 13.3047C72.3862 13.6328 71.9292 13.7969 71.3589 13.7969C70.7886 13.7969 70.3277 13.6328 69.9761 13.3047C69.6323 12.9766 69.4605 12.5547 69.4605 12.0391ZM75.8116 21.5664C75.8116 19.5898 76.253 18.0156 77.1358 16.8438C78.0264 15.6719 79.2412 15.0859 80.7803 15.0859C82.0147 15.0859 83.0342 15.5469 83.8389 16.4688V10H87.2373V28H84.1787L84.0147 26.6523C83.1709 27.707 82.085 28.2344 80.7569 28.2344C79.2647 28.2344 78.0655 27.6484 77.1592 26.4766C76.2608 25.2969 75.8116 23.6602 75.8116 21.5664ZM79.1983 21.8125C79.1983 23 79.4053 23.9102 79.8194 24.543C80.2334 25.1758 80.835 25.4922 81.6241 25.4922C82.6709 25.4922 83.4092 25.0508 83.8389 24.168V19.1641C83.417 18.2812 82.6866 17.8398 81.6475 17.8398C80.0147 17.8398 79.1983 19.1641 79.1983 21.8125ZM96.1783 28.2344C94.3189 28.2344 92.8033 27.6641 91.6314 26.5234C90.4673 25.3828 89.8853 23.8633 89.8853 21.9648V21.6367C89.8853 20.3633 90.1314 19.2266 90.6236 18.2266C91.1158 17.2188 91.8111 16.4453 92.7095 15.9062C93.6158 15.3594 94.647 15.0859 95.8033 15.0859C97.5377 15.0859 98.9009 15.6328 99.8931 16.7266C100.893 17.8203 101.393 19.3711 101.393 21.3789V22.7617H93.3189C93.4283 23.5898 93.7564 24.2539 94.3033 24.7539C94.858 25.2539 95.5572 25.5039 96.4009 25.5039C97.7056 25.5039 98.7252 25.0312 99.4595 24.0859L101.124 25.9492C100.616 26.668 99.9283 27.2305 99.0611 27.6367C98.1939 28.0352 97.233 28.2344 96.1783 28.2344ZM95.7916 17.8281C95.1197 17.8281 94.5728 18.0547 94.1509 18.5078C93.7369 18.9609 93.4712 19.6094 93.3541 20.4531H98.065V20.1836C98.0494 19.4336 97.8462 18.8555 97.4556 18.4492C97.065 18.0352 96.5103 17.8281 95.7916 17.8281ZM103.279 21.543C103.279 20.2852 103.522 19.1641 104.006 18.1797C104.49 17.1953 105.186 16.4336 106.092 15.8945C107.006 15.3555 108.065 15.0859 109.268 15.0859C110.979 15.0859 112.373 15.6094 113.451 16.6562C114.537 17.7031 115.143 19.125 115.268 20.9219L115.291 21.7891C115.291 23.7344 114.748 25.2969 113.662 26.4766C112.576 27.6484 111.119 28.2344 109.291 28.2344C107.463 28.2344 106.002 27.6484 104.908 26.4766C103.822 25.3047 103.279 23.7109 103.279 21.6953V21.543ZM106.666 21.7891C106.666 22.9922 106.893 23.9141 107.346 24.5547C107.799 25.1875 108.447 25.5039 109.291 25.5039C110.111 25.5039 110.752 25.1914 111.213 24.5664C111.674 23.9336 111.904 22.9258 111.904 21.543C111.904 20.3633 111.674 19.4492 111.213 18.8008C110.752 18.1523 110.104 17.8281 109.268 17.8281C108.44 17.8281 107.799 18.1523 107.346 18.8008C106.893 19.4414 106.666 20.4375 106.666 21.7891ZM123.13 25.5039C123.755 25.5039 124.263 25.332 124.654 24.9883C125.045 24.6445 125.248 24.1875 125.263 23.6172H128.439C128.431 24.4766 128.197 25.2656 127.736 25.9844C127.275 26.6953 126.642 27.25 125.838 27.6484C125.041 28.0391 124.158 28.2344 123.189 28.2344C121.377 28.2344 119.947 27.6602 118.9 26.5117C117.853 25.3555 117.33 23.7617 117.33 21.7305V21.5078C117.33 19.5547 117.849 17.9961 118.888 16.832C119.927 15.668 121.353 15.0859 123.166 15.0859C124.752 15.0859 126.021 15.5391 126.974 16.4453C127.935 17.3438 128.423 18.543 128.439 20.043H125.263C125.248 19.3867 125.045 18.8555 124.654 18.4492C124.263 18.0352 123.748 17.8281 123.107 17.8281C122.318 17.8281 121.72 18.1172 121.314 18.6953C120.916 19.2656 120.716 20.1953 120.716 21.4844V21.8359C120.716 23.1406 120.916 24.0781 121.314 24.6484C121.713 25.2188 122.318 25.5039 123.13 25.5039ZM130.325 21.543C130.325 20.2852 130.567 19.1641 131.052 18.1797C131.536 17.1953 132.232 16.4336 133.138 15.8945C134.052 15.3555 135.11 15.0859 136.314 15.0859C138.025 15.0859 139.419 15.6094 140.497 16.6562C141.583 17.7031 142.189 19.125 142.314 20.9219L142.337 21.7891C142.337 23.7344 141.794 25.2969 140.708 26.4766C139.622 27.6484 138.165 28.2344 136.337 28.2344C134.509 28.2344 133.048 27.6484 131.954 26.4766C130.868 25.3047 130.325 23.7109 130.325 21.6953V21.543ZM133.712 21.7891C133.712 22.9922 133.939 23.9141 134.392 24.5547C134.845 25.1875 135.493 25.5039 136.337 25.5039C137.157 25.5039 137.798 25.1914 138.259 24.5664C138.72 23.9336 138.95 22.9258 138.95 21.543C138.95 20.3633 138.72 19.4492 138.259 18.8008C137.798 18.1523 137.15 17.8281 136.314 17.8281C135.485 17.8281 134.845 18.1523 134.392 18.8008C133.939 19.4414 133.712 20.4375 133.712 21.7891ZM148.02 15.3203L148.126 16.7852C149.032 15.6523 150.247 15.0859 151.77 15.0859C153.114 15.0859 154.114 15.4805 154.77 16.2695C155.426 17.0586 155.762 18.2383 155.778 19.8086V28H152.391V19.8906C152.391 19.1719 152.235 18.6523 151.923 18.332C151.61 18.0039 151.09 17.8398 150.364 17.8398C149.411 17.8398 148.696 18.2461 148.219 19.0586V28H144.833V15.3203H148.02ZM159.762 28V17.8047H157.875V15.3203H159.762V14.2422C159.762 12.8203 160.168 11.7188 160.981 10.9375C161.801 10.1484 162.945 9.75391 164.414 9.75391C164.883 9.75391 165.457 9.83203 166.137 9.98828L166.102 12.6133C165.82 12.543 165.477 12.5078 165.07 12.5078C163.797 12.5078 163.16 13.1055 163.16 14.3008V15.3203H165.68V17.8047H163.16V28H159.762Z" fill="#4824A2"/>
<defs>
<linearGradient id="paint0_linear" x1="2" y1="38" x2="38.5" y2="1.5" gradientUnits="userSpaceOnUse">
<stop stop-color="#662EFF"/>
<stop offset="1" stop-color="#B903FF"/>
</linearGradient>
</defs>
</svg>
