<svg width="431" height="220" viewBox="0 0 431 220" fill="none" xmlns="http://www.w3.org/2000/svg">
<g clip-path="url(#clip0_7321_8369)">
<rect width="431" height="220" fill="#221040"/>
<path opacity="0.6" d="M405.989 0H0V205.956C8.20901 211.025 16.7226 215.717 25.5202 220H273.482C334.201 188.569 380.839 133.521 398.54 62.8582C403.778 41.9481 406.182 20.8669 405.989 0Z" fill="url(#paint0_radial_7321_8369)"/>
<path d="M258 51C258 37.7452 268.745 27 282 27L312 27C325.255 27 336 37.7452 336 51L336 81C336 94.2548 325.255 105 312 105L258 105L258 51Z" fill="url(#paint1_linear_7321_8369)"/>
<path d="M258 170C258 183.255 247.255 194 234 194L166 194L98 194C84.7452 194 74 183.255 74 170L74 129C74 115.745 84.7452 105 98 105L258 105L258 170Z" fill="white"/>
<rect x="88" y="146" width="74" height="28" rx="14" fill="#FAFAFD"/>
<rect x="170" y="146" width="74" height="28" rx="14" fill="#662EFF"/>
<path d="M199.259 159.764L201.549 155.047H203.463L200.127 161.336V165H198.391V161.336L195.048 155.047H196.969L199.259 159.764Z" fill="white"/>
<path d="M207.188 165.137C206.136 165.137 205.281 164.806 204.625 164.146C203.973 163.48 203.647 162.596 203.647 161.493V161.288C203.647 160.55 203.789 159.891 204.071 159.312C204.358 158.729 204.759 158.276 205.274 157.952C205.789 157.629 206.364 157.467 206.997 157.467C208.004 157.467 208.781 157.788 209.328 158.431C209.88 159.073 210.155 159.982 210.155 161.158V161.828H205.322C205.372 162.439 205.575 162.922 205.931 163.277C206.291 163.633 206.742 163.811 207.284 163.811C208.045 163.811 208.665 163.503 209.144 162.888L210.039 163.742C209.743 164.184 209.346 164.528 208.85 164.774C208.357 165.016 207.804 165.137 207.188 165.137ZM206.99 158.8C206.535 158.8 206.165 158.959 205.883 159.278C205.605 159.597 205.427 160.042 205.35 160.611H208.515V160.488C208.478 159.932 208.33 159.513 208.07 159.23C207.811 158.943 207.451 158.8 206.99 158.8Z" fill="white"/>
<path d="M215.597 162.99C215.597 162.694 215.474 162.468 215.228 162.313C214.986 162.159 214.583 162.022 214.018 161.903C213.452 161.785 212.981 161.634 212.603 161.452C211.773 161.051 211.358 160.47 211.358 159.709C211.358 159.071 211.627 158.538 212.165 158.109C212.703 157.681 213.386 157.467 214.216 157.467C215.1 157.467 215.813 157.686 216.355 158.123C216.902 158.561 217.176 159.128 217.176 159.825H215.515C215.515 159.506 215.396 159.242 215.159 159.032C214.922 158.818 214.608 158.711 214.216 158.711C213.851 158.711 213.553 158.795 213.32 158.964C213.092 159.132 212.979 159.358 212.979 159.641C212.979 159.896 213.086 160.094 213.3 160.235C213.514 160.377 213.947 160.52 214.599 160.666C215.25 160.807 215.761 160.978 216.13 161.179C216.504 161.375 216.779 161.612 216.957 161.89C217.139 162.168 217.23 162.505 217.23 162.901C217.23 163.567 216.955 164.107 216.403 164.521C215.852 164.932 215.13 165.137 214.236 165.137C213.63 165.137 213.09 165.027 212.616 164.809C212.142 164.59 211.773 164.289 211.509 163.906C211.244 163.523 211.112 163.111 211.112 162.669H212.726C212.748 163.061 212.896 163.364 213.17 163.578C213.443 163.788 213.806 163.893 214.257 163.893C214.694 163.893 215.027 163.811 215.255 163.646C215.483 163.478 215.597 163.259 215.597 162.99Z" fill="white"/>
<path d="M110.155 132V122.047H112.965C113.831 122.047 114.596 122.238 115.262 122.621C115.927 123.004 116.44 123.549 116.8 124.255C117.164 124.961 117.349 125.772 117.354 126.688V127.324C117.354 128.263 117.171 129.086 116.807 129.792C116.447 130.498 115.929 131.041 115.255 131.419C114.585 131.797 113.803 131.991 112.91 132H110.155ZM111.468 123.127V130.927H112.849C113.86 130.927 114.646 130.612 115.207 129.983C115.772 129.354 116.055 128.459 116.055 127.297V126.716C116.055 125.586 115.788 124.708 115.255 124.084C114.726 123.455 113.974 123.136 112.999 123.127H111.468Z" fill="#33373C"/>
<path d="M118.81 128.233C118.81 127.509 118.951 126.857 119.233 126.278C119.521 125.7 119.917 125.253 120.423 124.938C120.933 124.624 121.514 124.467 122.166 124.467C123.173 124.467 123.987 124.815 124.606 125.513C125.231 126.21 125.543 127.137 125.543 128.295V128.384C125.543 129.104 125.404 129.751 125.126 130.325C124.853 130.895 124.458 131.339 123.943 131.658C123.433 131.977 122.845 132.137 122.18 132.137C121.177 132.137 120.364 131.788 119.739 131.091C119.119 130.394 118.81 129.471 118.81 128.322V128.233ZM120.081 128.384C120.081 129.204 120.27 129.863 120.648 130.359C121.031 130.856 121.542 131.104 122.18 131.104C122.822 131.104 123.333 130.854 123.711 130.353C124.089 129.847 124.278 129.14 124.278 128.233C124.278 127.422 124.085 126.766 123.697 126.265C123.314 125.759 122.804 125.506 122.166 125.506C121.542 125.506 121.038 125.754 120.655 126.251C120.272 126.748 120.081 127.459 120.081 128.384Z" fill="#33373C"/>
<path d="M133.021 130.147L134.744 124.604H136.098L133.124 133.142C132.664 134.372 131.932 134.987 130.93 134.987L130.69 134.967L130.219 134.878V133.853L130.561 133.88C130.989 133.88 131.322 133.793 131.559 133.62C131.8 133.447 131.998 133.13 132.153 132.67L132.434 131.918L129.795 124.604H131.176L133.021 130.147Z" fill="#33373C"/>
<path d="M136.788 128.233C136.788 127.509 136.929 126.857 137.212 126.278C137.499 125.7 137.896 125.253 138.401 124.938C138.912 124.624 139.493 124.467 140.145 124.467C141.152 124.467 141.965 124.815 142.585 125.513C143.209 126.21 143.521 127.137 143.521 128.295V128.384C143.521 129.104 143.382 129.751 143.104 130.325C142.831 130.895 142.437 131.339 141.922 131.658C141.411 131.977 140.824 132.137 140.158 132.137C139.156 132.137 138.342 131.788 137.718 131.091C137.098 130.394 136.788 129.471 136.788 128.322V128.233ZM138.06 128.384C138.06 129.204 138.249 129.863 138.627 130.359C139.01 130.856 139.52 131.104 140.158 131.104C140.801 131.104 141.311 130.854 141.689 130.353C142.068 129.847 142.257 129.14 142.257 128.233C142.257 127.422 142.063 126.766 141.676 126.265C141.293 125.759 140.783 125.506 140.145 125.506C139.52 125.506 139.017 125.754 138.634 126.251C138.251 126.748 138.06 127.459 138.06 128.384Z" fill="#33373C"/>
<path d="M149.674 131.269C149.182 131.847 148.459 132.137 147.507 132.137C146.718 132.137 146.117 131.909 145.702 131.453C145.292 130.993 145.085 130.314 145.08 129.416V124.604H146.345V129.382C146.345 130.503 146.8 131.063 147.712 131.063C148.678 131.063 149.321 130.703 149.64 129.983V124.604H150.904V132H149.701L149.674 131.269Z" fill="#33373C"/>
<path d="M157.501 124.604L157.542 125.533C158.107 124.822 158.845 124.467 159.757 124.467C161.32 124.467 162.108 125.349 162.122 127.112V132H160.857V127.105C160.853 126.572 160.73 126.178 160.488 125.923C160.251 125.668 159.88 125.54 159.374 125.54C158.964 125.54 158.604 125.649 158.294 125.868C157.984 126.087 157.743 126.374 157.569 126.729V132H156.305V124.604H157.501Z" fill="#33373C"/>
<path d="M167.099 132.137C166.096 132.137 165.28 131.809 164.651 131.152C164.022 130.492 163.708 129.61 163.708 128.507V128.274C163.708 127.541 163.847 126.887 164.125 126.312C164.408 125.734 164.799 125.283 165.301 124.959C165.807 124.631 166.354 124.467 166.941 124.467C167.903 124.467 168.65 124.784 169.184 125.417C169.717 126.05 169.983 126.957 169.983 128.138V128.664H164.973C164.991 129.393 165.203 129.983 165.608 130.435C166.019 130.881 166.538 131.104 167.167 131.104C167.614 131.104 167.992 131.013 168.302 130.831C168.612 130.649 168.883 130.407 169.115 130.106L169.888 130.708C169.268 131.66 168.338 132.137 167.099 132.137ZM166.941 125.506C166.431 125.506 166.003 125.693 165.656 126.066C165.31 126.436 165.096 126.955 165.014 127.625H168.719V127.529C168.682 126.887 168.509 126.39 168.199 126.039C167.889 125.684 167.47 125.506 166.941 125.506Z" fill="#33373C"/>
<path d="M174.522 132.137C173.52 132.137 172.704 131.809 172.075 131.152C171.446 130.492 171.132 129.61 171.132 128.507V128.274C171.132 127.541 171.271 126.887 171.549 126.312C171.831 125.734 172.223 125.283 172.725 124.959C173.23 124.631 173.777 124.467 174.365 124.467C175.327 124.467 176.074 124.784 176.607 125.417C177.141 126.05 177.407 126.957 177.407 128.138V128.664H172.396C172.415 129.393 172.627 129.983 173.032 130.435C173.442 130.881 173.962 131.104 174.591 131.104C175.037 131.104 175.416 131.013 175.726 130.831C176.035 130.649 176.307 130.407 176.539 130.106L177.312 130.708C176.692 131.66 175.762 132.137 174.522 132.137ZM174.365 125.506C173.855 125.506 173.426 125.693 173.08 126.066C172.734 126.436 172.52 126.955 172.438 127.625H176.143V127.529C176.106 126.887 175.933 126.39 175.623 126.039C175.313 125.684 174.894 125.506 174.365 125.506Z" fill="#33373C"/>
<path d="M178.569 128.24C178.569 127.105 178.838 126.194 179.376 125.506C179.914 124.813 180.618 124.467 181.488 124.467C182.354 124.467 183.04 124.763 183.546 125.355V121.5H184.811V132H183.648L183.587 131.207C183.081 131.827 182.377 132.137 181.475 132.137C180.618 132.137 179.918 131.786 179.376 131.084C178.838 130.382 178.569 129.466 178.569 128.336V128.24ZM179.834 128.384C179.834 129.222 180.007 129.879 180.354 130.353C180.7 130.826 181.178 131.063 181.789 131.063C182.591 131.063 183.177 130.703 183.546 129.983V126.586C183.168 125.889 182.587 125.54 181.803 125.54C181.183 125.54 180.7 125.779 180.354 126.258C180.007 126.736 179.834 127.445 179.834 128.384Z" fill="#33373C"/>
<path d="M191.517 125.499C192.077 124.811 192.806 124.467 193.704 124.467C195.267 124.467 196.056 125.349 196.069 127.112V132H194.805V127.105C194.8 126.572 194.677 126.178 194.436 125.923C194.199 125.668 193.827 125.54 193.321 125.54C192.911 125.54 192.551 125.649 192.241 125.868C191.931 126.087 191.69 126.374 191.517 126.729V132H190.252V121.5H191.517V125.499Z" fill="#33373C"/>
<path d="M201.032 132.137C200.03 132.137 199.214 131.809 198.585 131.152C197.956 130.492 197.642 129.61 197.642 128.507V128.274C197.642 127.541 197.781 126.887 198.059 126.312C198.341 125.734 198.733 125.283 199.234 124.959C199.74 124.631 200.287 124.467 200.875 124.467C201.837 124.467 202.584 124.784 203.117 125.417C203.65 126.05 203.917 126.957 203.917 128.138V128.664H198.906C198.924 129.393 199.136 129.983 199.542 130.435C199.952 130.881 200.472 131.104 201.101 131.104C201.547 131.104 201.925 131.013 202.235 130.831C202.545 130.649 202.816 130.407 203.049 130.106L203.821 130.708C203.201 131.66 202.272 132.137 201.032 132.137ZM200.875 125.506C200.365 125.506 199.936 125.693 199.59 126.066C199.243 126.436 199.029 126.955 198.947 127.625H202.652V127.529C202.616 126.887 202.443 126.39 202.133 126.039C201.823 125.684 201.404 125.506 200.875 125.506Z" fill="#33373C"/>
<path d="M206.761 132H205.496V121.5H206.761V132Z" fill="#33373C"/>
<path d="M215.039 128.384C215.039 129.509 214.782 130.416 214.267 131.104C213.752 131.793 213.054 132.137 212.175 132.137C211.277 132.137 210.571 131.852 210.056 131.282V134.844H208.791V124.604H209.946L210.008 125.424C210.523 124.786 211.238 124.467 212.154 124.467C213.043 124.467 213.745 124.802 214.26 125.472C214.779 126.142 215.039 127.074 215.039 128.268V128.384ZM213.774 128.24C213.774 127.406 213.597 126.748 213.241 126.265C212.886 125.782 212.398 125.54 211.778 125.54C211.013 125.54 210.438 125.88 210.056 126.559V130.093C210.434 130.767 211.013 131.104 211.792 131.104C212.398 131.104 212.879 130.865 213.234 130.387C213.594 129.904 213.774 129.188 213.774 128.24Z" fill="#33373C"/>
<path d="M218.136 129.197C218.145 128.655 218.206 128.227 218.32 127.912C218.434 127.598 218.667 127.249 219.018 126.866L219.913 125.943C220.296 125.51 220.487 125.046 220.487 124.549C220.487 124.07 220.362 123.697 220.111 123.428C219.861 123.154 219.496 123.018 219.018 123.018C218.553 123.018 218.179 123.141 217.896 123.387C217.614 123.633 217.473 123.963 217.473 124.378H216.208C216.217 123.64 216.479 123.045 216.994 122.594C217.514 122.138 218.188 121.91 219.018 121.91C219.879 121.91 220.549 122.143 221.027 122.607C221.51 123.068 221.752 123.701 221.752 124.508C221.752 125.305 221.383 126.091 220.645 126.866L219.899 127.604C219.567 127.974 219.4 128.505 219.4 129.197H218.136ZM218.081 131.364C218.081 131.159 218.143 130.988 218.266 130.852C218.393 130.71 218.58 130.64 218.826 130.64C219.072 130.64 219.259 130.71 219.387 130.852C219.514 130.988 219.578 131.159 219.578 131.364C219.578 131.569 219.514 131.74 219.387 131.877C219.259 132.009 219.072 132.075 218.826 132.075C218.58 132.075 218.393 132.009 218.266 131.877C218.143 131.74 218.081 131.569 218.081 131.364Z" fill="#33373C"/>
<path d="M124.907 165H123.178L118.741 157.938V165H117.012V155.047H118.741L123.191 162.136V155.047H124.907V165Z" fill="#33373C"/>
<path d="M126.479 161.233C126.479 160.509 126.623 159.857 126.91 159.278C127.197 158.695 127.601 158.248 128.12 157.938C128.64 157.624 129.237 157.467 129.911 157.467C130.909 157.467 131.718 157.788 132.338 158.431C132.962 159.073 133.299 159.925 133.35 160.987L133.356 161.377C133.356 162.106 133.215 162.758 132.933 163.332C132.655 163.906 132.254 164.351 131.729 164.665C131.21 164.979 130.608 165.137 129.925 165.137C128.881 165.137 128.045 164.79 127.416 164.098C126.792 163.4 126.479 162.473 126.479 161.315V161.233ZM128.141 161.377C128.141 162.138 128.298 162.735 128.612 163.168C128.927 163.596 129.364 163.811 129.925 163.811C130.485 163.811 130.921 163.592 131.23 163.154C131.545 162.717 131.702 162.076 131.702 161.233C131.702 160.486 131.54 159.894 131.217 159.456C130.898 159.019 130.463 158.8 129.911 158.8C129.369 158.8 128.938 159.016 128.619 159.449C128.3 159.878 128.141 160.52 128.141 161.377Z" fill="#33373C"/>
<path opacity="0.4" d="M363 42C363 27.6406 374.497 16 388.679 16H389.321C403.503 16 415 27.6406 415 42V42C415 56.3594 403.503 68 389.321 68H388.679C374.497 68 363 56.3594 363 42V42Z" fill="#7C4DFF"/>
<path opacity="0.2" d="M198 71C198 56.6406 209.497 45 223.679 45H224.321C238.503 45 250 56.6406 250 71V71C250 85.3594 238.503 97 224.321 97H223.679C209.497 97 198 85.3594 198 71V71Z" fill="#E5F0FF"/>
<path d="M0 21L71.9642 21C86.3434 21 98 32.6406 98 47V47C98 61.3594 86.3434 73 71.9642 73H0V21Z" fill="url(#paint2_linear_7321_8369)"/>
<path d="M71.1667 44.881C71.1667 44.1692 71.6065 43.7836 72.0474 43.4867C72.4786 43.1964 72.9098 42.8183 72.9098 42.1217C72.9098 41.1587 72.1298 40.3787 71.1667 40.3787C70.2036 40.3787 69.4236 41.1587 69.4236 42.1217" stroke="white" stroke-width="1.5" stroke-linecap="round" stroke-linejoin="round"/>
<path d="M61.7253 51.8481C61.4113 51.534 60.9021 51.534 60.5881 51.8481C60.274 52.1621 60.274 52.6713 60.5881 52.9853C60.9021 53.2994 61.4113 53.2994 61.7253 52.9853C62.0394 52.6713 62.0394 52.1621 61.7253 51.8481Z" fill="white"/>
<path d="M63.0256 51.8481C63.3396 51.534 63.8488 51.534 64.1628 51.8481C64.4769 52.1621 64.4769 52.6713 64.1628 52.9853C63.8488 53.2994 63.3396 53.2994 63.0256 52.9853C62.7115 52.6713 62.7115 52.1621 63.0256 51.8481Z" fill="white"/>
<path d="M65.4631 51.8481C65.7771 51.534 66.2863 51.534 66.6003 51.8481C66.9144 52.1621 66.9144 52.6713 66.6003 52.9853C66.2863 53.2994 65.7771 53.2994 65.4631 52.9853C65.149 52.6713 65.149 52.1621 65.4631 51.8481Z" fill="white"/>
<path fill-rule="evenodd" clip-rule="evenodd" d="M69.7278 52.4979C70.1954 52.566 70.6755 52.6034 71.1667 52.6034C71.7437 52.6034 72.3078 52.5542 72.8557 52.4628L76.0353 54.0288C76.2678 54.1433 76.5429 54.1297 76.7629 53.9928C76.9829 53.8559 77.1167 53.6151 77.1167 53.356C77.1167 52.8719 77.117 52.3964 77.1174 51.947L77.1174 51.9354C77.1178 51.4766 77.1181 51.0453 77.118 50.6601C79.2104 49.1016 80.5833 46.7225 80.5833 44.0101C80.5833 39.1733 76.2752 35.4167 71.1667 35.4167C66.0582 35.4167 61.75 39.1733 61.75 44.0101C61.75 44.858 61.8851 45.6749 62.1347 46.4455C59.5283 47.1247 57.6053 49.4944 57.6053 52.3127C57.6053 53.1355 57.7697 53.9216 58.0671 54.639L57.4326 57.6801C57.3808 57.9282 57.4578 58.1857 57.6374 58.3646C57.8169 58.5435 58.0747 58.6196 58.3226 58.567L61.3565 57.9226C62.071 58.2176 62.8533 58.3807 63.6733 58.3807C63.7064 58.3807 63.7389 58.3786 63.7708 58.3745C67.0095 58.3206 69.6309 55.726 69.7278 52.4979ZM71.1667 36.9167C66.7375 36.9167 63.25 40.1433 63.25 44.0101C63.25 44.7941 63.3924 45.546 63.6544 46.25C63.6589 46.25 63.6634 46.25 63.6679 46.25C66.5492 46.25 68.9601 48.2594 69.5774 50.9524C70.0943 51.0495 70.6246 51.1034 71.1667 51.1034C71.7337 51.1034 72.2877 51.0476 72.8248 50.9446C72.9851 50.9138 73.151 50.9362 73.2975 51.0083L75.6172 52.1509L75.6174 51.9172C75.6179 51.305 75.6184 50.7438 75.6178 50.2749C75.6174 50.0263 75.7403 49.7937 75.9458 49.6538C77.8668 48.3468 79.0833 46.3019 79.0833 44.0101C79.0833 40.1433 75.5958 36.9167 71.1667 36.9167ZM59.1053 52.3127C59.1053 49.7931 61.1475 47.75 63.6679 47.75C66.1884 47.75 68.2306 49.7931 68.2306 52.3127C68.2306 54.8321 66.1874 56.8753 63.6679 56.8753C63.6398 56.8753 63.612 56.8769 63.5846 56.8799C62.9296 56.8675 62.3104 56.7174 61.7516 56.4584C61.6044 56.3902 61.4391 56.3716 61.2804 56.4053L59.1359 56.8608L59.5845 54.7105C59.6175 54.5523 59.5986 54.3876 59.5304 54.2411C59.2579 53.6552 59.1053 53.0025 59.1053 52.3127Z" fill="white"/>
<path fill-rule="evenodd" clip-rule="evenodd" d="M70.3083 47.6045C70.3083 47.1307 70.6929 46.7462 71.1667 46.7462C71.6405 46.7462 72.025 47.1307 72.025 47.6045C72.025 48.0783 71.6405 48.4628 71.1667 48.4628C70.6929 48.4628 70.3083 48.0783 70.3083 47.6045Z" fill="white"/>
<path fill-rule="evenodd" clip-rule="evenodd" d="M312.045 63.1884C312.48 62.9538 312.965 62.8267 313.46 62.818H313.49C315.265 62.8814 316.741 64.1901 317 65.9296C317.004 66.8131 316.651 67.6615 316.02 68.2862C315.389 68.9109 314.532 69.2601 313.64 69.2561C313.073 69.2478 312.515 69.1216 312.001 68.8857C311.449 68.5699 310.874 68.2974 310.279 68.0708H309.98C309.655 68.0663 309.339 68.1707 309.082 68.3671C308.69 68.667 308.405 69.082 308.266 69.5525C308.191 70.0908 308.191 70.6367 308.266 71.175C308.489 73.8174 309.071 77.0343 309.446 79.1038L309.456 79.1616V79.3098C309.434 79.6278 309.179 79.8809 308.857 79.9025H308.715L308.416 79.8284L306.171 79.4579C304.083 79.0875 301.688 78.7171 299.974 78.4948C299.377 78.4207 298.774 78.4207 298.178 78.4948C297.66 78.6314 297.209 78.9467 296.905 79.3838C296.789 79.6654 296.741 79.9697 296.763 80.2729C296.793 80.5995 297.014 80.9617 297.268 81.3783C297.649 82.0012 298.103 82.7456 298.103 83.6735C298.076 84.6752 297.615 85.617 296.838 86.2591C296.237 86.7203 295.503 86.9798 294.743 87C292.895 86.98 291.402 85.5023 291.382 83.6735C291.339 82.8132 291.779 82.0765 292.154 81.4502C292.421 81.0032 292.655 80.6123 292.655 80.2729C292.716 79.9684 292.662 79.6523 292.505 79.3838C292.201 78.9467 291.75 78.6314 291.233 78.4948C290.636 78.4207 290.033 78.4207 289.436 78.4948C287.73 78.7171 285.328 79.0875 283.24 79.4579L280.994 79.8284L279.423 80.1247H279.198C278.803 80.1118 278.466 79.8386 278.375 79.4579C278.001 77.465 277.402 73.9162 277.103 71.175C277.035 70.6362 277.035 70.0913 277.103 69.5525C277.261 69.0893 277.546 68.6788 277.926 68.3671C278.167 68.1931 278.452 68.0903 278.749 68.0708H279.049C279.647 68.3671 280.246 68.6634 280.77 68.9598C281.276 69.248 281.848 69.4036 282.431 69.4117C284.291 69.4117 285.799 67.9191 285.799 66.0778C285.799 64.2365 284.291 62.7439 282.431 62.7439C281.936 62.7619 281.45 62.8884 281.009 63.1143C280.7 63.2547 280.412 63.427 280.144 63.5868C279.705 63.8488 279.322 64.0775 278.996 64.0775H278.772C278.513 64.1005 278.253 64.0491 278.023 63.9293C277.525 63.675 277.168 63.2128 277.05 62.6698C276.983 62.0815 276.983 61.4875 277.05 60.8991C277.125 60.3064 277.2 59.6396 277.275 58.9729C277.649 56.6095 278.098 54.0238 278.398 52.5421C278.415 52.3301 278.523 52.1356 278.695 52.008C278.866 51.8805 279.085 51.8321 279.296 51.8753H279.37C280.718 52.1717 282.88 52.5421 285.043 52.9125C285.369 52.9585 285.691 53.0045 286.008 53.0499C287.225 53.2236 288.374 53.3877 289.377 53.5052C289.973 53.5793 290.576 53.5793 291.173 53.5052C291.69 53.3686 292.142 53.0533 292.445 52.6162C292.567 52.3362 292.618 52.0311 292.595 51.7271C292.565 51.4009 292.343 51.0402 292.088 50.6252C291.705 50.0034 291.248 49.2596 291.248 48.3265C291.258 47.4396 291.618 46.5917 292.25 45.9632C292.861 45.3499 293.693 45.0032 294.563 45C295.455 44.9961 296.312 45.3453 296.943 45.97C297.574 46.5947 297.927 47.4431 297.923 48.3265C297.923 49.2597 297.468 50.0037 297.088 50.6255C296.834 51.0404 296.614 51.401 296.584 51.7271C296.591 52.029 296.641 52.3284 296.733 52.6162C297.031 53.0552 297.481 53.3713 297.998 53.5052C298.594 53.5793 299.198 53.5793 299.794 53.5052C299.957 53.4862 300.123 53.4671 300.291 53.4477C301.429 53.3165 302.693 53.1706 304.127 52.9125L308.685 52.0976H308.82C309.141 52.1191 309.397 52.3723 309.419 52.6903V52.9866L309.372 53.2368C309.08 54.7882 308.662 57.0145 308.378 59.121C308.304 59.7878 308.229 60.4546 308.154 61.0473C308.079 61.6352 308.079 62.2301 308.154 62.818C308.191 62.8921 308.21 62.9476 308.229 63.0032C308.247 63.0588 308.266 63.1143 308.304 63.1884C308.49 63.5111 308.745 63.7893 309.052 64.0034C309.293 64.0882 309.545 64.1381 309.8 64.1515H310.025C310.397 64.1515 310.769 63.9224 311.196 63.66C311.455 63.5004 311.734 63.3285 312.045 63.1884ZM296.344 74.1385C296.668 74.0514 296.971 73.9002 297.235 73.694C297.325 73.6199 296.658 69.9229 296.569 69.7007C296.2 69.615 295.824 69.5654 295.446 69.5525H295.147C294.966 69.492 294.791 69.4177 294.623 69.3302C294.166 68.8583 293.854 68.2672 293.725 67.6262C293.5 66.5285 293.5 65.3974 293.725 64.2997C293.869 63.666 294.178 63.0809 294.623 62.6031C294.764 62.4685 294.951 62.3895 295.147 62.3809H295.446C295.824 62.368 296.2 62.3184 296.569 62.2327C296.569 62.1957 296.735 61.2533 296.902 60.3107C297.068 59.368 297.235 58.4246 297.235 58.3876C296.971 58.1817 296.668 58.0305 296.344 57.943C296.269 57.943 296.194 57.9245 296.12 57.906C296.045 57.8875 295.97 57.869 295.895 57.869C295.276 57.8221 294.662 58.0072 294.174 58.3876L293.949 58.6098C293.197 59.3968 292.614 60.3269 292.235 61.3436C291.791 62.8581 291.565 64.4268 291.562 66.0037V66.1519C291.555 67.7271 291.782 69.2948 292.235 70.8046C292.617 71.8002 293.2 72.7079 293.949 73.4717L294.174 73.694C294.666 74.0741 295.271 74.2825 295.895 74.2867C295.97 74.2496 296.045 74.2311 296.12 74.2126C296.194 74.194 296.269 74.1755 296.344 74.1385Z" fill="white"/>
<path fill-rule="evenodd" clip-rule="evenodd" d="M233.208 24.6846C232.919 24.6846 232.685 24.9191 232.685 25.2082C232.685 25.4974 232.919 25.7318 233.208 25.7318C233.497 25.7318 233.732 25.4974 233.732 25.2082C233.732 24.9191 233.497 24.6846 233.208 24.6846ZM233.208 27.4165C234.428 27.4165 235.416 26.4278 235.416 25.2082C235.416 23.9887 234.428 23 233.208 23C231.989 23 231 23.9887 231 25.2082C231 26.4278 231.989 27.4165 233.208 27.4165Z" fill="white"/>
<path fill-rule="evenodd" clip-rule="evenodd" d="M326.071 126.264C326.73 126.264 327.264 125.73 327.264 125.071C327.264 124.412 326.73 123.878 326.071 123.878C325.412 123.878 324.878 124.412 324.878 125.071C324.878 125.73 325.412 126.264 326.071 126.264ZM326.071 129.142C328.319 129.142 330.142 127.319 330.142 125.071C330.142 122.823 328.319 121 326.071 121C323.823 121 322 122.823 322 125.071C322 127.319 323.823 129.142 326.071 129.142Z" fill="white"/>
<path fill-rule="evenodd" clip-rule="evenodd" d="M319.373 164.166C320.201 164.166 320.873 164.838 320.873 165.666V175.666C320.873 176.494 320.201 177.166 319.373 177.166C318.545 177.166 317.873 176.494 317.873 175.666V165.666C317.873 164.838 318.545 164.166 319.373 164.166Z" fill="white"/>
<path fill-rule="evenodd" clip-rule="evenodd" d="M326.373 168.166C327.201 168.166 327.873 168.838 327.873 169.666V171.666C327.873 172.494 327.201 173.166 326.373 173.166C325.545 173.166 324.873 172.494 324.873 171.666V169.666C324.873 168.838 325.545 168.166 326.373 168.166Z" fill="white"/>
<path fill-rule="evenodd" clip-rule="evenodd" d="M333.373 165.166C334.201 165.166 334.873 165.838 334.873 166.666V174.666C334.873 175.494 334.201 176.166 333.373 176.166C332.545 176.166 331.873 175.494 331.873 174.666V166.666C331.873 165.838 332.545 165.166 333.373 165.166Z" fill="white"/>
<path fill-rule="evenodd" clip-rule="evenodd" d="M340.373 153.166C341.201 153.166 341.873 153.838 341.873 154.666V186.666C341.873 187.494 341.201 188.166 340.373 188.166C339.545 188.166 338.873 187.494 338.873 186.666V154.666C338.873 153.838 339.545 153.166 340.373 153.166Z" fill="white"/>
<path fill-rule="evenodd" clip-rule="evenodd" d="M347.373 157.166C348.201 157.166 348.873 157.838 348.873 158.666V182.666C348.873 183.494 348.201 184.166 347.373 184.166C346.545 184.166 345.873 183.494 345.873 182.666V158.666C345.873 157.838 346.545 157.166 347.373 157.166Z" fill="white"/>
<path fill-rule="evenodd" clip-rule="evenodd" d="M354.373 165.166C355.201 165.166 355.873 165.838 355.873 166.666V174.666C355.873 175.494 355.201 176.166 354.373 176.166C353.545 176.166 352.873 175.494 352.873 174.666V166.666C352.873 165.838 353.545 165.166 354.373 165.166Z" fill="white"/>
<path fill-rule="evenodd" clip-rule="evenodd" d="M361.373 159.166C362.201 159.166 362.873 159.838 362.873 160.666V180.666C362.873 181.494 362.201 182.166 361.373 182.166C360.545 182.166 359.873 181.494 359.873 180.666V160.666C359.873 159.838 360.545 159.166 361.373 159.166Z" fill="white"/>
<path fill-rule="evenodd" clip-rule="evenodd" d="M368.373 153.166C369.201 153.166 369.873 153.838 369.873 154.666V186.666C369.873 187.494 369.201 188.166 368.373 188.166C367.545 188.166 366.873 187.494 366.873 186.666V154.666C366.873 153.838 367.545 153.166 368.373 153.166Z" fill="white"/>
<path fill-rule="evenodd" clip-rule="evenodd" d="M375.373 157.166C376.201 157.166 376.873 157.838 376.873 158.666V182.666C376.873 183.494 376.201 184.166 375.373 184.166C374.545 184.166 373.873 183.494 373.873 182.666V158.666C373.873 157.838 374.545 157.166 375.373 157.166Z" fill="white"/>
<path fill-rule="evenodd" clip-rule="evenodd" d="M382.373 164.166C383.201 164.166 383.873 164.838 383.873 165.666V175.666C383.873 176.494 383.201 177.166 382.373 177.166C381.545 177.166 380.873 176.494 380.873 175.666V165.666C380.873 164.838 381.545 164.166 382.373 164.166Z" fill="white"/>
<path fill-rule="evenodd" clip-rule="evenodd" d="M389.373 159.166C390.201 159.166 390.873 159.838 390.873 160.666V180.666C390.873 181.494 390.201 182.166 389.373 182.166C388.545 182.166 387.873 181.494 387.873 180.666V160.666C387.873 159.838 388.545 159.166 389.373 159.166Z" fill="white"/>
<path fill-rule="evenodd" clip-rule="evenodd" d="M396.373 153.166C397.201 153.166 397.873 153.838 397.873 154.666V186.666C397.873 187.494 397.201 188.166 396.373 188.166C395.545 188.166 394.873 187.494 394.873 186.666V154.666C394.873 153.838 395.545 153.166 396.373 153.166Z" fill="white"/>
<path fill-rule="evenodd" clip-rule="evenodd" d="M403.373 164.166C404.201 164.166 404.873 164.838 404.873 165.666V175.666C404.873 176.494 404.201 177.166 403.373 177.166C402.545 177.166 401.873 176.494 401.873 175.666V165.666C401.873 164.838 402.545 164.166 403.373 164.166Z" fill="white"/>
<path fill-rule="evenodd" clip-rule="evenodd" d="M410.373 158.166C411.201 158.166 411.873 158.838 411.873 159.666V181.666C411.873 182.494 411.201 183.166 410.373 183.166C409.545 183.166 408.873 182.494 408.873 181.666V159.666C408.873 158.838 409.545 158.166 410.373 158.166Z" fill="white"/>
<path fill-rule="evenodd" clip-rule="evenodd" d="M417.373 168.166C418.201 168.166 418.873 168.838 418.873 169.666V171.666C418.873 172.494 418.201 173.166 417.373 173.166C416.545 173.166 415.873 172.494 415.873 171.666V169.666C415.873 168.838 416.545 168.166 417.373 168.166Z" fill="white"/>
<path fill-rule="evenodd" clip-rule="evenodd" d="M225.414 71L229.707 66.707C230.098 66.316 230.098 65.684 229.707 65.293C229.316 64.902 228.684 64.902 228.293 65.293L224 69.586L219.707 65.293C219.316 64.902 218.684 64.902 218.293 65.293C217.902 65.684 217.902 66.316 218.293 66.707L222.586 71L218.293 75.293C217.902 75.684 217.902 76.316 218.293 76.707C218.488 76.902 218.744 77 219 77C219.256 77 219.512 76.902 219.707 76.707L224 72.414L228.293 76.707C228.488 76.902 228.744 77 229 77C229.256 77 229.512 76.902 229.707 76.707C230.098 76.316 230.098 75.684 229.707 75.293L225.414 71Z" fill="white"/>
</g>
<defs>
<radialGradient id="paint0_radial_7321_8369" cx="0" cy="0" r="1" gradientUnits="userSpaceOnUse" gradientTransform="translate(59.5103 36.5218) rotate(-44.4965) scale(352.16 321.906)">
<stop offset="0.0416667" stop-color="#21197E"/>
<stop offset="0.333333" stop-color="#180F63" stop-opacity="0.7"/>
<stop offset="0.854167" stop-color="#2B1E48" stop-opacity="0.3"/>
<stop offset="1" stop-color="#1B0A42" stop-opacity="0"/>
</radialGradient>
<linearGradient id="paint1_linear_7321_8369" x1="232.805" y1="52.1947" x2="283.195" y2="130.195" gradientUnits="userSpaceOnUse">
<stop stop-color="#8B55FF"/>
<stop offset="1" stop-color="#662EFF"/>
</linearGradient>
<linearGradient id="paint2_linear_7321_8369" x1="-31.6549" y1="37.7965" x2="-9.04747" y2="103.749" gradientUnits="userSpaceOnUse">
<stop stop-color="#73DFE7"/>
<stop offset="1" stop-color="#0063F7"/>
</linearGradient>
<clipPath id="clip0_7321_8369">
<rect width="431" height="220" fill="white"/>
</clipPath>
</defs>
</svg>
