<svg width="25" height="25" viewBox="0 0 25 25" fill="none" xmlns="http://www.w3.org/2000/svg">
<path fill-rule="evenodd" clip-rule="evenodd" d="M6.24805 8.9979C6.24805 7.47912 7.72538 6.49417 9.24417 6.49417H19.25C20.7688 6.49417 22 7.72538 22 9.24417V19.25C22 20.7688 20.7688 22 19.25 22H9.24417C7.72538 22 6.24805 20.5225 6.24805 19.0037V8.9979ZM9.24417 7.99417C8.55381 7.99417 7.99417 8.55381 7.99417 9.24417V19.25C7.99417 19.9404 8.55381 20.5 9.24417 20.5H19.25C19.9404 20.5 20.5 19.9404 20.5 19.25V9.24417C20.5 8.55381 19.9404 7.99417 19.25 7.99417H9.24417Z" fill="#8E90A6"/>
<path fill-rule="evenodd" clip-rule="evenodd" d="M5.245 3.99411C4.55418 3.99411 3.99417 4.55412 3.99417 5.24494V15.2491C3.99417 15.9399 4.55418 16.4999 5.245 16.4999H7.24583C7.66005 16.4999 7.99583 16.8357 7.99583 17.2499C7.99583 17.6642 7.66005 17.9999 7.24583 17.9999H5.245C3.72576 17.9999 2.49417 16.7683 2.49417 15.2491V5.24494C2.49417 3.7257 3.72576 2.49411 5.245 2.49411H15.2492C16.7684 2.49411 18 3.7257 18 5.24494V7.24577C18 7.65999 17.6642 7.99577 17.25 7.99577C16.8358 7.99577 16.5 7.65999 16.5 7.24577V5.24494C16.5 4.55412 15.94 3.99411 15.2492 3.99411H5.245Z" fill="#8E90A6"/>
</svg>
