<svg width="20" height="16" viewBox="0 0 20 16" fill="none" xmlns="http://www.w3.org/2000/svg">
<path fill-rule="evenodd" clip-rule="evenodd" d="M1 2.8V2.8C1 3.4 1.3 3.9 1.8 4.3L7.8 8.4C9.2 9.3 10.9 9.3 12.3 8.4L18.3 4.4C18.7 3.9 19 3.4 19 2.8V2.8C19 1.8 18.2 1 17.2 1H2.8C1.8 1 1 1.8 1 2.8Z" stroke="white" stroke-width="1.5" stroke-linecap="round" stroke-linejoin="round"/>
<path d="M1 3V13C1 14.1 1.9 15 3 15H17C18.1 15 19 14.1 19 13V3" stroke="white" stroke-width="1.5" stroke-linecap="round" stroke-linejoin="round"/>
<path d="M1.58789 14.4124L7.68189 8.31836" stroke="white" stroke-width="1.5" stroke-linecap="round" stroke-linejoin="round"/>
<path d="M12.3599 8.35938L18.4119 14.4114" stroke="white" stroke-width="1.5" stroke-linecap="round" stroke-linejoin="round"/>
</svg>
