<svg width="88" height="88" viewBox="0 0 88 88" fill="none" xmlns="http://www.w3.org/2000/svg">
<path fill-rule="evenodd" clip-rule="evenodd" d="M79 69C79 71.7614 76.7614 74 74 74C73.1864 74 72.4182 73.8057 71.7393 73.4609L78.6954 67.2777C78.8925 67.8146 79 68.3947 79 69ZM69.5897 71.3578L76.8582 64.8969C76.0481 64.3316 75.0628 64 74 64C71.2386 64 69 66.2386 69 69C69 69.8526 69.2134 70.6554 69.5897 71.3578ZM82 69C82 73.4183 78.4183 77 74 77C69.5817 77 66 73.4183 66 69C66 64.5817 69.5817 61 74 61C78.4183 61 82 64.5817 82 69Z" fill="#662EFF"/>
<path fill-rule="evenodd" clip-rule="evenodd" d="M16 13C13.7909 13 12 14.7909 12 17V68C12 70.2091 13.7909 72 16 72H63.4141C63.1443 71.0463 63 70.04 63 69H17C15.8954 69 15 68.1046 15 67V21H74V58C75.04 58 76.0463 58.1443 77 58.4141V17C77 14.7909 75.2091 13 73 13H16ZM18 18C18.5523 18 19 17.5523 19 17C19 16.4477 18.5523 16 18 16C17.4477 16 17 16.4477 17 17C17 17.5523 17.4477 18 18 18ZM23 17C23 17.5523 22.5523 18 22 18C21.4477 18 21 17.5523 21 17C21 16.4477 21.4477 16 22 16C22.5523 16 23 16.4477 23 17ZM26 18C26.5523 18 27 17.5523 27 17C27 16.4477 26.5523 16 26 16C25.4477 16 25 16.4477 25 17C25 17.5523 25.4477 18 26 18Z" fill="#351877"/>
</svg>
