<svg width="88" height="88" viewBox="0 0 88 88" fill="none" xmlns="http://www.w3.org/2000/svg">
<path d="M44.6111 53.7778C42.034 53.7778 39.5626 52.7476 37.7403 50.9139C35.9181 49.0802 34.8944 46.5932 34.8944 44C34.8944 41.4068 35.9181 38.9197 37.7403 37.0861C39.5626 35.2524 42.034 34.2222 44.6111 34.2222C47.1881 34.2222 49.6595 35.2524 51.4818 37.0861C53.304 38.9197 54.3277 41.4068 54.3277 44C54.3277 46.5932 53.304 49.0802 51.4818 50.9139C49.6595 52.7476 47.1881 53.7778 44.6111 53.7778Z" fill="#351877"/>
<path fill-rule="evenodd" clip-rule="evenodd" d="M12.2222 17.9031C12.2281 17.0471 12.5684 16.2279 13.1696 15.6223C13.7708 15.0168 14.5845 14.6735 15.4351 14.6667H73.787C75.5619 14.6667 76.9999 16.117 76.9999 17.9031V54.7298C74.8909 53.3547 72.3721 52.5555 69.6666 52.5555C62.2414 52.5555 56.2222 58.5748 56.2222 66C56.2222 68.7055 57.0213 71.2243 58.3964 73.3333H15.4351C14.5827 73.3325 13.7655 72.9911 13.163 72.3842C12.5606 71.7774 12.2222 70.9547 12.2222 70.0969V17.9031ZM44.6111 60.2963C48.9061 60.2963 53.0252 58.5794 56.0623 55.5232C59.0993 52.4671 60.8055 48.322 60.8055 44C60.8055 39.6779 59.0993 35.5329 56.0623 32.4768C53.0252 29.4206 48.9061 27.7037 44.6111 27.7037C40.316 27.7037 36.1969 29.4206 33.1599 32.4768C30.1228 35.5329 28.4166 39.6779 28.4166 44C28.4166 48.322 30.1228 52.4671 33.1599 55.5232C36.1969 58.5794 40.316 60.2963 44.6111 60.2963ZM64.0444 21.1852V27.7037H70.5222V21.1852H64.0444Z" fill="#351877"/>
<path d="M70.5308 62.6913C70.7601 62.9205 70.8888 63.2314 70.8888 63.5555V64.7778H68.4444V63.5555C68.4444 63.2314 68.5732 62.9205 68.8024 62.6913C69.0316 62.4621 69.3425 62.3333 69.6666 62.3333C69.9908 62.3333 70.3016 62.4621 70.5308 62.6913Z" fill="#351877"/>
<path fill-rule="evenodd" clip-rule="evenodd" d="M69.6666 56.2222C72.587 56.2222 75.2083 57.5025 76.9999 59.5324C78.5213 61.2561 79.4444 63.5202 79.4444 66C79.4444 71.4001 75.0667 75.7778 69.6666 75.7778C67.1868 75.7778 64.9227 74.8547 63.199 73.3333C62.407 72.6343 61.7292 71.809 61.1969 70.8889C61.1679 70.8386 61.1392 70.7881 61.1111 70.7373C60.3323 69.3339 59.8888 67.7187 59.8888 66C59.8888 64.2812 60.3323 62.6661 61.1111 61.2626C61.1241 61.2392 61.1372 61.2158 61.1504 61.1925C61.1626 61.1708 61.175 61.1491 61.1875 61.1275C61.1906 61.122 61.1938 61.1166 61.1969 61.1111C62.8875 58.1885 66.0475 56.2222 69.6666 56.2222ZM67.0739 60.9628C66.3862 61.6505 65.9999 62.5831 65.9999 63.5555V64.7778H64.7777V70.8889H74.5555V64.7778H73.3333V63.5555C73.3333 62.5831 72.947 61.6505 72.2593 60.9628C71.5717 60.2752 70.6391 59.8889 69.6666 59.8889C68.6941 59.8889 67.7615 60.2752 67.0739 60.9628Z" fill="#351877"/>
<mask id="mask0" mask-type="alpha" maskUnits="userSpaceOnUse" x="12" y="14" width="68" height="62">
<path d="M44.6111 53.7778C42.034 53.7778 39.5626 52.7476 37.7403 50.9139C35.9181 49.0802 34.8944 46.5932 34.8944 44C34.8944 41.4068 35.9181 38.9197 37.7403 37.0861C39.5626 35.2524 42.034 34.2222 44.6111 34.2222C47.1881 34.2222 49.6595 35.2524 51.4818 37.0861C53.304 38.9197 54.3277 41.4068 54.3277 44C54.3277 46.5932 53.304 49.0802 51.4818 50.9139C49.6595 52.7476 47.1881 53.7778 44.6111 53.7778Z" fill="#221040"/>
<path fill-rule="evenodd" clip-rule="evenodd" d="M12.2222 17.9031C12.2281 17.0471 12.5684 16.2279 13.1696 15.6223C13.7708 15.0168 14.5845 14.6735 15.4351 14.6667H73.787C75.5619 14.6667 76.9999 16.117 76.9999 17.9031V54.7298C74.8909 53.3547 72.3721 52.5555 69.6666 52.5555C62.2414 52.5555 56.2222 58.5748 56.2222 66C56.2222 68.7055 57.0213 71.2243 58.3964 73.3333H15.4351C14.5827 73.3325 13.7655 72.9911 13.163 72.3842C12.5606 71.7774 12.2222 70.9547 12.2222 70.0969V17.9031ZM44.6111 60.2963C48.9061 60.2963 53.0252 58.5794 56.0623 55.5232C59.0993 52.4671 60.8055 48.322 60.8055 44C60.8055 39.6779 59.0993 35.5329 56.0623 32.4768C53.0252 29.4206 48.9061 27.7037 44.6111 27.7037C40.316 27.7037 36.1969 29.4206 33.1599 32.4768C30.1228 35.5329 28.4166 39.6779 28.4166 44C28.4166 48.322 30.1228 52.4671 33.1599 55.5232C36.1969 58.5794 40.316 60.2963 44.6111 60.2963ZM64.0444 21.1852V27.7037H70.5222V21.1852H64.0444Z" fill="#221040"/>
<path d="M70.5308 62.6913C70.7601 62.9205 70.8888 63.2314 70.8888 63.5555V64.7778H68.4444V63.5555C68.4444 63.2314 68.5732 62.9205 68.8024 62.6913C69.0316 62.4621 69.3425 62.3333 69.6666 62.3333C69.9908 62.3333 70.3016 62.4621 70.5308 62.6913Z" fill="#221040"/>
<path fill-rule="evenodd" clip-rule="evenodd" d="M69.6666 56.2222C72.587 56.2222 75.2083 57.5025 76.9999 59.5324C78.5213 61.2561 79.4444 63.5202 79.4444 66C79.4444 71.4001 75.0667 75.7778 69.6666 75.7778C67.1868 75.7778 64.9227 74.8547 63.199 73.3333C62.407 72.6343 61.7292 71.809 61.1969 70.8889C61.1679 70.8386 61.1392 70.7881 61.1111 70.7373C60.3323 69.3339 59.8888 67.7187 59.8888 66C59.8888 64.2812 60.3323 62.6661 61.1111 61.2626C61.1241 61.2392 61.1372 61.2158 61.1504 61.1925C61.1626 61.1708 61.175 61.1491 61.1875 61.1275C61.1906 61.122 61.1938 61.1166 61.1969 61.1111C62.8875 58.1885 66.0475 56.2222 69.6666 56.2222ZM67.0739 60.9628C66.3862 61.6505 65.9999 62.5831 65.9999 63.5555V64.7778H64.7777V70.8889H74.5555V64.7778H73.3333V63.5555C73.3333 62.5831 72.947 61.6505 72.2593 60.9628C71.5717 60.2752 70.6391 59.8889 69.6666 59.8889C68.6941 59.8889 67.7615 60.2752 67.0739 60.9628Z" fill="#221040"/>
</mask>
<g mask="url(#mask0)">
<ellipse cx="69.5" cy="66" rx="10.5" ry="10" fill="#662EFF"/>
</g>
</svg>
