<svg width="24" height="24" viewBox="0 0 24 24" fill="none" xmlns="http://www.w3.org/2000/svg">
<path d="M7.70994 6.29L3.70994 2.29C3.6167 2.19676 3.50601 2.1228 3.38419 2.07234C3.26237 2.02188 3.1318 1.99591 2.99994 1.99591C2.86808 1.99591 2.73751 2.02188 2.61569 2.07234C2.49387 2.1228 2.38318 2.19676 2.28994 2.29C2.10164 2.47831 1.99585 2.7337 1.99585 3C1.99585 3.2663 2.10164 3.5217 2.28994 3.71L4.61994 6C3.89184 6.09295 3.22308 6.44961 2.74025 7.00247C2.25742 7.55533 1.99403 8.26601 1.99994 9V15C1.99994 15.7957 2.31601 16.5587 2.87862 17.1213C3.44123 17.6839 4.20429 18 4.99994 18H13.9999C14.694 17.9967 15.3655 17.7529 15.8999 17.31L20.2899 21.71C20.3829 21.8037 20.4935 21.8781 20.6154 21.9289C20.7372 21.9797 20.8679 22.0058 20.9999 22.0058C21.132 22.0058 21.2627 21.9797 21.3845 21.9289C21.5064 21.8781 21.617 21.8037 21.7099 21.71C21.8037 21.617 21.8781 21.5064 21.9288 21.3846C21.9796 21.2627 22.0057 21.132 22.0057 21C22.0057 20.868 21.9796 20.7373 21.9288 20.6154C21.8781 20.4936 21.8037 20.383 21.7099 20.29L7.70994 6.29ZM13.9999 16H4.99994C4.73472 16 4.48037 15.8946 4.29283 15.7071C4.1053 15.5196 3.99994 15.2652 3.99994 15V9C3.99994 8.73479 4.1053 8.48043 4.29283 8.2929C4.48037 8.10536 4.73472 8 4.99994 8H6.58994L14.4599 15.88C14.3185 15.9564 14.1607 15.9976 13.9999 16ZM21.5299 7.15C21.3779 7.06223 21.2055 7.01603 21.0299 7.01603C20.8544 7.01603 20.682 7.06223 20.5299 7.15L16.9999 8.89C16.9715 8.11357 16.6428 7.37848 16.0833 6.83944C15.5237 6.30041 14.7769 5.99948 13.9999 6H12.6599C12.3947 6 12.1404 6.10536 11.9528 6.2929C11.7653 6.48043 11.6599 6.73479 11.6599 7C11.6599 7.26522 11.7653 7.51957 11.9528 7.70711C12.1404 7.89465 12.3947 8 12.6599 8H13.9999C14.2652 8 14.5195 8.10536 14.707 8.2929C14.8946 8.48043 14.9999 8.73479 14.9999 9V10.5C14.9962 10.5633 14.9962 10.6267 14.9999 10.69C15.0059 10.7589 15.0227 10.8264 15.0499 10.89V10.89C15.0499 10.89 15.0999 10.95 15.1199 10.99C15.1607 11.0662 15.2111 11.1368 15.2699 11.2C15.2699 11.2 15.3699 11.26 15.4199 11.3L15.5899 11.41C15.6663 11.4204 15.7436 11.4204 15.8199 11.41C15.8665 11.4147 15.9134 11.4147 15.9599 11.41C16.0232 11.4137 16.0867 11.4137 16.1499 11.41C16.2188 11.4041 16.2864 11.3872 16.3499 11.36V11.36L19.9999 9.62V15.34C19.9999 15.6052 20.1053 15.8596 20.2928 16.0471C20.4804 16.2346 20.7347 16.34 20.9999 16.34C21.2652 16.34 21.5195 16.2346 21.707 16.0471C21.8946 15.8596 21.9999 15.6052 21.9999 15.34V8C22.0003 7.83006 21.9573 7.66283 21.8751 7.51411C21.7928 7.36538 21.6741 7.24007 21.5299 7.15V7.15Z" fill="white"/>
</svg>
