<svg width="14" height="14" viewBox="0 0 14 14" fill="none" xmlns="http://www.w3.org/2000/svg">
<path fill-rule="evenodd" clip-rule="evenodd" d="M1.7951 0.307991C1.38445 -0.102664 0.718646 -0.102664 0.307991 0.307991C-0.102664 0.718646 -0.102664 1.38445 0.307991 1.7951L5.51289 7L0.307991 12.2049C-0.102664 12.6156 -0.102664 13.2814 0.307991 13.692C0.718646 14.1027 1.38445 14.1027 1.7951 13.692L7 8.48711L12.2049 13.692C12.6156 14.1027 13.2814 14.1027 13.692 13.692C14.1027 13.2814 14.1027 12.6156 13.692 12.2049L8.48711 7L13.692 1.7951C14.1027 1.38445 14.1027 0.718646 13.692 0.307991C13.2814 -0.102664 12.6156 -0.102664 12.2049 0.307991L7 5.51289L1.7951 0.307991Z" fill="#9FA6B3"/>
</svg>
