<svg width="40" height="40" viewBox="0 0 40 40" fill="none" xmlns="http://www.w3.org/2000/svg">
<rect width="40" height="40" rx="4" fill="#382853"/>
<path d="M29 18.5H28V17.5C28 17.2348 27.8946 16.9804 27.7071 16.7929C27.5196 16.6054 27.2652 16.5 27 16.5C26.7348 16.5 26.4804 16.6054 26.2929 16.7929C26.1054 16.9804 26 17.2348 26 17.5V18.5H25C24.7348 18.5 24.4804 18.6054 24.2929 18.7929C24.1054 18.9804 24 19.2348 24 19.5C24 19.7652 24.1054 20.0196 24.2929 20.2071C24.4804 20.3946 24.7348 20.5 25 20.5H26V21.5C26 21.7652 26.1054 22.0196 26.2929 22.2071C26.4804 22.3946 26.7348 22.5 27 22.5C27.2652 22.5 27.5196 22.3946 27.7071 22.2071C27.8946 22.0196 28 21.7652 28 21.5V20.5H29C29.2652 20.5 29.5196 20.3946 29.7071 20.2071C29.8946 20.0196 30 19.7652 30 19.5C30 19.2348 29.8946 18.9804 29.7071 18.7929C29.5196 18.6054 29.2652 18.5 29 18.5ZM21.3 20.22C21.8336 19.7581 22.2616 19.1869 22.5549 18.545C22.8482 17.9032 23 17.2057 23 16.5C23 15.1739 22.4732 13.9021 21.5355 12.9645C20.5979 12.0268 19.3261 11.5 18 11.5C16.6739 11.5 15.4021 12.0268 14.4645 12.9645C13.5268 13.9021 13 15.1739 13 16.5C13 17.2057 13.1518 17.9032 13.4451 18.545C13.7384 19.1869 14.1664 19.7581 14.7 20.22C13.3001 20.8539 12.1125 21.8775 11.279 23.1685C10.4455 24.4596 10.0015 25.9633 10 27.5C10 27.7652 10.1054 28.0196 10.2929 28.2071C10.4804 28.3946 10.7348 28.5 11 28.5C11.2652 28.5 11.5196 28.3946 11.7071 28.2071C11.8946 28.0196 12 27.7652 12 27.5C12 25.9087 12.6321 24.3826 13.7574 23.2574C14.8826 22.1321 16.4087 21.5 18 21.5C19.5913 21.5 21.1174 22.1321 22.2426 23.2574C23.3679 24.3826 24 25.9087 24 27.5C24 27.7652 24.1054 28.0196 24.2929 28.2071C24.4804 28.3946 24.7348 28.5 25 28.5C25.2652 28.5 25.5196 28.3946 25.7071 28.2071C25.8946 28.0196 26 27.7652 26 27.5C25.9985 25.9633 25.5545 24.4596 24.721 23.1685C23.8875 21.8775 22.6999 20.8539 21.3 20.22ZM18 19.5C17.4067 19.5 16.8266 19.3241 16.3333 18.9944C15.8399 18.6648 15.4554 18.1962 15.2284 17.6481C15.0013 17.0999 14.9419 16.4967 15.0576 15.9147C15.1734 15.3328 15.4591 14.7982 15.8787 14.3787C16.2982 13.9591 16.8328 13.6734 17.4147 13.5576C17.9967 13.4419 18.5999 13.5013 19.1481 13.7284C19.6962 13.9554 20.1648 14.3399 20.4944 14.8333C20.8241 15.3266 21 15.9067 21 16.5C21 17.2956 20.6839 18.0587 20.1213 18.6213C19.5587 19.1839 18.7957 19.5 18 19.5Z" fill="white"/>
</svg>
