<svg width="24" height="24" viewBox="0 0 24 24" fill="none" xmlns="http://www.w3.org/2000/svg">
<path d="M21.53 7.15C21.378 7.06223 21.2055 7.01603 21.03 7.01603C20.8545 7.01603 20.682 7.06223 20.53 7.15L17 8.89C16.9715 8.11357 16.6429 7.37847 16.0834 6.83944C15.5238 6.3004 14.777 5.99948 14 6H5C4.20435 6 3.44129 6.31607 2.87868 6.87868C2.31607 7.44129 2 8.20435 2 9V15C2 15.7957 2.31607 16.5587 2.87868 17.1213C3.44129 17.6839 4.20435 18 5 18H14C14.777 18.0005 15.5238 17.6996 16.0834 17.1606C16.6429 16.6215 16.9715 15.8864 17 15.11L20.56 16.89C20.6963 16.9599 20.8468 16.9975 21 17C21.1872 17.0006 21.3709 16.9486 21.53 16.85C21.6741 16.7599 21.7929 16.6346 21.8751 16.4859C21.9574 16.3372 22.0003 16.1699 22 16V8C22.0003 7.83006 21.9574 7.66283 21.8751 7.51411C21.7929 7.36538 21.6741 7.24007 21.53 7.15V7.15ZM15 15C15 15.2652 14.8946 15.5196 14.7071 15.7071C14.5196 15.8946 14.2652 16 14 16H5C4.73478 16 4.48043 15.8946 4.29289 15.7071C4.10536 15.5196 4 15.2652 4 15V9C4 8.73478 4.10536 8.48043 4.29289 8.29289C4.48043 8.10536 4.73478 8 5 8H14C14.2652 8 14.5196 8.10536 14.7071 8.29289C14.8946 8.48043 15 8.73478 15 9V15ZM20 14.38L17 12.88V11.12L20 9.62V14.38Z" fill="white"/>
</svg>
