<svg width="32" height="32" viewBox="0 0 32 32" fill="none" xmlns="http://www.w3.org/2000/svg">
<path d="M28.7067 9.53333C28.5041 9.41631 28.2741 9.3547 28.0401 9.3547C27.806 9.3547 27.5761 9.41631 27.3734 9.53333L22.6667 11.8533C22.6288 10.8181 22.1906 9.83796 21.4446 9.11925C20.6985 8.40054 19.7027 7.9993 18.6667 8H6.66675C5.60588 8 4.58847 8.42143 3.83832 9.17157C3.08818 9.92172 2.66675 10.9391 2.66675 12V20C2.66675 21.0609 3.08818 22.0783 3.83832 22.8284C4.58847 23.5786 5.60588 24 6.66675 24H18.6667C19.7027 24.0007 20.6985 23.5995 21.4446 22.8807C22.1906 22.162 22.6288 21.1819 22.6667 20.1467L27.4134 22.52C27.5952 22.6132 27.7959 22.6634 28.0001 22.6667C28.2497 22.6675 28.4946 22.5982 28.7067 22.4667C28.8989 22.3466 29.0573 22.1795 29.1669 21.9812C29.2766 21.7829 29.3339 21.5599 29.3334 21.3333V10.6667C29.3339 10.4401 29.2766 10.2171 29.1669 10.0188C29.0573 9.82051 28.8989 9.65343 28.7067 9.53333V9.53333ZM20.0001 20C20.0001 20.3536 19.8596 20.6928 19.6096 20.9428C19.3595 21.1929 19.0204 21.3333 18.6667 21.3333H6.66675C6.31313 21.3333 5.97399 21.1929 5.72394 20.9428C5.47389 20.6928 5.33341 20.3536 5.33341 20V12C5.33341 11.6464 5.47389 11.3072 5.72394 11.0572C5.97399 10.8071 6.31313 10.6667 6.66675 10.6667H18.6667C19.0204 10.6667 19.3595 10.8071 19.6096 11.0572C19.8596 11.3072 20.0001 11.6464 20.0001 12V20ZM26.6667 19.1733L22.6667 17.1733V14.8267L26.6667 12.8267V19.1733Z" fill="white"/>
</svg>
