<svg width="32" height="32" viewBox="0 0 32 32" fill="none" xmlns="http://www.w3.org/2000/svg">
<path d="M22.6666 12V9.33333C22.6666 7.56521 21.9642 5.86952 20.714 4.61928C19.4637 3.36904 17.768 2.66666 15.9999 2.66666C14.2318 2.66666 12.5361 3.36904 11.2859 4.61928C10.0356 5.86952 9.33325 7.56521 9.33325 9.33333V12C8.27239 12 7.25497 12.4214 6.50482 13.1716C5.75468 13.9217 5.33325 14.9391 5.33325 16V25.3333C5.33325 26.3942 5.75468 27.4116 6.50482 28.1618C7.25497 28.9119 8.27239 29.3333 9.33325 29.3333H22.6666C23.7274 29.3333 24.7449 28.9119 25.495 28.1618C26.2452 27.4116 26.6666 26.3942 26.6666 25.3333V16C26.6666 14.9391 26.2452 13.9217 25.495 13.1716C24.7449 12.4214 23.7274 12 22.6666 12ZM11.9999 9.33333C11.9999 8.27246 12.4213 7.25504 13.1715 6.5049C13.9216 5.75475 14.9391 5.33332 15.9999 5.33332C17.0608 5.33332 18.0782 5.75475 18.8283 6.5049C19.5785 7.25504 19.9999 8.27246 19.9999 9.33333V12H11.9999V9.33333ZM23.9999 25.3333C23.9999 25.687 23.8594 26.0261 23.6094 26.2761C23.3593 26.5262 23.0202 26.6667 22.6666 26.6667H9.33325C8.97963 26.6667 8.64049 26.5262 8.39044 26.2761C8.14039 26.0261 7.99992 25.687 7.99992 25.3333V16C7.99992 15.6464 8.14039 15.3072 8.39044 15.0572C8.64049 14.8071 8.97963 14.6667 9.33325 14.6667H22.6666C23.0202 14.6667 23.3593 14.8071 23.6094 15.0572C23.8594 15.3072 23.9999 15.6464 23.9999 16V25.3333Z" fill="white"/>
</svg>
