<svg width="149" height="31" viewBox="0 0 149 31" fill="none" xmlns="http://www.w3.org/2000/svg">
<path d="M45.9766 19.4355L48.9355 8.78125H51.4941L47.0996 23H44.8633L40.4785 8.78125H43.0371L45.9766 19.4355ZM54.0332 12.4336H59.668V21.0664H62.8027V23H54.0332V21.0664H57.3145V14.377H54.0332V12.4336ZM57.1191 9.69922C57.1191 9.33464 57.2363 9.03516 57.4707 8.80078C57.7051 8.5599 58.0339 8.43945 58.457 8.43945C58.8867 8.43945 59.2188 8.5599 59.4531 8.80078C59.694 9.03516 59.8145 9.33464 59.8145 9.69922C59.8145 10.0638 59.694 10.3665 59.4531 10.6074C59.2188 10.8418 58.8867 10.959 58.457 10.959C58.0339 10.959 57.7051 10.8418 57.4707 10.6074C57.2363 10.3665 57.1191 10.0638 57.1191 9.69922ZM65.2246 17.6387C65.2246 16.8379 65.3223 16.1055 65.5176 15.4414C65.7129 14.7773 65.9928 14.2077 66.3574 13.7324C66.722 13.2572 67.1615 12.8893 67.6758 12.6289C68.1966 12.3685 68.7793 12.2383 69.4238 12.2383C70.0033 12.2383 70.5143 12.3392 70.957 12.541C71.3997 12.7363 71.7871 13.0195 72.1191 13.3906V8H74.4629V23H72.3438L72.2266 21.9258C71.8945 22.3359 71.4941 22.6517 71.0254 22.873C70.5632 23.0879 70.0228 23.1953 69.4043 23.1953C68.7663 23.1953 68.1901 23.0618 67.6758 22.7949C67.1615 22.5215 66.722 22.1471 66.3574 21.6719C65.9993 21.1966 65.7194 20.6335 65.5176 19.9824C65.3223 19.3249 65.2246 18.612 65.2246 17.8438V17.6387ZM67.5586 17.8438C67.5586 18.319 67.6042 18.765 67.6953 19.1816C67.7865 19.5983 67.9297 19.9629 68.125 20.2754C68.3268 20.5879 68.5807 20.8353 68.8867 21.0176C69.1992 21.1934 69.5703 21.2812 70 21.2812C70.5339 21.2812 70.9701 21.1673 71.3086 20.9395C71.6471 20.7051 71.9173 20.3926 72.1191 20.002V15.4121C71.9173 15.028 71.6439 14.722 71.2988 14.4941C70.9603 14.2663 70.5339 14.1523 70.0195 14.1523C69.5833 14.1523 69.209 14.2435 68.8965 14.4258C68.5905 14.6081 68.3366 14.8587 68.1348 15.1777C67.9395 15.4967 67.793 15.8678 67.6953 16.291C67.6042 16.7142 67.5586 17.1634 67.5586 17.6387V17.8438ZM82.4707 23.1953C81.6895 23.1953 80.9766 23.0651 80.332 22.8047C79.6875 22.5443 79.1341 22.1862 78.6719 21.7305C78.2161 21.2747 77.8613 20.7376 77.6074 20.1191C77.3535 19.4941 77.2266 18.8203 77.2266 18.0977V17.6973C77.2266 16.8574 77.36 16.1022 77.627 15.4316C77.9004 14.7611 78.2617 14.1882 78.7109 13.7129C79.1667 13.2376 79.694 12.873 80.293 12.6191C80.8984 12.3652 81.5332 12.2383 82.1973 12.2383C82.9655 12.2383 83.6426 12.3685 84.2285 12.6289C84.8145 12.8828 85.3027 13.2441 85.6934 13.7129C86.0905 14.1751 86.39 14.7253 86.5918 15.3633C86.7936 16.0013 86.8945 16.7012 86.8945 17.4629V18.4492H79.5703C79.6094 18.8594 79.7103 19.2402 79.873 19.5918C80.0358 19.9434 80.2474 20.2493 80.5078 20.5098C80.7747 20.7637 81.084 20.9655 81.4355 21.1152C81.7936 21.2585 82.1842 21.3301 82.6074 21.3301C83.1999 21.3301 83.7435 21.2129 84.2383 20.9785C84.7396 20.7441 85.1465 20.4219 85.459 20.0117L86.7285 21.2031C86.5592 21.457 86.3411 21.7044 86.0742 21.9453C85.8073 22.1797 85.4948 22.3913 85.1367 22.5801C84.7786 22.7624 84.375 22.9089 83.9258 23.0195C83.4831 23.1367 82.998 23.1953 82.4707 23.1953ZM82.1875 14.123C81.862 14.123 81.5592 14.1816 81.2793 14.2988C80.9993 14.416 80.7487 14.5885 80.5273 14.8164C80.306 15.0378 80.1172 15.3112 79.9609 15.6367C79.8112 15.9557 79.7038 16.3203 79.6387 16.7305H84.5898V16.5547C84.5703 16.2422 84.5085 15.9427 84.4043 15.6562C84.3066 15.3633 84.1602 15.1029 83.9648 14.875C83.7695 14.6471 83.5221 14.4648 83.2227 14.3281C82.9297 14.1914 82.5846 14.123 82.1875 14.123ZM89.1309 17.6191C89.1309 16.8574 89.2415 16.1478 89.4629 15.4902C89.6908 14.8327 90.013 14.263 90.4297 13.7812C90.8529 13.2995 91.3672 12.9219 91.9727 12.6484C92.5781 12.375 93.265 12.2383 94.0332 12.2383C94.8079 12.2383 95.498 12.375 96.1035 12.6484C96.7155 12.9219 97.2298 13.2995 97.6465 13.7812C98.0697 14.263 98.3919 14.8327 98.6133 15.4902C98.8346 16.1478 98.9453 16.8574 98.9453 17.6191V17.8242C98.9453 18.5924 98.8346 19.3053 98.6133 19.9629C98.3919 20.6204 98.0697 21.1901 97.6465 21.6719C97.2298 22.1471 96.7188 22.5215 96.1133 22.7949C95.5078 23.0684 94.821 23.2051 94.0527 23.2051C93.278 23.2051 92.5846 23.0684 91.9727 22.7949C91.3672 22.5215 90.8529 22.1471 90.4297 21.6719C90.013 21.1901 89.6908 20.6204 89.4629 19.9629C89.2415 19.3053 89.1309 18.5924 89.1309 17.8242V17.6191ZM91.4648 17.8242C91.4648 18.306 91.5137 18.7585 91.6113 19.1816C91.7155 19.6048 91.8717 19.9792 92.0801 20.3047C92.2949 20.6237 92.5651 20.8776 92.8906 21.0664C93.2161 21.2487 93.6035 21.3398 94.0527 21.3398C94.4889 21.3398 94.8665 21.2487 95.1855 21.0664C95.5111 20.8776 95.778 20.6237 95.9863 20.3047C96.2012 19.9792 96.3574 19.6048 96.4551 19.1816C96.5592 18.7585 96.6113 18.306 96.6113 17.8242V17.6191C96.6113 17.1504 96.5592 16.7044 96.4551 16.2812C96.3574 15.8581 96.2012 15.487 95.9863 15.168C95.778 14.849 95.5111 14.5951 95.1855 14.4062C94.8665 14.2174 94.4824 14.123 94.0332 14.123C93.5905 14.123 93.2064 14.2174 92.8809 14.4062C92.5553 14.5951 92.2884 14.849 92.0801 15.168C91.8717 15.487 91.7155 15.8581 91.6113 16.2812C91.5137 16.7044 91.4648 17.1504 91.4648 17.6191V17.8242ZM106.191 21.3398C106.478 21.3398 106.755 21.2943 107.021 21.2031C107.295 21.112 107.536 20.985 107.744 20.8223C107.952 20.6595 108.115 20.4674 108.232 20.2461C108.356 20.0247 108.415 19.7839 108.408 19.5234H110.615C110.622 20.0312 110.505 20.5098 110.264 20.959C110.029 21.4017 109.707 21.7891 109.297 22.1211C108.893 22.4531 108.424 22.7168 107.891 22.9121C107.357 23.1074 106.797 23.2051 106.211 23.2051C105.397 23.2051 104.684 23.0651 104.072 22.7852C103.46 22.5052 102.949 22.1243 102.539 21.6426C102.129 21.1543 101.82 20.5911 101.611 19.9531C101.41 19.3086 101.309 18.625 101.309 17.9023V17.5508C101.309 16.8281 101.41 16.1445 101.611 15.5C101.82 14.8555 102.129 14.2923 102.539 13.8105C102.949 13.3288 103.46 12.9479 104.072 12.668C104.684 12.3815 105.394 12.2383 106.201 12.2383C106.839 12.2383 107.428 12.3359 107.969 12.5312C108.516 12.7266 108.984 13 109.375 13.3516C109.772 13.7031 110.078 14.123 110.293 14.6113C110.514 15.0996 110.622 15.6335 110.615 16.2129H108.408C108.415 15.9264 108.363 15.6562 108.252 15.4023C108.148 15.1484 107.995 14.9271 107.793 14.7383C107.591 14.5495 107.354 14.3997 107.08 14.2891C106.807 14.1784 106.507 14.123 106.182 14.123C105.693 14.123 105.286 14.224 104.961 14.4258C104.635 14.6211 104.375 14.8815 104.18 15.207C103.984 15.526 103.844 15.8906 103.76 16.3008C103.682 16.7109 103.643 17.1276 103.643 17.5508V17.9023C103.643 18.332 103.682 18.752 103.76 19.1621C103.844 19.5723 103.984 19.9401 104.18 20.2656C104.375 20.5846 104.635 20.8451 104.961 21.0469C105.286 21.2422 105.697 21.3398 106.191 21.3398ZM113.154 17.6191C113.154 16.8574 113.265 16.1478 113.486 15.4902C113.714 14.8327 114.036 14.263 114.453 13.7812C114.876 13.2995 115.391 12.9219 115.996 12.6484C116.602 12.375 117.288 12.2383 118.057 12.2383C118.831 12.2383 119.521 12.375 120.127 12.6484C120.739 12.9219 121.253 13.2995 121.67 13.7812C122.093 14.263 122.415 14.8327 122.637 15.4902C122.858 16.1478 122.969 16.8574 122.969 17.6191V17.8242C122.969 18.5924 122.858 19.3053 122.637 19.9629C122.415 20.6204 122.093 21.1901 121.67 21.6719C121.253 22.1471 120.742 22.5215 120.137 22.7949C119.531 23.0684 118.844 23.2051 118.076 23.2051C117.301 23.2051 116.608 23.0684 115.996 22.7949C115.391 22.5215 114.876 22.1471 114.453 21.6719C114.036 21.1901 113.714 20.6204 113.486 19.9629C113.265 19.3053 113.154 18.5924 113.154 17.8242V17.6191ZM115.488 17.8242C115.488 18.306 115.537 18.7585 115.635 19.1816C115.739 19.6048 115.895 19.9792 116.104 20.3047C116.318 20.6237 116.589 20.8776 116.914 21.0664C117.24 21.2487 117.627 21.3398 118.076 21.3398C118.512 21.3398 118.89 21.2487 119.209 21.0664C119.535 20.8776 119.801 20.6237 120.01 20.3047C120.225 19.9792 120.381 19.6048 120.479 19.1816C120.583 18.7585 120.635 18.306 120.635 17.8242V17.6191C120.635 17.1504 120.583 16.7044 120.479 16.2812C120.381 15.8581 120.225 15.487 120.01 15.168C119.801 14.849 119.535 14.5951 119.209 14.4062C118.89 14.2174 118.506 14.123 118.057 14.123C117.614 14.123 117.23 14.2174 116.904 14.4062C116.579 14.5951 116.312 14.849 116.104 15.168C115.895 15.487 115.739 15.8581 115.635 16.2812C115.537 16.7044 115.488 17.1504 115.488 17.6191V17.8242ZM127.705 12.4336L127.852 13.8984C128.236 13.3711 128.698 12.9642 129.238 12.6777C129.785 12.3848 130.391 12.2383 131.055 12.2383C131.595 12.2383 132.087 12.3164 132.529 12.4727C132.979 12.6289 133.363 12.873 133.682 13.2051C134.007 13.5371 134.258 13.9668 134.434 14.4941C134.616 15.0215 134.707 15.6562 134.707 16.3984V23H132.373V16.4375C132.373 16.0013 132.321 15.6367 132.217 15.3438C132.119 15.0508 131.976 14.8164 131.787 14.6406C131.605 14.4648 131.38 14.3411 131.113 14.2695C130.846 14.1914 130.544 14.1523 130.205 14.1523C129.691 14.1523 129.242 14.2663 128.857 14.4941C128.48 14.722 128.174 15.0312 127.939 15.4219V23H125.596V12.4336H127.705ZM140.264 23V14.1719H137.422V12.4336H140.264V11.7793C140.264 11.0957 140.365 10.4935 140.566 9.97266C140.775 9.44531 141.071 9.00586 141.455 8.6543C141.846 8.29622 142.314 8.02604 142.861 7.84375C143.408 7.65495 144.023 7.56055 144.707 7.56055C145.156 7.56055 145.583 7.59635 145.986 7.66797C146.396 7.73307 146.823 7.8112 147.266 7.90234L147.061 9.75781C146.807 9.6862 146.51 9.62435 146.172 9.57227C145.833 9.51367 145.452 9.48438 145.029 9.48438C144.189 9.48438 143.574 9.68294 143.184 10.0801C142.799 10.4772 142.607 11.0436 142.607 11.7793V12.4336H146.533V14.1719H142.607V23H140.264Z" fill="white"/>
<path fill-rule="evenodd" clip-rule="evenodd" d="M27.6164 16.1417C28.1279 15.8565 28.1279 15.1435 27.6164 14.8583L1.15068 0.100369C0.639267 -0.184809 0 0.171664 0 0.742021V30.258C0 30.8283 0.639271 31.1848 1.15069 30.8996L27.6164 16.1417Z" fill="#662EFF"/>
<path fill-rule="evenodd" clip-rule="evenodd" d="M17.4074 6.34136C17.2112 6.22933 17.2112 5.94924 17.4074 5.83721L27.5586 0.0394307C27.7548 -0.0726037 28 0.0674396 28 0.291508V11.8871C28 12.1111 27.7548 12.2512 27.5586 12.1391L17.4074 6.34136Z" fill="#662EFF"/>
<path fill-rule="evenodd" clip-rule="evenodd" d="M17.4074 25.1628C17.2112 25.0508 17.2112 24.7707 17.4074 24.6586L27.5586 18.8609C27.7548 18.7488 28 18.8889 28 19.1129V30.7085C28 30.9326 27.7548 31.0726 27.5586 30.9606L17.4074 25.1628Z" fill="#662EFF"/>
</svg>
