<svg width="24" height="24" viewBox="0 0 24 24" fill="none" xmlns="http://www.w3.org/2000/svg">
<path d="M10.5001 3.72998C10.6775 3.51617 10.8976 3.34169 11.1462 3.21766C11.3949 3.09362 11.6667 3.02276 11.9442 3.00959C12.2218 2.99642 12.499 3.04122 12.7583 3.14115C13.0175 3.24108 13.2532 3.39394 13.4501 3.58998C13.811 3.96979 14.0085 4.47608 14.0001 4.99998V8.40998C14.0001 8.67519 14.1054 8.92955 14.293 9.11708C14.4805 9.30462 14.7349 9.40998 15.0001 9.40998C15.2653 9.40998 15.5196 9.30462 15.7072 9.11708C15.8947 8.92955 16.0001 8.67519 16.0001 8.40998V4.99998C15.9772 4.19732 15.7133 3.42013 15.2427 2.76951C14.772 2.1189 14.1165 1.625 13.3613 1.35205C12.6062 1.07911 11.7863 1.03978 11.0085 1.23916C10.2306 1.43854 9.53082 1.86742 9.00007 2.46998C8.88367 2.56205 8.78923 2.67889 8.72359 2.812C8.65795 2.94511 8.62276 3.09116 8.62058 3.23956C8.6184 3.38796 8.64927 3.53498 8.71097 3.66997C8.77267 3.80495 8.86364 3.92451 8.97728 4.01997C9.09092 4.11543 9.22439 4.18439 9.36799 4.22187C9.5116 4.25934 9.66175 4.26437 9.80754 4.23661C9.95334 4.20885 10.0911 4.14898 10.2109 4.06135C10.3307 3.97372 10.4295 3.86052 10.5001 3.72998V3.72998ZM18.7201 13.27H18.9201C19.1554 13.2743 19.3848 13.1954 19.5677 13.0472C19.7506 12.899 19.8754 12.6911 19.9201 12.46C19.9918 11.9768 20.0185 11.4881 20.0001 11C20.0001 10.7348 19.8947 10.4804 19.7072 10.2929C19.5196 10.1053 19.2653 9.99998 19.0001 9.99998C18.7349 9.99998 18.4805 10.1053 18.293 10.2929C18.1054 10.4804 18.0001 10.7348 18.0001 11C18.0002 11.3694 17.9633 11.7379 17.8901 12.1C17.8658 12.2315 17.8681 12.3666 17.8969 12.4972C17.9257 12.6278 17.9804 12.7513 18.0578 12.8604C18.1352 12.9695 18.2337 13.062 18.3474 13.1323C18.4612 13.2027 18.5879 13.2495 18.7201 13.27V13.27ZM21.7201 19.33L3.72007 1.32998C3.62711 1.23625 3.51651 1.16186 3.39465 1.11109C3.27279 1.06032 3.14208 1.03418 3.01007 1.03418C2.87806 1.03418 2.74735 1.06032 2.62549 1.11109C2.50363 1.16186 2.39303 1.23625 2.30007 1.32998C2.11382 1.51734 2.00928 1.77079 2.00928 2.03498C2.00928 2.29916 2.11382 2.55262 2.30007 2.73998L8.00007 8.47998V11C8.00079 11.7018 8.18614 12.391 8.53751 12.9985C8.88887 13.606 9.39389 14.1104 10.0018 14.461C10.6098 14.8116 11.2993 14.9961 12.0011 14.9959C12.7029 14.9957 13.3923 14.8109 14.0001 14.46L15.4601 15.92C14.5605 16.555 13.5035 16.9301 12.4049 17.0044C11.3063 17.0787 10.2085 16.8493 9.23157 16.3412C8.25468 15.8332 7.43644 15.0661 6.86646 14.124C6.29648 13.1819 5.99674 12.1011 6.00007 11C6.00007 10.7348 5.89471 10.4804 5.70718 10.2929C5.51964 10.1053 5.26529 9.99998 5.00007 9.99998C4.73485 9.99998 4.4805 10.1053 4.29296 10.2929C4.10543 10.4804 4.00007 10.7348 4.00007 11C4.00184 12.9473 4.71379 14.8271 6.00247 16.2869C7.29114 17.7468 9.06805 18.6866 11.0001 18.93V21H9.00007C8.73485 21 8.4805 21.1053 8.29296 21.2929C8.10543 21.4804 8.00007 21.7348 8.00007 22C8.00007 22.2652 8.10543 22.5195 8.29296 22.7071C8.4805 22.8946 8.73485 23 9.00007 23H15.0001C15.2653 23 15.5196 22.8946 15.7072 22.7071C15.8947 22.5195 16.0001 22.2652 16.0001 22C16.0001 21.7348 15.8947 21.4804 15.7072 21.2929C15.5196 21.1053 15.2653 21 15.0001 21H13.0001V18.93C14.4029 18.7554 15.7328 18.2061 16.8501 17.34L20.2501 20.74C20.437 20.9283 20.6912 21.0346 20.9565 21.0355C21.2219 21.0365 21.4768 20.932 21.6651 20.745C21.8534 20.558 21.9597 20.3039 21.9606 20.0385C21.9616 19.7731 21.857 19.5183 21.6701 19.33H21.7201ZM12.0001 13C11.4696 13 10.9609 12.7893 10.5859 12.4142C10.2108 12.0391 10.0001 11.5304 10.0001 11V10.48L12.4501 12.94C12.3033 12.9795 12.152 12.9997 12.0001 13Z" fill="white"/>
</svg>
