<svg width="14" height="16" viewBox="0 0 14 16" fill="none" xmlns="http://www.w3.org/2000/svg">
<path d="M5.99988 2.48667C6.1182 2.34413 6.26491 2.22781 6.43067 2.14512C6.59643 2.06243 6.77761 2.01519 6.96264 2.00641C7.14767 1.99763 7.33251 2.0275 7.50535 2.09412C7.6782 2.16074 7.83527 2.26264 7.96655 2.39333C8.20719 2.64654 8.33885 2.98407 8.33322 3.33333V5.60667C8.33322 5.78348 8.40345 5.95305 8.52848 6.07807C8.6535 6.2031 8.82307 6.27333 8.99988 6.27333C9.1767 6.27333 9.34626 6.2031 9.47129 6.07807C9.59631 5.95305 9.66655 5.78348 9.66655 5.60667V3.33333C9.65131 2.79823 9.47536 2.2801 9.16162 1.84636C8.84787 1.41262 8.41084 1.08335 7.90739 0.901385C7.40394 0.719425 6.85738 0.693199 6.33882 0.826121C5.82027 0.959043 5.35372 1.24496 4.99988 1.64667C4.92228 1.70805 4.85932 1.78594 4.81556 1.87468C4.7718 1.96342 4.74834 2.06079 4.74689 2.15972C4.74543 2.25865 4.76602 2.35667 4.80715 2.44666C4.84828 2.53665 4.90893 2.61635 4.98469 2.67999C5.06045 2.74363 5.14943 2.78961 5.24517 2.81459C5.3409 2.83957 5.441 2.84293 5.5382 2.82442C5.6354 2.80591 5.72725 2.766 5.80711 2.70758C5.88696 2.64916 5.95282 2.5737 5.99988 2.48667ZM11.4799 8.84667H11.6132C11.7701 8.84952 11.923 8.79693 12.045 8.69815C12.1669 8.59938 12.2501 8.46075 12.2799 8.30667C12.3277 7.98456 12.3455 7.65873 12.3332 7.33333C12.3332 7.15652 12.263 6.98695 12.138 6.86193C12.0129 6.73691 11.8434 6.66667 11.6666 6.66667C11.4897 6.66667 11.3202 6.73691 11.1951 6.86193C11.0701 6.98695 10.9999 7.15652 10.9999 7.33333C11 7.57961 10.9754 7.82528 10.9266 8.06667C10.9103 8.15435 10.9119 8.24439 10.9311 8.33147C10.9503 8.41855 10.9868 8.50089 11.0384 8.57362C11.09 8.64634 11.1556 8.70798 11.2315 8.75488C11.3073 8.80178 11.3918 8.83299 11.4799 8.84667ZM13.4799 12.8867L1.47988 0.886667C1.41791 0.824182 1.34417 0.774585 1.26294 0.74074C1.1817 0.706894 1.09456 0.689468 1.00655 0.689468C0.918543 0.689468 0.831406 0.706894 0.750166 0.74074C0.668927 0.774585 0.595193 0.824182 0.533217 0.886667C0.40905 1.01158 0.339355 1.18054 0.339355 1.35667C0.339355 1.53279 0.40905 1.70176 0.533217 1.82667L4.33322 5.65333V7.33333C4.3337 7.8012 4.45726 8.2607 4.69151 8.66571C4.92575 9.07071 5.26243 9.40696 5.66773 9.64068C6.07304 9.87441 6.5327 9.99739 7.00057 9.99727C7.46843 9.99715 7.92803 9.87393 8.33322 9.64L9.30655 10.6133C8.70683 11.0367 8.00219 11.2868 7.26979 11.3363C6.53739 11.3858 5.80548 11.2329 5.15422 10.8942C4.50296 10.5555 3.95747 10.0441 3.57748 9.416C3.19749 8.78793 2.99766 8.0674 2.99988 7.33333C2.99988 7.15652 2.92965 6.98695 2.80462 6.86193C2.6796 6.73691 2.51003 6.66667 2.33322 6.66667C2.15641 6.66667 1.98684 6.73691 1.86181 6.86193C1.73679 6.98695 1.66655 7.15652 1.66655 7.33333C1.66773 8.63153 2.14237 9.88472 3.00148 10.858C3.8606 11.8312 5.0452 12.4577 6.33322 12.62V14H4.99988C4.82307 14 4.6535 14.0702 4.52848 14.1953C4.40346 14.3203 4.33322 14.4899 4.33322 14.6667C4.33322 14.8435 4.40346 15.013 4.52848 15.1381C4.6535 15.2631 4.82307 15.3333 4.99988 15.3333H8.99988C9.1767 15.3333 9.34626 15.2631 9.47129 15.1381C9.59631 15.013 9.66655 14.8435 9.66655 14.6667C9.66655 14.4899 9.59631 14.3203 9.47129 14.1953C9.34626 14.0702 9.1767 14 8.99988 14H7.66655V12.62C8.60178 12.5036 9.48839 12.1374 10.2332 11.56L12.4999 13.8267C12.6245 13.9522 12.794 14.0231 12.9709 14.0237C13.1478 14.0243 13.3177 13.9547 13.4432 13.83C13.5688 13.7053 13.6396 13.5359 13.6403 13.359C13.6409 13.1821 13.5712 13.0122 13.4466 12.8867H13.4799ZM6.99988 8.66667C6.64626 8.66667 6.30712 8.52619 6.05708 8.27614C5.80703 8.02609 5.66655 7.68696 5.66655 7.33333V6.98667L7.29988 8.62667C7.20206 8.65304 7.1012 8.66649 6.99988 8.66667Z" fill="white"/>
</svg>
