<svg width="24" height="24" viewBox="0 0 24 24" fill="none" xmlns="http://www.w3.org/2000/svg">
<path d="M16.9748 9.1675C16.7874 8.98125 16.534 8.87671 16.2698 8.87671C16.0056 8.87671 15.7522 8.98125 15.5648 9.1675L11.9748 12.7075L8.4348 9.1675C8.24744 8.98125 7.99399 8.87671 7.7298 8.87671C7.46562 8.87671 7.21216 8.98125 7.0248 9.1675C6.93107 9.26046 6.85668 9.37107 6.80591 9.49292C6.75514 9.61478 6.729 9.74549 6.729 9.8775C6.729 10.0095 6.75514 10.1402 6.80591 10.2621C6.85668 10.3839 6.93107 10.4945 7.0248 10.5875L11.2648 14.8275C11.3578 14.9212 11.4684 14.9956 11.5902 15.0464C11.7121 15.0972 11.8428 15.1233 11.9748 15.1233C12.1068 15.1233 12.2375 15.0972 12.3594 15.0464C12.4812 14.9956 12.5918 14.9212 12.6848 14.8275L16.9748 10.5875C17.0685 10.4945 17.1429 10.3839 17.1937 10.2621C17.2445 10.1402 17.2706 10.0095 17.2706 9.8775C17.2706 9.74549 17.2445 9.61478 17.1937 9.49292C17.1429 9.37107 17.0685 9.26046 16.9748 9.1675Z"
      fill="#95A2B3"/>
</svg>
