<svg width="24" height="24" viewBox="0 0 24 24" fill="none" xmlns="http://www.w3.org/2000/svg">
    <path d="M7.02505 14.8325C7.21241 15.0188 7.46586 15.1233 7.73005 15.1233C7.99423 15.1233 8.24768 15.0188 8.43505 14.8325L12.025 11.2925L15.565 14.8325C15.7524 15.0188 16.0059 15.1233 16.27 15.1233C16.5342 15.1233 16.7877 15.0188 16.975 14.8325C17.0688 14.7395 17.1432 14.6289 17.1939 14.5071C17.2447 14.3852 17.2708 14.2545 17.2708 14.1225C17.2708 13.9905 17.2447 13.8598 17.1939 13.7379C17.1432 13.6161 17.0688 13.5055 16.975 13.4125L12.735 9.17251C12.6421 9.07878 12.5315 9.00438 12.4096 8.95362C12.2878 8.90285 12.1571 8.87671 12.025 8.87671C11.893 8.87671 11.7623 8.90285 11.6405 8.95362C11.5186 9.00438 11.408 9.07878 11.315 9.17251L7.02505 13.4125C6.93132 13.5055 6.85692 13.6161 6.80616 13.7379C6.75539 13.8598 6.72925 13.9905 6.72925 14.1225C6.72925 14.2545 6.75539 14.3852 6.80616 14.5071C6.85692 14.6289 6.93132 14.7395 7.02505 14.8325Z"
          fill="#95A2B3"/>
</svg>