<svg width="40" height="40" viewBox="0 0 40 40" fill="none" xmlns="http://www.w3.org/2000/svg">
<rect width="40" height="40" rx="4" fill="#382853"/>
<path d="M29.32 17.55L27.43 16.92L28.32 15.14C28.4102 14.9537 28.4404 14.744 28.4064 14.5398C28.3723 14.3356 28.2758 14.147 28.13 14L26 11.87C25.8522 11.7221 25.6618 11.6242 25.4556 11.5901C25.2493 11.556 25.0375 11.5875 24.85 11.68L23.07 12.57L22.44 10.68C22.3735 10.483 22.2472 10.3116 22.0787 10.1897C21.9102 10.0679 21.7079 10.0015 21.5 10H18.5C18.2904 9.99946 18.0858 10.0648 17.9154 10.1868C17.7449 10.3089 17.6171 10.4814 17.55 10.68L16.92 12.57L15.14 11.68C14.9537 11.5898 14.744 11.5596 14.5398 11.5936C14.3356 11.6277 14.147 11.7242 14 11.87L11.87 14C11.7221 14.1478 11.6242 14.3382 11.5901 14.5445C11.556 14.7507 11.5875 14.9625 11.68 15.15L12.57 16.93L10.68 17.56C10.483 17.6265 10.3116 17.7528 10.1898 17.9213C10.0679 18.0898 10.0015 18.2921 10 18.5V21.5C9.99946 21.7096 10.0648 21.9142 10.1868 22.0846C10.3089 22.2551 10.4814 22.3829 10.68 22.45L12.57 23.08L11.68 24.86C11.5898 25.0463 11.5596 25.256 11.5936 25.4602C11.6277 25.6644 11.7242 25.853 11.87 26L14 28.13C14.1478 28.2779 14.3382 28.3758 14.5445 28.4099C14.7507 28.444 14.9625 28.4125 15.15 28.32L16.93 27.43L17.56 29.32C17.6271 29.5186 17.7549 29.6911 17.9254 29.8132C18.0958 29.9352 18.3004 30.0005 18.51 30H21.51C21.7196 30.0005 21.9242 29.9352 22.0946 29.8132C22.2651 29.6911 22.3929 29.5186 22.46 29.32L23.09 27.43L24.87 28.32C25.0551 28.4079 25.2628 28.4369 25.4649 28.4029C25.667 28.3689 25.8538 28.2736 26 28.13L28.13 26C28.2779 25.8522 28.3758 25.6618 28.4099 25.4555C28.444 25.2493 28.4125 25.0375 28.32 24.85L27.43 23.07L29.32 22.44C29.517 22.3735 29.6884 22.2472 29.8103 22.0787C29.9321 21.9102 29.9985 21.7079 30 21.5V18.5C30.0005 18.2904 29.9352 18.0858 29.8132 17.9154C29.6911 17.7449 29.5186 17.6171 29.32 17.55ZM28 20.78L26.8 21.18C26.5241 21.2695 26.2709 21.418 26.0581 21.6151C25.8452 21.8122 25.6778 22.0533 25.5675 22.3216C25.4571 22.5899 25.4064 22.8789 25.419 23.1688C25.4315 23.4586 25.5069 23.7422 25.64 24L26.21 25.14L25.11 26.24L24 25.64C23.7436 25.5122 23.4627 25.4411 23.1763 25.4313C22.89 25.4215 22.6049 25.4734 22.3403 25.5834C22.0758 25.6934 21.8379 25.8589 21.6429 26.0688C21.4479 26.2787 21.3003 26.5281 21.21 26.8L20.81 28H19.22L18.82 26.8C18.7305 26.5241 18.582 26.2709 18.3849 26.0581C18.1878 25.8452 17.9467 25.6778 17.6784 25.5675C17.4101 25.4571 17.1211 25.4064 16.8312 25.419C16.5414 25.4315 16.2578 25.5069 16 25.64L14.86 26.21L13.76 25.11L14.36 24C14.4931 23.7422 14.5685 23.4586 14.581 23.1688C14.5936 22.8789 14.5429 22.5899 14.4325 22.3216C14.3222 22.0533 14.1548 21.8122 13.9419 21.6151C13.7291 21.418 13.4759 21.2695 13.2 21.18L12 20.78V19.22L13.2 18.82C13.4759 18.7305 13.7291 18.582 13.9419 18.3849C14.1548 18.1878 14.3222 17.9467 14.4325 17.6784C14.5429 17.4101 14.5936 17.1211 14.581 16.8312C14.5685 16.5414 14.4931 16.2578 14.36 16L13.79 14.89L14.89 13.79L16 14.36C16.2578 14.4931 16.5414 14.5685 16.8312 14.581C17.1211 14.5936 17.4101 14.5429 17.6784 14.4325C17.9467 14.3222 18.1878 14.1548 18.3849 13.9419C18.582 13.7291 18.7305 13.4759 18.82 13.2L19.22 12H20.78L21.18 13.2C21.2695 13.4759 21.418 13.7291 21.6151 13.9419C21.8122 14.1548 22.0533 14.3222 22.3216 14.4325C22.5899 14.5429 22.879 14.5936 23.1688 14.581C23.4586 14.5685 23.7422 14.4931 24 14.36L25.14 13.79L26.24 14.89L25.64 16C25.5122 16.2564 25.4411 16.5373 25.4313 16.8237C25.4215 17.11 25.4734 17.3951 25.5834 17.6597C25.6934 17.9242 25.8589 18.1621 26.0688 18.3571C26.2787 18.5521 26.5281 18.6997 26.8 18.79L28 19.19V20.78ZM20 16C19.2089 16 18.4355 16.2346 17.7777 16.6741C17.1199 17.1136 16.6072 17.7384 16.3045 18.4693C16.0017 19.2002 15.9225 20.0044 16.0769 20.7804C16.2312 21.5563 16.6122 22.269 17.1716 22.8284C17.731 23.3878 18.4437 23.7688 19.2196 23.9231C19.9956 24.0775 20.7998 23.9983 21.5307 23.6955C22.2616 23.3928 22.8864 22.8801 23.3259 22.2223C23.7654 21.5645 24 20.7911 24 20C24 18.9391 23.5786 17.9217 22.8284 17.1716C22.0783 16.4214 21.0609 16 20 16ZM20 22C19.6044 22 19.2178 21.8827 18.8889 21.6629C18.56 21.4432 18.3036 21.1308 18.1522 20.7654C18.0009 20.3999 17.9613 19.9978 18.0384 19.6098C18.1156 19.2219 18.3061 18.8655 18.5858 18.5858C18.8655 18.3061 19.2219 18.1156 19.6098 18.0384C19.9978 17.9613 20.3999 18.0009 20.7654 18.1522C21.1308 18.3036 21.4432 18.56 21.6629 18.8889C21.8827 19.2178 22 19.6044 22 20C22 20.5304 21.7893 21.0391 21.4142 21.4142C21.0391 21.7893 20.5304 22 20 22Z" fill="white"/>
</svg>
