<svg width="317" height="342" viewBox="0 0 317 342" fill="none" xmlns="http://www.w3.org/2000/svg">
<path fill-rule="evenodd" clip-rule="evenodd" d="M247.825 123.495L247.657 123.549C242.82 125.218 239.422 129.058 236.322 133.002C233.159 136.994 229.932 139.391 224.676 139.097C217.403 136.561 214.971 129.324 213.591 122.315C210.025 104.221 207.092 86.0372 204.103 67.8432C203.347 65.9042 201.348 64.79 199.459 65.2554L174.08 79.0234C163.626 84.7921 151.942 91.9199 139.979 94.0649C136.731 94.1736 133.513 93.0546 130.926 90.8541C127.919 86.4371 127.942 82.8875 128.978 77.7941C129.915 73.2143 131.036 67.7253 129.17 61.9211C125.71 50.9907 114.087 43.8174 103.164 47.3851C92.3364 50.922 87.4388 63.5188 90.7612 74.2669C92.635 80.0967 96.7599 83.8713 100.214 87.0399C103.821 90.3574 106.625 93.5647 106.272 98.807C105.396 102.092 103.441 104.903 100.738 106.706C89.6542 111.997 76.192 112.443 64.2591 114.351C51.0649 116.042 37.8708 117.733 29.5275 118.375L29.0716 118.521C26.4752 118.761 24.5926 121.633 25.2509 124.339C27.5678 142.665 30.6532 160.828 34.2274 178.947C35.6862 185.874 38.0108 194.506 45.8929 196.053C50.883 197.084 54.5477 193.498 57.419 189.996C60.6315 186.073 64.0456 182.284 68.8977 180.498C79.5975 177.058 91.2787 183.59 94.9687 195.07C98.6587 206.55 92.9707 218.664 82.2708 222.103C78.8956 223.131 75.2952 223.212 71.7905 222.355C61.7667 219.91 51.7969 219.856 51.8674 232.839C52.5649 236.327 53.6546 239.717 55.1198 242.958C62.3608 259.474 72.9073 280.509 79.0619 292.245C80.7565 295.129 83.6619 295.357 86.4208 294.47C106.381 283.606 128.369 266.536 151.118 262.454C154.365 262.345 157.591 263.49 160.218 265.649C163.972 269.26 163.235 274.625 162.347 279.19C161.442 283.787 160.377 289.202 162.366 294.485C166.151 305.849 177.703 312.308 188.373 309.021C199.165 305.212 204.3 293.105 201.039 282.054C199.182 276.276 195.073 272.468 191.643 269.291C188.027 265.948 185.279 262.751 185.56 257.532C186.437 254.247 188.392 251.436 191.094 249.633C194.376 248.068 197.855 246.95 201.434 246.309C218.435 243.367 235.588 241.31 252.69 239.015C256.025 238.85 258.572 236.727 257.35 232.926L257.187 232.582C247.985 214.742 234.966 195.238 231.246 175.182C231.097 171.999 231.918 168.873 233.571 166.274C239.398 157.147 253.281 165.917 261.576 163.393C272.532 159.928 277.798 147.326 274.242 136.426C269.287 126.033 258.177 120.621 247.825 123.495ZM176.071 221.422C176.45 220.79 165.417 200.053 164.225 197.744C160.315 199.001 156.417 199.886 152.279 199.034C148.69 196.929 145.734 193.827 143.703 190.059C140.203 183.619 137.941 176.582 137.033 169.308C136.601 165.083 137.204 160.866 138.79 157.069C140.507 153.599 145.968 152.721 149.251 151.156C148.427 145.301 145.778 128.414 145.379 125.935C142.787 124.87 139.349 124.303 136.638 125.175C125.161 127.844 122.738 143.527 122.541 153.621C123.012 163.897 124.862 174.099 127.999 183.943C131.26 194.087 135.663 203.751 141.511 212.639C149.483 223.111 166.799 236.303 176.071 221.422Z" fill="#38046A"/>
<path fill-rule="evenodd" clip-rule="evenodd" d="M245.837 117.644L245.67 117.698C240.832 119.366 237.435 123.207 234.335 127.15C231.171 131.142 227.945 133.539 222.689 133.245C215.415 130.709 212.983 123.472 211.604 116.463C208.038 98.3695 205.105 80.1857 202.115 61.9916C201.36 60.0526 199.36 58.9384 197.472 59.4038L172.093 73.1718C161.639 78.9405 149.954 86.0683 137.991 88.2134C134.744 88.3221 131.525 87.203 128.939 85.0025C125.931 80.5856 125.955 77.036 126.991 71.9425C127.928 67.3627 129.048 61.8737 127.183 56.0695C123.722 45.1391 112.099 37.9658 101.176 41.5335C90.3489 45.0704 85.4512 57.6672 88.7736 68.4153C90.6475 74.2452 94.7724 78.0198 98.226 81.1883C101.833 84.5059 104.638 87.7131 104.285 92.9554C103.408 96.2407 101.453 99.051 98.7506 100.855C87.6666 106.146 74.2045 106.591 62.2715 108.5C49.0774 110.191 35.8833 111.881 27.5399 112.523L27.0841 112.669C24.4877 112.909 22.6051 115.781 23.2634 118.488C25.5803 136.813 28.6657 154.976 32.2399 173.096C33.6987 180.022 36.0233 188.654 43.9054 190.201C48.8955 191.233 52.5601 187.646 55.4315 184.145C58.6439 180.222 62.0581 176.432 66.9101 174.646C77.61 171.207 89.2912 177.738 92.9812 189.218C96.6712 200.698 90.9831 212.812 80.2833 216.252C76.9081 217.28 73.3076 217.36 69.8029 216.503C59.7792 214.058 49.8093 214.004 49.8798 226.987C50.5774 230.475 51.667 233.865 53.1323 237.106C60.3732 253.622 70.9197 274.658 77.0743 286.394C78.7689 289.278 81.6744 289.506 84.4333 288.619C104.393 277.754 126.381 260.684 149.13 256.602C152.377 256.494 155.604 257.638 158.23 259.798C161.985 263.408 161.248 268.774 160.359 273.338C159.455 277.936 158.389 283.35 160.378 288.633C164.164 299.998 175.716 306.457 186.385 303.169C197.178 299.36 202.313 287.254 199.051 276.203C197.194 270.424 193.085 266.616 189.655 263.44C186.04 260.097 183.292 256.9 183.573 251.68C184.449 248.395 186.404 245.585 189.107 243.781C192.389 242.216 195.867 241.098 199.447 240.458C216.447 237.515 233.6 235.459 250.703 233.163C254.038 232.998 256.585 230.876 255.363 227.075L255.199 226.731C245.997 208.89 232.979 189.386 229.258 169.33C229.109 166.148 229.931 163.022 231.583 160.422C237.411 151.295 251.294 160.065 259.588 157.541C270.544 154.076 275.811 141.474 272.254 130.574C267.299 120.181 256.19 114.77 245.837 117.644Z" fill="url(#paint0_linear)"/>
<path d="M234.727 127.46L234.728 127.459C237.827 123.517 241.145 119.789 245.827 118.172L245.981 118.123C256.064 115.329 266.923 120.587 271.789 130.76C275.254 141.433 270.076 153.698 259.439 157.064C257.471 157.662 255.137 157.599 252.596 157.277C251.329 157.116 250.026 156.893 248.705 156.663L248.39 156.608C247.174 156.396 245.944 156.181 244.73 156.01C239.493 155.274 234.256 155.307 231.162 160.153L231.161 160.154C229.452 162.843 228.605 166.071 228.759 169.354L228.76 169.388L228.767 169.421C230.64 179.519 234.849 189.459 239.727 199.087C242.167 203.903 244.777 208.647 247.35 213.298C247.538 213.638 247.725 213.977 247.913 214.315C250.291 218.613 252.624 222.828 254.751 226.953L254.897 227.259C255.451 229.01 255.125 230.288 254.366 231.153C253.581 232.046 252.258 232.586 250.678 232.664L250.657 232.665L250.636 232.668C246.994 233.156 243.348 233.635 239.701 234.113C226.233 235.879 212.749 237.648 199.361 239.965L199.359 239.965C195.735 240.614 192.214 241.746 188.892 243.33L188.859 243.345L188.829 243.365C186.019 245.241 183.995 248.157 183.09 251.552L183.076 251.602L183.073 251.654C182.779 257.113 185.683 260.448 189.316 263.807C192.753 266.99 196.761 270.716 198.574 276.35C201.767 287.181 196.724 298.984 186.229 302.694C175.852 305.886 164.561 299.61 160.853 288.475L160.85 288.466L160.846 288.457C158.915 283.327 159.941 278.053 160.85 273.435L160.85 273.434C161.295 271.15 161.714 268.609 161.534 266.174C161.354 263.724 160.567 261.351 158.577 259.437L158.563 259.424L158.548 259.412C155.834 257.18 152.49 255.99 149.113 256.103L149.077 256.104L149.042 256.11C137.583 258.166 126.339 263.488 115.489 269.632C110.488 272.464 105.562 275.476 100.734 278.428C100.323 278.679 99.9124 278.93 99.5029 279.18C94.293 282.364 89.2002 285.453 84.236 288.157C82.9254 288.572 81.6233 288.709 80.4709 288.434C79.3257 288.16 78.2905 287.471 77.5114 286.151C71.3587 274.417 60.8224 253.401 53.5902 236.906L53.5879 236.9C52.1449 233.709 51.0701 230.371 50.3796 226.937C50.3686 223.776 50.9669 221.459 51.981 219.787C52.9949 218.116 54.4481 217.05 56.2207 216.432C59.8073 215.18 64.6777 215.768 69.6842 216.989C73.2731 217.867 76.965 217.785 80.429 216.73L80.4363 216.728C91.4302 213.194 97.2213 200.776 93.4572 189.065C89.6931 177.354 77.751 170.636 66.7571 174.17L66.7472 174.173L66.7374 174.177C61.7449 176.015 58.2559 179.906 55.0447 183.828C52.16 187.345 48.6758 190.677 44.0066 189.712L44.0017 189.711C40.2511 188.975 37.8057 186.559 36.1032 183.427C34.3933 180.281 33.459 176.458 32.7298 172.996C29.1575 154.886 26.0744 136.735 23.7594 118.425L23.7559 118.397L23.7492 118.37C23.1534 115.92 24.8768 113.375 27.13 113.167L27.1848 113.162L27.2371 113.145L27.637 113.017C35.9959 112.371 49.1676 110.683 62.3196 108.998L62.3351 108.996L62.3428 108.995L62.3505 108.994C65.2481 108.53 68.2374 108.153 71.2709 107.77L71.5095 107.74C74.6218 107.347 77.7781 106.946 80.9094 106.439C87.1702 105.425 93.361 103.982 98.966 101.306L98.9983 101.291L99.0282 101.271C101.838 99.395 103.862 96.4792 104.768 93.0843L104.78 93.0374L104.784 92.989C105.153 87.5003 102.186 84.1511 98.5645 80.8203L98.5641 80.8199C95.1021 77.6437 91.079 73.951 89.2505 68.265C85.9919 57.7188 90.8201 45.4425 101.331 42.0088C111.947 38.5414 123.315 45.5096 126.706 56.2204L126.707 56.2225C128.527 61.8858 127.44 67.2513 126.501 71.8423L126.501 71.8428C125.98 74.4053 125.702 76.6281 125.952 78.7837C126.203 80.9511 126.983 83.0184 128.526 85.2839L128.564 85.3397L128.615 85.3833C131.294 87.6629 134.634 88.826 138.008 88.7131L138.044 88.7119L138.079 88.7055C148.75 86.7922 159.193 80.9507 168.67 75.6501C169.908 74.9577 171.129 74.2745 172.332 73.6106C172.333 73.6102 172.334 73.6099 172.334 73.6096L197.652 59.8751C199.24 59.5172 200.952 60.4472 201.631 62.1259C201.86 63.5219 202.089 64.9179 202.318 66.3138C205.071 83.0911 207.823 99.8634 211.113 116.56C212.492 123.565 214.963 131.081 222.524 133.717L222.591 133.74L222.661 133.744C225.378 133.896 227.596 133.352 229.544 132.239C231.483 131.132 233.127 129.479 234.727 127.46Z" stroke="white" stroke-opacity="0.11"/>
<path fill-rule="evenodd" clip-rule="evenodd" d="M173.788 213.223C174.197 212.582 162.942 191.919 161.727 189.618C157.596 190.945 153.818 192.743 149.148 191.111C144.522 189.494 142.355 185.984 140.282 182.231C136.71 175.814 134.448 168.778 133.613 161.482C133.229 157.242 133.932 152.993 135.661 149.15C137.523 145.634 143.278 144.662 146.754 143.035C145.985 137.162 143.479 120.232 143.099 117.747C140.392 116.719 136.788 116.206 133.924 117.126C121.816 119.998 119.011 135.803 118.638 145.952C118.964 156.274 120.74 166.498 123.876 176.341C127.137 186.484 131.606 196.126 137.606 204.964C145.813 215.359 163.797 228.334 173.788 213.223Z" fill="#221040"/>
<g filter="url(#filter0_dd)">
<path fill-rule="evenodd" clip-rule="evenodd" d="M173.788 211.223C174.197 210.582 162.942 189.919 161.727 187.618C157.596 188.945 153.818 190.743 149.148 189.111C144.522 187.494 142.355 183.984 140.282 180.231C136.71 173.814 134.448 166.778 133.613 159.482C133.229 155.242 133.932 150.993 135.661 147.15C137.523 143.634 143.278 142.662 146.754 141.035C145.985 135.162 143.479 118.232 143.099 115.747C140.392 114.719 136.788 114.206 133.924 115.126C121.816 117.998 119.011 133.803 118.638 143.952C118.964 154.274 120.74 164.498 123.876 174.341C127.137 184.484 131.606 194.126 137.606 202.964C145.813 213.359 163.797 226.334 173.788 211.223Z" fill="url(#paint1_linear)"/>
</g>
<path d="M133.115 159.527L133.115 159.527L133.116 159.539C133.959 166.9 136.241 174 139.845 180.474C141.92 184.229 144.164 187.898 148.983 189.583C153.19 191.053 156.733 189.842 160.233 188.646C160.649 188.503 161.066 188.361 161.483 188.223C161.707 188.642 162.042 189.266 162.461 190.043C163.768 192.472 165.883 196.401 167.924 200.276C169.381 203.042 170.785 205.752 171.798 207.809C172.306 208.839 172.712 209.698 172.978 210.317C173.111 210.628 173.205 210.867 173.258 211.031C173.265 211.053 173.271 211.073 173.276 211.09C170.859 214.684 167.999 216.578 164.961 217.282C161.87 217.999 158.536 217.496 155.211 216.193C148.556 213.584 142.08 207.819 138.01 202.668C132.045 193.879 127.599 184.287 124.353 174.189C121.232 164.394 119.464 154.222 119.139 143.953C119.325 138.908 120.116 132.493 122.344 126.998C124.574 121.498 128.205 116.996 134.039 115.613L134.058 115.608L134.077 115.602C136.702 114.758 140.04 115.178 142.649 116.114C143.137 119.341 145.417 134.765 146.209 140.733C145.443 141.069 144.573 141.384 143.649 141.711C143.557 141.744 143.466 141.776 143.373 141.809C142.403 142.152 141.385 142.512 140.408 142.923C138.288 143.815 136.237 144.993 135.219 146.916L135.212 146.931L135.205 146.945C133.44 150.867 132.723 155.203 133.115 159.527Z" stroke="white" stroke-opacity="0.26"/>
<g filter="url(#filter1_f)">
<circle cx="138.189" cy="120.058" r="9.07119" transform="rotate(-17.8189 138.189 120.058)" fill="white"/>
</g>
<defs>
<filter id="filter0_dd" x="97.5518" y="102.45" width="87.3919" height="133.297" filterUnits="userSpaceOnUse" color-interpolation-filters="sRGB">
<feFlood flood-opacity="0" result="BackgroundImageFix"/>
<feColorMatrix in="SourceAlpha" type="matrix" values="0 0 0 0 0 0 0 0 0 0 0 0 0 0 0 0 0 0 127 0"/>
<feOffset dx="1" dy="1"/>
<feColorMatrix type="matrix" values="0 0 0 0 0.145098 0 0 0 0 0.0627451 0 0 0 0 0.309804 0 0 0 0.69 0"/>
<feBlend mode="normal" in2="BackgroundImageFix" result="effect1_dropShadow"/>
<feColorMatrix in="SourceAlpha" type="matrix" values="0 0 0 0 0 0 0 0 0 0 0 0 0 0 0 0 0 0 127 0"/>
<feOffset/>
<feGaussianBlur stdDeviation="5"/>
<feColorMatrix type="matrix" values="0 0 0 0 1 0 0 0 0 1 0 0 0 0 1 0 0 0 0.37 0"/>
<feBlend mode="normal" in2="effect1_dropShadow" result="effect2_dropShadow"/>
<feBlend mode="normal" in="SourceGraphic" in2="effect2_dropShadow" result="shape"/>
</filter>
<filter id="filter1_f" x="111.777" y="93.646" width="52.8238" height="52.8238" filterUnits="userSpaceOnUse" color-interpolation-filters="sRGB">
<feFlood flood-opacity="0" result="BackgroundImageFix"/>
<feBlend mode="normal" in="SourceGraphic" in2="BackgroundImageFix" result="shape"/>
<feGaussianBlur stdDeviation="7.5" result="effect1_foregroundBlur"/>
</filter>
<linearGradient id="paint0_linear" x1="189.697" y1="198.784" x2="46.6112" y2="77.2372" gradientUnits="userSpaceOnUse">
<stop stop-color="#450386"/>
<stop offset="1" stop-color="#7B4AFF"/>
</linearGradient>
<linearGradient id="paint1_linear" x1="119.786" y1="119.621" x2="174.944" y2="214.643" gradientUnits="userSpaceOnUse">
<stop stop-color="white"/>
<stop offset="0.777947" stop-color="#BCA1FF"/>
</linearGradient>
</defs>
</svg>
