<?xml version="1.0" encoding="utf-8"?><svg xmlns="http://www.w3.org/2000/svg" xmlns:xlink="http://www.w3.org/1999/xlink"><symbol viewBox="0 0 20 20" fill="none" id="ic20-facebook" xmlns="http://www.w3.org/2000/svg">
<path d="M10 20C15.5228 20 20 15.5228 20 10C20 4.47715 15.5228 0 10 0C4.47715 0 0 4.47715 0 10C0 15.5228 4.47715 20 10 20Z" fill="#3B5998"/>
<path d="M12.5139 10.3914H10.7296V16.9285H8.02608V10.3914H6.7403V8.09398H8.02608V6.6073C8.02608 5.54416 8.53109 3.87939 10.7536 3.87939L12.7562 3.88777V6.1178H11.3032C11.0649 6.1178 10.7297 6.23688 10.7297 6.74402V8.09612H12.7501L12.5139 10.3914Z" fill="white"/>
</symbol><symbol viewBox="0 0 20 20" fill="none" id="ic20-google" xmlns="http://www.w3.org/2000/svg">
<g clip-path="url(#bclip0)">
<path d="M4.43242 12.086L3.73625 14.6849L1.19176 14.7388C0.431328 13.3283 0 11.7146 0 9.99979C0 8.34154 0.403281 6.77779 1.11812 5.40088H1.11867L3.38398 5.81619L4.37633 8.06791C4.16863 8.67342 4.05543 9.32342 4.05543 9.99979C4.05551 10.7338 4.18848 11.4372 4.43242 12.086Z" fill="#FBBB00"/>
<path d="M19.8253 8.13184C19.9402 8.73676 20.0001 9.36148 20.0001 9.99996C20.0001 10.7159 19.9248 11.4143 19.7814 12.0879C19.2946 14.3802 18.0226 16.3818 16.2605 17.7983L13.4067 17.6522L13.0029 15.1313C14.1721 14.4456 15.0858 13.3725 15.5672 12.0879H10.2199V8.13184H15.6452H19.8253Z" fill="#518EF8"/>
<path d="M16.2599 17.7979L16.2604 17.7985C14.5467 19.176 12.3698 20.0001 9.99999 20.0001C6.19174 20.0001 2.88077 17.8716 1.19174 14.7392L4.43241 12.0864C5.2769 14.3403 7.45108 15.9447 9.99999 15.9447C11.0956 15.9447 12.122 15.6485 13.0027 15.1315L16.2599 17.7979Z" fill="#28B446"/>
<path d="M16.3829 2.30219L13.1433 4.95437C12.2318 4.38461 11.1543 4.05547 9.99995 4.05547C7.39335 4.05547 5.1785 5.73348 4.37632 8.06812L1.11862 5.40109H1.11807C2.78237 2.1923 6.1351 0 9.99995 0C12.4263 0 14.651 0.864297 16.3829 2.30219Z" fill="#F14336"/>
</g>
<defs>
<clipPath id="bclip0">
<rect width="20" height="20" fill="white"/>
</clipPath>
</defs>
</symbol><symbol viewBox="0 0 25 24" fill="none" id="ic24-facebook" xmlns="http://www.w3.org/2000/svg">
<g clip-path="url(#cclip0)">
<path d="M12.5 24C19.1274 24 24.5 18.6274 24.5 12C24.5 5.37258 19.1274 0 12.5 0C5.87258 0 0.5 5.37258 0.5 12C0.5 18.6274 5.87258 24 12.5 24Z" fill="#3B5998"/>
<path d="M15.5167 12.4697H13.3755V20.3143H10.1313V12.4697H8.58836V9.71285H10.1313V7.92883C10.1313 6.65306 10.7373 4.65534 13.4044 4.65534L15.8074 4.6654V7.34143H14.0639C13.7779 7.34143 13.3757 7.48432 13.3757 8.0929V9.71542H15.8002L15.5167 12.4697Z" fill="white"/>
</g>
<defs>
<clipPath id="cclip0">
<rect width="24" height="24" fill="white" transform="translate(0.5)"/>
</clipPath>
</defs>
</symbol><symbol viewBox="0 0 24 24" fill="none" id="ic24-google" xmlns="http://www.w3.org/2000/svg">
<g clip-path="url(#dclip0)">
<path d="M5.31891 14.5034L4.4835 17.6221L1.43011 17.6867C0.517594 15.9942 0 14.0578 0 11.9999C0 10.0101 0.483938 8.13355 1.34175 6.48125H1.34241L4.06078 6.97963L5.25159 9.68169C5.00236 10.4083 4.86652 11.1883 4.86652 11.9999C4.86661 12.8808 5.02617 13.7248 5.31891 14.5034Z" fill="#FBBB00"/>
<path d="M23.7904 9.75823C23.9282 10.4841 24 11.2338 24 12C24 12.8591 23.9097 13.6971 23.7376 14.5055C23.1535 17.2563 21.6271 19.6582 19.5126 21.358L16.088 21.1827L15.6034 18.1576C17.0065 17.3347 18.103 16.047 18.6806 14.5055H12.2638V9.75823H18.7742H23.7904Z" fill="#518EF8"/>
<path d="M19.5118 21.3574L19.5124 21.3581C17.456 23.011 14.8436 24 11.9999 24C7.43002 24 3.45684 21.4458 1.43002 17.6869L5.31881 14.5036C6.3322 17.2082 8.94122 19.1335 11.9999 19.1335C13.3146 19.1335 14.5463 18.7781 15.6032 18.1576L19.5118 21.3574Z" fill="#28B446"/>
<path d="M19.6595 2.76262L15.772 5.94525C14.6782 5.26153 13.3852 4.86656 12 4.86656C8.87204 4.86656 6.21423 6.88017 5.2516 9.68175L1.34237 6.48131H1.34171C3.33887 2.63077 7.36215 0 12 0C14.9116 0 17.5813 1.03716 19.6595 2.76262Z" fill="#F14336"/>
</g>
<defs>
<clipPath id="dclip0">
<rect width="24" height="24" fill="white"/>
</clipPath>
</defs>
</symbol><symbol viewBox="0 0 40 40" fill="none" id="ic24-info-fill-blue" xmlns="http://www.w3.org/2000/svg">
<path fill-rule="evenodd" clip-rule="evenodd" d="M20 38C10.0589 38 2 29.9411 2 20C2 10.0588 10.0589 1.99997 20 1.99997C29.9411 1.99997 38 10.0588 38 20C38 29.9411 29.9411 38 20 38ZM21.8 11C21.8 11.9941 20.9941 12.8 20 12.8C19.0059 12.8 18.2 11.9941 18.2 11C18.2 10.0059 19.0059 9.19997 20 9.19997C20.9941 9.19997 21.8 10.0059 21.8 11ZM20 30.8C19.0059 30.8 18.2 29.9941 18.2 29V18.2C18.2 17.2059 19.0059 16.4 20 16.4C20.9941 16.4 21.8 17.2059 21.8 18.2V29C21.8 29.9941 20.9941 30.8 20 30.8Z" fill="#1890FF"/>
</symbol><symbol viewBox="0 0 25 26" fill="none" id="ic25-flex" xmlns="http://www.w3.org/2000/svg">
<path fill-rule="evenodd" clip-rule="evenodd" d="M3.75 3.5C3.33579 3.5 3 3.83579 3 4.25V11.25C3 11.6642 3.33579 12 3.75 12H10.75C11.1642 12 11.5 11.6642 11.5 11.25V4.25C11.5 3.83579 11.1642 3.5 10.75 3.5H3.75ZM4.5 10.5V5H10V10.5H4.5Z" fill="#555770"/>
<path fill-rule="evenodd" clip-rule="evenodd" d="M14.25 3.5C13.8358 3.5 13.5 3.83579 13.5 4.25V11.25C13.5 11.6642 13.8358 12 14.25 12H21.25C21.6642 12 22 11.6642 22 11.25V4.25C22 3.83579 21.6642 3.5 21.25 3.5H14.25ZM15 10.5V5H20.5V10.5H15Z" fill="#555770"/>
<path fill-rule="evenodd" clip-rule="evenodd" d="M3 14.75C3 14.3358 3.33579 14 3.75 14H10.75C11.1642 14 11.5 14.3358 11.5 14.75V21.75C11.5 22.1642 11.1642 22.5 10.75 22.5H3.75C3.33579 22.5 3 22.1642 3 21.75V14.75ZM4.5 15.5V21H10V15.5H4.5Z" fill="#555770"/>
<path fill-rule="evenodd" clip-rule="evenodd" d="M14.25 14C13.8358 14 13.5 14.3358 13.5 14.75V21.75C13.5 22.1642 13.8358 22.5 14.25 22.5H21.25C21.6642 22.5 22 22.1642 22 21.75V14.75C22 14.3358 21.6642 14 21.25 14H14.25ZM15 21V15.5H20.5V21H15Z" fill="#555770"/>
</symbol><symbol viewBox="0 0 25 26" fill="none" id="ic25-layouts" xmlns="http://www.w3.org/2000/svg">
<path fill-rule="evenodd" clip-rule="evenodd" d="M3.75 3.5C3.33579 3.5 3 3.83579 3 4.25V11.25C3 11.6642 3.33579 12 3.75 12H10.75C11.1642 12 11.5 11.6642 11.5 11.25V4.25C11.5 3.83579 11.1642 3.5 10.75 3.5H3.75ZM4.5 10.5V5H10V10.5H4.5Z" fill="#555770"/>
<path fill-rule="evenodd" clip-rule="evenodd" d="M14.25 3.5C13.8358 3.5 13.5 3.83579 13.5 4.25V11.25C13.5 11.6642 13.8358 12 14.25 12H21.25C21.6642 12 22 11.6642 22 11.25V4.25C22 3.83579 21.6642 3.5 21.25 3.5H14.25ZM15 10.5V5H20.5V10.5H15Z" fill="#555770"/>
<path fill-rule="evenodd" clip-rule="evenodd" d="M3 14.75C3 14.3358 3.33579 14 3.75 14H10.75C11.1642 14 11.5 14.3358 11.5 14.75V21.75C11.5 22.1642 11.1642 22.5 10.75 22.5H3.75C3.33579 22.5 3 22.1642 3 21.75V14.75ZM4.5 15.5V21H10V15.5H4.5Z" fill="#555770"/>
<path fill-rule="evenodd" clip-rule="evenodd" d="M14.25 14C13.8358 14 13.5 14.3358 13.5 14.75V21.75C13.5 22.1642 13.8358 22.5 14.25 22.5H21.25C21.6642 22.5 22 22.1642 22 21.75V14.75C22 14.3358 21.6642 14 21.25 14H14.25ZM15 21V15.5H20.5V21H15Z" fill="#555770"/>
</symbol><symbol viewBox="0 0 25 26" fill="none" id="ic25-mic-on" xmlns="http://www.w3.org/2000/svg">
<path d="M10 14.5C10 13.9477 10.4477 13.5 11 13.5H14.5C15.0523 13.5 15.5 13.9477 15.5 14.5C15.5 15.0523 15.0523 15.5 14.5 15.5H11C10.4477 15.5 10 15.0523 10 14.5Z" fill="var(--sui-icon-color)"/>
<path fill-rule="evenodd" clip-rule="evenodd" d="M12.75 3.5C10.6788 3.5 9 5.17879 9 7.25V13.25C9 15.3212 10.6788 17 12.75 17C14.8212 17 16.5 15.3212 16.5 13.25V7.25C16.5 5.17879 14.8212 3.5 12.75 3.5ZM10.5 7.25C10.5 6.00721 11.5072 5 12.75 5C13.9928 5 15 6.00721 15 7.25V13.25C15 14.4928 13.9928 15.5 12.75 15.5C11.5072 15.5 10.5 14.4928 10.5 13.25V7.25Z" fill="var(--sui-icon-color)"/>
<path d="M7.5 11.25C7.5 10.8358 7.16421 10.5 6.75 10.5C6.33579 10.5 6 10.8358 6 11.25V13.25C6 16.7247 8.62481 19.5858 12 19.9588V21.5H9.75C9.33579 21.5 9 21.8358 9 22.25C9 22.6642 9.33579 23 9.75 23H15.75C16.1642 23 16.5 22.6642 16.5 22.25C16.5 21.8358 16.1642 21.5 15.75 21.5H13.5V19.9588C16.8752 19.5858 19.5 16.7247 19.5 13.25V11.25C19.5 10.8358 19.1642 10.5 18.75 10.5C18.3358 10.5 18 10.8358 18 11.25V13.25C18 16.1498 15.6498 18.5 12.75 18.5C9.85021 18.5 7.5 16.1498 7.5 13.25V11.25Z" fill="var(--sui-icon-color)"/>
</symbol><symbol viewBox="0 0 24 24" fill="none" id="ic25-more" xmlns="http://www.w3.org/2000/svg">
<path fill-rule="evenodd" clip-rule="evenodd" d="M12.491 4C11.6661 4 10.9911 4.67498 11.0001 5.49996C11.0001 6.32493 11.6751 6.99991 12.5 6.99991C13.325 6.99991 14 6.32493 14 5.49996C14 4.67498 13.325 4 12.491 4Z" fill="var(--sui-icon-color)"/>
<path fill-rule="evenodd" clip-rule="evenodd" d="M12.491 10.9999C11.6661 10.9999 10.9911 11.6749 11.0001 12.4999C11.0001 13.3248 11.6751 13.9998 12.5 13.9998C13.325 13.9998 14 13.3248 14 12.4999C14 11.6749 13.325 10.9999 12.491 10.9999Z" fill="var(--sui-icon-color)"/>
<path fill-rule="evenodd" clip-rule="evenodd" d="M12.491 17.9998C11.6661 17.9998 10.9911 18.6748 11.0001 19.4998C11.0001 20.3248 11.6751 20.9997 12.5 20.9997C13.325 20.9997 14 20.3248 14 19.4998C14 18.6748 13.325 17.9998 12.491 17.9998Z" fill="var(--sui-icon-color)"/>
</symbol><symbol viewBox="0 0 25 26" fill="none" id="ic25-mic-off" xmlns="http://www.w3.org/2000/svg">
<path d="M10.5 7.25C10.5 6.00721 11.5072 5 12.75 5C13.9928 5 15 6.00721 15 7.25V12.75C15 13.1642 15.3358 13.5 15.75 13.5C16.1642 13.5 16.5 13.1642 16.5 12.75V7.25C16.5 5.17879 14.8212 3.5 12.75 3.5C10.6788 3.5 9 5.17879 9 7.25V8.75C9 9.16421 9.33579 9.5 9.75 9.5C10.1642 9.5 10.5 9.16421 10.5 8.75V7.25Z" fill="#C7C8D9"/>
<path d="M10.5 13.5C10.5 13.0858 10.1642 12.75 9.75 12.75C9.33579 12.75 9 13.0858 9 13.5C9 15.5712 10.928 17 12.9992 17C13.8655 17 14.4475 16.8765 14.8233 16.6177C15.0303 16.4752 15.1779 16.2887 15.2524 16.0744C15.2879 15.9725 15.3021 15.8773 15.3047 15.7955C15.306 15.755 15.3044 15.718 15.3014 15.6853C15.2998 15.6689 15.2979 15.6536 15.2957 15.6393L15.2923 15.6187L15.2905 15.609L15.2896 15.6043L15.2892 15.6019C15.2892 15.6019 15.2887 15.5996 14.5539 15.75L15.2887 15.5996C15.2057 15.1938 14.8094 14.9322 14.4036 15.0152C14.3738 15.0213 14.305 15.0563 14.2094 15.1048C13.9324 15.2455 13.4305 15.5006 12.9992 15.5C11.8238 15.4985 10.5 14.5 10.5 13.5Z" fill="#C7C8D9"/>
<path d="M12.0021 19.451C10.0562 19.2539 8.53687 18.4655 7.47957 17.1594C6.26941 15.6645 6 13.5961 6 11.25C6 10.8358 6.33579 10.5 6.75 10.5C7.16421 10.5 7.5 10.8358 7.5 11.25C7.5 13.4039 7.73059 15.0855 8.64543 16.2156C9.53867 17.319 10.9299 18 13 18H13.0083C13.0551 18 13.1086 18.0016 13.169 18.0033C13.691 18.0184 14.7261 18.0484 16.377 17.223C16.7475 17.0377 17.198 17.1879 17.3833 17.5584C17.5685 17.9289 17.4183 18.3794 17.0479 18.5646C15.3606 19.4082 14.1991 19.5069 13.5005 19.5079V21.5H16.0005C16.4147 21.5 16.7505 21.8358 16.7505 22.25C16.7505 22.6642 16.4147 23 16.0005 23H9.76221C9.34799 23 9.01221 22.6642 9.01221 22.25C9.01221 21.8358 9.34799 21.5 9.76221 21.5H12.0005V19.5C12.0005 19.4836 12.001 19.4672 12.0021 19.451Z" fill="#C7C8D9"/>
<path d="M19.4999 11.2513C19.4999 10.8371 19.1642 10.5013 18.7499 10.5013C18.3357 10.5013 17.9999 10.8371 17.9999 11.2513C17.9999 13.3082 17.9835 14.2032 17.5792 15.0119C17.3939 15.3824 17.5441 15.8329 17.9146 16.0181C18.2851 16.2034 18.7356 16.0532 18.9208 15.6827C19.5007 14.523 19.5004 13.258 19.5 11.4041L19.4999 11.2513Z" fill="#C7C8D9"/>
<path d="M5 2.5L21 23.5" stroke="#FF7875" stroke-width="1.5" stroke-linecap="round" stroke-linejoin="round"/>
</symbol><symbol viewBox="0 0 25 26" fill="none" id="ic25-portrait-on" xmlns="http://www.w3.org/2000/svg">
<path d="M6.65385 4.96154C5.44293 4.96154 4.46154 5.94293 4.46154 7.15385C4.46154 7.55744 4.13436 7.88462 3.73077 7.88462C3.32718 7.88462 3 7.55744 3 7.15385C3 5.13574 4.63574 3.5 6.65385 3.5C7.05744 3.5 7.38462 3.82718 7.38462 4.23077C7.38462 4.63436 7.05744 4.96154 6.65385 4.96154Z" fill="#555770"/>
<path d="M21.2692 18.1154C21.6728 18.1154 22 18.4426 22 18.8462C22 20.8643 20.3643 22.5 18.3462 22.5H6.65385C4.63574 22.5 3 20.8643 3 18.8462C3 18.4426 3.32718 18.1154 3.73077 18.1154C4.13436 18.1154 4.46154 18.4426 4.46154 18.8462C4.46154 20.0571 5.44293 21.0385 6.65385 21.0385H18.3462C19.5571 21.0385 20.5385 20.0571 20.5385 18.8462C20.5385 18.4426 20.8656 18.1154 21.2692 18.1154Z" fill="#555770"/>
<path d="M17.6154 4.23077C17.6154 3.82718 17.9426 3.5 18.3462 3.5C20.3643 3.5 22 5.13574 22 7.15385C22 7.55744 21.6728 7.88462 21.2692 7.88462C20.8656 7.88462 20.5385 7.55744 20.5385 7.15385C20.5385 5.94293 19.5571 4.96154 18.3462 4.96154C17.9426 4.96154 17.6154 4.63436 17.6154 4.23077Z" fill="#555770"/>
<path d="M4.46154 14.5833C4.46154 14.1797 4.13436 13.8526 3.73077 13.8526C3.32718 13.8526 3 14.1797 3 14.5833V15.8013C3 16.2049 3.32718 16.5321 3.73077 16.5321C4.13436 16.5321 4.46154 16.2049 4.46154 15.8013V14.5833Z" fill="#555770"/>
<path d="M3.73077 9.46795C4.13436 9.46795 4.46154 9.79513 4.46154 10.1987V11.4167C4.46154 11.8203 4.13436 12.1474 3.73077 12.1474C3.32718 12.1474 3 11.8203 3 11.4167V10.1987C3 9.79513 3.32718 9.46795 3.73077 9.46795Z" fill="#555770"/>
<path d="M22 10.1987C22 9.79513 21.6728 9.46795 21.2692 9.46795C20.8656 9.46795 20.5385 9.79513 20.5385 10.1987V11.4167C20.5385 11.8203 20.8656 12.1474 21.2692 12.1474C21.6728 12.1474 22 11.8203 22 11.4167V10.1987Z" fill="#555770"/>
<path d="M21.2692 13.8526C21.6728 13.8526 22 14.1797 22 14.5833V15.8013C22 16.2049 21.6728 16.5321 21.2692 16.5321C20.8656 16.5321 20.5385 16.2049 20.5385 15.8013V14.5833C20.5385 14.1797 20.8656 13.8526 21.2692 13.8526Z" fill="#555770"/>
<path d="M8.96795 4.23077C8.96795 3.82718 9.29513 3.5 9.69872 3.5H10.9167C11.3203 3.5 11.6474 3.82718 11.6474 4.23077C11.6474 4.63436 11.3203 4.96154 10.9167 4.96154H9.69872C9.29513 4.96154 8.96795 4.63436 8.96795 4.23077Z" fill="#555770"/>
<path d="M14.0833 3.5C13.6797 3.5 13.3526 3.82718 13.3526 4.23077C13.3526 4.63436 13.6797 4.96154 14.0833 4.96154H15.3013C15.7049 4.96154 16.0321 4.63436 16.0321 4.23077C16.0321 3.82718 15.7049 3.5 15.3013 3.5H14.0833Z" fill="#555770"/>
<path fill-rule="evenodd" clip-rule="evenodd" d="M7.01426 20.8005C7.45667 18.3467 9.8805 16.75 12.4998 16.75C15.119 16.75 17.5428 18.3467 17.9853 20.8005C18.0621 21.2267 17.8259 21.6443 17.4577 21.7332C17.0896 21.8222 16.7288 21.5488 16.652 21.1226C16.397 19.7086 14.7929 18.3266 12.4998 18.3266C10.2066 18.3266 8.6025 19.7086 8.34756 21.1226C8.27072 21.5488 7.90996 21.8222 7.54178 21.7332C7.1736 21.6443 6.93742 21.2267 7.01426 20.8005Z" fill="#555770"/>
<path fill-rule="evenodd" clip-rule="evenodd" d="M13.9849 10.7651C13.1648 9.94498 11.8352 9.94498 11.0151 10.7651C10.195 11.5852 10.195 12.9148 11.0151 13.7349C11.8352 14.555 13.1648 14.555 13.9849 13.7349C14.805 12.9148 14.805 11.5852 13.9849 10.7651ZM14.9749 9.77513C13.608 8.40829 11.392 8.40829 10.0251 9.77513C8.65829 11.142 8.65829 13.358 10.0251 14.7249C11.392 16.0917 13.608 16.0917 14.9749 14.7249C16.3417 13.358 16.3417 11.142 14.9749 9.77513Z" fill="#555770"/>
</symbol><symbol viewBox="0 0 25 26" fill="none" id="ic25-portrait-off" xmlns="http://www.w3.org/2000/svg">
<path d="M6.65385 4.96154C5.44293 4.96154 4.46154 5.94293 4.46154 7.15385C4.46154 7.55744 4.13436 7.88462 3.73077 7.88462C3.32718 7.88462 3 7.55744 3 7.15385C3 5.13574 4.63574 3.5 6.65385 3.5C7.05744 3.5 7.38462 3.82718 7.38462 4.23077C7.38462 4.63436 7.05744 4.96154 6.65385 4.96154Z" fill="#C7C8D9"/>
<path d="M21.2692 18.1154C21.6728 18.1154 22 18.4426 22 18.8462C22 20.8643 20.3643 22.5 18.3462 22.5H6.65385C4.63574 22.5 3 20.8643 3 18.8462C3 18.4426 3.32718 18.1154 3.73077 18.1154C4.13436 18.1154 4.46154 18.4426 4.46154 18.8462C4.46154 20.0571 5.44293 21.0385 6.65385 21.0385H18.3462C19.5571 21.0385 20.5385 20.0571 20.5385 18.8462C20.5385 18.4426 20.8656 18.1154 21.2692 18.1154Z" fill="#C7C8D9"/>
<path d="M17.6154 4.23077C17.6154 3.82718 17.9426 3.5 18.3462 3.5C20.3643 3.5 22 5.13574 22 7.15385C22 7.55744 21.6728 7.88462 21.2692 7.88462C20.8656 7.88462 20.5385 7.55744 20.5385 7.15385C20.5385 5.94293 19.5571 4.96154 18.3462 4.96154C17.9426 4.96154 17.6154 4.63436 17.6154 4.23077Z" fill="#C7C8D9"/>
<path d="M4.46154 14.5833C4.46154 14.1797 4.13436 13.8526 3.73077 13.8526C3.32718 13.8526 3 14.1797 3 14.5833V15.8013C3 16.2049 3.32718 16.5321 3.73077 16.5321C4.13436 16.5321 4.46154 16.2049 4.46154 15.8013V14.5833Z" fill="#C7C8D9"/>
<path d="M3.73077 9.46795C4.13436 9.46795 4.46154 9.79513 4.46154 10.1987V11.4167C4.46154 11.8203 4.13436 12.1474 3.73077 12.1474C3.32718 12.1474 3 11.8203 3 11.4167V10.1987C3 9.79513 3.32718 9.46795 3.73077 9.46795Z" fill="#C7C8D9"/>
<path d="M22 10.1987C22 9.79513 21.6728 9.46795 21.2692 9.46795C20.8656 9.46795 20.5385 9.79513 20.5385 10.1987V11.4167C20.5385 11.8203 20.8656 12.1474 21.2692 12.1474C21.6728 12.1474 22 11.8203 22 11.4167V10.1987Z" fill="#C7C8D9"/>
<path d="M21.2692 13.8526C21.6728 13.8526 22 14.1797 22 14.5833V15.8013C22 16.2049 21.6728 16.5321 21.2692 16.5321C20.8656 16.5321 20.5385 16.2049 20.5385 15.8013V14.5833C20.5385 14.1797 20.8656 13.8526 21.2692 13.8526Z" fill="#C7C8D9"/>
<path d="M8.96795 4.23077C8.96795 3.82718 9.29513 3.5 9.69872 3.5H10.9167C11.3203 3.5 11.6474 3.82718 11.6474 4.23077C11.6474 4.63436 11.3203 4.96154 10.9167 4.96154H9.69872C9.29513 4.96154 8.96795 4.63436 8.96795 4.23077Z" fill="#C7C8D9"/>
<path d="M14.0833 3.5C13.6797 3.5 13.3526 3.82718 13.3526 4.23077C13.3526 4.63436 13.6797 4.96154 14.0833 4.96154H15.3013C15.7049 4.96154 16.0321 4.63436 16.0321 4.23077C16.0321 3.82718 15.7049 3.5 15.3013 3.5H14.0833Z" fill="#C7C8D9"/>
<path fill-rule="evenodd" clip-rule="evenodd" d="M7.01426 20.8005C7.45667 18.3467 9.8805 16.75 12.4998 16.75C15.119 16.75 17.5428 18.3467 17.9853 20.8005C18.0621 21.2267 17.8259 21.6443 17.4577 21.7332C17.0896 21.8222 16.7288 21.5488 16.652 21.1226C16.397 19.7086 14.7929 18.3266 12.4998 18.3266C10.2066 18.3266 8.6025 19.7086 8.34756 21.1226C8.27072 21.5488 7.90996 21.8222 7.54178 21.7332C7.1736 21.6443 6.93742 21.2267 7.01426 20.8005Z" fill="#C7C8D9"/>
<path fill-rule="evenodd" clip-rule="evenodd" d="M13.9849 10.7651C13.1648 9.94498 11.8352 9.94498 11.0151 10.7651C10.195 11.5852 10.195 12.9148 11.0151 13.7349C11.8352 14.555 13.1648 14.555 13.9849 13.7349C14.805 12.9148 14.805 11.5852 13.9849 10.7651ZM14.9749 9.77513C13.608 8.40829 11.392 8.40829 10.0251 9.77513C8.65829 11.142 8.65829 13.358 10.0251 14.7249C11.392 16.0917 13.608 16.0917 14.9749 14.7249C16.3417 13.358 16.3417 11.142 14.9749 9.77513Z" fill="#C7C8D9"/>
</symbol><symbol viewBox="0 0 24 24" fill="none" id="ic25-settings" xmlns="http://www.w3.org/2000/svg">
<path fill-rule="evenodd" clip-rule="evenodd" d="M12 5.52V6.72H20.4C20.7977 6.72 21.12 7.04235 21.12 7.44C21.12 7.83765 20.7977 8.16 20.4 8.16H12V9.36C12 10.2876 11.0076 11.28 10.08 11.28H8.16001C7.23244 11.28 6.72001 10.2876 6.72001 9.36V8.16H3.6C3.20236 8.16 2.88 7.83765 2.88 7.44C2.88 7.04235 3.20236 6.72 3.6 6.72H6.72001V5.52C6.72001 4.59244 7.47244 3.84 8.40001 3.84H10.32C11.2476 3.84 12 4.59244 12 5.52ZM8.16001 5.52C8.16001 5.38773 8.26773 5.28 8.40001 5.28H10.32C10.4523 5.28 10.56 5.38773 10.56 5.52V9.36C10.56 9.49227 10.4523 9.6 10.32 9.6H8.40001C8.26773 9.6 8.16001 9.49227 8.16001 9.36V5.52Z" fill="var(--sui-icon-color)"/>
<path fill-rule="evenodd" clip-rule="evenodd" d="M12 18.96V17.76H3.60375C3.20611 17.76 2.88375 17.4376 2.88375 17.04C2.88375 16.6424 3.20611 16.32 3.60375 16.32H12V15.12C12 14.1924 12.7525 13.44 13.68 13.44H15.6C16.5276 13.44 17.28 14.1924 17.28 15.12V16.32H20.4C20.7977 16.32 21.12 16.6424 21.12 17.04C21.12 17.4376 20.7977 17.76 20.4 17.76H17.28V18.96C17.28 19.8876 16.5276 20.64 15.6 20.64H13.68C12.7525 20.64 12 19.8876 12 18.96ZM13.44 15.12C13.44 14.9877 13.5477 14.88 13.68 14.88H15.6C15.7323 14.88 15.84 14.9877 15.84 15.12V18.96C15.84 19.0923 15.7323 19.2 15.6 19.2H13.68C13.5477 19.2 13.44 19.0923 13.44 18.96V15.12Z" fill="var(--sui-icon-color)"/>
</symbol><symbol viewBox="0 0 25 26" fill="none" id="ic25-video-off" xmlns="http://www.w3.org/2000/svg">
<path fill-rule="evenodd" clip-rule="evenodd" d="M5.74976 7C4.50712 7 3.49976 8.00736 3.49976 9.25V16.25C3.49976 17.4926 4.50712 18.5 5.74976 18.5H12.7498C13.164 18.5 13.4998 18.8358 13.4998 19.25C13.4998 19.6642 13.164 20 12.7498 20H5.74976C3.67869 20 1.99976 18.3211 1.99976 16.25V9.25C1.99976 7.17893 3.67869 5.5 5.74976 5.5V7ZM8.24999 6.25C8.24999 5.83579 8.58578 5.5 8.99999 5.5H13.7506C15.822 5.5 17.4998 7.17921 17.4998 9.25V16.3191C17.4998 17.6316 16.7592 18.8317 15.5861 19.4203L14.9134 18.0797C15.5793 17.7455 15.9998 17.0642 15.9998 16.3191V9.25C15.9998 8.00708 14.993 7 13.7506 7H8.99999C8.58578 7 8.24999 6.66421 8.24999 6.25Z" fill="#C7C8D9"/>
<path d="M3 2.5L19 23.5" stroke="#FF7875" stroke-width="1.5" stroke-linecap="round" stroke-linejoin="round"/>
<path fill-rule="evenodd" clip-rule="evenodd" d="M20.0003 7.90677C21.2274 6.91853 23.0505 7.7927 23.0505 9.36707V15.54C23.0505 17.1145 21.2565 18.0727 20.0294 17.084L16.5592 14.265C16.2365 14.0053 16.1855 13.5332 16.4452 13.2105C16.7048 12.8878 17.177 12.8368 17.4997 13.0964L20.9702 15.9157C21.2151 16.113 21.5505 15.8555 21.5505 15.54V9.36707C21.5505 9.05158 21.186 8.87777 20.9411 9.07509L17.0544 12.1141C16.7317 12.3738 15.9999 12 15.9999 12C15.9999 12 16.1774 10.7597 16.5001 10.5L20.0003 7.90677Z" fill="#C7C8D9"/>
</symbol><symbol viewBox="0 0 25 26" fill="none" id="ic25-video-on" xmlns="http://www.w3.org/2000/svg">
<path d="M12 13C12 14.3807 10.8807 15.5 9.5 15.5C8.11929 15.5 7 14.3807 7 13C7 11.6193 8.11929 10.5 9.5 10.5C10.8807 10.5 12 11.6193 12 13Z" fill="#5AD677"/>
<path fill-rule="evenodd" clip-rule="evenodd" d="M5.75 5.5C3.67893 5.5 2 7.17893 2 9.25V16.25C2 18.3211 3.67893 20 5.75 20H13.75C15.8211 20 17.5 18.3211 17.5 16.25V15.1048L20.003 17.0939C21.2085 18.0532 23 17.205 23 15.6774V9.32257C23 7.79511 21.2089 6.94699 20.0033 7.90579L17.5 9.8952V9.25C17.5 7.17893 15.8211 5.5 13.75 5.5H5.75ZM17.5 11.7632L20.9276 9.0393C21.1682 8.84786 21.5263 9.01649 21.5263 9.32257V15.6774C21.5263 15.9835 21.1678 16.1519 20.9272 15.9604L17.5 13.2368V11.7632ZM16 9.25C16 8.00736 14.9926 7 13.75 7H5.75C4.50736 7 3.5 8.00736 3.5 9.25V16.25C3.5 17.4926 4.50736 18.5 5.75 18.5H13.75C14.9926 18.5 16 17.4926 16 16.25V9.25Z" fill="var(--sui-icon-color)"/>
</symbol><symbol viewBox="0 0 20 20" fill="none" id="ic25-contact-video-on" xmlns="http://www.w3.org/2000/svg">
    <path fill-rule="evenodd" clip-rule="evenodd" d="M3 7.4C3 6.07452 4.07452 5 5.4 5H11.3501C12.6756 5 13.7501 6.07452 13.7501 7.4V12.6C13.7501 13.9255 12.6756 15 11.3501 15H5.4C4.07452 15 3 13.9255 3 12.6V7.4ZM5.4 6.5C4.90294 6.5 4.5 6.90294 4.5 7.4V12.6C4.5 13.0971 4.90294 13.5 5.4 13.5H11.3501C11.8472 13.5 12.2501 13.0971 12.2501 12.6V7.4C12.2501 6.90294 11.8472 6.5 11.3501 6.5H5.4Z" fill="#8E90A6"/>
    <path fill-rule="evenodd" clip-rule="evenodd" d="M15.5 7.96725L13.75 8.90151V11.0987L15.5 12.1645V7.96725ZM15.0566 6.46006C15.8873 5.90626 17 6.50175 17 7.50012V12.6316C17 13.63 15.8873 14.2255 15.0566 13.6717L12.25 11.9015V8.09874L15.0566 6.46006Z" fill="#8E90A6"/>
</symbol><symbol viewBox="0 0 20 20" fill="none"  id="ic25-contact-video-off" xmlns="http://www.w3.org/2000/svg">
    <path fill-rule="evenodd" clip-rule="evenodd" d="M11 6.75H5V5.25H11C12.5188 5.25 13.75 6.48122 13.75 8V14H12.25V8C12.25 7.30964 11.6904 6.75 11 6.75ZM4 7.75C4.41421 7.75 4.75 8.08579 4.75 8.5V12C4.75 12.6904 5.30964 13.25 6 13.25H9.5C9.91421 13.25 10.25 13.5858 10.25 14C10.25 14.4142 9.91421 14.75 9.5 14.75H6C4.48122 14.75 3.25 13.5188 3.25 12V8.5C3.25 8.08579 3.58579 7.75 4 7.75Z" fill="#8E90A6"/>
    <path fill-rule="evenodd" clip-rule="evenodd" d="M2.96967 3.96967C3.26256 3.67678 3.73744 3.67678 4.03033 3.96967L14.5303 14.4697C14.8232 14.7626 14.8232 15.2374 14.5303 15.5303C14.2374 15.8232 13.7626 15.8232 13.4697 15.5303L2.96967 5.03033C2.67678 4.73744 2.67678 4.26256 2.96967 3.96967Z" fill="#FF7875"/>
    <path fill-rule="evenodd" clip-rule="evenodd" d="M15.5 7.96725L13.75 8.90151V11.0987L15.5 12.1645V7.96725ZM15.0566 6.46006C15.8873 5.90626 17 6.50175 17 7.50012V12.6316C17 13.63 15.8873 14.2255 15.0566 13.6717L12.25 11.9015V8.09874L15.0566 6.46006Z" fill="#8E90A6"/>
</symbol><symbol viewBox="0 0 20 20" fill="none" id="ic25-contact-mic-on" xmlns="http://www.w3.org/2000/svg">
    <path fill-rule="evenodd" clip-rule="evenodd" d="M4.6875 9.24609C5.10171 9.24609 5.4375 9.58188 5.4375 9.99609C5.4375 12.5156 7.48046 14.5586 10 14.5586C12.5195 14.5586 14.5625 12.5156 14.5625 9.99609C14.5625 9.58188 14.8983 9.24609 15.3125 9.24609C15.7267 9.24609 16.0625 9.58188 16.0625 9.99609C16.0625 13.3441 13.348 16.0586 10 16.0586C6.65204 16.0586 3.9375 13.3441 3.9375 9.99609C3.9375 9.58188 4.27329 9.24609 4.6875 9.24609Z" fill="#8E90A6"/>
    <path fill-rule="evenodd" clip-rule="evenodd" d="M9.75 14.5625C10.1642 14.5625 10.5 14.8983 10.5 15.3125V17.1C10.5 17.5142 10.1642 17.85 9.75 17.85C9.33579 17.85 9 17.5142 9 17.1V15.3125C9 14.8983 9.33579 14.5625 9.75 14.5625Z" fill="#8E90A6"/>
    <path fill-rule="evenodd" clip-rule="evenodd" d="M7.25 4.91952C7.25 3.417 8.51112 2.25 10 2.25C11.4889 2.25 12.75 3.417 12.75 4.91952V10.0805C12.75 11.583 11.4889 12.75 10 12.75C8.51112 12.75 7.25 11.583 7.25 10.0805V4.91952ZM10 3.75C9.28088 3.75 8.75 4.30289 8.75 4.91952V10.0805C8.75 10.6971 9.28088 11.25 10 11.25C10.7191 11.25 11.25 10.6971 11.25 10.0805V4.91952C11.25 4.30289 10.7191 3.75 10 3.75Z" fill="#8E90A6"/>
</symbol><symbol viewBox="0 0 20 20" fill="none" id="ic25-contact-mic-off" xmlns="http://www.w3.org/2000/svg">
    <path fill-rule="evenodd" clip-rule="evenodd" d="M4.6875 9.24609C5.10171 9.24609 5.4375 9.58188 5.4375 9.99609C5.4375 12.5156 7.48046 14.5586 10 14.5586C12.5195 14.5586 14.5625 12.5156 14.5625 9.99609C14.5625 9.58188 14.8983 9.24609 15.3125 9.24609C15.7267 9.24609 16.0625 9.58188 16.0625 9.99609C16.0625 13.3441 13.348 16.0586 10 16.0586C6.65204 16.0586 3.9375 13.3441 3.9375 9.99609C3.9375 9.58188 4.27329 9.24609 4.6875 9.24609Z" fill="#8E90A6"/>
    <path fill-rule="evenodd" clip-rule="evenodd" d="M8.1084 3.18111C8.62716 2.58447 9.32889 2.37695 10 2.37695C11.4492 2.37695 12.625 3.55274 12.625 5.00195V9.24546C12.625 9.65967 12.2892 9.99546 11.875 9.99546C11.4608 9.99546 11.125 9.65967 11.125 9.24546V5.00195C11.125 4.38117 10.6208 3.87695 10 3.87695C9.63611 3.87695 9.40034 3.98133 9.24035 4.16532C9.06479 4.36724 8.875 4.78577 8.875 5.62573C8.875 6.03995 8.53921 6.37573 8.125 6.37573C7.71079 6.37573 7.375 6.03995 7.375 5.62573C7.375 4.59069 7.60521 3.75984 8.1084 3.18111ZM8.125 8.62573C8.53921 8.62573 8.875 8.96152 8.875 9.37573V10.0432C8.875 10.664 9.37921 11.1682 10 11.1682C10.4142 11.1682 10.75 11.504 10.75 11.9182C10.75 12.3324 10.4142 12.6682 10 12.6682C8.55079 12.6682 7.375 11.4924 7.375 10.0432V9.37573C7.375 8.96152 7.71079 8.62573 8.125 8.62573Z" fill="#8E90A6"/>
    <path fill-rule="evenodd" clip-rule="evenodd" d="M9.75 14.5625C10.1642 14.5625 10.5 14.8983 10.5 15.3125V17.1C10.5 17.5142 10.1642 17.85 9.75 17.85C9.33579 17.85 9 17.5142 9 17.1V15.3125C9 14.8983 9.33579 14.5625 9.75 14.5625Z" fill="#8E90A6"/>
    <path fill-rule="evenodd" clip-rule="evenodd" d="M3.84467 5.09467C4.13756 4.80178 4.61244 4.80178 4.90533 5.09467L15.5303 15.7197C15.8232 16.0126 15.8232 16.4874 15.5303 16.7803C15.2374 17.0732 14.7626 17.0732 14.4697 16.7803L3.84467 6.15533C3.55178 5.86244 3.55178 5.38756 3.84467 5.09467Z" fill="#FF7875"/>
</symbol>
    <symbol viewBox="0 0 36 36" fill="none" id="ic36-info-fill-blue" xmlns="http://www.w3.org/2000/svg">
<path fill-rule="evenodd" clip-rule="evenodd" d="M18 36C8.05888 36 8.69081e-07 27.9411 0 18C-8.6908e-07 8.05885 8.05887 -2.96485e-05 18 -3.05176e-05C27.9411 -3.13867e-05 36 8.05884 36 18C36 27.9411 27.9411 36 18 36ZM19.8 8.99997C19.8 9.99408 18.9941 10.8 18 10.8C17.0059 10.8 16.2 9.99408 16.2 8.99997C16.2 8.00586 17.0059 7.19997 18 7.19997C18.9941 7.19997 19.8 8.00586 19.8 8.99997ZM18 28.8C17.0059 28.8 16.2 27.9941 16.2 27V16.2C16.2 15.2059 17.0059 14.4 18 14.4C18.9941 14.4 19.8 15.2059 19.8 16.2V27C19.8 27.9941 18.9941 28.8 18 28.8Z" fill="#1890FF"/>
</symbol>
<symbol viewBox="0 0 25 25" fill="none" id="ic25-download" xmlns="http://www.w3.org/2000/svg">
<path fill-rule="evenodd" clip-rule="evenodd" d="M12.7843 15.6714C12.3711 15.6714 12.0003 15.3358 12.0003 14.9216V6.06043L9.72277 8.33794C9.42988 8.63083 8.955 8.63083 8.66211 8.33794C8.36921 8.04504 8.36921 7.57016 8.66211 7.27727L12.2196 3.71979C12.3137 3.62572 12.5599 3.50006 12.7843 3.5C13.0155 3.49994 13.1917 3.58978 13.3283 3.73375L16.8718 7.27716C17.1647 7.57006 17.1647 8.04493 16.8718 8.33782C16.5789 8.63072 16.104 8.63072 15.8111 8.33782L13.5343 6.06102L13.5343 14.9214C13.5343 15.3357 13.1985 15.6714 12.7843 15.6714ZM5.49341 17.2501C5.49341 16.8359 5.15762 16.5001 4.74341 16.5001C4.32919 16.5001 3.99341 16.8359 3.99341 17.2501C3.99341 19.6291 5.92193 21.5576 8.30089 21.5576H17.1926C19.5716 21.5576 21.5001 19.6291 21.5001 17.2501C21.5001 16.8359 21.1643 16.5001 20.7501 16.5001C20.3359 16.5001 20.0001 16.8359 20.0001 17.2501C20.0001 18.8007 18.7431 20.0576 17.1926 20.0576H8.30089C6.75036 20.0576 5.49341 18.8007 5.49341 17.2501Z" fill="#ABACC2"/>
</symbol>
<symbol viewBox="0 0 20 20" fill="none" id="ic20-delete-gray" xmlns="http://www.w3.org/2000/svg">
<path fill-rule="evenodd" clip-rule="evenodd" d="M5.30005 7.58331C5.71426 7.58331 6.05005 7.9191 6.05005 8.33331L6.08309 15.75C6.08309 16.0661 6.41788 16.5 7.06642 16.5H13.9998C14.6483 16.5 14.9831 16.0661 14.9831 15.75L14.95 8.33331C14.95 7.9191 15.2858 7.58331 15.7 7.58331C16.1143 7.58331 16.45 7.9191 16.45 8.33331L16.4831 15.75C16.4831 17.0908 15.2658 18 13.9998 18H7.06642C5.80038 18 4.58309 17.0908 4.58309 15.75L4.55005 8.33331C4.55005 7.9191 4.88584 7.58331 5.30005 7.58331Z" fill="#C7C8D9"/>
<path fill-rule="evenodd" clip-rule="evenodd" d="M12.2502 8.25C12.6645 8.25 13.0002 8.58579 13.0002 9V14C13.0002 14.4142 12.6645 14.75 12.2502 14.75C11.836 14.75 11.5002 14.4142 11.5002 14V9C11.5002 8.58579 11.836 8.25 12.2502 8.25Z" fill="#C7C8D9"/>
<path fill-rule="evenodd" clip-rule="evenodd" d="M8.75 8.25C9.16421 8.25 9.5 8.58579 9.5 9V14C9.5 14.4142 9.16421 14.75 8.75 14.75C8.33579 14.75 8 14.4142 8 14V9C8 8.58579 8.33579 8.25 8.75 8.25Z" fill="#C7C8D9"/>
<path fill-rule="evenodd" clip-rule="evenodd" d="M3.25 5.75C3.25 5.33579 3.58578 5 4 5H17C17.4142 5 17.75 5.33579 17.75 5.75C17.75 6.16421 17.4142 6.5 17 6.5H4C3.58578 6.5 3.25 6.16421 3.25 5.75Z" fill="#C7C8D9"/>
<path fill-rule="evenodd" clip-rule="evenodd" d="M9.21237 3.75C8.60132 3.75 8.07983 4.19177 7.97938 4.7945L7.75791 6.1233L6.27832 5.8767L6.49979 4.5479C6.72079 3.22189 7.86806 2.25 9.21237 2.25H11.8058C13.1501 2.25 14.2973 3.22189 14.5183 4.5479L14.7398 5.8767L13.2602 6.1233L13.0387 4.7945C12.9383 4.19177 12.4168 3.75 11.8058 3.75H9.21237Z" fill="#C7C8D9"/>
</symbol>
<symbol viewBox="0 0 25 25" fill="none" id="ic25-settings-on" xmlns="http://www.w3.org/2000/svg">
<path fill-rule="evenodd" clip-rule="evenodd" d="M12.5 10.9995C11.3952 10.9995 10.4995 11.8952 10.4995 13C10.4995 14.1048 11.3952 15.0005 12.5 15.0005C13.6048 15.0005 14.5005 14.1048 14.5005 13C14.5005 11.8952 13.6048 10.9995 12.5 10.9995ZM9 13C9 11.067 10.567 9.5 12.5 9.5C14.433 9.5 16 11.067 16 13C16 14.933 14.433 16.5 12.5 16.5C10.567 16.5 9 14.933 9 13Z" fill="#662EFF"/>
<path d="M16.5084 7.42555L16.8738 6.77057L16.5084 7.42555C16.8277 7.60368 17.1948 7.67732 17.5582 7.63612L19.4735 7.41891C19.571 7.40785 19.6659 7.45485 19.7162 7.53908L21.0402 9.75488C21.0887 9.83594 21.0873 9.93736 21.0367 10.0171L21.6699 10.419L21.0367 10.0171L20.0462 11.5775C19.8683 11.8579 19.7737 12.1832 19.7737 12.5153V13V13.4847C19.7737 13.8168 19.8683 14.1421 20.0462 14.4225L20.6795 14.0206L20.0462 14.4225L21.0367 15.9829C21.0873 16.0626 21.0887 16.1641 21.0402 16.2451L19.7162 18.4609C19.6659 18.5451 19.571 18.5921 19.4735 18.5811L17.5582 18.3639C17.1948 18.3227 16.8277 18.3963 16.5084 18.5744L16.0941 18.8055L16.4595 19.4605L16.0941 18.8055L15.6732 19.0403C15.3611 19.2145 15.1098 19.4799 14.9531 19.8011L14.0705 21.6096C14.0286 21.6955 13.9414 21.75 13.8459 21.75H11.1326C11.0398 21.75 10.9547 21.6987 10.9115 21.6166L9.93262 19.7606C9.77461 19.461 9.53306 19.2137 9.23726 19.0487L8.8014 18.8055L8.43602 19.4605L8.8014 18.8055L8.38918 18.5756C8.06765 18.3962 7.69773 18.3228 7.33208 18.3658L5.52606 18.5784L5.61372 19.3233L5.52606 18.5784C5.42823 18.5899 5.33276 18.5429 5.28223 18.4583L3.97489 16.2704C3.9245 16.1861 3.92817 16.0801 3.98426 15.9994L5.05436 14.4609C5.25836 14.1676 5.3677 13.8189 5.3677 13.4617V13V12.5383C5.3677 12.181 5.25836 11.8323 5.05435 11.539L3.98426 10.0006C3.92817 9.91992 3.92451 9.81391 3.97489 9.72958L5.28377 7.53907C5.3341 7.45484 5.42905 7.40784 5.52655 7.4189L7.44233 7.63613C7.80565 7.67732 8.17274 7.60368 8.49206 7.42555L8.90632 7.19445L9.32717 6.95968C9.63935 6.78553 9.89071 6.51995 10.0474 6.19867L10.9296 4.39039L10.2555 4.06156L10.9296 4.39039C10.9715 4.30449 11.0587 4.25 11.1542 4.25H13.8459C13.9414 4.25 14.0286 4.30448 14.0705 4.39036L14.9531 6.19885C15.1098 6.52003 15.3611 6.78553 15.6732 6.95964L16.0941 7.19445L16.5084 7.42555Z" stroke="#662EFF" stroke-width="1.5"/>
</symbol>
<symbol viewBox="0 0 25 25" fill="none" id="ic25-attachment-on" xmlns="http://www.w3.org/2000/svg">
<path fill-rule="evenodd" clip-rule="evenodd" d="M13.1047 4.85589C14.9126 3.048 17.8434 3.048 19.6513 4.85589C21.4592 6.66378 21.4592 9.59466 19.6513 11.4026L12.4193 18.6346C11.3004 19.7534 9.48556 19.7534 8.36667 18.6346C7.24778 17.5157 7.24778 15.7008 8.36667 14.5819L13.8527 9.09589C14.1456 8.803 14.6204 8.803 14.9133 9.09589C15.2062 9.38878 15.2062 9.86366 14.9133 10.1566L9.42733 15.6426C8.89422 16.1757 8.89422 17.0408 9.42733 17.5739C9.96044 18.107 10.8256 18.107 11.3587 17.5739L18.5907 10.3419C19.8128 9.11978 19.8128 7.13866 18.5907 5.91655C17.3686 4.69444 15.3874 4.69444 14.1653 5.91655L6.93333 13.1486C5.02222 15.0597 5.02222 18.1568 6.93333 20.0679C8.84444 21.979 11.9416 21.979 13.8527 20.0679L18.2417 15.6789C18.5346 15.386 19.0094 15.386 19.3023 15.6789C19.5952 15.9718 19.5952 16.4467 19.3023 16.7396L14.9133 21.1286C12.4164 23.6254 8.36956 23.6254 5.87267 21.1286C3.37578 18.6317 3.37578 14.5848 5.87267 12.0879L13.1047 4.85589Z" fill="#662EFF"/>
</symbol>
    <symbol width="6" height="10" viewBox="0 0 6 10" id="ic25-shape" fill="none" xmlns="http://www.w3.org/2000/svg">
        <path d="M5.69315 0.273249C6.0867 0.649125 6.11758 1.17242 5.69315 1.63192L2.38685 5.00102L5.69315 8.37012C6.11758 8.82962 6.0867 9.35378 5.69315 9.72707C5.30049 10.1029 4.63694 10.0788 4.2681 9.72707C3.89926 9.37706 0.295599 5.6795 0.295599 5.6795C0.0988272 5.49242 0 5.24672 0 5.00102C0 4.75532 0.0988272 4.50962 0.295599 4.32082C0.295599 4.32082 3.89926 0.624987 4.2681 0.273249C4.63694 -0.0793515 5.30049 -0.102628 5.69315 0.273249Z" fill="#662EFF"/>
    </symbol>
<symbol viewBox="0 0 25 25" id="ic25-attachment-black" fill="none" xmlns="http://www.w3.org/2000/svg">
<path fill-rule="evenodd" clip-rule="evenodd" d="M13.1047 4.35592C14.9126 2.54803 17.8434 2.54803 19.6513 4.35592C21.4592 6.16381 21.4592 9.09469 19.6513 10.9026L12.4193 18.1346C11.3004 19.2535 9.48556 19.2535 8.36667 18.1346C7.24778 17.0157 7.24778 15.2008 8.36667 14.0819L13.8527 8.59592C14.1456 8.30303 14.6204 8.30303 14.9133 8.59592C15.2062 8.88881 15.2062 9.36369 14.9133 9.65658L9.42733 15.1426C8.89422 15.6757 8.89422 16.5408 9.42733 17.0739C9.96044 17.607 10.8256 17.607 11.3587 17.0739L18.5907 9.84192C19.8128 8.61981 19.8128 6.63869 18.5907 5.41658C17.3686 4.19447 15.3874 4.19447 14.1653 5.41658L6.93333 12.6486C5.02222 14.5597 5.02222 17.6568 6.93333 19.5679C8.84444 21.479 11.9416 21.479 13.8527 19.5679L18.2417 15.1789C18.5346 14.886 19.0094 14.886 19.3023 15.1789C19.5952 15.4718 19.5952 15.9467 19.3023 16.2396L14.9133 20.6286C12.4164 23.1255 8.36956 23.1255 5.87267 20.6286C3.37578 18.1317 3.37578 14.0848 5.87267 11.5879L13.1047 4.35592Z" fill="#555770"/>
</symbol>
<symbol viewBox="0 0 24 24" id="ic25-attachment-gray" fill="none" xmlns="http://www.w3.org/2000/svg">
<path d="M13.879 8.37527L8.39297 13.8613C7.56697 14.6873 7.56697 16.0273 8.39297 16.8533V16.8533C9.21897 17.6793 10.559 17.6793 11.385 16.8533L18.617 9.62127C20.132 8.10627 20.132 5.65027 18.617 4.13527V4.13527C17.102 2.62027 14.646 2.62027 13.131 4.13527L5.89897 11.3673C3.69497 13.5713 3.69497 17.1433 5.89897 19.3473V19.3473C8.10297 21.5513 11.675 21.5513 13.879 19.3473L18.268 14.9583" stroke="#8E90A6" stroke-width="1.5" stroke-linecap="round" stroke-linejoin="round"/>
</symbol>
<symbol viewBox="0 0 25 25" id="ic25-layouts-on" fill="none" xmlns="http://www.w3.org/2000/svg">
<path fill-rule="evenodd" clip-rule="evenodd" d="M3.75 3.5C3.33579 3.5 3 3.83579 3 4.25V11.25C3 11.6642 3.33579 12 3.75 12H10.75C11.1642 12 11.5 11.6642 11.5 11.25V4.25C11.5 3.83579 11.1642 3.5 10.75 3.5H3.75ZM4.5 10.5V5H10V10.5H4.5Z" fill="#662EFF"/>
<path fill-rule="evenodd" clip-rule="evenodd" d="M14.25 3.5C13.8358 3.5 13.5 3.83579 13.5 4.25V11.25C13.5 11.6642 13.8358 12 14.25 12H21.25C21.6642 12 22 11.6642 22 11.25V4.25C22 3.83579 21.6642 3.5 21.25 3.5H14.25ZM15 10.5V5H20.5V10.5H15Z" fill="#662EFF"/>
<path fill-rule="evenodd" clip-rule="evenodd" d="M3 14.75C3 14.3358 3.33579 14 3.75 14H10.75C11.1642 14 11.5 14.3358 11.5 14.75V21.75C11.5 22.1642 11.1642 22.5 10.75 22.5H3.75C3.33579 22.5 3 22.1642 3 21.75V14.75ZM4.5 15.5V21H10V15.5H4.5Z" fill="#662EFF"/>
<path fill-rule="evenodd" clip-rule="evenodd" d="M14.25 14C13.8358 14 13.5 14.3358 13.5 14.75V21.75C13.5 22.1642 13.8358 22.5 14.25 22.5H21.25C21.6642 22.5 22 22.1642 22 21.75V14.75C22 14.3358 21.6642 14 21.25 14H14.25ZM15 21V15.5H20.5V21H15Z" fill="#662EFF"/>
</symbol>
<symbol viewBox="0 0 25 25" id="ic25-edit-gray" fill="none" xmlns="http://www.w3.org/2000/svg">
<path fill-rule="evenodd" clip-rule="evenodd" d="M16.0036 5.34719C15.9921 5.35743 15.9807 5.36808 15.9697 5.37915C15.9586 5.39023 15.9479 5.40156 15.9377 5.41313L7.51409 13.8368L7.5133 13.8375C7.1835 14.166 7 14.6114 7 15.0745V17.7495C7 18.1637 7.33579 18.4995 7.75 18.4995H10.425C10.8882 18.4995 11.3336 18.316 11.6621 17.9861L20.1064 9.54338C20.1111 9.53893 20.1157 9.53441 20.1203 9.52981C20.1249 9.52526 20.1294 9.52065 20.1338 9.51601L21.9883 7.66188C22.6712 6.97899 22.6712 5.87106 21.9883 5.18817L20.3123 3.51217C19.6294 2.82928 18.5216 2.82928 17.8387 3.51217L16.0036 5.34719ZM18.8993 4.57283C18.9964 4.47572 19.1546 4.47572 19.2517 4.57283L20.9277 6.24883C21.0248 6.34592 21.0248 6.50401 20.9277 6.60112L19.5899 7.9387L17.5617 5.91049L18.8993 4.57283ZM18.5291 8.99926L10.6007 16.9261L10.5993 16.9276C10.5538 16.9733 10.4915 16.9995 10.425 16.9995H8.5V15.0745C8.5 15.008 8.52621 14.9457 8.57191 14.9002L8.57333 14.8988L16.501 6.97115L18.5291 8.99926Z" fill="#C7C8D9"/>
<path d="M2.5 22H22.5" stroke="#C7C8D9" stroke-width="1.5" stroke-linecap="round"/>
</symbol>
<symbol viewBox="0 0 25 25" id="ic25-users-purple" fill="none" xmlns="http://www.w3.org/2000/svg">
<path fill-rule="evenodd" clip-rule="evenodd" d="M8.75268 5C7.23862 5 6.01123 6.22739 6.01123 7.74145C6.01123 9.25552 7.23862 10.4829 8.75268 10.4829C10.2667 10.4829 11.4941 9.25552 11.4941 7.74145C11.4941 6.22739 10.2667 5 8.75268 5ZM4.51123 7.74145C4.51123 5.39896 6.41019 3.5 8.75268 3.5C11.0952 3.5 12.9941 5.39896 12.9941 7.74145C12.9941 10.0839 11.0952 11.9829 8.75268 11.9829C6.41019 11.9829 4.51123 10.0839 4.51123 7.74145Z" fill="#662EFF"/>
<path fill-rule="evenodd" clip-rule="evenodd" d="M17.7564 6.98083C16.7893 6.98083 16.0054 7.7648 16.0054 8.73188C16.0054 9.69895 16.7893 10.4829 17.7564 10.4829C18.7235 10.4829 19.5075 9.69895 19.5075 8.73188C19.5075 7.7648 18.7235 6.98083 17.7564 6.98083ZM14.5054 8.73188C14.5054 6.93638 15.9609 5.48083 17.7564 5.48083C19.5519 5.48083 21.0075 6.93638 21.0075 8.73188C21.0075 10.5274 19.5519 11.9829 17.7564 11.9829C15.9609 11.9829 14.5054 10.5274 14.5054 8.73188Z" fill="#662EFF"/>
<path fill-rule="evenodd" clip-rule="evenodd" d="M6.73466 14.9841C4.94796 14.9841 3.5 16.4321 3.5 18.2188V20.2362C3.5 20.6504 3.16421 20.9862 2.75 20.9862C2.33579 20.9862 2 20.6504 2 20.2362V18.2188C2 15.6037 4.11953 13.4841 6.73466 13.4841H10.7703C13.3855 13.4841 15.505 15.6037 15.505 18.2188V20.2362C15.505 20.6504 15.1692 20.9862 14.755 20.9862C14.3408 20.9862 14.005 20.6504 14.005 20.2362V18.2188C14.005 16.4321 12.557 14.9841 10.7703 14.9841H6.73466Z" fill="#662EFF"/>
<path fill-rule="evenodd" clip-rule="evenodd" d="M16.0063 14.2341C16.0063 13.8199 16.3421 13.4841 16.7563 13.4841H18.8588C21.4739 13.4841 23.5935 15.6037 23.5935 18.2188V20.2362C23.5935 20.6504 23.2577 20.9862 22.8435 20.9862C22.4293 20.9862 22.0935 20.6504 22.0935 20.2362V18.2188C22.0935 16.4321 20.6455 14.9841 18.8588 14.9841H16.7563C16.3421 14.9841 16.0063 14.6483 16.0063 14.2341Z" fill="#662EFF"/>
</symbol>
<symbol viewBox="0 0 25 25" id="ic25-chat-purple" fill="none" xmlns="http://www.w3.org/2000/svg">
<path fill-rule="evenodd" clip-rule="evenodd" d="M3 5.24886C3 4.28328 3.78379 3.5 4.75 3.5H20.75C21.7162 3.5 22.5 4.28328 22.5 5.24886V18.2404C22.5 19.206 21.7162 19.9893 20.75 19.9893H16.5V22.7505C16.5 23.0302 16.3441 23.2866 16.0958 23.4156C15.8474 23.5445 15.5478 23.5246 15.3188 23.3638L10.5129 19.9893H4.75C3.78379 19.9893 3 19.206 3 18.2404V5.24886ZM4.75 4.99903C4.61221 4.99903 4.5 5.11117 4.5 5.24886V18.2404C4.5 18.3781 4.61221 18.4903 4.75 18.4903H10.75C10.9043 18.4903 11.0549 18.5378 11.1812 18.6265L15 21.3079V19.2398C15 18.8258 15.3358 18.4903 15.75 18.4903H20.75C20.8878 18.4903 21 18.3781 21 18.2404V5.24886C21 5.11117 20.8878 4.99903 20.75 4.99903H4.75Z" fill="#662EFF"/>
<path fill-rule="evenodd" clip-rule="evenodd" d="M7 14.25C7 13.8358 7.33579 13.5 7.75 13.5H15.75C16.1642 13.5 16.5 13.8358 16.5 14.25C16.5 14.6642 16.1642 15 15.75 15H7.75C7.33579 15 7 14.6642 7 14.25Z" fill="#662EFF"/>
<path fill-rule="evenodd" clip-rule="evenodd" d="M7 9.25C7 8.83579 7.33579 8.5 7.75 8.5H17.75C18.1642 8.5 18.5 8.83579 18.5 9.25C18.5 9.66421 18.1642 10 17.75 10H7.75C7.33579 10 7 9.66421 7 9.25Z" fill="#662EFF"/>
</symbol>
<symbol viewBox="0 0 25 25" id="ic25-chat" fill="none" xmlns="http://www.w3.org/2000/svg">
<path fill-rule="evenodd" clip-rule="evenodd" d="M3 5.24886C3 4.28328 3.78379 3.5 4.75 3.5H20.75C21.7162 3.5 22.5 4.28328 22.5 5.24886V18.2404C22.5 19.206 21.7162 19.9893 20.75 19.9893H16.5V22.7505C16.5 23.0302 16.3441 23.2866 16.0958 23.4156C15.8474 23.5445 15.5478 23.5246 15.3188 23.3638L10.5129 19.9893H4.75C3.78379 19.9893 3 19.206 3 18.2404V5.24886ZM4.75 4.99903C4.61221 4.99903 4.5 5.11117 4.5 5.24886V18.2404C4.5 18.3781 4.61221 18.4903 4.75 18.4903H10.75C10.9043 18.4903 11.0549 18.5378 11.1812 18.6265L15 21.3079V19.2398C15 18.8258 15.3358 18.4903 15.75 18.4903H20.75C20.8878 18.4903 21 18.3781 21 18.2404V5.24886C21 5.11117 20.8878 4.99903 20.75 4.99903H4.75Z" fill="var(--sui-icon-color)"/>
<path fill-rule="evenodd" clip-rule="evenodd" d="M7 14.25C7 13.8358 7.33579 13.5 7.75 13.5H15.75C16.1642 13.5 16.5 13.8358 16.5 14.25C16.5 14.6642 16.1642 15 15.75 15H7.75C7.33579 15 7 14.6642 7 14.25Z" fill="var(--sui-icon-color)"/>
<path fill-rule="evenodd" clip-rule="evenodd" d="M7 9.25C7 8.83579 7.33579 8.5 7.75 8.5H17.75C18.1642 8.5 18.5 8.83579 18.5 9.25C18.5 9.66421 18.1642 10 17.75 10H7.75C7.33579 10 7 9.66421 7 9.25Z" fill="var(--sui-icon-color)"/>
</symbol>
<symbol viewBox="0 0 25 25" id="ic25-portrait-purple" fill="none" xmlns="http://www.w3.org/2000/svg">
<path d="M6.65385 4.96154C5.44293 4.96154 4.46154 5.94293 4.46154 7.15385C4.46154 7.55744 4.13436 7.88462 3.73077 7.88462C3.32718 7.88462 3 7.55744 3 7.15385C3 5.13574 4.63574 3.5 6.65385 3.5C7.05744 3.5 7.38462 3.82718 7.38462 4.23077C7.38462 4.63436 7.05744 4.96154 6.65385 4.96154Z" fill="#662EFF"/>
<path d="M21.2692 18.1154C21.6728 18.1154 22 18.4426 22 18.8462C22 20.8643 20.3643 22.5 18.3462 22.5H6.65385C4.63574 22.5 3 20.8643 3 18.8462C3 18.4426 3.32718 18.1154 3.73077 18.1154C4.13436 18.1154 4.46154 18.4426 4.46154 18.8462C4.46154 20.0571 5.44293 21.0385 6.65385 21.0385H18.3462C19.5571 21.0385 20.5385 20.0571 20.5385 18.8462C20.5385 18.4426 20.8656 18.1154 21.2692 18.1154Z" fill="#662EFF"/>
<path d="M17.6154 4.23077C17.6154 3.82718 17.9426 3.5 18.3462 3.5C20.3643 3.5 22 5.13574 22 7.15385C22 7.55744 21.6728 7.88462 21.2692 7.88462C20.8656 7.88462 20.5385 7.55744 20.5385 7.15385C20.5385 5.94293 19.5571 4.96154 18.3462 4.96154C17.9426 4.96154 17.6154 4.63436 17.6154 4.23077Z" fill="#662EFF"/>
<path d="M4.46154 14.5833C4.46154 14.1797 4.13436 13.8526 3.73077 13.8526C3.32718 13.8526 3 14.1797 3 14.5833V15.8013C3 16.2049 3.32718 16.5321 3.73077 16.5321C4.13436 16.5321 4.46154 16.2049 4.46154 15.8013V14.5833Z" fill="#662EFF"/>
<path d="M3.73077 9.46795C4.13436 9.46795 4.46154 9.79513 4.46154 10.1987V11.4167C4.46154 11.8203 4.13436 12.1474 3.73077 12.1474C3.32718 12.1474 3 11.8203 3 11.4167V10.1987C3 9.79513 3.32718 9.46795 3.73077 9.46795Z" fill="#662EFF"/>
<path d="M22 10.1987C22 9.79513 21.6728 9.46795 21.2692 9.46795C20.8656 9.46795 20.5385 9.79513 20.5385 10.1987V11.4167C20.5385 11.8203 20.8656 12.1474 21.2692 12.1474C21.6728 12.1474 22 11.8203 22 11.4167V10.1987Z" fill="#662EFF"/>
<path d="M21.2692 13.8526C21.6728 13.8526 22 14.1797 22 14.5833V15.8013C22 16.2049 21.6728 16.5321 21.2692 16.5321C20.8656 16.5321 20.5385 16.2049 20.5385 15.8013V14.5833C20.5385 14.1797 20.8656 13.8526 21.2692 13.8526Z" fill="#662EFF"/>
<path d="M8.96795 4.23077C8.96795 3.82718 9.29513 3.5 9.69872 3.5H10.9167C11.3203 3.5 11.6474 3.82718 11.6474 4.23077C11.6474 4.63436 11.3203 4.96154 10.9167 4.96154H9.69872C9.29513 4.96154 8.96795 4.63436 8.96795 4.23077Z" fill="#662EFF"/>
<path d="M14.0833 3.5C13.6797 3.5 13.3526 3.82718 13.3526 4.23077C13.3526 4.63436 13.6797 4.96154 14.0833 4.96154H15.3013C15.7049 4.96154 16.0321 4.63436 16.0321 4.23077C16.0321 3.82718 15.7049 3.5 15.3013 3.5H14.0833Z" fill="#662EFF"/>
<path fill-rule="evenodd" clip-rule="evenodd" d="M7.01426 20.8005C7.45667 18.3467 9.8805 16.75 12.4998 16.75C15.119 16.75 17.5428 18.3467 17.9853 20.8005C18.0621 21.2267 17.8259 21.6443 17.4577 21.7332C17.0896 21.8222 16.7288 21.5488 16.652 21.1226C16.397 19.7086 14.7929 18.3266 12.4998 18.3266C10.2066 18.3266 8.6025 19.7086 8.34756 21.1226C8.27072 21.5488 7.90996 21.8222 7.54178 21.7332C7.1736 21.6443 6.93742 21.2267 7.01426 20.8005Z" fill="#662EFF"/>
<path fill-rule="evenodd" clip-rule="evenodd" d="M13.9849 10.7651C13.1648 9.94498 11.8352 9.94498 11.0151 10.7651C10.195 11.5852 10.195 12.9148 11.0151 13.7349C11.8352 14.555 13.1648 14.555 13.9849 13.7349C14.805 12.9148 14.805 11.5852 13.9849 10.7651ZM14.9749 9.77513C13.608 8.40829 11.392 8.40829 10.0251 9.77513C8.65829 11.142 8.65829 13.358 10.0251 14.7249C11.392 16.0917 13.608 16.0917 14.9749 14.7249C16.3417 13.358 16.3417 11.142 14.9749 9.77513Z" fill="#662EFF"/>
</symbol>
<symbol viewBox="0 0 25 25" id="ic25-caption-purple" fill="none" xmlns="http://www.w3.org/2000/svg">
<path fill-rule="evenodd" clip-rule="evenodd" d="M10.4095 11.4378C9.70552 10.8169 8.63722 10.8616 7.98752 11.539C7.33782 12.2164 7.33782 13.2857 7.98752 13.9631C8.63722 14.6405 9.70552 14.6852 10.4095 14.0643C10.7202 13.7904 11.1941 13.8201 11.4681 14.1308C11.742 14.4414 11.7123 14.9154 11.4016 15.1893C10.0946 16.342 8.1112 16.2591 6.90494 15.0014C5.69868 13.7436 5.69868 11.7585 6.90494 10.5007C8.1112 9.243 10.0946 9.1601 11.4016 10.3128C11.7123 10.5868 11.742 11.0607 11.4681 11.3714C11.1941 11.682 10.7202 11.7118 10.4095 11.4378Z" fill="#662EFF"/>
<path fill-rule="evenodd" clip-rule="evenodd" d="M17.4225 11.4378C16.7185 10.8169 15.6502 10.8616 15.0005 11.539C14.3508 12.2164 14.3508 13.2857 15.0005 13.9631C15.6502 14.6405 16.7185 14.6852 17.4225 14.0643C17.7331 13.7904 18.2071 13.8201 18.481 14.1308C18.755 14.4414 18.7253 14.9154 18.4146 15.1893C17.1076 16.342 15.1242 16.2591 13.9179 15.0014C12.7116 13.7436 12.7116 11.7585 13.9179 10.5007C15.1242 9.243 17.1076 9.1601 18.4146 10.3128C18.7253 10.5868 18.755 11.0607 18.481 11.3714C18.2071 11.682 17.7331 11.7118 17.4225 11.4378Z" fill="#662EFF"/>
<path fill-rule="evenodd" clip-rule="evenodd" d="M3.00024 7.45682C3.00024 5.27153 4.6355 3.5 6.65269 3.5H18.3478C20.365 3.5 22.0002 5.27153 22.0002 7.45682V18.5432C22.0002 20.7285 20.365 22.5 18.3478 22.5H6.65268C4.6355 22.5 3.00024 20.7285 3.00024 18.5432V7.45682ZM6.65269 5.08273C5.44237 5.08273 4.46122 6.14565 4.46122 7.45682V18.5432C4.46122 19.8544 5.44237 20.9173 6.65268 20.9173H18.3478C19.5581 20.9173 20.5393 19.8544 20.5393 18.5432V7.45682C20.5393 6.14565 19.5581 5.08273 18.3478 5.08273H6.65269Z" fill="#662EFF"/>
</symbol>
<symbol viewBox="0 0 25 25" id="ic25-record-purple" fill="none" xmlns="http://www.w3.org/2000/svg">
<circle cx="12.5" cy="11" r="2.5" fill="#662EFF"/>
<path fill-rule="evenodd" clip-rule="evenodd" d="M6.23536 4.5C4.55792 4.5 2.99951 5.67294 2.99951 7.34432V14.6557C2.99951 16.3271 4.55792 17.5 6.23536 17.5H9.962L9.58473 20.5182C9.24978 20.5933 8.99951 20.8924 8.99951 21.25C8.99951 21.6642 9.3353 22 9.74951 22H10.1736C10.225 22.0052 10.2757 22.005 10.3253 22H15.1966C15.231 22.0024 15.266 22.0025 15.3012 22H15.7495C16.1637 22 16.4995 21.6642 16.4995 21.25C16.4995 20.8923 16.2491 20.593 15.9139 20.5181L15.5367 17.5H18.7637C20.4413 17.5 21.9995 16.3269 21.9995 14.6549V7.34432C21.9995 5.67278 20.4409 4.5 18.7627 4.5H6.23536ZM4.46105 7.34432C4.46105 6.67156 5.14562 5.94444 6.23536 5.94444H18.7627C19.8536 5.94444 20.538 6.67173 20.538 7.34432V14.6549C20.538 15.3286 19.8532 16.0556 18.7637 16.0556H6.23536C5.14562 16.0556 4.46105 15.3284 4.46105 14.6557V7.34432ZM14.4 20.5L14.025 17.5H11.4737L11.0987 20.5H14.4Z" fill="#662EFF"/>
</symbol>
<symbol viewBox="0 0 25 25" id="ic25-leave-call-white" fill="none" xmlns="http://www.w3.org/2000/svg">
<path fill-rule="evenodd" clip-rule="evenodd" d="M12.8895 9.49987C8.60079 9.4389 5.07719 11.2314 3.09072 12.539C2.57013 12.8816 2.49393 13.6475 3.07227 14.1533L4.91332 15.7634C4.98659 15.8275 5.0904 15.8433 5.17937 15.8038L8.1391 14.4894C8.26939 14.4315 8.32499 14.2766 8.26124 14.1491L7.95299 13.5326C7.64803 12.9227 7.88547 12.1315 8.57955 11.8541C9.35548 11.544 10.9844 10.9999 12.9002 10.9999C14.816 10.9999 16.4449 11.544 17.2208 11.8541C17.9149 12.1315 18.1524 12.9227 17.8474 13.5326L17.5392 14.1491C17.4754 14.2766 17.531 14.4315 17.6613 14.4894L20.5773 15.7843C20.6718 15.8263 20.7823 15.8057 20.8555 15.7326L22.4392 14.1496C22.947 13.6421 22.8644 12.9402 22.391 12.6126C20.5704 11.3528 17.2269 9.56154 12.8895 9.49987ZM2.26602 11.286C4.38002 9.89454 8.2019 7.93307 12.9109 8.00003C17.6504 8.06741 21.2821 10.0211 23.2446 11.3791C24.6025 12.3188 24.5669 14.1437 23.4996 15.2105L21.9159 16.7935C21.404 17.3052 20.6299 17.449 19.9685 17.1552L17.0525 15.8603C16.1405 15.4552 15.7513 14.3708 16.1975 13.4783L16.3693 13.1348C15.6143 12.8612 14.3419 12.4999 12.9002 12.4999C11.4585 12.4999 10.1861 12.8612 9.43114 13.1348L9.60288 13.4783C10.0492 14.3708 9.65991 15.4552 8.7479 15.8603L5.78817 17.1746C5.16541 17.4512 4.43873 17.3411 3.92582 16.8925L2.08477 15.2824C0.87119 14.221 0.798129 12.2522 2.26602 11.286Z" fill="white"/>
</symbol>
<symbol viewBox="0 0 25 25" id="ic25-sharing-on" fill="none" xmlns="http://www.w3.org/2000/svg">
<path d="M7.26904 4C6.85483 4 6.51904 4.33579 6.51904 4.75C6.51904 5.16421 6.85483 5.5 7.26904 5.5H18.8778C19.756 5.49999 20.4995 6.219 20.4995 6.9537V13.771C20.4995 14.3806 20.3404 14.7493 20.1438 14.9901C19.9396 15.2401 19.6346 15.4255 19.223 15.5561C18.8281 15.6814 18.6096 16.103 18.7349 16.4978C18.8601 16.8926 19.2817 17.1111 19.6766 16.9859C20.2651 16.7992 20.8599 16.4846 21.3056 15.9389C21.7588 15.384 21.9995 14.6614 21.9995 13.771V6.9537C21.9995 5 20.441 3.99999 18.8778 4H7.26904Z" fill="var(--sui-icon-color)"/>
<path fill-rule="evenodd" clip-rule="evenodd" d="M9.56558 20.0256L9.98395 17.0212H6.32049C4.59892 17.0212 2.99951 15.8031 2.99951 14.0675V6.95386C2.99951 6.32428 3.15783 5.83516 3.32869 5.49345C3.41351 5.32382 3.50063 5.19195 3.57139 5.09761C3.60681 5.05038 3.63829 5.01234 3.66359 4.98342C3.67626 4.96895 3.6874 4.95673 3.69674 4.94676L3.7094 4.93348L3.71466 4.92809L3.71701 4.9257L3.71866 4.92405C4.01155 4.63116 4.48695 4.63063 4.77984 4.92353C5.06877 5.21246 5.07268 5.67848 4.79157 5.9722C4.78867 5.97556 4.78156 5.98404 4.77139 5.99761C4.7484 6.02826 4.71052 6.0839 4.67033 6.16427C4.59119 6.32255 4.49951 6.58343 4.49951 6.95386V14.0675C4.49951 14.7661 5.20211 15.5212 6.32053 15.5212H15.6833C16.0975 15.5212 16.4333 15.857 16.4333 16.2712C16.4333 16.6854 16.0975 17.0212 15.6833 17.0212H15.5039L15.9321 20.0271C16.249 20.1148 16.4817 20.4052 16.4817 20.75C16.4817 21.1642 16.1459 21.5 15.7317 21.5H9.76074C9.34653 21.5 9.01074 21.1642 9.01074 20.75C9.01074 20.4033 9.24599 20.1115 9.56558 20.0256ZM4.24951 5.45386C3.71918 4.92353 3.71866 4.92405 3.71866 4.92405L4.24951 5.45386ZM11.0835 20H14.4134L13.9995 17.0951C13.9964 17.0703 13.9946 17.0456 13.9939 17.0212H11.494C11.4933 17.0444 11.4914 17.0678 11.4885 17.0914L11.0835 20Z" fill="var(--sui-icon-color)"/>
<path d="M5 2L21 23" stroke="#FF7875" stroke-width="1.5" stroke-linecap="round" stroke-linejoin="round"/>
</symbol>
    <symbol viewBox="0 0 26 26" id="ic25-sharing-off" fill="none" xmlns="http://www.w3.org/2000/svg">
        <path d="M15.5225 10.7441C16.1622 11.0688 16.1583 11.9762 15.5158 12.2955L12.2742 13.9066C11.6909 14.1964 11.0039 13.7766 11.0032 13.13L11 9.87169C10.9994 9.2211 11.6934 8.80019 12.2776 9.0968L15.5225 10.7441Z" fill="#5AD677"/>
        <path fill-rule="evenodd" clip-rule="evenodd" d="M7.23536 5C5.55792 5 3.99951 6.17294 3.99951 7.84432V15.1557C3.99951 16.8271 5.55792 18 7.23536 18H10.962L10.5847 21.0182C10.2498 21.0933 9.99951 21.3924 9.99951 21.75C9.99951 22.1642 10.3353 22.5 10.7495 22.5H11.1736C11.225 22.5052 11.2757 22.505 11.3253 22.5H16.1966C16.231 22.5024 16.266 22.5025 16.3012 22.5H16.7495C17.1637 22.5 17.4995 22.1642 17.4995 21.75C17.4995 21.3923 17.2491 21.093 16.9139 21.0181L16.5367 18H19.7637C21.4413 18 22.9995 16.8269 22.9995 15.1549V7.84432C22.9995 6.17278 21.4409 5 19.7627 5H7.23536ZM5.46105 7.84432C5.46105 7.17156 6.14562 6.44444 7.23536 6.44444H19.7627C20.8536 6.44444 21.538 7.17173 21.538 7.84432V15.1549C21.538 15.8286 20.8532 16.5556 19.7637 16.5556H7.23536C6.14562 16.5556 5.46105 15.8284 5.46105 15.1557V7.84432ZM15.4 21L15.025 18H12.4737L12.0987 21H15.4Z" fill="#555770"/>
    </symbol>
<symbol viewBox="0 0 25 25" id="ic25-hand" fill="none" xmlns="http://www.w3.org/2000/svg">
<path fill-rule="evenodd" clip-rule="evenodd" d="M10.2532 3.87927C10.316 2.69314 11.2983 1.75 12.5 1.75C13.7017 1.75 14.684 2.69314 14.7468 3.87927C14.9823 3.79557 15.2359 3.75 15.5 3.75C16.7017 3.75 17.684 4.69314 17.7468 5.87926C17.9823 5.79557 18.2359 5.75 18.5 5.75C19.7422 5.75 20.75 6.75779 20.75 8V16.5C20.75 20.2282 17.7282 23.25 14 23.25H12.211C9.95407 23.25 7.84702 22.1215 6.59502 20.2441L3.08312 14.9763C2.4738 14.0628 2.59388 12.8455 3.37067 12.0687C4.27056 11.1688 5.72944 11.1688 6.62933 12.0687L7.25 12.6893V6C7.25 4.75779 8.25779 3.75 9.5 3.75C9.76414 3.75 10.0177 3.79557 10.2532 3.87927ZM10.25 6.00419C10.25 6.00279 10.25 6.0014 10.25 6C10.25 5.58621 9.91379 5.25 9.5 5.25C9.08621 5.25 8.75 5.58621 8.75 6V14.5C8.75 14.8033 8.56727 15.0768 8.28701 15.1929C8.00676 15.309 7.68417 15.2448 7.46967 15.0303L5.56867 13.1293C5.25456 12.8152 4.74544 12.8152 4.43133 13.1293C4.16018 13.4005 4.11838 13.8252 4.33088 14.1437L7.84298 19.4119C8.81699 20.8724 10.456 21.75 12.211 21.75H14C16.8998 21.75 19.25 19.3998 19.25 16.5V8C19.25 7.58621 18.9138 7.25 18.5 7.25C18.0875 7.25 17.7522 7.58405 17.75 7.996V12.5C17.75 12.9142 17.4142 13.25 17 13.25C16.5858 13.25 16.25 12.9142 16.25 12.5V8.00401C16.25 8.00267 16.25 8.00134 16.25 8C16.25 7.99769 16.25 7.99537 16.25 7.99306V6C16.25 5.58621 15.9138 5.25 15.5 5.25C15.0862 5.25 14.75 5.58621 14.75 6V12.5C14.75 12.9142 14.4142 13.25 14 13.25C13.5858 13.25 13.25 12.9142 13.25 12.5V4C13.25 3.58621 12.9138 3.25 12.5 3.25C12.0862 3.25 11.75 3.58621 11.75 4V12.5C11.75 12.9142 11.4142 13.25 11 13.25C10.5858 13.25 10.25 12.9142 10.25 12.5V6.00419Z" fill="var(--sui-icon-color)"/>
</symbol>
<symbol viewBox="0 0 25 25" id="ic25-users" fill="none" xmlns="http://www.w3.org/2000/svg">
<path fill-rule="evenodd" clip-rule="evenodd" d="M8.75268 5C7.23862 5 6.01123 6.22739 6.01123 7.74145C6.01123 9.25552 7.23862 10.4829 8.75268 10.4829C10.2667 10.4829 11.4941 9.25552 11.4941 7.74145C11.4941 6.22739 10.2667 5 8.75268 5ZM4.51123 7.74145C4.51123 5.39896 6.41019 3.5 8.75268 3.5C11.0952 3.5 12.9941 5.39896 12.9941 7.74145C12.9941 10.0839 11.0952 11.9829 8.75268 11.9829C6.41019 11.9829 4.51123 10.0839 4.51123 7.74145Z" fill="var(--sui-icon-color)"/>
<path fill-rule="evenodd" clip-rule="evenodd" d="M17.7564 6.98047C16.7893 6.98047 16.0054 7.76444 16.0054 8.73151C16.0054 9.69858 16.7893 10.4826 17.7564 10.4826C18.7235 10.4826 19.5075 9.69858 19.5075 8.73151C19.5075 7.76444 18.7235 6.98047 17.7564 6.98047ZM14.5054 8.73151C14.5054 6.93601 15.9609 5.48047 17.7564 5.48047C19.5519 5.48047 21.0075 6.93601 21.0075 8.73151C21.0075 10.527 19.5519 11.9826 17.7564 11.9826C15.9609 11.9826 14.5054 10.527 14.5054 8.73151Z" fill="var(--sui-icon-color)"/>
<path fill-rule="evenodd" clip-rule="evenodd" d="M6.73466 14.9844C4.94796 14.9844 3.5 16.4323 3.5 18.219V20.2365C3.5 20.6507 3.16421 20.9865 2.75 20.9865C2.33579 20.9865 2 20.6507 2 20.2365V18.219C2 15.6039 4.11953 13.4844 6.73466 13.4844H10.7703C13.3855 13.4844 15.505 15.6039 15.505 18.219V20.2365C15.505 20.6507 15.1692 20.9865 14.755 20.9865C14.3408 20.9865 14.005 20.6507 14.005 20.2365V18.219C14.005 16.4323 12.557 14.9844 10.7703 14.9844H6.73466Z" fill="var(--sui-icon-color)"/>
<path fill-rule="evenodd" clip-rule="evenodd" d="M16.0063 14.2344C16.0063 13.8202 16.3421 13.4844 16.7563 13.4844H18.8588C21.4739 13.4844 23.5935 15.6039 23.5935 18.219V20.2365C23.5935 20.6507 23.2577 20.9865 22.8435 20.9865C22.4293 20.9865 22.0935 20.6507 22.0935 20.2365V18.219C22.0935 16.4323 20.6455 14.9844 18.8588 14.9844H16.7563C16.3421 14.9844 16.0063 14.6486 16.0063 14.2344Z" fill="var(--sui-icon-color)"/>
</symbol>
    <symbol viewBox="0 0 24 24" id="ic25-add-user" fill="none" xmlns="http://www.w3.org/2000/svg">
        <path d="M15 5.2C16.7 6.9 16.7 9.6 15 11.2C13.3 12.8 10.6 12.9 8.99999 11.2C7.39999 9.5 7.29999 6.8 8.99999 5.2C10.7 3.6 13.3 3.6 15 5.2" stroke="#555770" stroke-width="1.5" stroke-linecap="round" stroke-linejoin="round"/>
        <path d="M4 20C4 17.5 6 15.5 8.5 15.5H14" stroke="#555770" stroke-width="1.5" stroke-linecap="round" stroke-linejoin="round"/>
        <path d="M17.5 20.5V15.5" stroke="#555770" stroke-width="1.5" stroke-linecap="round" stroke-linejoin="round"/>
        <path d="M15 18H20" stroke="#555770" stroke-width="1.5" stroke-linecap="round" stroke-linejoin="round"/>
    </symbol>
<symbol viewBox="0 0 25 25" fill="var(--sui-icon-color)" id="ic25-icon-send">
<path fill-rule="evenodd" clip-rule="evenodd" d="M4.47856 6.5972C3.59444 5.12065 5.14836 3.39259 6.70959 4.10831L20.9829 10.6598C21.6303 10.957 21.9695 11.5509 22.0003 12.159C22.0037 12.1879 22.0055 12.2173 22.0055 12.2471C22.0055 12.2764 22.0039 12.3054 22.0006 12.3338C21.9722 12.9442 21.6332 13.5415 20.9832 13.8402L6.94489 20.2205C5.37968 20.9387 3.83062 19.2048 4.71262 17.7299L7.86616 12.2582L4.47856 6.5972ZM9.16341 13.0116L6 18.4997C5.87269 18.7132 6.09677 18.9591 6.31897 18.8573L19.2177 13.0002L9.16341 13.0116ZM19.2181 11.5002L6.08449 5.47186C5.85971 5.36892 5.64028 5.61757 5.76553 5.82668L9.16745 11.5116L19.2181 11.5002Z" fill="var(--sui-icon-color)"/>
</symbol>
<symbol viewBox="0 0 24 24" fill="none" id="ic24-icon-emotion">
<path d="M18.364 5.63604C21.8787 9.15076 21.8787 14.8492 18.364 18.3639C14.8493 21.8787 9.1508 21.8787 5.6361 18.3639C2.12138 14.8492 2.12138 9.15074 5.6361 5.63604C9.15082 2.12132 14.8493 2.12132 18.364 5.63604" stroke="var(--sui-icon-color)" stroke-width="1.5" stroke-linecap="round" stroke-linejoin="round"/>
<path fill-rule="evenodd" clip-rule="evenodd" d="M12 17C13.667 17 15 15.667 15 14H9C9 15.667 10.333 17 12 17V17Z" stroke="var(--sui-icon-color)" stroke-width="1.5" stroke-linecap="round" stroke-linejoin="round"/>
<path d="M8.5 9V10" stroke="var(--sui-icon-color)" stroke-width="1.5" stroke-linecap="round" stroke-linejoin="round"/>
<path d="M15.5 9V10" stroke="var(--sui-icon-color)" stroke-width="1.5" stroke-linecap="round" stroke-linejoin="round"/>
</symbol>
<symbol viewBox="0 0 25 26" fill="none" id="ic25-background">
<path d="M6.65385 4.96154C5.44293 4.96154 4.46154 5.94293 4.46154 7.15385C4.46154 7.55744 4.13436 7.88462 3.73077 7.88462C3.32718 7.88462 3 7.55744 3 7.15385C3 5.13574 4.63574 3.5 6.65385 3.5C7.05744 3.5 7.38462 3.82718 7.38462 4.23077C7.38462 4.63436 7.05744 4.96154 6.65385 4.96154Z" fill="var(--sui-icon-color)"/>
<path d="M21.2692 18.1154C21.6728 18.1154 22 18.4426 22 18.8462C22 20.8643 20.3643 22.5 18.3462 22.5H6.65385C4.63574 22.5 3 20.8643 3 18.8462C3 18.4426 3.32718 18.1154 3.73077 18.1154C4.13436 18.1154 4.46154 18.4426 4.46154 18.8462C4.46154 20.0571 5.44293 21.0385 6.65385 21.0385H18.3462C19.5571 21.0385 20.5385 20.0571 20.5385 18.8462C20.5385 18.4426 20.8656 18.1154 21.2692 18.1154Z" fill="var(--sui-icon-color)"/>
<path d="M17.6154 4.23077C17.6154 3.82718 17.9426 3.5 18.3462 3.5C20.3643 3.5 22 5.13574 22 7.15385C22 7.55744 21.6728 7.88462 21.2692 7.88462C20.8656 7.88462 20.5385 7.55744 20.5385 7.15385C20.5385 5.94293 19.5571 4.96154 18.3462 4.96154C17.9426 4.96154 17.6154 4.63436 17.6154 4.23077Z" fill="var(--sui-icon-color)"/>
<path d="M4.46154 14.5833C4.46154 14.1797 4.13436 13.8526 3.73077 13.8526C3.32718 13.8526 3 14.1797 3 14.5833V15.8013C3 16.2049 3.32718 16.5321 3.73077 16.5321C4.13436 16.5321 4.46154 16.2049 4.46154 15.8013V14.5833Z" fill="var(--sui-icon-color)"/>
<path d="M3.73077 9.46795C4.13436 9.46795 4.46154 9.79513 4.46154 10.1987V11.4167C4.46154 11.8203 4.13436 12.1474 3.73077 12.1474C3.32718 12.1474 3 11.8203 3 11.4167V10.1987C3 9.79513 3.32718 9.46795 3.73077 9.46795Z" fill="var(--sui-icon-color)"/>
<path d="M22 10.1987C22 9.79513 21.6728 9.46795 21.2692 9.46795C20.8656 9.46795 20.5385 9.79513 20.5385 10.1987V11.4167C20.5385 11.8203 20.8656 12.1474 21.2692 12.1474C21.6728 12.1474 22 11.8203 22 11.4167V10.1987Z" fill="var(--sui-icon-color)"/>
<path d="M21.2692 13.8526C21.6728 13.8526 22 14.1797 22 14.5833V15.8013C22 16.2049 21.6728 16.5321 21.2692 16.5321C20.8656 16.5321 20.5385 16.2049 20.5385 15.8013V14.5833C20.5385 14.1797 20.8656 13.8526 21.2692 13.8526Z" fill="var(--sui-icon-color)"/>
<path d="M8.96795 4.23077C8.96795 3.82718 9.29513 3.5 9.69872 3.5H10.9167C11.3203 3.5 11.6474 3.82718 11.6474 4.23077C11.6474 4.63436 11.3203 4.96154 10.9167 4.96154H9.69872C9.29513 4.96154 8.96795 4.63436 8.96795 4.23077Z" fill="var(--sui-icon-color)"/>
<path d="M14.0833 3.5C13.6797 3.5 13.3526 3.82718 13.3526 4.23077C13.3526 4.63436 13.6797 4.96154 14.0833 4.96154H15.3013C15.7049 4.96154 16.0321 4.63436 16.0321 4.23077C16.0321 3.82718 15.7049 3.5 15.3013 3.5H14.0833Z" fill="var(--sui-icon-color)"/>
<path fill-rule="evenodd" clip-rule="evenodd" d="M7.01438 20.8005C7.45679 18.3467 9.88062 16.75 12.4999 16.75C15.1191 16.75 17.543 18.3467 17.9854 20.8005C18.0622 21.2267 17.826 21.6443 17.4579 21.7332C17.0897 21.8222 16.7289 21.5488 16.6521 21.1226C16.3971 19.7086 14.793 18.3266 12.4999 18.3266C10.2068 18.3266 8.60262 19.7086 8.34768 21.1226C8.27084 21.5488 7.91008 21.8222 7.5419 21.7332C7.17372 21.6443 6.93754 21.2267 7.01438 20.8005Z" fill="var(--sui-icon-color)"/>
<path fill-rule="evenodd" clip-rule="evenodd" d="M13.9849 10.7651C13.1648 9.94498 11.8352 9.94498 11.0151 10.7651C10.195 11.5852 10.195 12.9148 11.0151 13.7349C11.8352 14.555 13.1648 14.555 13.9849 13.7349C14.805 12.9148 14.805 11.5852 13.9849 10.7651ZM14.9749 9.77513C13.608 8.40829 11.392 8.40829 10.0251 9.77513C8.65829 11.142 8.65829 13.358 10.0251 14.7249C11.392 16.0917 13.608 16.0917 14.9749 14.7249C16.3417 13.358 16.3417 11.142 14.9749 9.77513Z" fill="var(--sui-icon-color)"/>
</symbol><symbol viewBox="0 0 25 26" fill="none" id="ic25-captioning">
<path fill-rule="evenodd" clip-rule="evenodd" d="M10.4094 11.4378C9.7054 10.8169 8.6371 10.8616 7.9874 11.539C7.3377 12.2164 7.3377 13.2857 7.9874 13.9631C8.6371 14.6405 9.7054 14.6852 10.4094 14.0643C10.72 13.7904 11.194 13.8201 11.4679 14.1308C11.7419 14.4414 11.7122 14.9154 11.4015 15.1893C10.0945 16.342 8.11108 16.2591 6.90482 15.0014C5.69856 13.7436 5.69856 11.7585 6.90482 10.5007C8.11108 9.243 10.0945 9.1601 11.4015 10.3128C11.7122 10.5868 11.7419 11.0607 11.4679 11.3714C11.194 11.682 10.72 11.7118 10.4094 11.4378Z" fill="var(--sui-icon-color)"/>
<path fill-rule="evenodd" clip-rule="evenodd" d="M17.4223 11.4378C16.7184 10.8169 15.6501 10.8616 15.0004 11.539C14.3507 12.2164 14.3507 13.2857 15.0004 13.9631C15.6501 14.6405 16.7184 14.6852 17.4223 14.0643C17.733 13.7904 18.2069 13.8201 18.4809 14.1308C18.7549 14.4414 18.7252 14.9154 18.4145 15.1893C17.1075 16.342 15.124 16.2591 13.9178 15.0014C12.7115 13.7436 12.7115 11.7585 13.9178 10.5007C15.124 9.243 17.1075 9.1601 18.4145 10.3128C18.7252 10.5868 18.7549 11.0607 18.4809 11.3714C18.2069 11.682 17.733 11.7118 17.4223 11.4378Z" fill="var(--sui-icon-color)"/>
<path fill-rule="evenodd" clip-rule="evenodd" d="M3.00012 7.45682C3.00012 5.27153 4.63538 3.5 6.65256 3.5H18.3477C20.3649 3.5 22.0001 5.27153 22.0001 7.45682V18.5432C22.0001 20.7285 20.3649 22.5 18.3477 22.5H6.65256C4.63537 22.5 3.00012 20.7285 3.00012 18.5432V7.45682ZM6.65256 5.08273C5.44225 5.08273 4.4611 6.14565 4.4611 7.45682V18.5432C4.4611 19.8544 5.44225 20.9173 6.65256 20.9173H18.3477C19.558 20.9173 20.5391 19.8544 20.5391 18.5432V7.45682C20.5391 6.14565 19.558 5.08273 18.3477 5.08273H6.65256Z" fill="var(--sui-icon-color)"/>
</symbol><symbol viewBox="0 0 25 26" fill="var(--sui-icon-color)" id="ic25-full-screen">
<path fill-rule="evenodd" clip-rule="evenodd" d="M13.5 7.25C13.5 6.83579 13.8358 6.5 14.25 6.5H18.25C18.6642 6.5 19 6.83579 19 7.25V11.25C19 11.6642 18.6642 12 18.25 12C17.8358 12 17.5 11.6642 17.5 11.25V8H14.25C13.8358 8 13.5 7.66421 13.5 7.25Z" fill="var(--sui-icon-color)"/>
<path fill-rule="evenodd" clip-rule="evenodd" d="M6.75 14C7.16421 14 7.5 14.3358 7.5 14.75V18H10.75C11.1642 18 11.5 18.3358 11.5 18.75C11.5 19.1642 11.1642 19.5 10.75 19.5H6.75C6.33579 19.5 6 19.1642 6 18.75V14.75C6 14.3358 6.33579 14 6.75 14Z" fill="var(--sui-icon-color)"/>
<path fill-rule="evenodd" clip-rule="evenodd" d="M3 7.45682C3 5.27153 4.63525 3.5 6.65244 3.5H18.3476C20.3647 3.5 22 5.27153 22 7.45682V18.5432C22 20.7285 20.3647 22.5 18.3476 22.5H6.65244C4.63525 22.5 3 20.7285 3 18.5432V7.45682ZM6.65244 5.08273C5.44213 5.08273 4.46098 6.14565 4.46098 7.45682V18.5432C4.46098 19.8544 5.44213 20.9173 6.65244 20.9173H18.3476C19.5579 20.9173 20.539 19.8544 20.539 18.5432V7.45682C20.539 6.14565 19.5579 5.08273 18.3476 5.08273H6.65244Z" fill="var(--sui-icon-color)"/>
</symbol><symbol viewBox="0 0 25 26" fill="none" id="ic25-gear">
<path fill-rule="evenodd" clip-rule="evenodd" d="M12.5 10.9995C11.3952 10.9995 10.4995 11.8952 10.4995 13C10.4995 14.1048 11.3952 15.0005 12.5 15.0005C13.6048 15.0005 14.5005 14.1048 14.5005 13C14.5005 11.8952 13.6048 10.9995 12.5 10.9995ZM9 13C9 11.067 10.567 9.5 12.5 9.5C14.433 9.5 16 11.067 16 13C16 14.933 14.433 16.5 12.5 16.5C10.567 16.5 9 14.933 9 13Z" fill="var(--sui-icon-color)"/>
<path d="M16.5084 7.42555L16.8738 6.77057L16.5084 7.42555C16.8277 7.60368 17.1948 7.67732 17.5582 7.63612L19.4735 7.41891C19.571 7.40785 19.6659 7.45485 19.7162 7.53908L21.0402 9.75488C21.0887 9.83594 21.0873 9.93736 21.0367 10.0171L21.6699 10.419L21.0367 10.0171L20.0462 11.5775C19.8683 11.8579 19.7737 12.1832 19.7737 12.5153V13V13.4847C19.7737 13.8168 19.8683 14.1421 20.0462 14.4225L20.6795 14.0206L20.0462 14.4225L21.0367 15.9829C21.0873 16.0626 21.0887 16.1641 21.0402 16.2451L19.7162 18.4609C19.6659 18.5451 19.571 18.5921 19.4735 18.5811L17.5582 18.3639C17.1948 18.3227 16.8277 18.3963 16.5084 18.5744L16.0941 18.8055L16.4595 19.4605L16.0941 18.8055L15.6732 19.0403C15.3611 19.2145 15.1098 19.4799 14.9531 19.8011L14.0705 21.6096C14.0286 21.6955 13.9414 21.75 13.8459 21.75H11.1326C11.0398 21.75 10.9547 21.6987 10.9115 21.6166L9.93262 19.7606C9.77461 19.461 9.53306 19.2137 9.23726 19.0487L8.8014 18.8055L8.43602 19.4605L8.8014 18.8055L8.38918 18.5756C8.06765 18.3962 7.69773 18.3228 7.33208 18.3658L5.52606 18.5784L5.61372 19.3233L5.52606 18.5784C5.42823 18.5899 5.33276 18.5429 5.28223 18.4583L3.97489 16.2704C3.9245 16.1861 3.92817 16.0801 3.98426 15.9994L5.05436 14.4609C5.25836 14.1676 5.3677 13.8189 5.3677 13.4617V13V12.5383C5.3677 12.181 5.25836 11.8323 5.05435 11.539L3.98426 10.0006C3.92817 9.91992 3.92451 9.81391 3.97489 9.72958L5.28377 7.53907C5.3341 7.45484 5.42905 7.40784 5.52655 7.4189L7.44233 7.63613C7.80565 7.67732 8.17274 7.60368 8.49206 7.42555L8.90632 7.19445L9.32717 6.95968C9.63935 6.78553 9.89071 6.51995 10.0474 6.19867L10.9296 4.39039L10.2555 4.06156L10.9296 4.39039C10.9715 4.30449 11.0587 4.25 11.1542 4.25H13.8459C13.9414 4.25 14.0286 4.30448 14.0705 4.39036L14.9531 6.19885C15.1098 6.52003 15.3611 6.78553 15.6732 6.95964L16.0941 7.19445L16.5084 7.42555Z" stroke="#555770" stroke-width="1.5"/>
</symbol><symbol viewBox="0 0 25 26" fill="none" id="ic25-jamboard">
<path d="M21.875 11.9583V20.2917C21.875 21.4427 20.9427 22.375 19.7917 22.375H5.20833C4.05729 22.375 3.125 21.4427 3.125 20.2917V5.70833C3.125 4.55729 4.05729 3.625 5.20833 3.625H13.5417" stroke="#555770" stroke-width="1.5" stroke-linecap="round" stroke-linejoin="round"/>
<path fill-rule="evenodd" clip-rule="evenodd" d="M21.5698 6.8763L10.2375 18.2086H7.29163V15.2628L18.6239 3.93047C19.0312 3.52318 19.6906 3.52318 20.0968 3.93047L21.5698 5.40339C21.977 5.81068 21.977 6.47005 21.5698 6.8763Z" stroke="#555770" stroke-width="1.5" stroke-linecap="round" stroke-linejoin="round"/>
<path d="M16.7604 5.80273L19.6979 8.74023" stroke="#555770" stroke-width="1.5" stroke-linecap="round" stroke-linejoin="round"/>
</symbol><symbol viewBox="0 0 25 26" fill="none" id="ic25-layouts">
<path fill-rule="evenodd" clip-rule="evenodd" d="M3.75 3.5C3.33579 3.5 3 3.83579 3 4.25V11.25C3 11.6642 3.33579 12 3.75 12H10.75C11.1642 12 11.5 11.6642 11.5 11.25V4.25C11.5 3.83579 11.1642 3.5 10.75 3.5H3.75ZM4.5 10.5V5H10V10.5H4.5Z" fill="var(--sui-icon-color)"/>
<path fill-rule="evenodd" clip-rule="evenodd" d="M14.25 3.5C13.8358 3.5 13.5 3.83579 13.5 4.25V11.25C13.5 11.6642 13.8358 12 14.25 12H21.25C21.6642 12 22 11.6642 22 11.25V4.25C22 3.83579 21.6642 3.5 21.25 3.5H14.25ZM15 10.5V5H20.5V10.5H15Z" fill="var(--sui-icon-color)"/>
<path fill-rule="evenodd" clip-rule="evenodd" d="M3 14.75C3 14.3358 3.33579 14 3.75 14H10.75C11.1642 14 11.5 14.3358 11.5 14.75V21.75C11.5 22.1642 11.1642 22.5 10.75 22.5H3.75C3.33579 22.5 3 22.1642 3 21.75V14.75ZM4.5 15.5V21H10V15.5H4.5Z" fill="var(--sui-icon-color)"/>
<path fill-rule="evenodd" clip-rule="evenodd" d="M14.25 14C13.8358 14 13.5 14.3358 13.5 14.75V21.75C13.5 22.1642 13.8358 22.5 14.25 22.5H21.25C21.6642 22.5 22 22.1642 22 21.75V14.75C22 14.3358 21.6642 14 21.25 14H14.25ZM15 21V15.5H20.5V21H15Z" fill="var(--sui-icon-color)"/>
</symbol><symbol viewBox="0 0 25 26" fill="none" id="ic25-record">
<circle cx="12.5" cy="11" r="2.5" fill="var(--sui-icon-color)"/>
<path fill-rule="evenodd" clip-rule="evenodd" d="M6.23536 4.5C4.55792 4.5 2.99951 5.67294 2.99951 7.34432V14.6557C2.99951 16.3271 4.55792 17.5 6.23536 17.5H9.962L9.58473 20.5182C9.24978 20.5933 8.99951 20.8924 8.99951 21.25C8.99951 21.6642 9.3353 22 9.74951 22H10.1736C10.225 22.0052 10.2757 22.005 10.3253 22H15.1966C15.231 22.0024 15.266 22.0025 15.3012 22H15.7495C16.1637 22 16.4995 21.6642 16.4995 21.25C16.4995 20.8923 16.2491 20.593 15.9139 20.5181L15.5367 17.5H18.7637C20.4413 17.5 21.9995 16.3269 21.9995 14.6549V7.34432C21.9995 5.67278 20.4409 4.5 18.7627 4.5H6.23536ZM4.46105 7.34432C4.46105 6.67156 5.14562 5.94444 6.23536 5.94444H18.7627C19.8536 5.94444 20.538 6.67173 20.538 7.34432V14.6549C20.538 15.3286 19.8532 16.0556 18.7637 16.0556H6.23536C5.14562 16.0556 4.46105 15.3284 4.46105 14.6557V7.34432ZM14.4 20.5L14.025 17.5H11.4737L11.0987 20.5H14.4Z" fill="var(--sui-icon-color)"/>
</symbol><symbol viewBox="0 0 25 26" fill="none" id="ic25-report">
<path fill-rule="evenodd" clip-rule="evenodd" d="M18.5001 5.00011L14.4227 7.86933C14.298 7.95453 14.1505 8.00011 13.9995 8.00011H7.50012C5.70341 8.00011 4.00012 9.20341 4.00012 11.0001V12.0001C4.00012 13.7972 5.70478 15.0027 7.50012 15.0027L13.9997 15.0047C14.1507 15.0047 14.2981 15.0503 14.4227 15.1355L18.5003 18.0651C19.3298 18.6327 20.4574 18.0386 20.4574 17.0326V6.03346C20.4574 5.0277 19.3309 4.43291 18.5001 5.00011ZM17.6541 3.76144C19.4805 2.51407 21.9574 3.82195 21.9574 6.03346V17.0326C21.9574 19.2439 19.4795 20.5523 17.6539 19.3035L13.7676 16.5046L7.50012 16.5027C4.87572 16.5026 2.50012 14.6248 2.50012 12.0001V11.0001C2.50012 8.37499 4.87499 6.50011 7.50012 6.50011H13.7677L17.6541 3.76144Z" fill="var(--sui-icon-color)"/>
<path fill-rule="evenodd" clip-rule="evenodd" d="M13.7504 6.75C14.1646 6.75 14.5004 7.08579 14.5004 7.5V15.5C14.5004 15.9142 14.1646 16.25 13.7504 16.25C13.3362 16.25 13.0004 15.9142 13.0004 15.5V7.5C13.0004 7.08579 13.3362 6.75 13.7504 6.75Z" fill="var(--sui-icon-color)"/>
<path fill-rule="evenodd" clip-rule="evenodd" d="M9.75883 15.3035C10.1443 15.1519 10.5797 15.3413 10.7314 15.7268L11.7208 18.2408C12.3794 19.9161 11.1615 21.7535 9.35021 21.7535C8.30424 21.7535 7.36755 21.1107 6.98228 20.1374L5.00012 15.4211C5.00012 15.4211 5.26689 15.1528 5.65197 15.0002C6.03704 14.8476 6.47292 15.036 6.62554 15.4211L8.37675 19.5847C8.53781 19.9918 8.92571 20.2535 9.35021 20.2535C10.0819 20.2535 10.6046 19.5018 10.325 18.7902L9.3356 16.2761C9.18391 15.8907 9.3734 15.4552 9.75883 15.3035Z" fill="var(--sui-icon-color)"/>
</symbol>
<symbol viewBox="0 0 20 20" fill="none" id="ic20-micro-mute" xmlns="http://www.w3.org/2000/svg">
<path fill-rule="evenodd" clip-rule="evenodd" d="M4.6875 9.24622C5.10171 9.24622 5.4375 9.582 5.4375 9.99622C5.4375 12.5158 7.48046 14.5587 10 14.5587C12.5195 14.5587 14.5625 12.5158 14.5625 9.99622C14.5625 9.582 14.8983 9.24622 15.3125 9.24622C15.7267 9.24622 16.0625 9.582 16.0625 9.99622C16.0625 13.3442 13.348 16.0587 10 16.0587C6.65204 16.0587 3.9375 13.3442 3.9375 9.99622C3.9375 9.582 4.27329 9.24622 4.6875 9.24622Z" fill="var(--sui-icon-color)"/>
<path fill-rule="evenodd" clip-rule="evenodd" d="M8.1084 3.18038C8.62716 2.58374 9.32889 2.37622 10 2.37622C11.4492 2.37622 12.625 3.55201 12.625 5.00122V9.24473C12.625 9.65894 12.2892 9.99473 11.875 9.99473C11.4608 9.99473 11.125 9.65894 11.125 9.24473V5.00122C11.125 4.38043 10.6208 3.87622 10 3.87622C9.63611 3.87622 9.40034 3.98059 9.24035 4.16459C9.06479 4.3665 8.875 4.78504 8.875 5.625C8.875 6.03921 8.53921 6.375 8.125 6.375C7.71079 6.375 7.375 6.03921 7.375 5.625C7.375 4.58996 7.60521 3.75911 8.1084 3.18038ZM8.125 8.625C8.53921 8.625 8.875 8.96079 8.875 9.375V10.0425C8.875 10.6633 9.37921 11.1675 10 11.1675C10.4142 11.1675 10.75 11.5033 10.75 11.9175C10.75 12.3317 10.4142 12.6675 10 12.6675C8.55079 12.6675 7.375 11.4917 7.375 10.0425V9.375C7.375 8.96079 7.71079 8.625 8.125 8.625Z" fill="var(--sui-icon-color)"/>
<path fill-rule="evenodd" clip-rule="evenodd" d="M9.75 14.5625C10.1642 14.5625 10.5 14.8983 10.5 15.3125V17.1C10.5 17.5142 10.1642 17.85 9.75 17.85C9.33579 17.85 9 17.5142 9 17.1V15.3125C9 14.8983 9.33579 14.5625 9.75 14.5625Z" fill="var(--sui-icon-color)"/>
<path fill-rule="evenodd" clip-rule="evenodd" d="M3.84467 5.09467C4.13756 4.80178 4.61244 4.80178 4.90533 5.09467L15.5303 15.7197C15.8232 16.0126 15.8232 16.4874 15.5303 16.7803C15.2374 17.0732 14.7626 17.0732 14.4697 16.7803L3.84467 6.15533C3.55178 5.86244 3.55178 5.38756 3.84467 5.09467Z" fill="var(--sui-icon-color)"/>
</symbol>
<symbol viewBox="0 0 25 26" fill="none" id="ic25-sharing" xmlns="http://www.w3.org/2000/svg">
<path fill-rule="evenodd" clip-rule="evenodd" d="M21.1565 9.58603L19.2528 8.41256V6.25419L21.1565 5.08071C21.328 4.97501 21.5432 4.97037 21.7191 5.06856C21.895 5.16675 22.004 5.35242 22.004 5.55384V9.11291C22.004 9.31434 21.895 9.5 21.7191 9.59819C21.5432 9.69638 21.328 9.69173 21.1565 9.58603V9.58603Z" stroke="var(--sui-icon-color)" stroke-width="1.5" stroke-linecap="round" stroke-linejoin="round"/>
<rect x="13.0009" y="4.5" width="6.2526" height="5.66903" rx="1.25" stroke="var(--sui-icon-color)" stroke-width="1.5" stroke-linecap="round" stroke-linejoin="round"/>
<path fill-rule="evenodd" clip-rule="evenodd" d="M2.99951 7.34519C2.99951 5.67381 4.55792 4.50087 6.23536 4.50087H10C10 4.50087 11 4.44533 11 5.22309C11 6.00085 10 5.94531 10 5.94531H6.23536C5.14562 5.94531 4.46105 6.67243 4.46105 7.34519V14.6565C4.46105 15.3293 5.14562 16.0564 6.23536 16.0564H18.7637C19.8532 16.0564 20.538 15.3295 20.538 14.6557L20.5 12.5009C20.5 12.5009 20.4998 11.5009 21.2687 11.5009C22 11.5009 22 12.5009 22 12.5009L21.9995 14.6557C21.9995 16.3278 20.4413 17.5009 18.7637 17.5009H15.5367L15.9139 20.5189C16.2491 20.5939 16.4995 20.8931 16.4995 21.2509C16.4995 21.6651 16.1637 22.0009 15.7495 22.0009H15.3012C15.266 22.0033 15.231 22.0033 15.1966 22.0009H10.3253C10.2757 22.0059 10.225 22.0061 10.1736 22.0009H9.74951C9.3353 22.0009 8.99951 21.6651 8.99951 21.2509C8.99951 20.8933 9.24978 20.5941 9.58473 20.519L9.962 17.5009H6.23536C4.55792 17.5009 2.99951 16.3279 2.99951 14.6565V7.34519ZM14.025 17.5009L14.4 20.5009H11.0987L11.4737 17.5009H14.025Z" fill="var(--sui-icon-color)"/>
</symbol>
<symbol viewBox="0 0 25 26" fill="none" id="ic25-screen" xmlns="http://www.w3.org/2000/svg">
<path fill-rule="evenodd" clip-rule="evenodd" d="M6.23536 4.5C4.55792 4.5 2.99951 5.67294 2.99951 7.34432V14.6557C2.99951 16.3271 4.55792 17.5 6.23536 17.5H9.962L9.58473 20.5182C9.24978 20.5933 8.99951 20.8924 8.99951 21.25C8.99951 21.6642 9.3353 22 9.74951 22H10.1736C10.225 22.0052 10.2757 22.005 10.3253 22H15.1966C15.231 22.0024 15.266 22.0025 15.3012 22H15.7495C16.1637 22 16.4995 21.6642 16.4995 21.25C16.4995 20.8923 16.2491 20.593 15.9139 20.5181L15.5367 17.5H18.7637C20.4413 17.5 21.9995 16.3269 21.9995 14.6549V7.34432C21.9995 5.67278 20.4409 4.5 18.7627 4.5H6.23536ZM4.46105 7.34432C4.46105 6.67156 5.14562 5.94444 6.23536 5.94444H18.7627C19.8536 5.94444 20.538 6.67173 20.538 7.34432V14.6549C20.538 15.3286 19.8532 16.0556 18.7637 16.0556H6.23536C5.14562 16.0556 4.46105 15.3284 4.46105 14.6557V7.34432ZM14.4 20.5L14.025 17.5H11.4737L11.0987 20.5H14.4Z" fill="var(--sui-icon-color)"/>
</symbol>
    <symbol width="20" height="20" viewBox="0 0 20 20" fill="none" id="ic20-chevron-right" xmlns="http://www.w3.org/2000/svg">
        <path d="M7.30685 14.7268C6.91331 14.3509 6.88242 13.8276 7.30685 13.3681L10.6131 9.99898L7.30685 6.62988C6.88242 6.17038 6.9133 5.64622 7.30685 5.27293C7.69951 4.89705 8.36306 4.92119 8.7319 5.27293C9.10074 5.62294 12.7044 9.3205 12.7044 9.3205C12.9012 9.50758 13 9.75328 13 9.99898C13 10.2447 12.9012 10.4904 12.7044 10.6792C12.7044 10.6792 9.10074 14.375 8.7319 14.7268C8.36306 15.0794 7.69951 15.1026 7.30685 14.7268Z" fill="#555770"/>
    </symbol>
    <symbol width="40" height="38" viewBox="0 0 40 38" fill="none" id="star" xmlns="http://www.w3.org/2000/svg">
        <path d="M18.2291 1.11188C18.9385 -0.37063 21.0615 -0.370628 21.7709 1.11189L26.3049 10.5874C26.5908 11.1848 27.162 11.5973 27.822 11.6829L38.2905 13.0405C39.9284 13.2529 40.5844 15.2595 39.385 16.3882L31.7187 23.602C31.2353 24.0568 31.0171 24.7242 31.1392 25.3745L33.075 35.6891C33.3779 37.3029 31.6604 38.543 30.2097 37.7581L20.9376 32.7409C20.3531 32.4246 19.6469 32.4246 19.0624 32.7409L9.79027 37.7581C8.33959 38.5431 6.6221 37.3029 6.92497 35.6891L8.86081 25.3745C8.98286 24.7242 8.76466 24.0568 8.28131 23.602L0.615018 16.3882C-0.584429 15.2595 0.0715978 13.2529 1.70947 13.0405L12.178 11.6829C12.838 11.5973 13.4092 11.1848 13.6951 10.5874L18.2291 1.11188Z" fill="var(--sui-icon-color)"/>
    </symbol>
</svg>