<svg width="16" height="17" viewBox="0 0 16 17" fill="none" xmlns="http://www.w3.org/2000/svg">
<path fill-rule="evenodd" clip-rule="evenodd" d="M4.29201 6.79294C4.1052 6.98183 4.00043 7.23678 4.00043 7.50244C4.00043 7.7681 4.1052 8.02305 4.29201 8.21194L7.23101 11.1769C7.44901 11.3919 7.73101 11.4989 8.01001 11.4989C8.28901 11.4989 8.56601 11.3919 8.77901 11.1769L11.709 8.22194C11.8956 8.03292 12.0002 7.77803 12.0002 7.51244C12.0002 7.24686 11.8956 6.99196 11.709 6.80294C11.6172 6.70976 11.5077 6.63576 11.387 6.58525C11.2664 6.53474 11.1368 6.50873 11.006 6.50873C10.8752 6.50873 10.7457 6.53474 10.625 6.58525C10.5043 6.63576 10.3948 6.70976 10.303 6.80294L8.00501 9.11994L5.69801 6.79294C5.60597 6.70012 5.49646 6.62644 5.3758 6.57617C5.25514 6.52589 5.12572 6.5 4.99501 6.5C4.86429 6.5 4.73487 6.52589 4.61421 6.57617C4.49355 6.62644 4.38404 6.70012 4.29201 6.79294Z" fill="#555770"/>
</svg>
