<svg width="20" height="20" viewBox="0 0 20 20" fill="none" xmlns="http://www.w3.org/2000/svg">
<path fill-rule="evenodd" clip-rule="evenodd" d="M16.0625 16C16.5803 16 17 16.3358 17 16.75C17 17.1642 16.5803 17.5 16.0625 17.5H2.9375C2.41973 17.5 2 17.1642 2 16.75C2 16.3358 2.41973 16 2.9375 16H16.0625Z" fill="white"/>
<path d="M13.6464 3.35355L7.14645 9.85355C7.05268 9.94732 7 10.0745 7 10.2071V12.5C7 12.7761 7.22386 13 7.5 13H9.79289C9.9255 13 10.0527 12.9473 10.1464 12.8536L16.6464 6.35355C16.8417 6.15829 16.8417 5.84171 16.6464 5.64645L14.3536 3.35355C14.1583 3.15829 13.8417 3.15829 13.6464 3.35355Z" stroke="white" stroke-width="1.5"/>
</svg>
